G04 DipTrace 3.2.0.1*
G04 Plated_Through.gbr*
%MOIN*%
G04 #@! TF.FileFunction,Plated,1,2,PTH,Drill*
G04 #@! TF.Part,Single*
G04 Drill Symbols*
G04 D=0.015748 - Cross*
G04 D=0.027559 - X*
G04 D=0.035433 - Y*
G04 D=0.03937 - T*
G04 D=0.043307 - V*
G04 D=0.07874 - Clock*
G04 D=0.11811 - Box_Cross*
%ADD10C,0.007874*%
%FSLAX26Y26*%
G04*
G70*
G90*
G75*
G01*
X782579Y1179823D2*
D10*
X806201Y1156201D1*
X829823Y1179823D1*
X806201Y1156201D2*
Y1132579D1*
X782579Y1376673D2*
X806201Y1353051D1*
X829823Y1376673D1*
X806201Y1353051D2*
Y1329429D1*
X3371014Y989567D2*
X3418259Y942323D1*
Y989567D2*
X3371014Y942323D1*
Y910827D2*
X3418259Y863583D1*
Y910827D2*
X3371014Y863583D1*
Y832087D2*
X3418259Y784843D1*
Y832087D2*
X3371014Y784843D1*
X767717Y2200787D2*
Y2177165D1*
X791339D1*
X767717Y1866142D2*
Y1842520D1*
X791339D1*
X3169291Y1866142D2*
Y1842520D1*
X3192913D1*
X3169291Y2200787D2*
Y2177165D1*
X3192913D1*
X1031201Y998573D2*
Y951329D1*
X1007579Y974951D2*
X1054823D1*
X3082677Y881890D2*
Y834646D1*
X3059055Y858268D2*
X3106299D1*
X1641732Y842520D2*
Y795276D1*
X1618110Y818898D2*
X1665354D1*
X2056201Y542323D2*
Y495079D1*
X2032579Y518701D2*
X2079823D1*
X2956693Y535433D2*
Y488189D1*
X2933071Y511811D2*
X2980315D1*
X1106126Y611052D2*
Y563808D1*
X1082504Y587430D2*
X1129748D1*
X1568701Y561073D2*
Y513829D1*
X1545079Y537451D2*
X1592323D1*
X3062450Y561073D2*
Y513829D1*
X3038828Y537451D2*
X3086072D1*
X1893543Y648549D2*
Y601304D1*
X1869921Y624927D2*
X1917165D1*
X1493701Y917323D2*
Y870079D1*
X1470079Y893701D2*
X1517323D1*
X2774950Y1004823D2*
Y957579D1*
X2751328Y981201D2*
X2798572D1*
X2356201Y1917323D2*
Y1870079D1*
X2332579Y1893701D2*
X2379823D1*
X1249861Y817281D2*
Y770037D1*
X1226239Y793659D2*
X1273483D1*
X1256110Y1135997D2*
Y1088753D1*
X1232488Y1112375D2*
X1279732D1*
X937450Y823573D2*
Y776329D1*
X913828Y799951D2*
X961072D1*
X1994908Y1331102D2*
X2042152D1*
X2018530D2*
Y1307480D1*
X2551100Y1343601D2*
X2598344D1*
X2574722D2*
Y1319979D1*
X2170079Y2168701D2*
X2217323D1*
X2193701D2*
Y2145079D1*
X1381201Y1154823D2*
Y1107579D1*
X1357579Y1131201D2*
X1404823D1*
X1431201Y629823D2*
Y582579D1*
X1407579Y606201D2*
X1454823D1*
X2306201Y598573D2*
Y551329D1*
X2282579Y574951D2*
X2329823D1*
X2443701Y629823D2*
Y582579D1*
X2420079Y606201D2*
X2467323D1*
X2637450Y661073D2*
Y613829D1*
X2613828Y637451D2*
X2661072D1*
X2824950Y817323D2*
Y770079D1*
X2801328Y793701D2*
X2848572D1*
X1368701Y879823D2*
Y832579D1*
X1345079Y856201D2*
X1392323D1*
X1045079Y2618701D2*
X1092323D1*
X1068701D2*
Y2595079D1*
X795079Y2618701D2*
X842323D1*
X818701D2*
Y2595079D1*
X920079Y2618701D2*
X967323D1*
X943701D2*
Y2595079D1*
X1045079Y2493701D2*
X1092323D1*
X1068701D2*
Y2470079D1*
X795079Y2493701D2*
X842323D1*
X818701D2*
Y2470079D1*
X920079Y2493701D2*
X967323D1*
X943701D2*
Y2470079D1*
X670079Y2493701D2*
X717323D1*
X693701D2*
Y2470079D1*
X2220079Y2618701D2*
X2267323D1*
X2243701D2*
Y2595079D1*
X1645079Y2618701D2*
X1692323D1*
X1668701D2*
Y2595079D1*
X2220079Y2493701D2*
X2267323D1*
X2243701D2*
Y2470079D1*
X1645079Y2493701D2*
X1692323D1*
X1668701D2*
Y2470079D1*
M02*
