M48
INCH
T01C0.0157
T02C0.0276
T03C0.0354
T04C0.0394
T05C0.0433
T06C0.0787
T07C0.1181
%
T01
X+010312Y+009750
X+009375Y+008000
X+011061Y+005874
X+012499Y+007937
X+013687Y+008562
X+014937Y+008937
X+016417Y+008189
X+015687Y+005375
X+014312Y+006062
X+018935Y+006249
X+020562Y+005187
X+023062Y+005750
X+024437Y+006062
X+026375Y+006375
X+028250Y+007937
X+027750Y+009812
X+030827Y+008583
X+030625Y+005375
X+029567Y+005118
X+023562Y+018937
X+013812Y+011312
X+012561Y+011124
T02
X+033946Y+009659
X+033946Y+008872
X+033946Y+008085
T03
X+008062Y+011562
X+008062Y+013531
T04
X+020185Y+013311
X+025747Y+013436
X+021937Y+021687
X+022437Y+024937
X+022437Y+026187
X+016687Y+026187
X+016687Y+024937
X+010687Y+024937
X+009437Y+024937
X+008187Y+024937
X+008187Y+026187
X+009437Y+026187
X+010687Y+026187
X+006937Y+024937
T05
X+033277Y+010250
T06
X+007677Y+021772
X+007677Y+018425
X+031693Y+018425
X+031693Y+021772
T07
X+005437Y+005437
X+005437Y+026937
X+033937Y+026937
X+033937Y+005437
T00
M30
