G04 DipTrace 3.2.0.1*
G04 Top.gbr*
%MOIN*%
G04 #@! TF.FileFunction,Copper,L1,Top*
G04 #@! TF.Part,Single*
%AMOUTLINE0*
4,1,8,
0.208661,0.077756,
0.147638,0.077756,
0.147638,-0.166339,
-0.147638,-0.166339,
-0.147638,0.077756,
-0.208661,0.077756,
-0.208661,0.166339,
0.208661,0.166339,
0.208661,0.077756,
0*%
%AMOUTLINE3*
4,1,5,
-0.005906,-0.016732,
-0.005906,0.016732,
0.001969,0.016732,
0.005906,0.012795,
0.005906,-0.016732,
-0.005906,-0.016732,
0*%
%AMOUTLINE6*
4,1,5,
0.005906,-0.016732,
0.005906,0.016732,
-0.005906,0.016732,
-0.005906,-0.012795,
-0.001969,-0.016732,
0.005906,-0.016732,
0*%
%AMOUTLINE9*
4,1,5,
-0.016732,-0.005906,
0.016732,-0.005906,
0.016732,0.001969,
0.012795,0.005906,
-0.016732,0.005906,
-0.016732,-0.005906,
0*%
%AMOUTLINE12*
4,1,5,
0.016732,0.005906,
-0.016732,0.005906,
-0.016732,-0.001969,
-0.012795,-0.005906,
0.016732,-0.005906,
0.016732,0.005906,
0*%
%AMOUTLINE15*
4,1,5,
0.005906,0.016732,
0.005906,-0.016732,
-0.005906,-0.016732,
-0.005906,0.012795,
-0.001969,0.016732,
0.005906,0.016732,
0*%
%AMOUTLINE18*
4,1,5,
-0.005906,-0.016732,
-0.005906,0.016732,
0.005906,0.016732,
0.005906,-0.012795,
0.001969,-0.016732,
-0.005906,-0.016732,
0*%
%AMOUTLINE21*
4,1,5,
-0.016732,0.005906,
0.016732,0.005906,
0.016732,-0.001969,
0.012795,-0.005906,
-0.016732,-0.005906,
-0.016732,0.005906,
0*%
%AMOUTLINE24*
4,1,5,
0.016732,-0.005906,
-0.016732,-0.005906,
-0.016732,0.001969,
-0.012795,0.005906,
0.016732,0.005906,
0.016732,-0.005906,
0*%
G04 #@! TA.AperFunction,Conductor*
%ADD13C,0.011811*%
%ADD14C,0.015748*%
%ADD15C,0.007874*%
G04 #@! TA.AperFunction,ViaPad*
%ADD16C,0.07874*%
G04 #@! TA.AperFunction,Conductor*
%ADD17C,0.15748*%
%ADD18C,0.11811*%
G04 #@! TA.AperFunction,CopperBalancing*
%ADD20C,0.025*%
%ADD21R,0.059055X0.059055*%
%ADD22R,0.03937X0.043307*%
G04 #@! TA.AperFunction,ComponentPad*
%ADD23C,0.059055*%
%ADD25R,0.062992X0.031496*%
%ADD26R,0.051181X0.059055*%
G04 #@! TA.AperFunction,ComponentPad*
%ADD27R,0.047244X0.047244*%
%ADD28C,0.047244*%
%ADD29R,0.19685X0.19685*%
%ADD30C,0.19685*%
%ADD32R,0.025591X0.041339*%
%ADD33R,0.051181X0.122047*%
%ADD35R,0.033465X0.011811*%
%ADD36R,0.011811X0.033465*%
%ADD37R,0.110236X0.110236*%
%ADD39R,0.015748X0.035433*%
%ADD40R,0.03937X0.035433*%
G04 #@! TA.AperFunction,ViaPad*
%ADD42C,0.027559*%
%ADD86OUTLINE0*%
%ADD89OUTLINE3*%
%ADD92OUTLINE6*%
%ADD95OUTLINE9*%
%ADD98OUTLINE12*%
%ADD101OUTLINE15*%
%ADD104OUTLINE18*%
%ADD107OUTLINE21*%
%ADD110OUTLINE24*%
%FSLAX26Y26*%
G04*
G70*
G90*
G75*
G01*
G04 Top*
%LPD*%
X1464567Y822835D2*
D13*
Y798228D1*
D14*
Y724409D1*
X1472441Y716535D1*
X1007874Y586614D2*
X1105310D1*
X1106126Y587430D1*
X1472441Y716535D2*
X1391465D1*
X1368598Y693669D1*
X1133858D1*
X1056131D1*
X1006136Y643675D1*
Y588352D1*
X1007874Y586614D1*
X1133858Y838583D2*
Y693669D1*
X1593701Y892520D2*
D15*
X2934252D1*
X2937008Y889764D1*
Y905759D1*
X3031201Y999951D1*
X3281890D1*
X3394636Y887205D1*
X1568701Y537451D2*
D14*
Y603346D1*
X1614961Y649606D1*
X1484252Y822835D2*
D15*
Y775984D1*
X1543701Y716535D1*
D14*
X1548031D1*
X1614961Y649606D1*
X1686220D1*
X1899793Y467824D2*
X2311381D1*
X2349745D1*
X1614961Y649606D2*
Y641037D1*
X1788173Y467824D1*
X1899793D1*
X2974409Y799213D2*
Y737685D1*
X2993428Y718667D1*
Y659601D1*
X2991307Y657480D1*
X2349745Y467824D2*
X2524727D1*
X2967562D1*
X2991307Y491570D1*
Y657480D1*
X2524727Y550811D2*
Y467824D1*
X2127143Y562008D2*
X2224759D1*
X1472441Y649606D2*
X1543701D1*
X806201Y1353051D2*
X1088780D1*
X1199950Y1241881D1*
X976378Y838583D2*
X937747Y799951D1*
X937450D1*
X2062205Y1216142D2*
D16*
Y1287428D1*
X2018530Y1331102D1*
X2625197Y1216142D2*
Y1293126D1*
X2574722Y1343601D1*
X1343701Y1174951D2*
D14*
Y1168701D1*
X1381201Y1131201D1*
X1431201Y606201D2*
Y608366D1*
X1472441Y649606D1*
X2224759Y562008D2*
X2293257D1*
X2306201Y574951D1*
X2473546Y637425D2*
X2443701Y606201D1*
X2605969Y673486D2*
Y668933D1*
X2637450Y637451D1*
X2783789Y748289D2*
Y752539D1*
X2824950Y793701D1*
X1433858Y872835D2*
D15*
X1385335D1*
X1368701Y856201D1*
X1523622Y981890D2*
Y923622D1*
X1493701Y893701D1*
X1543307Y981890D2*
Y900345D1*
X1549951Y893701D1*
X1493701D1*
X1593701Y912205D2*
X1512205D1*
X1493701Y893701D1*
X1433858Y872835D2*
X1484252D1*
X1513780Y902362D1*
X2525197Y1622638D2*
D17*
Y1706063D1*
X3032835D1*
X3169291Y1842520D1*
X2625197Y2098031D2*
D18*
Y1722638D1*
X2525197Y1622638D1*
X1593701Y951575D2*
D15*
X2651575D1*
X2718457Y1018457D1*
Y1475194D1*
X2571013Y1622638D1*
X2525197D1*
X2062205Y2098031D2*
D18*
Y1722638D1*
X1962205Y1622638D1*
X1484252Y981890D2*
D15*
Y1209253D1*
X1687450Y1412451D1*
X1752018D1*
X1962205Y1622638D1*
X2062205Y2098031D2*
D18*
X2132874Y2168701D1*
X2193701D1*
X2605969Y756163D2*
D15*
X2649714Y712417D1*
X2712207D1*
X2730955Y693669D1*
Y656173D1*
X2768451Y618677D1*
X2812197D1*
X2830945Y637425D1*
Y704927D1*
X2874307Y748289D1*
X2029528Y562008D2*
Y545374D1*
X2056201Y518701D1*
X3011811Y889764D2*
X3051181D1*
X3082677Y858268D1*
X2953906Y566929D2*
Y514598D1*
X2956693Y511811D1*
X2874307Y681360D2*
Y625310D1*
X2937184Y562433D1*
X2949409D1*
X2953906Y566929D1*
X1862205Y2098031D2*
Y2068433D1*
X1618701Y1824929D1*
Y1456201D1*
X1464567Y1302067D1*
Y981890D1*
X1562992D2*
Y1025492D1*
X1606201Y1068701D1*
X1687451D1*
X1756201Y999951D1*
X2243571D1*
X2405990Y1162370D1*
X2425197D1*
Y1216142D1*
X1503937Y981890D2*
Y1153937D1*
X1568614Y1218614D1*
X1859732D1*
X1862205Y1216142D1*
X1212598Y838583D2*
X1213581D1*
X1249950Y874951D1*
Y943701D1*
X1262450Y956201D1*
X1343701D1*
X1368701Y931201D1*
X1433169D1*
X1433858Y931890D1*
X1212598Y838583D2*
Y830921D1*
X1249861Y793659D1*
X1274950Y1174951D2*
Y1131215D1*
X1256110Y1112375D1*
X1291339Y905512D2*
X1293012D1*
X1318701Y931201D1*
X1343701D1*
X1362450Y912451D1*
X1433612D1*
X1433858Y912205D1*
X1291339Y838583D2*
X1294832D1*
X1349950Y893701D1*
X1432677D1*
X1433858Y892520D1*
X933071Y586614D2*
X932038D1*
X881201Y637451D1*
Y810335D1*
X976378Y905512D1*
X2127143Y628937D2*
X2029528D1*
X2127143D2*
Y702293D1*
X2256005Y831155D1*
X2449735D1*
X2524727Y756163D1*
Y637425D1*
X2029528Y628937D2*
Y720168D1*
X1974785Y774911D1*
X1899793D1*
X1133858Y905512D2*
Y897294D1*
X1168701Y862451D1*
Y806201D1*
X1231238Y743664D1*
X1293663D1*
X1399950Y849951D1*
X1430660D1*
X1433858Y853150D1*
X2224759Y628937D2*
Y706168D1*
X2287252Y768661D1*
X2343496D1*
X2349745Y774911D1*
X2499136Y637425D2*
Y731759D1*
X2462234Y768661D1*
X2355995D1*
X2349745Y774911D1*
X2680772Y756163D2*
X2708986D1*
X2783789Y681360D1*
X2473546Y550811D2*
Y567496D1*
X2499730Y593680D1*
X2543475D1*
X2562223Y612428D1*
Y781160D1*
X2587220Y806157D1*
X2630777D1*
X2680772Y756163D1*
X1243701Y1512451D2*
D14*
Y1443701D1*
X1343701Y1343701D1*
Y1241881D1*
X1318504Y1512451D2*
X1381201D1*
X1406201Y1487451D1*
X1477560D1*
X1481201Y1491092D1*
X1379528Y2504528D2*
D18*
Y2612218D1*
X1962205D1*
Y2504528D1*
Y2612218D2*
X2525197D1*
Y2504528D1*
X806201Y1156201D2*
D15*
X999807D1*
X1090567Y1065441D1*
X1127450Y1028558D1*
X1168619Y987388D1*
X1212598D1*
X1356100D1*
X1393596Y949892D1*
X1432176D1*
X1433858Y951575D1*
X1212598Y905512D2*
Y987388D1*
X1055118Y838583D2*
Y842640D1*
X1093627Y881150D1*
Y994735D1*
X1127450Y1028558D1*
X806201Y1156201D2*
D18*
X537450Y1424951D1*
Y2337450D1*
X812218Y2612218D1*
X1379528D1*
X1199950Y1174951D2*
D15*
Y1174824D1*
X1090567Y1065441D1*
X1593701Y931890D2*
X2725639D1*
X2774950Y981201D1*
X2425197Y2098031D2*
Y1962697D1*
X2356201Y1893701D1*
X1281102Y1603003D2*
D14*
Y2096457D1*
X1279528Y2098031D1*
X1274950Y1241881D2*
Y1331202D1*
X1181201Y1424951D1*
Y1543702D1*
X1237450Y1599951D1*
X1278051D1*
X1281102Y1603003D1*
X1503937Y822835D2*
D15*
Y795965D1*
X1537450Y762451D1*
X1569045D1*
X1614961Y716535D1*
X1593701Y853150D2*
X1607480D1*
X1641732Y818898D1*
X1055118Y905512D2*
Y919783D1*
X1031201Y943701D1*
Y974951D1*
X3394636Y808465D2*
X3385186D1*
X3262450Y931201D1*
X3218699D1*
X3149950Y862451D1*
Y688171D1*
X3028709Y566929D1*
X3032972D1*
X3062450Y537451D1*
X1593701Y872835D2*
X1645635D1*
X1893543Y624927D1*
X1523622Y822835D2*
Y801280D1*
X1543701Y781201D1*
X1621555D1*
X1686220Y716535D1*
X767717Y2177165D2*
D16*
Y2168514D1*
X1024885D1*
X1099877Y2243507D1*
X1406094D1*
X1479528Y2170073D1*
Y2098031D1*
D14*
Y1626623D1*
X1481201Y1624950D1*
D42*
X1031201Y974951D3*
X3082677Y858268D3*
X1641732Y818898D3*
X2056201Y518701D3*
X2956693Y511811D3*
X1106126Y587430D3*
X1568701Y537451D3*
X3062450D3*
X1893543Y624927D3*
X1493701Y893701D3*
X2774950Y981201D3*
X2356201Y1893701D3*
X1249861Y793659D3*
X1256110Y1112375D3*
X937450Y799951D3*
D16*
X2018530Y1331102D3*
X2574722Y1343601D3*
X2193701Y2168701D3*
D42*
X1381201Y1131201D3*
X1431201Y606201D3*
X2306201Y574951D3*
X2443701Y606201D3*
X2637450Y637451D3*
X2824950Y793701D3*
X1368701Y856201D3*
D16*
X1068701Y2618701D3*
X818701D3*
X943701D3*
X1068701Y2493701D3*
X818701D3*
X943701D3*
X693701D3*
X2243701Y2618701D3*
X1668701D3*
X2243701Y2493701D3*
X1668701D3*
X828981Y1162583D2*
D20*
X1093435D1*
X816565Y1137714D2*
X1119415D1*
X804113Y1112845D2*
X1145432D1*
X1088316Y1087976D2*
X1171448D1*
X1113148Y1063108D2*
X1197428D1*
X1138016Y1038239D2*
X1340462D1*
X1162847Y1013370D2*
X1363930D1*
X1375174Y988501D2*
X1387428D1*
X1396914Y964287D2*
X1412775D1*
X1331941Y1049905D1*
X1217020Y1050065D1*
X1214175Y1050800D1*
X1211580Y1052178D1*
X1203422Y1059768D1*
X1069923Y1187462D1*
X838940Y1187451D1*
X801411Y1112421D1*
X1057190Y1112412D1*
X1060071Y1111837D1*
X1062739Y1110605D1*
X1065045Y1108785D1*
X1173804Y999886D1*
X1358055Y999735D1*
X1360883Y998937D1*
X1363447Y997501D1*
X1371434Y989732D1*
X1396884Y964282D1*
X833210Y2631332D2*
X2728708D1*
X814084Y2606463D2*
X2728708D1*
X794958Y2581594D2*
X2728708D1*
X775831Y2556726D2*
X2728708D1*
X756705Y2531857D2*
X2728708D1*
X737579Y2506988D2*
X2728708D1*
X718453Y2482119D2*
X2728708D1*
X699326Y2457251D2*
X2728708D1*
X680200Y2432382D2*
X2728708D1*
X661074Y2407513D2*
X2728708D1*
X641912Y2382644D2*
X2728708D1*
X622785Y2357776D2*
X2728708D1*
X619071Y2356201D2*
X2731214D1*
X2731201Y2656216D1*
X849855Y2656201D1*
X619088Y2356202D1*
X2008210Y2081332D2*
X2153708D1*
X1989084Y2056463D2*
X2153708D1*
X1969958Y2031594D2*
X2153708D1*
X1950831Y2006726D2*
X2153708D1*
X1931705Y1981857D2*
X2153708D1*
X1912579Y1956988D2*
X2153708D1*
X1893453Y1932119D2*
X2153708D1*
X1874326Y1907251D2*
X2153708D1*
X1855200Y1882382D2*
X2153708D1*
X1836074Y1857513D2*
X2153708D1*
X1816912Y1832644D2*
X2153708D1*
X1797785Y1807776D2*
X2153708D1*
X1783719Y1782907D2*
X2153708D1*
X1783719Y1758038D2*
X2153708D1*
X1783719Y1733169D2*
X2153708D1*
X2024867Y2106216D2*
X1781206Y1789455D1*
X1781201Y1731226D1*
X2156214Y1731201D1*
X2156201Y2106214D1*
X2024841Y2106201D1*
D22*
X1212598Y905512D3*
Y838583D3*
X1199950Y1174951D3*
Y1241881D3*
D21*
X806201Y1156201D3*
D23*
Y1353051D3*
D22*
X1543701Y716535D3*
Y649606D3*
X1291339Y838583D3*
Y905512D3*
X1472441Y649606D3*
Y716535D3*
X2783789Y681360D3*
Y748289D3*
D25*
X1481201Y1624950D3*
Y1491092D3*
D26*
X1007874Y586614D3*
X933071D3*
D27*
X3394636Y965945D3*
D28*
Y887205D3*
Y808465D3*
D29*
X767717Y2177165D3*
D30*
Y1842520D3*
D29*
X3169291D3*
D30*
Y2177165D3*
D32*
X1243701Y1512451D3*
X1318504D3*
X1281102Y1603003D3*
D33*
X1279528Y2098031D3*
X1479528D3*
D86*
X1379528Y2504528D3*
D33*
X2425197Y2098031D3*
X2625197D3*
D86*
X2525197Y2504528D3*
D33*
X1862205Y2098031D3*
X2062205D3*
D86*
X1962205Y2504528D3*
D33*
X2425197Y1216142D3*
X2625197D3*
D86*
X2525197Y1622638D3*
D33*
X1862205Y1216142D3*
X2062205D3*
D86*
X1962205Y1622638D3*
D32*
X2953906Y566929D3*
X3028709D3*
X2991307Y657480D3*
X3011811Y889764D3*
X2937008D3*
X2974409Y799213D3*
D22*
X1343701Y1174951D3*
Y1241881D3*
X1274950Y1174951D3*
Y1241881D3*
X976378Y838583D3*
Y905512D3*
X1055118Y838583D3*
Y905512D3*
X1133858Y838583D3*
Y905512D3*
X1614961Y716535D3*
Y649606D3*
X1686220Y716535D3*
Y649606D3*
X2874307Y748289D3*
Y681360D3*
X2029528Y628937D3*
Y562008D3*
X2127143Y628937D3*
Y562008D3*
X2224759Y628937D3*
Y562008D3*
D21*
X1899793Y774911D3*
Y467824D3*
X2349745Y774911D3*
Y467824D3*
D89*
X1562992Y822835D3*
D35*
X1433858Y931890D3*
Y912205D3*
Y892520D3*
Y872835D3*
D36*
X1484252Y822835D3*
X1503937D3*
X1523622D3*
X1543307D3*
D35*
X1593701Y872835D3*
Y892520D3*
Y912205D3*
Y931890D3*
D36*
X1543307Y981890D3*
X1523622D3*
X1503937D3*
X1484252D3*
D37*
X1513780Y902362D3*
D92*
X1464567Y981890D3*
D95*
X1433858Y951575D3*
D98*
X1593701Y853150D3*
D101*
X1464567Y822835D3*
D104*
X1562992Y981890D3*
D107*
X1433858Y853150D3*
D110*
X1593701Y951575D3*
D39*
X2524727Y637425D3*
X2499136D3*
X2473546D3*
Y550811D3*
X2524727D3*
D40*
X2605969Y756163D3*
Y673486D3*
X2680772Y756163D3*
Y673486D3*
M02*
