G04 DipTrace 3.2.0.1*
G04 TopMask.gbr*
%MOIN*%
G04 #@! TF.FileFunction,Soldermask,Top*
G04 #@! TF.Part,Single*
%AMOUTLINE1*
4,1,8,
0.212598,0.073819,
0.151575,0.073819,
0.151575,-0.170276,
-0.151575,-0.170276,
-0.151575,0.073819,
-0.212598,0.073819,
-0.212598,0.170276,
0.212598,0.170276,
0.212598,0.073819,
0*%
%AMOUTLINE4*
4,1,5,
-0.009843,-0.020669,
-0.009843,0.020669,
0.003599,0.020669,
0.009843,0.014426,
0.009843,-0.020669,
-0.009843,-0.020669,
0*%
%AMOUTLINE7*
4,1,5,
0.009843,-0.020669,
0.009843,0.020669,
-0.009843,0.020669,
-0.009843,-0.014426,
-0.003599,-0.020669,
0.009843,-0.020669,
0*%
%AMOUTLINE10*
4,1,5,
-0.020669,-0.009843,
0.020669,-0.009843,
0.020669,0.003599,
0.014426,0.009843,
-0.020669,0.009843,
-0.020669,-0.009843,
0*%
%AMOUTLINE13*
4,1,5,
0.020669,0.009843,
-0.020669,0.009843,
-0.020669,-0.003599,
-0.014426,-0.009843,
0.020669,-0.009843,
0.020669,0.009843,
0*%
%AMOUTLINE16*
4,1,5,
0.009843,0.020669,
0.009843,-0.020669,
-0.009843,-0.020669,
-0.009843,0.014426,
-0.003599,0.020669,
0.009843,0.020669,
0*%
%AMOUTLINE19*
4,1,5,
-0.009843,-0.020669,
-0.009843,0.020669,
0.009843,0.020669,
0.009843,-0.014426,
0.003599,-0.020669,
-0.009843,-0.020669,
0*%
%AMOUTLINE22*
4,1,5,
-0.020669,0.009843,
0.020669,0.009843,
0.020669,-0.003599,
0.014426,-0.009843,
-0.020669,-0.009843,
-0.020669,0.009843,
0*%
%AMOUTLINE25*
4,1,5,
0.020669,-0.009843,
-0.020669,-0.009843,
-0.020669,0.003599,
-0.014426,0.009843,
0.020669,0.009843,
0.020669,-0.009843,
0*%
%ADD49R,0.047244X0.043307*%
%ADD51R,0.023622X0.043307*%
%ADD53R,0.11811X0.11811*%
%ADD55R,0.019685X0.041339*%
%ADD57R,0.041339X0.019685*%
%ADD59R,0.059055X0.129921*%
%ADD61R,0.033465X0.049213*%
%ADD63C,0.204724*%
%ADD65R,0.204724X0.204724*%
%ADD67C,0.055118*%
%ADD69R,0.055118X0.055118*%
%ADD71R,0.059055X0.066929*%
%ADD73R,0.070866X0.03937*%
%ADD75C,0.066929*%
%ADD77R,0.047244X0.051181*%
%ADD79R,0.066929X0.066929*%
%ADD87OUTLINE1*%
%ADD90OUTLINE4*%
%ADD93OUTLINE7*%
%ADD96OUTLINE10*%
%ADD99OUTLINE13*%
%ADD102OUTLINE16*%
%ADD105OUTLINE19*%
%ADD108OUTLINE22*%
%ADD111OUTLINE25*%
%FSLAX26Y26*%
G04*
G70*
G90*
G75*
G01*
G04 TopMask*
%LPD*%
D77*
X1212598Y905512D3*
Y838583D3*
X1199950Y1174951D3*
Y1241881D3*
D79*
X806201Y1156201D3*
D75*
Y1353051D3*
D77*
X1543701Y716535D3*
Y649606D3*
X1291339Y838583D3*
Y905512D3*
X1472441Y649606D3*
Y716535D3*
X2783789Y681360D3*
Y748289D3*
D73*
X1481201Y1624950D3*
Y1491092D3*
D71*
X1007874Y586614D3*
X933071D3*
D69*
X3394636Y965945D3*
D67*
Y887205D3*
Y808465D3*
D65*
X767717Y2177165D3*
D63*
Y1842520D3*
D65*
X3169291D3*
D63*
Y2177165D3*
D61*
X1243701Y1512451D3*
X1318504D3*
X1281102Y1603003D3*
D59*
X1279528Y2098031D3*
X1479528D3*
D87*
X1379528Y2504528D3*
D59*
X2425197Y2098031D3*
X2625197D3*
D87*
X2525197Y2504528D3*
D59*
X1862205Y2098031D3*
X2062205D3*
D87*
X1962205Y2504528D3*
D59*
X2425197Y1216142D3*
X2625197D3*
D87*
X2525197Y1622638D3*
D59*
X1862205Y1216142D3*
X2062205D3*
D87*
X1962205Y1622638D3*
D61*
X2953906Y566929D3*
X3028709D3*
X2991307Y657480D3*
X3011811Y889764D3*
X2937008D3*
X2974409Y799213D3*
D77*
X1343701Y1174951D3*
Y1241881D3*
X1274950Y1174951D3*
Y1241881D3*
X976378Y838583D3*
Y905512D3*
X1055118Y838583D3*
Y905512D3*
X1133858Y838583D3*
Y905512D3*
X1614961Y716535D3*
Y649606D3*
X1686220Y716535D3*
Y649606D3*
X2874307Y748289D3*
Y681360D3*
X2029528Y628937D3*
Y562008D3*
X2127143Y628937D3*
Y562008D3*
X2224759Y628937D3*
Y562008D3*
D79*
X1899793Y774911D3*
Y467824D3*
X2349745Y774911D3*
Y467824D3*
D90*
X1562992Y822835D3*
D57*
X1433858Y931890D3*
Y912205D3*
Y892520D3*
Y872835D3*
D55*
X1484252Y822835D3*
X1503937D3*
X1523622D3*
X1543307D3*
D57*
X1593701Y872835D3*
Y892520D3*
Y912205D3*
Y931890D3*
D55*
X1543307Y981890D3*
X1523622D3*
X1503937D3*
X1484252D3*
D53*
X1513780Y902362D3*
D93*
X1464567Y981890D3*
D96*
X1433858Y951575D3*
D99*
X1593701Y853150D3*
D102*
X1464567Y822835D3*
D105*
X1562992Y981890D3*
D108*
X1433858Y853150D3*
D111*
X1593701Y951575D3*
D51*
X2524727Y637425D3*
X2499136D3*
X2473546D3*
Y550811D3*
X2524727D3*
D49*
X2605969Y756163D3*
Y673486D3*
X2680772Y756163D3*
Y673486D3*
M02*
