G04 DipTrace 3.2.0.1*
G04 TopSilk.gbr*
%MOIN*%
G04 #@! TF.FileFunction,Legend,Top*
G04 #@! TF.Part,Single*
%ADD10C,0.009843*%
%ADD12C,0.003*%
%ADD24C,0.015749*%
%ADD31C,0.015404*%
%ADD34C,0.011801*%
%ADD38C,0.015405*%
%ADD41C,0.002989*%
%ADD81C,0.005906*%
%ADD82C,0.015439*%
%ADD83C,0.006176*%
%ADD84C,0.00772*%
%ADD85C,0.009264*%
%FSLAX26Y26*%
G04*
G70*
G90*
G75*
G01*
G04 TopSilk*
%LPD*%
X806201Y1500689D2*
D10*
G02X806201Y1500689I0J-246063D01*
G01*
X831004Y1077657D2*
X781398D1*
X806201Y1052854D2*
Y1102461D1*
X1512699Y1593462D2*
Y1522583D1*
X1449705Y1593462D2*
Y1522583D1*
D24*
X1481202Y1662352D3*
X3498967Y1044693D2*
D10*
X3290296D1*
Y729724D1*
X3498967D1*
Y1044693D1*
X1092520Y2425197D2*
X442913D1*
Y1594488D1*
X1092520D1*
Y2425197D1*
X2844488Y1594488D2*
X3494094D1*
Y2425197D1*
X2844488D1*
Y1594488D1*
D31*
X1212852Y1497743D3*
X1222053Y1547884D2*
D10*
X1340157D1*
Y1567570D1*
X1222053D1*
Y1547884D1*
X1593110Y2141341D2*
Y2578957D1*
X1165945Y2141341D2*
X1167013Y2578957D1*
Y2141468D2*
X1248260D1*
X1592042D2*
X1510795D1*
X1448258D2*
X1310797D1*
X2738780Y2141341D2*
Y2578957D1*
X2311614Y2141341D2*
X2312682Y2578957D1*
Y2141468D2*
X2393929D1*
X2737712D2*
X2656465D1*
X2593928D2*
X2456466D1*
X2175787Y2141341D2*
Y2578957D1*
X1748622Y2141341D2*
X1749690Y2578957D1*
Y2141468D2*
X1830937D1*
X2174719D2*
X2093473D1*
X2030936D2*
X1893474D1*
X2738780Y1259451D2*
Y1697067D1*
X2311614Y1259451D2*
X2312682Y1697067D1*
Y1259578D2*
X2393929D1*
X2737712D2*
X2656465D1*
X2593928D2*
X2456466D1*
X2175787Y1259451D2*
Y1697067D1*
X1748622Y1259451D2*
X1749690Y1697067D1*
Y1259578D2*
X1830937D1*
X2174719D2*
X2093473D1*
X2030936D2*
X1893474D1*
D31*
X2923057Y552220D3*
X2932257Y602362D2*
D10*
X3050362D1*
Y622047D1*
X2932257D1*
Y602362D1*
D31*
X3042660Y904473D3*
X3033459Y854331D2*
D10*
X2915354D1*
Y834646D1*
X3033459D1*
Y854331D1*
X1970659Y739485D2*
X1828927D1*
Y503250D1*
X1970659D1*
Y739485D1*
X2420612D2*
X2278879D1*
Y503250D1*
X2420612D1*
Y739485D1*
X1434981Y969282D2*
X1446760Y981103D1*
X1434981Y823622D2*
X1446760D1*
X1434981D2*
Y835442D1*
X1592536Y823622D2*
Y835442D1*
Y823622D2*
X1580692D1*
X1592536Y981103D2*
Y969282D1*
Y981103D2*
X1580692D1*
D34*
X1399404Y951570D3*
D38*
X2551642Y648227D3*
X2538502Y605955D2*
D10*
X2459762D1*
Y582295D1*
X2538502D1*
Y605955D1*
X3043155Y1366113D2*
D12*
X3052194D1*
X3040311Y1363116D2*
X3057151D1*
X3037687Y1360119D2*
X3043155D1*
X3052194D2*
X3062254D1*
X3035354Y1357122D2*
X3043155D1*
X3055183D2*
X3067576D1*
X3033167Y1354125D2*
X3072898D1*
X3030762Y1351101D2*
X3078001D1*
X3028429Y1348104D2*
X3083031D1*
X3026315Y1345107D2*
X3088134D1*
X3097173D2*
X3100162D1*
X3024128Y1342110D2*
X3049205D1*
X3058755D2*
X3076178D1*
X3085145D2*
X3100673D1*
X3021649Y1339113D2*
X3046289D1*
X3062838D2*
X3076178D1*
X3085145D2*
X3101475D1*
X3018952Y1336116D2*
X3043665D1*
X3067357D2*
X3076178D1*
X3085145D2*
X3102641D1*
X3016182Y1333119D2*
X3041405D1*
X3071513D2*
X3088425D1*
X3100746D2*
X3103953D1*
X3013776Y1330122D2*
X3039145D1*
X3074939D2*
X3089009D1*
X3101766D2*
X3105120D1*
X2785161Y1327125D2*
X2791139D1*
X2812134D2*
X2818185D1*
X2824163D2*
X2830141D1*
X2845158D2*
X2854198D1*
X2869142D2*
X2875193D1*
X3012026D2*
X3036666D1*
X3077636D2*
X3091706D1*
X3103151D2*
X3106140D1*
X2785161Y1324101D2*
X2791139D1*
X2812134D2*
X2818185D1*
X2824600D2*
X2830651D1*
X2845012D2*
X2854271D1*
X2869069D2*
X2874683D1*
D41*
X2971166Y1324114D3*
X2977180Y1324101D2*
D12*
X2980169D1*
X3011006D2*
X3033969D1*
X3079896D2*
X3095643D1*
X2785161Y1321104D2*
X2791139D1*
X2812134D2*
X2818185D1*
X2825402D2*
X2831380D1*
X2844648D2*
X2854635D1*
X2868632D2*
X2873954D1*
X2947145D2*
X2980169D1*
X3010641D2*
X3013193D1*
X3025148D2*
X3031126D1*
X3082156D2*
X3100162D1*
X2785161Y1318107D2*
X2791139D1*
X2812134D2*
X2818185D1*
X2826131D2*
X2832182D1*
X2843919D2*
X2855364D1*
X2867976D2*
X2873152D1*
X2947145D2*
X2980169D1*
X3010641D2*
X3013193D1*
X3025148D2*
X3033167D1*
X2785161Y1315110D2*
X2791139D1*
X2812134D2*
X2818185D1*
X2826714D2*
X2832692D1*
X2843190D2*
X2856166D1*
X2867174D2*
X2872641D1*
X2947145D2*
X2980169D1*
X3011880D2*
X3035208D1*
X2785161Y1312113D2*
X2791139D1*
X2812134D2*
X2818185D1*
X2827079D2*
X2832984D1*
X2842680D2*
X2856676D1*
X2866664D2*
X2872277D1*
X2947072D2*
X2980169D1*
X3013484D2*
X3037541D1*
X2785161Y1309116D2*
X2791139D1*
X2812134D2*
X2818185D1*
X2827589D2*
X2833057D1*
X2842388D2*
X2856968D1*
X2866372D2*
X2871767D1*
X2946635D2*
X2980169D1*
X3015307D2*
X3039874D1*
X2785161Y1306119D2*
X2791139D1*
X2812134D2*
X2818185D1*
X2828318D2*
X2833130D1*
X2842169D2*
X2845158D1*
X2850553D2*
X2857187D1*
X2866153D2*
X2870965D1*
X2945979D2*
X2980169D1*
X3017275D2*
X3042280D1*
X2785161Y1303122D2*
X2791139D1*
X2812134D2*
X2818185D1*
X2829120D2*
X2845158D1*
X2852302D2*
X2870163D1*
X2945177D2*
X2980169D1*
X3019608D2*
X3045196D1*
X2785161Y1300125D2*
X2791139D1*
X2812134D2*
X2818185D1*
X2829703D2*
X2845012D1*
X2853469D2*
X2869653D1*
X2944667D2*
X3001164D1*
X3021868D2*
X3048987D1*
X2785161Y1297101D2*
X2791285D1*
X2812062D2*
X2818185D1*
X2830068D2*
X2844648D1*
X2854344D2*
X2869288D1*
X2944375D2*
X3001164D1*
X3024055D2*
X3052704D1*
X2785307Y1294104D2*
X2791795D1*
X2811551D2*
X2818039D1*
X2830578D2*
X2843919D1*
X2855218D2*
X2868778D1*
X2944156D2*
X3001164D1*
X3026169D2*
X3055839D1*
X2785672Y1291107D2*
X2792962D1*
X2810312D2*
X2817675D1*
X2831380D2*
X2843190D1*
X2856093D2*
X2867976D1*
X2929868D2*
X3001164D1*
X3028502D2*
X3057151D1*
X3109129D2*
X3139164D1*
X2786474Y1288110D2*
X2794930D1*
X2808417D2*
X2816800D1*
X2832109D2*
X2842534D1*
X2856749D2*
X2867174D1*
X2918787D2*
X3001164D1*
X3030762D2*
X3058172D1*
X3102276D2*
X3146454D1*
X2787713Y1285113D2*
X2797190D1*
X2806157D2*
X2815561D1*
X2832692D2*
X2841805D1*
X2857551D2*
X2866664D1*
X2910695D2*
X3001164D1*
X3032365D2*
X3059193D1*
X3096226D2*
X3152796D1*
X2789317Y1282116D2*
X2813957D1*
X2832984D2*
X2840638D1*
X2858718D2*
X2866372D1*
X2904717D2*
X2923890D1*
X2953123D2*
X3001164D1*
X3033313D2*
X3060067D1*
X3091123D2*
X3112774D1*
X3138070D2*
X3157972D1*
X2791139Y1279119D2*
X2812134D1*
X2833130D2*
X2839180D1*
X2860176D2*
X2866153D1*
X2900271D2*
X2916600D1*
X2959028D2*
X3001164D1*
X3033678D2*
X3060651D1*
X3086749D2*
X3105120D1*
X3144996D2*
X3162200D1*
X2896698Y1276122D2*
X2910841D1*
X2964568D2*
X3001164D1*
X3033532D2*
X3061088D1*
X3083322D2*
X3098631D1*
X3150755D2*
X3165627D1*
X2893855Y1273125D2*
X2906321D1*
X2969307D2*
X3001164D1*
X3032876D2*
X3061671D1*
X3080698D2*
X3093383D1*
X3155421D2*
X3168470D1*
X2788150Y1270101D2*
X2848147D1*
X2891523D2*
X2902749D1*
X2932128D2*
X2947145D1*
X2973243D2*
X3001164D1*
X3032001D2*
X3062765D1*
X3078365D2*
X3089227D1*
X3115180D2*
X3133186D1*
X3159284D2*
X3170802D1*
X3184143D2*
X3277164D1*
X3286130D2*
X3313176D1*
X3367195D2*
X3415163D1*
X3448187D2*
X3514161D1*
X2788150Y1267104D2*
X2854927D1*
X2889700D2*
X2899833D1*
X2923526D2*
X2955456D1*
X2976305D2*
X3001164D1*
X3031126D2*
X3064150D1*
X3076178D2*
X3086093D1*
X3107015D2*
X3141351D1*
X3162346D2*
X3172625D1*
X3184143D2*
X3275997D1*
X3286130D2*
X3313176D1*
X3357499D2*
X3413997D1*
X3442428D2*
X3513724D1*
X2788150Y1264107D2*
X2860540D1*
X2888023D2*
X2897427D1*
X2916309D2*
X2962308D1*
X2978711D2*
X3083614D1*
X3100527D2*
X3147839D1*
X3164825D2*
X3174302D1*
X3184143D2*
X3274758D1*
X3286130D2*
X3313176D1*
X3349772D2*
X3412758D1*
X3437689D2*
X3512922D1*
X2788150Y1261110D2*
X2864914D1*
X2886420D2*
X2895313D1*
X2910622D2*
X2967776D1*
X2980606D2*
X3081719D1*
X3095643D2*
X3152723D1*
X3167012D2*
X3175760D1*
X3184143D2*
X3273446D1*
X3286130D2*
X3313176D1*
X3343867D2*
X3411372D1*
X3433899D2*
X3512047D1*
X2788150Y1258113D2*
X2868195D1*
X2884962D2*
X2893272D1*
X2906248D2*
X2972077D1*
X2982283D2*
X3080042D1*
X3091779D2*
X3156587D1*
X3169126D2*
X3177072D1*
X3184143D2*
X3272279D1*
X3286130D2*
X3313176D1*
X3339420D2*
X3409914D1*
X3431055D2*
X3511173D1*
X2788150Y1255116D2*
X2870600D1*
X2883504D2*
X2891814D1*
X2902749D2*
X2975212D1*
X2983814D2*
X3078511D1*
X3088425D2*
X3159795D1*
X3171531D2*
X3178165D1*
X3184143D2*
X3271259D1*
X3286130D2*
X3313176D1*
X3336140D2*
X3408529D1*
X3429014D2*
X3510006D1*
X2788150Y1252119D2*
X2872496D1*
X2882264D2*
X2890866D1*
X2899833D2*
X2977763D1*
X2985053D2*
X3077272D1*
X3085364D2*
X3162565D1*
X3174375D2*
X3270165D1*
X3286130D2*
X3313176D1*
X3333588D2*
X3407436D1*
X3427556D2*
X3508694D1*
X2788150Y1249122D2*
X2873808D1*
X2881171D2*
X2890137D1*
X2897573D2*
X2980023D1*
X2986147D2*
X3076178D1*
X3082666D2*
X3164825D1*
X3183779D2*
X3269290D1*
X3286130D2*
X3313176D1*
X3331401D2*
X3406707D1*
X3426317D2*
X3507017D1*
X2788150Y1246125D2*
X2874537D1*
X2895678D2*
X2981991D1*
X3080552D2*
X3166647D1*
X3198723D2*
X3268634D1*
X3286130D2*
X3313176D1*
X3329724D2*
X3406197D1*
X3425296D2*
X3505195D1*
X2788150Y1243101D2*
X2812134D1*
X2841440D2*
X2875047D1*
X2894001D2*
X2932784D1*
X2946562D2*
X2983595D1*
X3078803D2*
X3114815D1*
X3132457D2*
X3168324D1*
X3217167D2*
X3241151D1*
X3286130D2*
X3313176D1*
X3328412D2*
X3364862D1*
X3424713D2*
X3454748D1*
X2788150Y1240104D2*
X2812134D1*
X2845668D2*
X2875557D1*
X2892543D2*
X2928118D1*
X2951228D2*
X2984980D1*
X3077490D2*
X3111462D1*
X3136831D2*
X3169782D1*
X3217167D2*
X3241151D1*
X3286130D2*
X3313176D1*
X3327246D2*
X3360488D1*
X3424422D2*
X3452998D1*
X2788150Y1237107D2*
X2812134D1*
X2848949D2*
X2876214D1*
X2891450D2*
X2924473D1*
X2954800D2*
X2986074D1*
X3001164D2*
X3055183D1*
X3076689D2*
X3108546D1*
X3139966D2*
X3170875D1*
X3217167D2*
X3241151D1*
X3286130D2*
X3313176D1*
X3326298D2*
X3357354D1*
X3424276D2*
X3451832D1*
X2788150Y1234110D2*
X2812134D1*
X2849970D2*
X2876651D1*
X2890721D2*
X2921849D1*
X2957497D2*
X2987094D1*
X3001164D2*
X3058974D1*
X3075887D2*
X3106140D1*
X3142226D2*
X3171677D1*
X3217167D2*
X3241151D1*
X3286130D2*
X3313176D1*
X3325569D2*
X3355094D1*
X3424203D2*
X3451832D1*
X2788150Y1231113D2*
X2812134D1*
X2849532D2*
X2876432D1*
X2890283D2*
X2919881D1*
X2959392D2*
X2988042D1*
X3001164D2*
X3061671D1*
X3075012D2*
X3104245D1*
X3143757D2*
X3172406D1*
X3217167D2*
X3241151D1*
X3286130D2*
X3313176D1*
X3324913D2*
X3353563D1*
X3424276D2*
X3453071D1*
X2788150Y1228116D2*
X2812134D1*
X2848876D2*
X2875995D1*
X2889773D2*
X2918423D1*
X2960778D2*
X2988625D1*
X3001164D2*
X3063494D1*
X3074210D2*
X3102641D1*
X3144996D2*
X3173281D1*
X3217167D2*
X3241151D1*
X3286130D2*
X3313176D1*
X3324038D2*
X3352323D1*
X3424640D2*
X3454967D1*
X2788150Y1225119D2*
X2812134D1*
X2848147D2*
X2875557D1*
X2888971D2*
X2917329D1*
X2961507D2*
X2988917D1*
X3001164D2*
X3064879D1*
X3073700D2*
X3101475D1*
X3146089D2*
X3174083D1*
X3217167D2*
X3241151D1*
X3286130D2*
X3313176D1*
X3323236D2*
X3351230D1*
X3425369D2*
X3496155D1*
X2788150Y1222122D2*
X2875193D1*
X2888169D2*
X2916236D1*
X2961871D2*
X2989063D1*
X3001164D2*
X3065972D1*
X3073408D2*
X3100746D1*
X3147037D2*
X3174666D1*
X3217167D2*
X3241151D1*
X3286130D2*
X3313176D1*
X3322653D2*
X3350282D1*
X3426244D2*
X3501477D1*
X2788150Y1219125D2*
X2874756D1*
X2887659D2*
X2915288D1*
X2962090D2*
X2989136D1*
X3001164D2*
X3019170D1*
X3041842D2*
X3066628D1*
X3073262D2*
X3100381D1*
X3147620D2*
X3174958D1*
X3217167D2*
X3241151D1*
X3286130D2*
X3313176D1*
X3322362D2*
X3349699D1*
X3427265D2*
X3505851D1*
X2788150Y1216101D2*
X2873808D1*
X2887367D2*
X2914778D1*
X2962090D2*
X2989136D1*
X3001164D2*
X3019170D1*
X3045633D2*
X3066774D1*
X3073189D2*
X3100235D1*
X3147912D2*
X3175104D1*
X3217167D2*
X3241151D1*
X3286130D2*
X3313176D1*
X3322216D2*
X3349407D1*
X3428796D2*
X3508986D1*
X2788150Y1213104D2*
X2872569D1*
X2887367D2*
X2914851D1*
X2962163D2*
X2989136D1*
X3001164D2*
X3019170D1*
X3047164D2*
X3066555D1*
X3073189D2*
X3100308D1*
X3148058D2*
X3175104D1*
X3217167D2*
X3241151D1*
X3286130D2*
X3313176D1*
X3322216D2*
X3349262D1*
X3431055D2*
X3511173D1*
X2788150Y1210107D2*
X2870673D1*
X2887659D2*
X2915507D1*
X2962163D2*
X2989136D1*
X3001164D2*
X3019170D1*
X3046143D2*
X3065826D1*
X3073189D2*
X3100673D1*
X3147985D2*
X3175031D1*
X3217167D2*
X3241151D1*
X3286130D2*
X3313176D1*
X3322289D2*
X3349335D1*
X3434044D2*
X3512703D1*
X2788150Y1207110D2*
X2867903D1*
X2888388D2*
X2916309D1*
X2962017D2*
X2989136D1*
X3001164D2*
X3064660D1*
X3073189D2*
X3101402D1*
X3147620D2*
X3174666D1*
X3217167D2*
X3241151D1*
X3286130D2*
X3313176D1*
X3322653D2*
X3349699D1*
X3437908D2*
X3513505D1*
X2788150Y1204113D2*
X2812134D1*
X2817675D2*
X2864039D1*
X2889117D2*
X2917183D1*
X2961652D2*
X2989063D1*
X3001164D2*
X3063567D1*
X3073262D2*
X3102276D1*
X3146818D2*
X3173937D1*
X3217167D2*
X3241151D1*
X3286130D2*
X3313176D1*
X3323382D2*
X3350428D1*
X3442136D2*
X3513870D1*
X2788150Y1201116D2*
X2812134D1*
X2819935D2*
X2859301D1*
X2889700D2*
X2918277D1*
X2960850D2*
X2988698D1*
X3001164D2*
X3062619D1*
X3073627D2*
X3103151D1*
X3145652D2*
X3173135D1*
X3217167D2*
X3241151D1*
X3286130D2*
X3313176D1*
X3324184D2*
X3351303D1*
X3484054D2*
X3514089D1*
X2788150Y1198119D2*
X2812134D1*
X2822049D2*
X2854198D1*
X2890065D2*
X2919662D1*
X2959538D2*
X2987896D1*
X3001164D2*
X3062983D1*
X3074356D2*
X3104318D1*
X3144340D2*
X3172552D1*
X3217167D2*
X3241151D1*
X3286130D2*
X3313176D1*
X3324694D2*
X3352323D1*
X3486532D2*
X3514089D1*
X2788150Y1195122D2*
X2812134D1*
X2824163D2*
X2856676D1*
X2890575D2*
X2921484D1*
X2957789D2*
X2987022D1*
X3001164D2*
X3019170D1*
X3025804D2*
X3063858D1*
X3075231D2*
X3105849D1*
X3142736D2*
X3171896D1*
X3217167D2*
X3241151D1*
X3286130D2*
X3313176D1*
X3325059D2*
X3353781D1*
X3488574D2*
X3514161D1*
X2788150Y1192125D2*
X2812134D1*
X2826131D2*
X2858936D1*
X2891450D2*
X2923744D1*
X2955529D2*
X2986147D1*
X3001164D2*
X3019170D1*
X3028502D2*
X3064952D1*
X3076178D2*
X3108036D1*
X3140913D2*
X3171021D1*
X3217167D2*
X3241151D1*
X3286130D2*
X3313176D1*
X3325569D2*
X3355896D1*
X3489157D2*
X3514161D1*
X2788150Y1189101D2*
X2812134D1*
X2828172D2*
X2861050D1*
X2892616D2*
X2926369D1*
X2952904D2*
X2985053D1*
X3001164D2*
X3019170D1*
X3034261D2*
X3065972D1*
X3077272D2*
X3111316D1*
X3138654D2*
X3170073D1*
X3217167D2*
X3241151D1*
X3286130D2*
X3313176D1*
X3326444D2*
X3358447D1*
X3488063D2*
X3514161D1*
X2788150Y1186104D2*
X2812134D1*
X2830214D2*
X2863164D1*
X2894001D2*
X2929139D1*
X2950134D2*
X2983741D1*
X3001164D2*
X3019170D1*
X3039582D2*
X3066628D1*
X3078657D2*
X3115180D1*
X3136175D2*
X3169053D1*
X3217167D2*
X3241151D1*
X3286130D2*
X3313176D1*
X3327683D2*
X3361290D1*
X3486314D2*
X3514161D1*
X2788150Y1183107D2*
X2812134D1*
X2832182D2*
X2865060D1*
X2895532D2*
X2982356D1*
X3001164D2*
X3019170D1*
X3043373D2*
X3066920D1*
X3080334D2*
X3167668D1*
X3217167D2*
X3241151D1*
X3286130D2*
X3313176D1*
X3328995D2*
X3415163D1*
X3433170D2*
X3514016D1*
X2788150Y1180110D2*
X2812134D1*
X2834150D2*
X2866737D1*
X2897427D2*
X2980752D1*
X3001164D2*
X3019170D1*
X3046143D2*
X3067066D1*
X3082302D2*
X3165918D1*
X3217167D2*
X3241151D1*
X3286130D2*
X3313176D1*
X3330599D2*
X3415163D1*
X3432149D2*
X3513651D1*
X2788150Y1177113D2*
X2812134D1*
X2836191D2*
X2868486D1*
X2899760D2*
X2978857D1*
X3001164D2*
X3066993D1*
X3084197D2*
X3164023D1*
X3217167D2*
X3241151D1*
X3286130D2*
X3313176D1*
X3332422D2*
X3415163D1*
X3431128D2*
X3512849D1*
X2788150Y1174116D2*
X2812134D1*
X2838160D2*
X2870309D1*
X2902458D2*
X2976524D1*
X3001164D2*
X3066628D1*
X3086384D2*
X3161909D1*
X3217167D2*
X3241151D1*
X3286130D2*
X3313176D1*
X3334755D2*
X3415163D1*
X3430181D2*
X3511537D1*
X2788150Y1171119D2*
X2812134D1*
X2840128D2*
X2872204D1*
X2905374D2*
X2973754D1*
X3001164D2*
X3065826D1*
X3089300D2*
X3158993D1*
X3217167D2*
X3241151D1*
X3286130D2*
X3313176D1*
X3337525D2*
X3415163D1*
X3429014D2*
X3509787D1*
X2788150Y1168122D2*
X2812134D1*
X2842169D2*
X2874027D1*
X2908946D2*
X2970327D1*
X3001164D2*
X3064441D1*
X3093383D2*
X3154983D1*
X3217167D2*
X3241151D1*
X3286130D2*
X3313176D1*
X3341024D2*
X3415163D1*
X3427775D2*
X3507382D1*
X2788150Y1165125D2*
X2812134D1*
X2844138D2*
X2875703D1*
X2913611D2*
X2965735D1*
X3001164D2*
X3062254D1*
X3098704D2*
X3149661D1*
X3217167D2*
X3241151D1*
X3286130D2*
X3313176D1*
X3345617D2*
X3415163D1*
X3426463D2*
X3504320D1*
X2788150Y1162101D2*
X2812134D1*
X2846106D2*
X2877015D1*
X2919516D2*
X2959757D1*
X3001164D2*
X3058974D1*
X3105120D2*
X3143173D1*
X3217167D2*
X3241151D1*
X3286130D2*
X3313176D1*
X3351522D2*
X3415163D1*
X3425223D2*
X3500456D1*
X2788150Y1159104D2*
X2812134D1*
X2848147D2*
X2878182D1*
X2926150D2*
X2953196D1*
X3001164D2*
X3055183D1*
X3112191D2*
X3136175D1*
X3217167D2*
X3241151D1*
X3286130D2*
X3313176D1*
X3358155D2*
X3415163D1*
X3424130D2*
X3496155D1*
X3358155Y1147116D2*
X3394168D1*
X3400146D2*
X3424130D1*
X3448187D2*
X3454165D1*
X3475160D2*
X3481138D1*
X3508184D2*
X3514161D1*
X3358155Y1144119D2*
X3394168D1*
X3400146D2*
X3424130D1*
X3447021D2*
X3455185D1*
X3475160D2*
X3483033D1*
X3507090D2*
X3514161D1*
X3358155Y1141122D2*
X3394168D1*
X3400146D2*
X3424130D1*
X3445708D2*
X3456206D1*
X3475160D2*
X3484637D1*
X3506142D2*
X3514161D1*
X3373173Y1138125D2*
X3379151D1*
X3400146D2*
X3406197D1*
X3444469D2*
X3457154D1*
X3475160D2*
X3485949D1*
X3505195D2*
X3514161D1*
X3373173Y1135101D2*
X3379151D1*
X3400146D2*
X3406197D1*
X3443303D2*
X3458174D1*
X3475160D2*
X3487043D1*
X3504174D2*
X3514161D1*
X3373173Y1132104D2*
X3379151D1*
X3400146D2*
X3406197D1*
X3442209D2*
X3459195D1*
X3475160D2*
X3488209D1*
X3503154D2*
X3514161D1*
X3373173Y1129107D2*
X3379151D1*
X3400146D2*
X3406197D1*
X3441189D2*
X3448770D1*
X3454311D2*
X3460143D1*
X3475160D2*
X3489521D1*
X3502206D2*
X3514161D1*
X3373173Y1126110D2*
X3379151D1*
X3400146D2*
X3421141D1*
X3440168D2*
X3447021D1*
X3454748D2*
X3461309D1*
X3475160D2*
X3490906D1*
X3501112D2*
X3514161D1*
X3373173Y1123113D2*
X3379151D1*
X3400146D2*
X3421141D1*
X3439147D2*
X3445927D1*
X3455769D2*
X3462548D1*
X3475160D2*
X3492073D1*
X3500092D2*
X3514161D1*
X3373173Y1120116D2*
X3379151D1*
X3400146D2*
X3421141D1*
X3438054D2*
X3445125D1*
X3457154D2*
X3463860D1*
X3475160D2*
X3481138D1*
X3487261D2*
X3493166D1*
X3499144D2*
X3514161D1*
X3373173Y1117119D2*
X3379151D1*
X3400146D2*
X3406197D1*
X3436742D2*
X3465027D1*
X3475160D2*
X3481138D1*
X3487699D2*
X3502060D1*
X3508184D2*
X3514161D1*
X3373173Y1114122D2*
X3379151D1*
X3400146D2*
X3406197D1*
X3435429D2*
X3466047D1*
X3475160D2*
X3481138D1*
X3488501D2*
X3501696D1*
X3508184D2*
X3514161D1*
X3373173Y1111125D2*
X3379151D1*
X3400146D2*
X3406197D1*
X3434409D2*
X3467141D1*
X3475160D2*
X3481138D1*
X3489740D2*
X3500894D1*
X3508184D2*
X3514161D1*
X3373173Y1108101D2*
X3379151D1*
X3400146D2*
X3406197D1*
X3433680D2*
X3438710D1*
X3460653D2*
X3468089D1*
X3475160D2*
X3481138D1*
X3491344D2*
X3500019D1*
X3508184D2*
X3514161D1*
X3373173Y1105104D2*
X3379151D1*
X3400146D2*
X3406197D1*
X3433170D2*
X3437981D1*
X3461528D2*
X3468672D1*
X3475160D2*
X3481138D1*
X3493166D2*
X3499144D1*
X3508184D2*
X3514161D1*
X3373173Y1102107D2*
X3379151D1*
X3400146D2*
X3437179D1*
X3462767D2*
X3469182D1*
X3475160D2*
X3481138D1*
X3508184D2*
X3514161D1*
X3373173Y1099110D2*
X3379151D1*
X3400146D2*
X3436596D1*
X3464371D2*
X3481138D1*
X3508184D2*
X3514161D1*
X3373173Y1096113D2*
X3379151D1*
X3400146D2*
X3436158D1*
X3466193D2*
X3481138D1*
X3508184D2*
X3514161D1*
X3043155Y1366113D2*
X3040311Y1363116D1*
X3037687Y1360119D1*
X3035354Y1357122D1*
X3033167Y1354125D1*
X3030762Y1351101D1*
X3028429Y1348104D1*
X3026315Y1345107D1*
X3024128Y1342110D1*
X3021649Y1339113D1*
X3018952Y1336116D1*
X3016182Y1333119D1*
X3013776Y1330122D1*
X3012026Y1327125D1*
X3011006Y1324101D1*
X3010641Y1321104D1*
Y1318107D1*
X3011880Y1315110D1*
X3013484Y1312113D1*
X3015307Y1309116D1*
X3017275Y1306119D1*
X3019608Y1303122D1*
X3021868Y1300125D1*
X3024055Y1297101D1*
X3026169Y1294104D1*
X3028502Y1291107D1*
X3030762Y1288110D1*
X3032365Y1285113D1*
X3033313Y1282116D1*
X3033678Y1279119D1*
X3033532Y1276122D1*
X3032876Y1273125D1*
X3032001Y1270101D1*
X3031126Y1267104D1*
X3052194Y1366113D2*
X3057151Y1363116D1*
X3062254Y1360119D1*
X3067576Y1357122D1*
X3072898Y1354125D1*
X3078001Y1351101D1*
X3083031Y1348104D1*
X3088134Y1345107D1*
X3043155Y1363116D2*
Y1360119D1*
Y1357122D1*
X3049132Y1363116D2*
X3052194Y1360119D1*
X3055183Y1357122D1*
X3100162Y1345107D2*
X3100673Y1342110D1*
X3101475Y1339113D1*
X3102641Y1336116D1*
X3103953Y1333119D1*
X3105120Y1330122D1*
X3106140Y1327125D1*
X3052194Y1345107D2*
X3049205Y1342110D1*
X3046289Y1339113D1*
X3043665Y1336116D1*
X3041405Y1333119D1*
X3039145Y1330122D1*
X3036666Y1327125D1*
X3033969Y1324101D1*
X3031126Y1321104D1*
X3033167Y1318107D1*
X3035208Y1315110D1*
X3037541Y1312113D1*
X3039874Y1309116D1*
X3042280Y1306119D1*
X3045196Y1303122D1*
X3048987Y1300125D1*
X3052704Y1297101D1*
X3055839Y1294104D1*
X3057151Y1291107D1*
X3058172Y1288110D1*
X3059193Y1285113D1*
X3060067Y1282116D1*
X3060651Y1279119D1*
X3061088Y1276122D1*
X3061671Y1273125D1*
X3062765Y1270101D1*
X3064150Y1267104D1*
X3055183Y1345107D2*
X3058755Y1342110D1*
X3062838Y1339113D1*
X3067357Y1336116D1*
X3071513Y1333119D1*
X3074939Y1330122D1*
X3077636Y1327125D1*
X3079896Y1324101D1*
X3082156Y1321104D1*
X3076178Y1345107D2*
Y1342110D1*
Y1339113D1*
Y1336116D1*
X3085145Y1345107D2*
Y1342110D1*
Y1339113D1*
Y1336116D1*
X3088134D2*
X3088425Y1333119D1*
X3089009Y1330122D1*
X3091706Y1327125D1*
X3095643Y1324101D1*
X3100162Y1321104D1*
Y1336116D2*
X3100746Y1333119D1*
X3101766Y1330122D1*
X3103151Y1327125D1*
X2785161D2*
Y1324101D1*
Y1321104D1*
Y1318107D1*
Y1315110D1*
Y1312113D1*
Y1309116D1*
Y1306119D1*
Y1303122D1*
Y1300125D1*
Y1297101D1*
X2785307Y1294104D1*
X2785672Y1291107D1*
X2786474Y1288110D1*
X2787713Y1285113D1*
X2789317Y1282116D1*
X2791139Y1279119D1*
Y1327125D2*
Y1324101D1*
Y1321104D1*
Y1318107D1*
Y1315110D1*
Y1312113D1*
Y1309116D1*
Y1306119D1*
Y1303122D1*
Y1300125D1*
X2791285Y1297101D1*
X2791795Y1294104D1*
X2792962Y1291107D1*
X2794930Y1288110D1*
X2797190Y1285113D1*
X2812134Y1327125D2*
Y1324101D1*
Y1321104D1*
Y1318107D1*
Y1315110D1*
Y1312113D1*
Y1309116D1*
Y1306119D1*
Y1303122D1*
Y1300125D1*
X2812062Y1297101D1*
X2811551Y1294104D1*
X2810312Y1291107D1*
X2808417Y1288110D1*
X2806157Y1285113D1*
X2818185Y1327125D2*
Y1324101D1*
Y1321104D1*
Y1318107D1*
Y1315110D1*
Y1312113D1*
Y1309116D1*
Y1306119D1*
Y1303122D1*
Y1300125D1*
Y1297101D1*
X2818039Y1294104D1*
X2817675Y1291107D1*
X2816800Y1288110D1*
X2815561Y1285113D1*
X2813957Y1282116D1*
X2812134Y1279119D1*
X2824163Y1327125D2*
X2824600Y1324101D1*
X2825402Y1321104D1*
X2826131Y1318107D1*
X2826714Y1315110D1*
X2827079Y1312113D1*
X2827589Y1309116D1*
X2828318Y1306119D1*
X2829120Y1303122D1*
X2829703Y1300125D1*
X2830068Y1297101D1*
X2830578Y1294104D1*
X2831380Y1291107D1*
X2832109Y1288110D1*
X2832692Y1285113D1*
X2832984Y1282116D1*
X2833130Y1279119D1*
X2830141Y1327125D2*
X2830651Y1324101D1*
X2831380Y1321104D1*
X2832182Y1318107D1*
X2832692Y1315110D1*
X2832984Y1312113D1*
X2833057Y1309116D1*
X2833130Y1306119D1*
X2845158Y1327125D2*
X2845012Y1324101D1*
X2844648Y1321104D1*
X2843919Y1318107D1*
X2843190Y1315110D1*
X2842680Y1312113D1*
X2842388Y1309116D1*
X2842169Y1306119D1*
X2854198Y1327125D2*
X2854271Y1324101D1*
X2854635Y1321104D1*
X2855364Y1318107D1*
X2856166Y1315110D1*
X2856676Y1312113D1*
X2856968Y1309116D1*
X2857187Y1306119D1*
X2869142Y1327125D2*
X2869069Y1324101D1*
X2868632Y1321104D1*
X2867976Y1318107D1*
X2867174Y1315110D1*
X2866664Y1312113D1*
X2866372Y1309116D1*
X2866153Y1306119D1*
X2875193Y1327125D2*
X2874683Y1324101D1*
X2873954Y1321104D1*
X2873152Y1318107D1*
X2872641Y1315110D1*
X2872277Y1312113D1*
X2871767Y1309116D1*
X2870965Y1306119D1*
X2870163Y1303122D1*
X2869653Y1300125D1*
X2869288Y1297101D1*
X2868778Y1294104D1*
X2867976Y1291107D1*
X2867174Y1288110D1*
X2866664Y1285113D1*
X2866372Y1282116D1*
X2866153Y1279119D1*
X2971129Y1324101D2*
X2947145Y1321104D1*
Y1318107D1*
Y1315110D1*
X2947072Y1312113D1*
X2946635Y1309116D1*
X2945979Y1306119D1*
X2945177Y1303122D1*
X2944667Y1300125D1*
X2944375Y1297101D1*
X2944156Y1294104D1*
X2929868Y1291107D1*
X2918787Y1288110D1*
X2910695Y1285113D1*
X2904717Y1282116D1*
X2900271Y1279119D1*
X2896698Y1276122D1*
X2893855Y1273125D1*
X2891523Y1270101D1*
X2889700Y1267104D1*
X2888023Y1264107D1*
X2886420Y1261110D1*
X2884962Y1258113D1*
X2883504Y1255116D1*
X2882264Y1252119D1*
X2881171Y1249122D1*
X2980169Y1324101D2*
Y1321104D1*
Y1318107D1*
Y1315110D1*
Y1312113D1*
Y1309116D1*
Y1306119D1*
Y1303122D1*
Y1300125D1*
X3001164D1*
Y1297101D1*
Y1294104D1*
Y1291107D1*
Y1288110D1*
Y1285113D1*
Y1282116D1*
Y1279119D1*
Y1276122D1*
Y1273125D1*
Y1270101D1*
Y1267104D1*
X3013193Y1324101D2*
Y1321104D1*
Y1318107D1*
X3025148Y1324101D2*
Y1321104D1*
Y1318107D1*
X2845158Y1309116D2*
Y1306119D1*
Y1303122D1*
X2845012Y1300125D1*
X2844648Y1297101D1*
X2843919Y1294104D1*
X2843190Y1291107D1*
X2842534Y1288110D1*
X2841805Y1285113D1*
X2840638Y1282116D1*
X2839180Y1279119D1*
X2848147Y1309116D2*
X2850553Y1306119D1*
X2852302Y1303122D1*
X2853469Y1300125D1*
X2854344Y1297101D1*
X2855218Y1294104D1*
X2856093Y1291107D1*
X2856749Y1288110D1*
X2857551Y1285113D1*
X2858718Y1282116D1*
X2860176Y1279119D1*
X3109129Y1291107D2*
X3102276Y1288110D1*
X3096226Y1285113D1*
X3091123Y1282116D1*
X3086749Y1279119D1*
X3083322Y1276122D1*
X3080698Y1273125D1*
X3078365Y1270101D1*
X3076178Y1267104D1*
X3139164Y1291107D2*
X3146454Y1288110D1*
X3152796Y1285113D1*
X3157972Y1282116D1*
X3162200Y1279119D1*
X3165627Y1276122D1*
X3168470Y1273125D1*
X3170802Y1270101D1*
X3172625Y1267104D1*
X3174302Y1264107D1*
X3175760Y1261110D1*
X3177072Y1258113D1*
X3178165Y1255116D1*
X2932128Y1285113D2*
X2923890Y1282116D1*
X2916600Y1279119D1*
X2910841Y1276122D1*
X2906321Y1273125D1*
X2902749Y1270101D1*
X2899833Y1267104D1*
X2897427Y1264107D1*
X2895313Y1261110D1*
X2893272Y1258113D1*
X2891814Y1255116D1*
X2890866Y1252119D1*
X2890137Y1249122D1*
X2947145Y1285113D2*
X2953123Y1282116D1*
X2959028Y1279119D1*
X2964568Y1276122D1*
X2969307Y1273125D1*
X2973243Y1270101D1*
X2976305Y1267104D1*
X2978711Y1264107D1*
X2980606Y1261110D1*
X2982283Y1258113D1*
X2983814Y1255116D1*
X2985053Y1252119D1*
X2986147Y1249122D1*
X3121158Y1285113D2*
X3112774Y1282116D1*
X3105120Y1279119D1*
X3098631Y1276122D1*
X3093383Y1273125D1*
X3089227Y1270101D1*
X3086093Y1267104D1*
X3083614Y1264107D1*
X3081719Y1261110D1*
X3080042Y1258113D1*
X3078511Y1255116D1*
X3077272Y1252119D1*
X3076178Y1249122D1*
X3130197Y1285113D2*
X3138070Y1282116D1*
X3144996Y1279119D1*
X3150755Y1276122D1*
X3155421Y1273125D1*
X3159284Y1270101D1*
X3162346Y1267104D1*
X3164825Y1264107D1*
X3167012Y1261110D1*
X3169126Y1258113D1*
X3171531Y1255116D1*
X3174375Y1252119D1*
X3183779Y1249122D1*
X3198723Y1246125D1*
X3217167Y1243101D1*
Y1240104D1*
Y1237107D1*
Y1234110D1*
Y1231113D1*
Y1228116D1*
Y1225119D1*
Y1222122D1*
Y1219125D1*
Y1216101D1*
Y1213104D1*
Y1210107D1*
Y1207110D1*
Y1204113D1*
Y1201116D1*
Y1198119D1*
Y1195122D1*
Y1192125D1*
Y1189101D1*
Y1186104D1*
Y1183107D1*
Y1180110D1*
Y1177113D1*
Y1174116D1*
Y1171119D1*
Y1168122D1*
Y1165125D1*
Y1162101D1*
Y1159104D1*
X2788150Y1270101D2*
Y1267104D1*
Y1264107D1*
Y1261110D1*
Y1258113D1*
Y1255116D1*
Y1252119D1*
Y1249122D1*
Y1246125D1*
Y1243101D1*
Y1240104D1*
Y1237107D1*
Y1234110D1*
Y1231113D1*
Y1228116D1*
Y1225119D1*
Y1222122D1*
Y1219125D1*
Y1216101D1*
Y1213104D1*
Y1210107D1*
Y1207110D1*
Y1204113D1*
Y1201116D1*
Y1198119D1*
Y1195122D1*
Y1192125D1*
Y1189101D1*
Y1186104D1*
Y1183107D1*
Y1180110D1*
Y1177113D1*
Y1174116D1*
Y1171119D1*
Y1168122D1*
Y1165125D1*
Y1162101D1*
Y1159104D1*
X2848147Y1270101D2*
X2854927Y1267104D1*
X2860540Y1264107D1*
X2864914Y1261110D1*
X2868195Y1258113D1*
X2870600Y1255116D1*
X2872496Y1252119D1*
X2873808Y1249122D1*
X2874537Y1246125D1*
X2875047Y1243101D1*
X2875557Y1240104D1*
X2876214Y1237107D1*
X2876651Y1234110D1*
X2876432Y1231113D1*
X2875995Y1228116D1*
X2875557Y1225119D1*
X2875193Y1222122D1*
X2874756Y1219125D1*
X2873808Y1216101D1*
X2872569Y1213104D1*
X2870673Y1210107D1*
X2867903Y1207110D1*
X2864039Y1204113D1*
X2859301Y1201116D1*
X2854198Y1198119D1*
X2856676Y1195122D1*
X2858936Y1192125D1*
X2861050Y1189101D1*
X2863164Y1186104D1*
X2865060Y1183107D1*
X2866737Y1180110D1*
X2868486Y1177113D1*
X2870309Y1174116D1*
X2872204Y1171119D1*
X2874027Y1168122D1*
X2875703Y1165125D1*
X2877015Y1162101D1*
X2878182Y1159104D1*
X2932128Y1270101D2*
X2923526Y1267104D1*
X2916309Y1264107D1*
X2910622Y1261110D1*
X2906248Y1258113D1*
X2902749Y1255116D1*
X2899833Y1252119D1*
X2897573Y1249122D1*
X2895678Y1246125D1*
X2894001Y1243101D1*
X2892543Y1240104D1*
X2891450Y1237107D1*
X2890721Y1234110D1*
X2890283Y1231113D1*
X2889773Y1228116D1*
X2888971Y1225119D1*
X2888169Y1222122D1*
X2887659Y1219125D1*
X2887367Y1216101D1*
Y1213104D1*
X2887659Y1210107D1*
X2888388Y1207110D1*
X2889117Y1204113D1*
X2889700Y1201116D1*
X2890065Y1198119D1*
X2890575Y1195122D1*
X2891450Y1192125D1*
X2892616Y1189101D1*
X2894001Y1186104D1*
X2895532Y1183107D1*
X2897427Y1180110D1*
X2899760Y1177113D1*
X2902458Y1174116D1*
X2905374Y1171119D1*
X2908946Y1168122D1*
X2913611Y1165125D1*
X2919516Y1162101D1*
X2926150Y1159104D1*
X2947145Y1270101D2*
X2955456Y1267104D1*
X2962308Y1264107D1*
X2967776Y1261110D1*
X2972077Y1258113D1*
X2975212Y1255116D1*
X2977763Y1252119D1*
X2980023Y1249122D1*
X2981991Y1246125D1*
X2983595Y1243101D1*
X2984980Y1240104D1*
X2986074Y1237107D1*
X2987094Y1234110D1*
X2988042Y1231113D1*
X2988625Y1228116D1*
X2988917Y1225119D1*
X2989063Y1222122D1*
X2989136Y1219125D1*
Y1216101D1*
Y1213104D1*
Y1210107D1*
Y1207110D1*
X2989063Y1204113D1*
X2988698Y1201116D1*
X2987896Y1198119D1*
X2987022Y1195122D1*
X2986147Y1192125D1*
X2985053Y1189101D1*
X2983741Y1186104D1*
X2982356Y1183107D1*
X2980752Y1180110D1*
X2978857Y1177113D1*
X2976524Y1174116D1*
X2973754Y1171119D1*
X2970327Y1168122D1*
X2965735Y1165125D1*
X2959757Y1162101D1*
X2953196Y1159104D1*
X3115180Y1270101D2*
X3107015Y1267104D1*
X3100527Y1264107D1*
X3095643Y1261110D1*
X3091779Y1258113D1*
X3088425Y1255116D1*
X3085364Y1252119D1*
X3082666Y1249122D1*
X3080552Y1246125D1*
X3078803Y1243101D1*
X3077490Y1240104D1*
X3076689Y1237107D1*
X3075887Y1234110D1*
X3075012Y1231113D1*
X3074210Y1228116D1*
X3073700Y1225119D1*
X3073408Y1222122D1*
X3073262Y1219125D1*
X3073189Y1216101D1*
Y1213104D1*
Y1210107D1*
Y1207110D1*
X3073262Y1204113D1*
X3073627Y1201116D1*
X3074356Y1198119D1*
X3075231Y1195122D1*
X3076178Y1192125D1*
X3077272Y1189101D1*
X3078657Y1186104D1*
X3080334Y1183107D1*
X3082302Y1180110D1*
X3084197Y1177113D1*
X3086384Y1174116D1*
X3089300Y1171119D1*
X3093383Y1168122D1*
X3098704Y1165125D1*
X3105120Y1162101D1*
X3112191Y1159104D1*
X3133186Y1270101D2*
X3141351Y1267104D1*
X3147839Y1264107D1*
X3152723Y1261110D1*
X3156587Y1258113D1*
X3159795Y1255116D1*
X3162565Y1252119D1*
X3164825Y1249122D1*
X3166647Y1246125D1*
X3168324Y1243101D1*
X3169782Y1240104D1*
X3170875Y1237107D1*
X3171677Y1234110D1*
X3172406Y1231113D1*
X3173281Y1228116D1*
X3174083Y1225119D1*
X3174666Y1222122D1*
X3174958Y1219125D1*
X3175104Y1216101D1*
Y1213104D1*
X3175031Y1210107D1*
X3174666Y1207110D1*
X3173937Y1204113D1*
X3173135Y1201116D1*
X3172552Y1198119D1*
X3171896Y1195122D1*
X3171021Y1192125D1*
X3170073Y1189101D1*
X3169053Y1186104D1*
X3167668Y1183107D1*
X3165918Y1180110D1*
X3164023Y1177113D1*
X3161909Y1174116D1*
X3158993Y1171119D1*
X3154983Y1168122D1*
X3149661Y1165125D1*
X3143173Y1162101D1*
X3136175Y1159104D1*
X3184143Y1270101D2*
Y1267104D1*
Y1264107D1*
Y1261110D1*
Y1258113D1*
Y1255116D1*
X3277164Y1270101D2*
X3275997Y1267104D1*
X3274758Y1264107D1*
X3273446Y1261110D1*
X3272279Y1258113D1*
X3271259Y1255116D1*
X3270165Y1252119D1*
X3269290Y1249122D1*
X3268634Y1246125D1*
X3268197Y1243101D1*
X3241151D1*
Y1240104D1*
Y1237107D1*
Y1234110D1*
Y1231113D1*
Y1228116D1*
Y1225119D1*
Y1222122D1*
Y1219125D1*
Y1216101D1*
Y1213104D1*
Y1210107D1*
Y1207110D1*
Y1204113D1*
Y1201116D1*
Y1198119D1*
Y1195122D1*
Y1192125D1*
Y1189101D1*
Y1186104D1*
Y1183107D1*
Y1180110D1*
Y1177113D1*
Y1174116D1*
Y1171119D1*
Y1168122D1*
Y1165125D1*
Y1162101D1*
Y1159104D1*
X3286130Y1270101D2*
Y1267104D1*
Y1264107D1*
Y1261110D1*
Y1258113D1*
Y1255116D1*
Y1252119D1*
Y1249122D1*
Y1246125D1*
Y1243101D1*
Y1240104D1*
Y1237107D1*
Y1234110D1*
Y1231113D1*
Y1228116D1*
Y1225119D1*
Y1222122D1*
Y1219125D1*
Y1216101D1*
Y1213104D1*
Y1210107D1*
Y1207110D1*
Y1204113D1*
Y1201116D1*
Y1198119D1*
Y1195122D1*
Y1192125D1*
Y1189101D1*
Y1186104D1*
Y1183107D1*
Y1180110D1*
Y1177113D1*
Y1174116D1*
Y1171119D1*
Y1168122D1*
Y1165125D1*
Y1162101D1*
Y1159104D1*
X3313176Y1270101D2*
Y1267104D1*
Y1264107D1*
Y1261110D1*
Y1258113D1*
Y1255116D1*
Y1252119D1*
Y1249122D1*
Y1246125D1*
Y1243101D1*
Y1240104D1*
Y1237107D1*
Y1234110D1*
Y1231113D1*
Y1228116D1*
Y1225119D1*
Y1222122D1*
Y1219125D1*
Y1216101D1*
Y1213104D1*
Y1210107D1*
Y1207110D1*
Y1204113D1*
Y1201116D1*
Y1198119D1*
Y1195122D1*
Y1192125D1*
Y1189101D1*
Y1186104D1*
Y1183107D1*
Y1180110D1*
Y1177113D1*
Y1174116D1*
Y1171119D1*
Y1168122D1*
Y1165125D1*
Y1162101D1*
Y1159104D1*
X3367195Y1270101D2*
X3357499Y1267104D1*
X3349772Y1264107D1*
X3343867Y1261110D1*
X3339420Y1258113D1*
X3336140Y1255116D1*
X3333588Y1252119D1*
X3331401Y1249122D1*
X3329724Y1246125D1*
X3328412Y1243101D1*
X3327246Y1240104D1*
X3326298Y1237107D1*
X3325569Y1234110D1*
X3324913Y1231113D1*
X3324038Y1228116D1*
X3323236Y1225119D1*
X3322653Y1222122D1*
X3322362Y1219125D1*
X3322216Y1216101D1*
Y1213104D1*
X3322289Y1210107D1*
X3322653Y1207110D1*
X3323382Y1204113D1*
X3324184Y1201116D1*
X3324694Y1198119D1*
X3325059Y1195122D1*
X3325569Y1192125D1*
X3326444Y1189101D1*
X3327683Y1186104D1*
X3328995Y1183107D1*
X3330599Y1180110D1*
X3332422Y1177113D1*
X3334755Y1174116D1*
X3337525Y1171119D1*
X3341024Y1168122D1*
X3345617Y1165125D1*
X3351522Y1162101D1*
X3358155Y1159104D1*
X3415163Y1270101D2*
X3413997Y1267104D1*
X3412758Y1264107D1*
X3411372Y1261110D1*
X3409914Y1258113D1*
X3408529Y1255116D1*
X3407436Y1252119D1*
X3406707Y1249122D1*
X3406197Y1246125D1*
X3448187Y1270101D2*
X3442428Y1267104D1*
X3437689Y1264107D1*
X3433899Y1261110D1*
X3431055Y1258113D1*
X3429014Y1255116D1*
X3427556Y1252119D1*
X3426317Y1249122D1*
X3425296Y1246125D1*
X3424713Y1243101D1*
X3424422Y1240104D1*
X3424276Y1237107D1*
X3424203Y1234110D1*
X3424276Y1231113D1*
X3424640Y1228116D1*
X3425369Y1225119D1*
X3426244Y1222122D1*
X3427265Y1219125D1*
X3428796Y1216101D1*
X3431055Y1213104D1*
X3434044Y1210107D1*
X3437908Y1207110D1*
X3442136Y1204113D1*
X3514161Y1270101D2*
X3513724Y1267104D1*
X3512922Y1264107D1*
X3512047Y1261110D1*
X3511173Y1258113D1*
X3510006Y1255116D1*
X3508694Y1252119D1*
X3507017Y1249122D1*
X3505195Y1246125D1*
X2812134D2*
Y1243101D1*
Y1240104D1*
Y1237107D1*
Y1234110D1*
Y1231113D1*
Y1228116D1*
Y1225119D1*
X2836191Y1246125D2*
X2841440Y1243101D1*
X2845668Y1240104D1*
X2848949Y1237107D1*
X2849970Y1234110D1*
X2849532Y1231113D1*
X2848876Y1228116D1*
X2848147Y1225119D1*
X2938179Y1246125D2*
X2932784Y1243101D1*
X2928118Y1240104D1*
X2924473Y1237107D1*
X2921849Y1234110D1*
X2919881Y1231113D1*
X2918423Y1228116D1*
X2917329Y1225119D1*
X2916236Y1222122D1*
X2915288Y1219125D1*
X2914778Y1216101D1*
X2914851Y1213104D1*
X2915507Y1210107D1*
X2916309Y1207110D1*
X2917183Y1204113D1*
X2918277Y1201116D1*
X2919662Y1198119D1*
X2921484Y1195122D1*
X2923744Y1192125D1*
X2926369Y1189101D1*
X2929139Y1186104D1*
X2941167Y1246125D2*
X2946562Y1243101D1*
X2951228Y1240104D1*
X2954800Y1237107D1*
X2957497Y1234110D1*
X2959392Y1231113D1*
X2960778Y1228116D1*
X2961507Y1225119D1*
X2961871Y1222122D1*
X2962090Y1219125D1*
Y1216101D1*
X2962163Y1213104D1*
Y1210107D1*
X2962017Y1207110D1*
X2961652Y1204113D1*
X2960850Y1201116D1*
X2959538Y1198119D1*
X2957789Y1195122D1*
X2955529Y1192125D1*
X2952904Y1189101D1*
X2950134Y1186104D1*
X3118169Y1246125D2*
X3114815Y1243101D1*
X3111462Y1240104D1*
X3108546Y1237107D1*
X3106140Y1234110D1*
X3104245Y1231113D1*
X3102641Y1228116D1*
X3101475Y1225119D1*
X3100746Y1222122D1*
X3100381Y1219125D1*
X3100235Y1216101D1*
X3100308Y1213104D1*
X3100673Y1210107D1*
X3101402Y1207110D1*
X3102276Y1204113D1*
X3103151Y1201116D1*
X3104318Y1198119D1*
X3105849Y1195122D1*
X3108036Y1192125D1*
X3111316Y1189101D1*
X3115180Y1186104D1*
X3127135Y1246125D2*
X3132457Y1243101D1*
X3136831Y1240104D1*
X3139966Y1237107D1*
X3142226Y1234110D1*
X3143757Y1231113D1*
X3144996Y1228116D1*
X3146089Y1225119D1*
X3147037Y1222122D1*
X3147620Y1219125D1*
X3147912Y1216101D1*
X3148058Y1213104D1*
X3147985Y1210107D1*
X3147620Y1207110D1*
X3146818Y1204113D1*
X3145652Y1201116D1*
X3144340Y1198119D1*
X3142736Y1195122D1*
X3140913Y1192125D1*
X3138654Y1189101D1*
X3136175Y1186104D1*
X3370184Y1246125D2*
X3364862Y1243101D1*
X3360488Y1240104D1*
X3357354Y1237107D1*
X3355094Y1234110D1*
X3353563Y1231113D1*
X3352323Y1228116D1*
X3351230Y1225119D1*
X3350282Y1222122D1*
X3349699Y1219125D1*
X3349407Y1216101D1*
X3349262Y1213104D1*
X3349335Y1210107D1*
X3349699Y1207110D1*
X3350428Y1204113D1*
X3351303Y1201116D1*
X3352323Y1198119D1*
X3353781Y1195122D1*
X3355896Y1192125D1*
X3358447Y1189101D1*
X3361290Y1186104D1*
X3364133Y1183107D1*
X3457154Y1246125D2*
X3454748Y1243101D1*
X3452998Y1240104D1*
X3451832Y1237107D1*
Y1234110D1*
X3453071Y1231113D1*
X3454967Y1228116D1*
X3457154Y1225119D1*
X3001164Y1237107D2*
Y1234110D1*
Y1231113D1*
Y1228116D1*
Y1225119D1*
Y1222122D1*
Y1219125D1*
Y1216101D1*
Y1213104D1*
Y1210107D1*
Y1207110D1*
Y1204113D1*
Y1201116D1*
Y1198119D1*
Y1195122D1*
Y1192125D1*
Y1189101D1*
Y1186104D1*
Y1183107D1*
Y1180110D1*
Y1177113D1*
Y1174116D1*
Y1171119D1*
Y1168122D1*
Y1165125D1*
Y1162101D1*
Y1159104D1*
X3055183Y1237107D2*
X3058974Y1234110D1*
X3061671Y1231113D1*
X3063494Y1228116D1*
X3064879Y1225119D1*
X3065972Y1222122D1*
X3066628Y1219125D1*
X3066774Y1216101D1*
X3066555Y1213104D1*
X3065826Y1210107D1*
X3064660Y1207110D1*
X3063567Y1204113D1*
X3062619Y1201116D1*
X3062983Y1198119D1*
X3063858Y1195122D1*
X3064952Y1192125D1*
X3065972Y1189101D1*
X3066628Y1186104D1*
X3066920Y1183107D1*
X3067066Y1180110D1*
X3066993Y1177113D1*
X3066628Y1174116D1*
X3065826Y1171119D1*
X3064441Y1168122D1*
X3062254Y1165125D1*
X3058974Y1162101D1*
X3055183Y1159104D1*
X3496155Y1225119D2*
X3501477Y1222122D1*
X3505851Y1219125D1*
X3508986Y1216101D1*
X3511173Y1213104D1*
X3512703Y1210107D1*
X3513505Y1207110D1*
X3513870Y1204113D1*
X3514089Y1201116D1*
Y1198119D1*
X3514161Y1195122D1*
Y1192125D1*
Y1189101D1*
Y1186104D1*
X3514016Y1183107D1*
X3513651Y1180110D1*
X3512849Y1177113D1*
X3511537Y1174116D1*
X3509787Y1171119D1*
X3507382Y1168122D1*
X3504320Y1165125D1*
X3500456Y1162101D1*
X3496155Y1159104D1*
X3019170Y1222122D2*
Y1219125D1*
Y1216101D1*
Y1213104D1*
Y1210107D1*
X3037177Y1222122D2*
X3041842Y1219125D1*
X3045633Y1216101D1*
X3047164Y1213104D1*
X3046143Y1210107D1*
X2812134Y1207110D2*
Y1204113D1*
Y1201116D1*
Y1198119D1*
Y1195122D1*
Y1192125D1*
Y1189101D1*
Y1186104D1*
Y1183107D1*
Y1180110D1*
Y1177113D1*
Y1174116D1*
Y1171119D1*
Y1168122D1*
Y1165125D1*
Y1162101D1*
Y1159104D1*
X2815196Y1207110D2*
X2817675Y1204113D1*
X2819935Y1201116D1*
X2822049Y1198119D1*
X2824163Y1195122D1*
X2826131Y1192125D1*
X2828172Y1189101D1*
X2830214Y1186104D1*
X2832182Y1183107D1*
X2834150Y1180110D1*
X2836191Y1177113D1*
X2838160Y1174116D1*
X2840128Y1171119D1*
X2842169Y1168122D1*
X2844138Y1165125D1*
X2846106Y1162101D1*
X2848147Y1159104D1*
X3481138Y1204113D2*
X3484054Y1201116D1*
X3486532Y1198119D1*
X3488574Y1195122D1*
X3489157Y1192125D1*
X3488063Y1189101D1*
X3486314Y1186104D1*
X3484127Y1183107D1*
X3019170Y1198119D2*
Y1195122D1*
Y1192125D1*
Y1189101D1*
Y1186104D1*
Y1183107D1*
Y1180110D1*
X3025148Y1198119D2*
X3025804Y1195122D1*
X3028502Y1192125D1*
X3034261Y1189101D1*
X3039582Y1186104D1*
X3043373Y1183107D1*
X3046143Y1180110D1*
X3415163Y1183107D2*
Y1180110D1*
Y1177113D1*
Y1174116D1*
Y1171119D1*
Y1168122D1*
Y1165125D1*
Y1162101D1*
Y1159104D1*
X3433170Y1183107D2*
X3432149Y1180110D1*
X3431128Y1177113D1*
X3430181Y1174116D1*
X3429014Y1171119D1*
X3427775Y1168122D1*
X3426463Y1165125D1*
X3425223Y1162101D1*
X3424130Y1159104D1*
X3358155Y1147116D2*
Y1144119D1*
Y1141122D1*
Y1138125D1*
X3373173D1*
Y1135101D1*
Y1132104D1*
Y1129107D1*
Y1126110D1*
Y1123113D1*
Y1120116D1*
Y1117119D1*
Y1114122D1*
Y1111125D1*
Y1108101D1*
Y1105104D1*
Y1102107D1*
Y1099110D1*
Y1096113D1*
X3394168Y1147116D2*
Y1144119D1*
Y1141122D1*
Y1138125D1*
X3379151D1*
Y1135101D1*
Y1132104D1*
Y1129107D1*
Y1126110D1*
Y1123113D1*
Y1120116D1*
Y1117119D1*
Y1114122D1*
Y1111125D1*
Y1108101D1*
Y1105104D1*
Y1102107D1*
Y1099110D1*
Y1096113D1*
X3400146Y1147116D2*
Y1144119D1*
Y1141122D1*
Y1138125D1*
Y1135101D1*
Y1132104D1*
Y1129107D1*
Y1126110D1*
Y1123113D1*
Y1120116D1*
Y1117119D1*
Y1114122D1*
Y1111125D1*
Y1108101D1*
Y1105104D1*
Y1102107D1*
Y1099110D1*
Y1096113D1*
X3424130Y1147116D2*
Y1144119D1*
Y1141122D1*
Y1138125D1*
X3406197D1*
Y1135101D1*
Y1132104D1*
Y1129107D1*
Y1126110D1*
X3421141D1*
Y1123113D1*
Y1120116D1*
Y1117119D1*
X3406197D1*
Y1114122D1*
Y1111125D1*
Y1108101D1*
Y1105104D1*
X3448187Y1147116D2*
X3447021Y1144119D1*
X3445708Y1141122D1*
X3444469Y1138125D1*
X3443303Y1135101D1*
X3442209Y1132104D1*
X3441189Y1129107D1*
X3440168Y1126110D1*
X3439147Y1123113D1*
X3438054Y1120116D1*
X3436742Y1117119D1*
X3435429Y1114122D1*
X3434409Y1111125D1*
X3433680Y1108101D1*
X3433170Y1105104D1*
X3454165Y1147116D2*
X3455185Y1144119D1*
X3456206Y1141122D1*
X3457154Y1138125D1*
X3458174Y1135101D1*
X3459195Y1132104D1*
X3460143Y1129107D1*
X3461309Y1126110D1*
X3462548Y1123113D1*
X3463860Y1120116D1*
X3465027Y1117119D1*
X3466047Y1114122D1*
X3467141Y1111125D1*
X3468089Y1108101D1*
X3468672Y1105104D1*
X3469182Y1102107D1*
X3475160Y1147116D2*
Y1144119D1*
Y1141122D1*
Y1138125D1*
Y1135101D1*
Y1132104D1*
Y1129107D1*
Y1126110D1*
Y1123113D1*
Y1120116D1*
Y1117119D1*
Y1114122D1*
Y1111125D1*
Y1108101D1*
Y1105104D1*
Y1102107D1*
X3481138Y1147116D2*
X3483033Y1144119D1*
X3484637Y1141122D1*
X3485949Y1138125D1*
X3487043Y1135101D1*
X3488209Y1132104D1*
X3489521Y1129107D1*
X3490906Y1126110D1*
X3492073Y1123113D1*
X3493166Y1120116D1*
X3508184Y1147116D2*
X3507090Y1144119D1*
X3506142Y1141122D1*
X3505195Y1138125D1*
X3504174Y1135101D1*
X3503154Y1132104D1*
X3502206Y1129107D1*
X3501112Y1126110D1*
X3500092Y1123113D1*
X3499144Y1120116D1*
X3514161Y1147116D2*
Y1144119D1*
Y1141122D1*
Y1138125D1*
Y1135101D1*
Y1132104D1*
Y1129107D1*
Y1126110D1*
Y1123113D1*
Y1120116D1*
Y1117119D1*
Y1114122D1*
Y1111125D1*
Y1108101D1*
Y1105104D1*
Y1102107D1*
Y1099110D1*
Y1096113D1*
X3451176Y1132104D2*
X3448770Y1129107D1*
X3447021Y1126110D1*
X3445927Y1123113D1*
X3445125Y1120116D1*
X3454165Y1132104D2*
X3454311Y1129107D1*
X3454748Y1126110D1*
X3455769Y1123113D1*
X3457154Y1120116D1*
X3481138Y1123113D2*
Y1120116D1*
Y1117119D1*
Y1114122D1*
Y1111125D1*
Y1108101D1*
Y1105104D1*
Y1102107D1*
Y1099110D1*
Y1096113D1*
X3487188Y1123113D2*
X3487261Y1120116D1*
X3487699Y1117119D1*
X3488501Y1114122D1*
X3489740Y1111125D1*
X3491344Y1108101D1*
X3493166Y1105104D1*
X3502133Y1120116D2*
X3502060Y1117119D1*
X3501696Y1114122D1*
X3500894Y1111125D1*
X3500019Y1108101D1*
X3499144Y1105104D1*
X3508184Y1120116D2*
Y1117119D1*
Y1114122D1*
Y1111125D1*
Y1108101D1*
Y1105104D1*
Y1102107D1*
Y1099110D1*
Y1096113D1*
X3439147Y1111125D2*
X3438710Y1108101D1*
X3437981Y1105104D1*
X3437179Y1102107D1*
X3436596Y1099110D1*
X3436158Y1096113D1*
X3460143Y1111125D2*
X3460653Y1108101D1*
X3461528Y1105104D1*
X3462767Y1102107D1*
X3464371Y1099110D1*
X3466193Y1096113D1*
X1199139Y773330D2*
D81*
X1195336Y771429D1*
X1191489Y767582D1*
X1189588Y763780D1*
Y756130D1*
X1191489Y752284D1*
X1195336Y748481D1*
X1199139Y746536D1*
X1204887Y744634D1*
X1214482D1*
X1220185Y746536D1*
X1224032Y748481D1*
X1227835Y752284D1*
X1229780Y756130D1*
Y763780D1*
X1227835Y767582D1*
X1224032Y771429D1*
X1220185Y773330D1*
X1197282Y785141D2*
X1195336Y788988D1*
X1189632Y794736D1*
X1229780D1*
X1187622Y1309690D2*
X1183819Y1307788D1*
X1179972Y1303942D1*
X1178071Y1300139D1*
Y1292490D1*
X1179972Y1288643D1*
X1183819Y1284840D1*
X1187622Y1282895D1*
X1193370Y1280994D1*
X1202964D1*
X1208668Y1282895D1*
X1212515Y1284840D1*
X1216318Y1288643D1*
X1218263Y1292490D1*
Y1300139D1*
X1216318Y1303941D1*
X1212515Y1307788D1*
X1208668Y1309690D1*
X1187666Y1323446D2*
X1185765D1*
X1181918Y1325347D1*
X1180017Y1327249D1*
X1178115Y1331095D1*
Y1338745D1*
X1180017Y1342547D1*
X1181918Y1344448D1*
X1185765Y1346394D1*
X1189567D1*
X1193414Y1344448D1*
X1199118Y1340646D1*
X1218263Y1321501D1*
Y1348295D1*
X513017Y1271571D2*
X509214Y1269670D1*
X505367Y1265823D1*
X503466Y1262021D1*
Y1254372D1*
X505367Y1250525D1*
X509214Y1246722D1*
X513017Y1244777D1*
X518765Y1242876D1*
X528359D1*
X534063Y1244777D1*
X537910Y1246722D1*
X541713Y1250525D1*
X543658Y1254372D1*
Y1262021D1*
X541713Y1265823D1*
X537910Y1269670D1*
X534063Y1271571D1*
X503510Y1287229D2*
Y1308232D1*
X518809Y1296780D1*
Y1302528D1*
X520710Y1306330D1*
X522612Y1308232D1*
X528360Y1310177D1*
X532162D1*
X537910Y1308232D1*
X541757Y1304429D1*
X543658Y1298681D1*
Y1292933D1*
X541757Y1287229D1*
X539811Y1285328D1*
X536009Y1283382D1*
X1538115Y574803D2*
X1534313Y572902D1*
X1530466Y569055D1*
X1528565Y565253D1*
Y557603D1*
X1530466Y553757D1*
X1534313Y549954D1*
X1538115Y548009D1*
X1543863Y546107D1*
X1553458D1*
X1559162Y548009D1*
X1563009Y549954D1*
X1566811Y553757D1*
X1568757Y557603D1*
Y565253D1*
X1566811Y569055D1*
X1563009Y572902D1*
X1559162Y574803D1*
X1568757Y605760D2*
X1528609D1*
X1555359Y586614D1*
Y615310D1*
X1285145Y761692D2*
X1281343Y759791D1*
X1277496Y755944D1*
X1275595Y752142D1*
Y744492D1*
X1277496Y740646D1*
X1281343Y736843D1*
X1285145Y734898D1*
X1290893Y732996D1*
X1300488D1*
X1306192Y734898D1*
X1310039Y736843D1*
X1313841Y740646D1*
X1315787Y744492D1*
Y752142D1*
X1313841Y755944D1*
X1310039Y759791D1*
X1306192Y761692D1*
X1275639Y796451D2*
Y777350D1*
X1292839Y775449D1*
X1290938Y777350D1*
X1288992Y783098D1*
Y788802D1*
X1290938Y794550D1*
X1294740Y798397D1*
X1300488Y800298D1*
X1304291D1*
X1310039Y798397D1*
X1313885Y794550D1*
X1315787Y788802D1*
Y783098D1*
X1313885Y777350D1*
X1311940Y775449D1*
X1308137Y773503D1*
X1458981Y572790D2*
X1455179Y570888D1*
X1451332Y567042D1*
X1449431Y563239D1*
Y555590D1*
X1451332Y551743D1*
X1455179Y547940D1*
X1458981Y545995D1*
X1464729Y544094D1*
X1474324D1*
X1480028Y545995D1*
X1483875Y547940D1*
X1487677Y551743D1*
X1489623Y555590D1*
Y563239D1*
X1487677Y567042D1*
X1483875Y570888D1*
X1480028Y572790D1*
X1455179Y607549D2*
X1451376Y605647D1*
X1449475Y599899D1*
Y596097D1*
X1451376Y590349D1*
X1457124Y586502D1*
X1466675Y584601D1*
X1476225D1*
X1483875Y586502D1*
X1487721Y590349D1*
X1489623Y596097D1*
Y597998D1*
X1487721Y603702D1*
X1483875Y607548D1*
X1478127Y609450D1*
X1476225D1*
X1470477Y607548D1*
X1466675Y603702D1*
X1464774Y597998D1*
Y596097D1*
X1466675Y590349D1*
X1470477Y586502D1*
X1476225Y584601D1*
X2771455Y816130D2*
X2767652Y814229D1*
X2763806Y810382D1*
X2761904Y806580D1*
Y798930D1*
X2763806Y795084D1*
X2767652Y791281D1*
X2771455Y789336D1*
X2777203Y787434D1*
X2786798D1*
X2792502Y789336D1*
X2796348Y791281D1*
X2800151Y795084D1*
X2802096Y798930D1*
Y806580D1*
X2800151Y810382D1*
X2796348Y814229D1*
X2792502Y816130D1*
X2761949Y837492D2*
X2763850Y831788D1*
X2767652Y829843D1*
X2771499D1*
X2775302Y831788D1*
X2777247Y835591D1*
X2779149Y843240D1*
X2781050Y848988D1*
X2784897Y852790D1*
X2788699Y854692D1*
X2794447D1*
X2798250Y852790D1*
X2800195Y850889D1*
X2802096Y845141D1*
Y837492D1*
X2800195Y831788D1*
X2798250Y829843D1*
X2794447Y827941D1*
X2788699D1*
X2784897Y829843D1*
X2781050Y833689D1*
X2779149Y839393D1*
X2777247Y847042D1*
X2775302Y850889D1*
X2771499Y852790D1*
X2767652D1*
X2763850Y850889D1*
X2761949Y845141D1*
Y837492D1*
X1391261Y1548685D2*
X1431453D1*
Y1562082D1*
X1429508Y1567830D1*
X1425705Y1571677D1*
X1421859Y1573578D1*
X1416155Y1575479D1*
X1406560D1*
X1400812Y1573578D1*
X1397009Y1571677D1*
X1393163Y1567830D1*
X1391261Y1562082D1*
Y1548685D1*
X1398955Y1587290D2*
X1397009Y1591137D1*
X1391306Y1596885D1*
X1431453D1*
X825284Y605842D2*
Y565650D1*
X838681D1*
X844429Y567596D1*
X848276Y571398D1*
X850177Y575245D1*
X852079Y580949D1*
Y590544D1*
X850177Y596292D1*
X848276Y600094D1*
X844429Y603941D1*
X838681Y605842D1*
X825284D1*
X865835Y596248D2*
Y598149D1*
X867737Y601996D1*
X869638Y603897D1*
X873485Y605798D1*
X881134D1*
X884936Y603897D1*
X886838Y601996D1*
X888783Y598149D1*
Y594346D1*
X886838Y590499D1*
X883035Y584796D1*
X863890Y565650D1*
X890684D1*
X3467522Y704063D2*
Y673466D1*
X3465621Y667718D1*
X3463675Y665816D1*
X3459873Y663871D1*
X3456026D1*
X3452223Y665816D1*
X3450322Y667718D1*
X3448377Y673466D1*
Y677268D1*
X3479333Y696369D2*
X3483180Y698315D1*
X3488928Y704019D1*
Y663871D1*
X1051737Y1577391D2*
Y1546794D1*
X1049836Y1541046D1*
X1047890Y1539144D1*
X1044088Y1537199D1*
X1040241D1*
X1036438Y1539144D1*
X1034537Y1541046D1*
X1032592Y1546794D1*
Y1550596D1*
X1065494Y1567796D2*
Y1569697D1*
X1067395Y1573544D1*
X1069296Y1575445D1*
X1073143Y1577347D1*
X1080792D1*
X1084595Y1575445D1*
X1086496Y1573544D1*
X1088441Y1569697D1*
Y1565895D1*
X1086496Y1562048D1*
X1082693Y1556344D1*
X1063548Y1537199D1*
X1090343D1*
X3459561Y1577391D2*
Y1546794D1*
X3457660Y1541046D1*
X3455714Y1539144D1*
X3451912Y1537199D1*
X3448065D1*
X3444263Y1539144D1*
X3442361Y1541046D1*
X3440416Y1546794D1*
Y1550596D1*
X3475219Y1577347D2*
X3496221D1*
X3484770Y1562048D1*
X3490518D1*
X3494320Y1560147D1*
X3496221Y1558246D1*
X3498167Y1552497D1*
Y1548695D1*
X3496221Y1542947D1*
X3492419Y1539100D1*
X3486671Y1537199D1*
X3480923D1*
X3475219Y1539100D1*
X3473318Y1541046D1*
X3471372Y1544848D1*
X1258126Y1682115D2*
X1254323Y1680258D1*
X1250477Y1676411D1*
X1248575Y1672565D1*
X1246630Y1666817D1*
Y1657266D1*
X1248575Y1651518D1*
X1250477Y1647716D1*
X1254323Y1643869D1*
X1258126Y1641967D1*
X1265775D1*
X1269622Y1643869D1*
X1273425Y1647716D1*
X1275326Y1651518D1*
X1277271Y1657266D1*
Y1666817D1*
X1275326Y1672565D1*
X1273425Y1676411D1*
X1269622Y1680258D1*
X1265775Y1682115D1*
X1258126D1*
X1263874Y1649617D2*
X1275326Y1638121D1*
X1289082Y1674422D2*
X1292929Y1676367D1*
X1298677Y1682071D1*
Y1641923D1*
X1356400Y2729310D2*
X1352598Y2727452D1*
X1348751Y2723606D1*
X1346849Y2719759D1*
X1344904Y2714011D1*
Y2704460D1*
X1346849Y2698712D1*
X1348751Y2694910D1*
X1352598Y2691063D1*
X1356400Y2689162D1*
X1364049D1*
X1367896Y2691063D1*
X1371699Y2694910D1*
X1373600Y2698712D1*
X1375545Y2704460D1*
Y2714011D1*
X1373600Y2719759D1*
X1371699Y2723606D1*
X1367896Y2727452D1*
X1364049Y2729310D1*
X1356400D1*
X1362148Y2696811D2*
X1373600Y2685315D1*
X1389302Y2719715D2*
Y2721616D1*
X1391203Y2725463D1*
X1393104Y2727364D1*
X1396951Y2729265D1*
X1404601D1*
X1408403Y2727364D1*
X1410304Y2725463D1*
X1412250Y2721616D1*
Y2717813D1*
X1410304Y2713967D1*
X1406502Y2708263D1*
X1387356Y2689118D1*
X1414151D1*
X2502069Y2729310D2*
X2498267Y2727452D1*
X2494420Y2723606D1*
X2492519Y2719759D1*
X2490573Y2714011D1*
Y2704460D1*
X2492519Y2698712D1*
X2494420Y2694910D1*
X2498267Y2691063D1*
X2502069Y2689162D1*
X2509719D1*
X2513565Y2691063D1*
X2517368Y2694910D1*
X2519269Y2698712D1*
X2521215Y2704460D1*
Y2714011D1*
X2519269Y2719759D1*
X2517368Y2723606D1*
X2513565Y2727452D1*
X2509719Y2729310D1*
X2502069D1*
X2507817Y2696811D2*
X2519269Y2685315D1*
X2536873Y2729265D2*
X2557875D1*
X2546423Y2713967D1*
X2552171D1*
X2555974Y2712065D1*
X2557875Y2710164D1*
X2559820Y2704416D1*
Y2700614D1*
X2557875Y2694866D1*
X2554072Y2691019D1*
X2548324Y2689118D1*
X2542576D1*
X2536873Y2691019D1*
X2534971Y2692964D1*
X2533026Y2696767D1*
X1938127Y2729310D2*
X1934324Y2727452D1*
X1930477Y2723606D1*
X1928576Y2719759D1*
X1926631Y2714011D1*
Y2704460D1*
X1928576Y2698712D1*
X1930477Y2694910D1*
X1934324Y2691063D1*
X1938127Y2689162D1*
X1945776D1*
X1949623Y2691063D1*
X1953425Y2694910D1*
X1955326Y2698712D1*
X1957272Y2704460D1*
Y2714011D1*
X1955326Y2719759D1*
X1953425Y2723606D1*
X1949623Y2727452D1*
X1945776Y2729310D1*
X1938127D1*
X1943875Y2696811D2*
X1955326Y2685315D1*
X1988228Y2689118D2*
Y2729265D1*
X1969083Y2702515D1*
X1997779D1*
X2502069Y1847420D2*
X2498267Y1845563D1*
X2494420Y1841716D1*
X2492519Y1837869D1*
X2490573Y1832121D1*
Y1822571D1*
X2492519Y1816823D1*
X2494420Y1813020D1*
X2498267Y1809173D1*
X2502069Y1807272D1*
X2509719D1*
X2513565Y1809173D1*
X2517368Y1813020D1*
X2519269Y1816823D1*
X2521215Y1822571D1*
Y1832121D1*
X2519269Y1837869D1*
X2517368Y1841716D1*
X2513565Y1845563D1*
X2509719Y1847420D1*
X2502069D1*
X2507817Y1814921D2*
X2519269Y1803425D1*
X2555974Y1847376D2*
X2536873D1*
X2534971Y1830176D1*
X2536873Y1832077D1*
X2542621Y1834022D1*
X2548324D1*
X2554072Y1832077D1*
X2557919Y1828274D1*
X2559820Y1822526D1*
Y1818724D1*
X2557919Y1812976D1*
X2554072Y1809129D1*
X2548324Y1807228D1*
X2542621D1*
X2536873Y1809129D1*
X2534971Y1811075D1*
X2533026Y1814877D1*
X1940050Y1847420D2*
X1936247Y1845563D1*
X1932401Y1841716D1*
X1930499Y1837869D1*
X1928554Y1832121D1*
Y1822571D1*
X1930499Y1816823D1*
X1932401Y1813020D1*
X1936247Y1809173D1*
X1940050Y1807272D1*
X1947699D1*
X1951546Y1809173D1*
X1955349Y1813020D1*
X1957250Y1816823D1*
X1959195Y1822571D1*
Y1832121D1*
X1957250Y1837869D1*
X1955349Y1841716D1*
X1951546Y1845563D1*
X1947699Y1847420D1*
X1940050D1*
X1945798Y1814921D2*
X1957250Y1803425D1*
X1993954Y1841672D2*
X1992053Y1845474D1*
X1986305Y1847376D1*
X1982502D1*
X1976754Y1845474D1*
X1972908Y1839726D1*
X1971006Y1830176D1*
Y1820625D1*
X1972908Y1812976D1*
X1976754Y1809129D1*
X1982502Y1807228D1*
X1984404D1*
X1990108Y1809129D1*
X1993954Y1812976D1*
X1995856Y1818724D1*
Y1820625D1*
X1993954Y1826373D1*
X1990108Y1830176D1*
X1984404Y1832077D1*
X1982502D1*
X1976754Y1830176D1*
X1972908Y1826373D1*
X1971006Y1820625D1*
X2959731Y736593D2*
X2955928Y734736D1*
X2952081Y730889D1*
X2950180Y727042D1*
X2948235Y721294D1*
Y711744D1*
X2950180Y705996D1*
X2952081Y702193D1*
X2955928Y698346D1*
X2959731Y696445D1*
X2967380D1*
X2971227Y698346D1*
X2975029Y702193D1*
X2976931Y705996D1*
X2978876Y711744D1*
Y721294D1*
X2976931Y727042D1*
X2975029Y730889D1*
X2971227Y734736D1*
X2967380Y736593D1*
X2959731D1*
X2965479Y704094D2*
X2976931Y692598D1*
X2998336Y696401D2*
X3017482Y736549D1*
X2990687D1*
X2959753Y970627D2*
X2955950Y968770D1*
X2952104Y964923D1*
X2950202Y961077D1*
X2948257Y955328D1*
Y945778D1*
X2950202Y940030D1*
X2952104Y936227D1*
X2955950Y932381D1*
X2959753Y930479D1*
X2967402D1*
X2971249Y932381D1*
X2975051Y936227D1*
X2976953Y940030D1*
X2978898Y945778D1*
Y955328D1*
X2976953Y961077D1*
X2975051Y964923D1*
X2971249Y968770D1*
X2967402Y970627D1*
X2959753D1*
X2965501Y938129D2*
X2976953Y926633D1*
X3000260Y970583D2*
X2994556Y968682D1*
X2992611Y964879D1*
Y961032D1*
X2994556Y957230D1*
X2998359Y955284D1*
X3006008Y953383D1*
X3011756Y951482D1*
X3015558Y947635D1*
X3017460Y943832D1*
Y938084D1*
X3015558Y934282D1*
X3013657Y932336D1*
X3007909Y930435D1*
X3000260D1*
X2994556Y932336D1*
X2992611Y934282D1*
X2990709Y938084D1*
Y943832D1*
X2992611Y947635D1*
X2996457Y951482D1*
X3002161Y953383D1*
X3009810Y955284D1*
X3013657Y957230D1*
X3015558Y961032D1*
Y964879D1*
X3013657Y968682D1*
X3007909Y970583D1*
X3000260D1*
X1340968Y1284295D2*
Y1301495D1*
X1339023Y1307243D1*
X1337122Y1309188D1*
X1333319Y1311090D1*
X1329472D1*
X1325670Y1309188D1*
X1323724Y1307243D1*
X1321823Y1301495D1*
Y1284295D1*
X1362015D1*
X1340968Y1297692D2*
X1362015Y1311089D1*
X1329517Y1322901D2*
X1327571Y1326747D1*
X1321867Y1332495D1*
X1362015D1*
X1272218Y1281944D2*
Y1299144D1*
X1270272Y1304892D1*
X1268371Y1306838D1*
X1264569Y1308739D1*
X1260722D1*
X1256919Y1306838D1*
X1254974Y1304892D1*
X1253072Y1299144D1*
Y1281944D1*
X1293264D1*
X1272218Y1295342D2*
X1293264Y1308739D1*
X1262667Y1322495D2*
X1260766D1*
X1256919Y1324397D1*
X1255018Y1326298D1*
X1253117Y1330145D1*
Y1337794D1*
X1255018Y1341597D1*
X1256919Y1343498D1*
X1260766Y1345443D1*
X1264569D1*
X1268415Y1343498D1*
X1274119Y1339695D1*
X1293264Y1320550D1*
Y1347345D1*
X976450Y725174D2*
Y742374D1*
X974505Y748122D1*
X972603Y750067D1*
X968801Y751969D1*
X964954D1*
X961151Y750067D1*
X959206Y748122D1*
X957305Y742374D1*
Y725174D1*
X997497D1*
X976450Y738571D2*
X997497Y751969D1*
X957349Y767626D2*
Y788629D1*
X972648Y777177D1*
Y782925D1*
X974549Y786727D1*
X976450Y788629D1*
X982198Y790574D1*
X986001D1*
X991749Y788629D1*
X995595Y784826D1*
X997497Y779078D1*
Y773330D1*
X995595Y767626D1*
X993650Y765725D1*
X989847Y763780D1*
X1055190Y728160D2*
Y745360D1*
X1053245Y751108D1*
X1051343Y753054D1*
X1047541Y754955D1*
X1043694D1*
X1039892Y753054D1*
X1037946Y751108D1*
X1036045Y745360D1*
Y728160D1*
X1076237D1*
X1055190Y741558D2*
X1076237Y754955D1*
Y785911D2*
X1036089D1*
X1062840Y766766D1*
Y795462D1*
X1129993Y733048D2*
Y750248D1*
X1128048Y755996D1*
X1126147Y757941D1*
X1122344Y759843D1*
X1118497D1*
X1114695Y757941D1*
X1112749Y755996D1*
X1110848Y750248D1*
Y733048D1*
X1151040D1*
X1129993Y746445D2*
X1151040Y759843D1*
X1110892Y794602D2*
Y775500D1*
X1128092Y773599D1*
X1126191Y775500D1*
X1124245Y781248D1*
Y786952D1*
X1126191Y792700D1*
X1129993Y796547D1*
X1135741Y798448D1*
X1139544D1*
X1145292Y796547D1*
X1149139Y792700D1*
X1151040Y786952D1*
Y781248D1*
X1149139Y775500D1*
X1147193Y773599D1*
X1143391Y771654D1*
X1615033Y545044D2*
Y562244D1*
X1613087Y567992D1*
X1611186Y569938D1*
X1607383Y571839D1*
X1603537D1*
X1599734Y569938D1*
X1597789Y567992D1*
X1595887Y562244D1*
Y545044D1*
X1636079D1*
X1615033Y558442D2*
X1636079Y571839D1*
X1601635Y606598D2*
X1597833Y604697D1*
X1595932Y598949D1*
Y595146D1*
X1597833Y589398D1*
X1603581Y585551D1*
X1613132Y583650D1*
X1622682D1*
X1630331Y585551D1*
X1634178Y589398D1*
X1636079Y595146D1*
Y597047D1*
X1634178Y602751D1*
X1630331Y606598D1*
X1624583Y608499D1*
X1622682D1*
X1616934Y606598D1*
X1613131Y602751D1*
X1611230Y597047D1*
Y595146D1*
X1613132Y589398D1*
X1616934Y585551D1*
X1622682Y583650D1*
X1686293Y544072D2*
Y561271D1*
X1684347Y567019D1*
X1682446Y568965D1*
X1678643Y570866D1*
X1674797D1*
X1670994Y568965D1*
X1669049Y567019D1*
X1667147Y561271D1*
Y544072D1*
X1707339D1*
X1686293Y557469D2*
X1707339Y570866D1*
Y590326D2*
X1667191Y609472D1*
Y582677D1*
X2871568Y788385D2*
Y805585D1*
X2869623Y811333D1*
X2867721Y813278D1*
X2863919Y815180D1*
X2860072D1*
X2856270Y813278D1*
X2854324Y811333D1*
X2852423Y805585D1*
Y788385D1*
X2892615D1*
X2871568Y801782D2*
X2892615Y815180D1*
X2852467Y836541D2*
X2854368Y830837D1*
X2858171Y828892D1*
X2862018D1*
X2865820Y830837D1*
X2867766Y834640D1*
X2869667Y842289D1*
X2871568Y848037D1*
X2875415Y851840D1*
X2879217Y853741D1*
X2884966D1*
X2888768Y851840D1*
X2890714Y849939D1*
X2892615Y844190D1*
Y836541D1*
X2890714Y830837D1*
X2888768Y828892D1*
X2884966Y826991D1*
X2879218D1*
X2875415Y828892D1*
X2871568Y832739D1*
X2869667Y838443D1*
X2867766Y846092D1*
X2865820Y849939D1*
X2862018Y851840D1*
X2858171D1*
X2854368Y849939D1*
X2852467Y844191D1*
Y836541D1*
X2033038Y663713D2*
Y680912D1*
X2031093Y686660D1*
X2029191Y688606D1*
X2025389Y690507D1*
X2021542D1*
X2017739Y688606D1*
X2015794Y686660D1*
X2013893Y680912D1*
Y663713D1*
X2054085D1*
X2033038Y677110D2*
X2054085Y690507D1*
X2027290Y727212D2*
X2033038Y725266D1*
X2036885Y721463D1*
X2038786Y715715D1*
Y713814D1*
X2036885Y708066D1*
X2033038Y704264D1*
X2027290Y702318D1*
X2025389D1*
X2019641Y704264D1*
X2015838Y708066D1*
X2013937Y713814D1*
Y715715D1*
X2015838Y721464D1*
X2019641Y725266D1*
X2027290Y727212D1*
X2036885D1*
X2046435Y725266D1*
X2052183Y721463D1*
X2054085Y715715D1*
Y711913D1*
X2052183Y706165D1*
X2048337Y704264D1*
X2130653Y664558D2*
Y681758D1*
X2128708Y687506D1*
X2126807Y689451D1*
X2123004Y691352D1*
X2119157D1*
X2115355Y689451D1*
X2113409Y687506D1*
X2111508Y681758D1*
Y664558D1*
X2151700D1*
X2130653Y677955D2*
X2151700Y691352D1*
X2119202Y703163D2*
X2117256Y707010D1*
X2111552Y712758D1*
X2151700D1*
X2111552Y736065D2*
X2113454Y730317D1*
X2119202Y726470D1*
X2128752Y724569D1*
X2134500D1*
X2144051Y726470D1*
X2149799Y730317D1*
X2151700Y736065D1*
Y739868D1*
X2149799Y745616D1*
X2144051Y749418D1*
X2134500Y751364D1*
X2128752D1*
X2119202Y749418D1*
X2113454Y745616D1*
X2111552Y739868D1*
Y736065D1*
X2119202Y749418D2*
X2144051Y726470D1*
X2215770Y666908D2*
Y684108D1*
X2213825Y689856D1*
X2211924Y691802D1*
X2208121Y693703D1*
X2204274D1*
X2200472Y691802D1*
X2198526Y689856D1*
X2196625Y684108D1*
Y666908D1*
X2236817D1*
X2215770Y680306D2*
X2236817Y693703D1*
X2204318Y705514D2*
X2202373Y709361D1*
X2196669Y715109D1*
X2236817D1*
X2204318Y726920D2*
X2202373Y730766D1*
X2196669Y736514D1*
X2236817D1*
X1776231Y599011D2*
X1772384Y595209D1*
X1770483Y589461D1*
Y581811D1*
X1772384Y576063D1*
X1776231Y572216D1*
X1780034D1*
X1783880Y574162D1*
X1785782Y576063D1*
X1787683Y579866D1*
X1791530Y591362D1*
X1793431Y595209D1*
X1795377Y597110D1*
X1799179Y599011D1*
X1804927D1*
X1808730Y595209D1*
X1810675Y589460D1*
Y581811D1*
X1808730Y576063D1*
X1804927Y572216D1*
X1770483Y610822D2*
X1810675Y620417D1*
X1770483Y629967D1*
X1810675Y639518D1*
X1770483Y649113D1*
X1778177Y660924D2*
X1776231Y664771D1*
X1770527Y670519D1*
X1810675D1*
X2226184Y590411D2*
X2222337Y586609D1*
X2220436Y580861D1*
Y573211D1*
X2222337Y567463D1*
X2226184Y563617D1*
X2229986D1*
X2233833Y565562D1*
X2235735Y567463D1*
X2237636Y571266D1*
X2241483Y582762D1*
X2243384Y586609D1*
X2245329Y588510D1*
X2249132Y590411D1*
X2254880D1*
X2258682Y586609D1*
X2260628Y580861D1*
Y573211D1*
X2258682Y567463D1*
X2254880Y563617D1*
X2220436Y602222D2*
X2260628Y611817D1*
X2220436Y621368D1*
X2260628Y630918D1*
X2220436Y640513D1*
X2230031Y654269D2*
X2228129D1*
X2224283Y656171D1*
X2222381Y658072D1*
X2220480Y661919D1*
Y669568D1*
X2222381Y673371D1*
X2224283Y675272D1*
X2228129Y677217D1*
X2231932D1*
X2235779Y675272D1*
X2241483Y671469D1*
X2260628Y652324D1*
Y679119D1*
X1396627Y1044567D2*
Y1015871D1*
X1398528Y1010123D1*
X1402375Y1006320D1*
X1408123Y1004375D1*
X1411925D1*
X1417673Y1006320D1*
X1421520Y1010123D1*
X1423421Y1015871D1*
Y1044567D1*
X1435232Y1036873D2*
X1439079Y1038819D1*
X1444827Y1044523D1*
Y1004375D1*
X2401319Y561818D2*
X2430015D1*
X2435763Y563720D1*
X2439566Y567566D1*
X2441511Y573314D1*
Y577117D1*
X2439566Y582865D1*
X2435763Y586712D1*
X2430015Y588613D1*
X2401319D1*
X2410914Y602369D2*
X2409013D1*
X2405166Y604271D1*
X2403265Y606172D1*
X2401363Y610019D1*
Y617668D1*
X2403265Y621471D1*
X2405166Y623372D1*
X2409013Y625317D1*
X2412815D1*
X2416662Y623372D1*
X2422366Y619569D1*
X2441511Y600424D1*
Y627219D1*
X2527840Y732568D2*
X2546986Y747867D1*
X2568032D1*
X2527840Y763165D2*
X2546986Y747867D1*
X2535534Y774976D2*
X2533588Y778823D1*
X2527884Y784571D1*
X2568032D1*
X524804Y1523547D2*
D82*
X567914D1*
X582173Y1528301D1*
X587037Y1533164D1*
X591790Y1542671D1*
Y1557041D1*
X587037Y1566547D1*
X582173Y1571411D1*
X567914Y1576164D1*
X524804D1*
Y1475684D1*
X651409Y1576164D2*
X641792Y1571411D1*
X632286Y1561794D1*
X627422Y1552288D1*
X622669Y1537917D1*
Y1513930D1*
X627422Y1499671D1*
X632286Y1490054D1*
X641792Y1480548D1*
X651409Y1475684D1*
X670532D1*
X680039Y1480548D1*
X689655Y1490054D1*
X694409Y1499671D1*
X699162Y1513930D1*
Y1537917D1*
X694409Y1552288D1*
X689655Y1561794D1*
X680039Y1571411D1*
X670532Y1576164D1*
X651409D1*
X730040D2*
X754027Y1475684D1*
X777904Y1576164D1*
X801780Y1475684D1*
X825767Y1576164D1*
X918769D2*
X856646D1*
Y1475684D1*
X918769D1*
X856646Y1528301D2*
X894892D1*
X949647D2*
X992647D1*
X1007017Y1533164D1*
X1011881Y1537917D1*
X1016634Y1547424D1*
Y1557041D1*
X1011881Y1566547D1*
X1007017Y1571411D1*
X992647Y1576164D1*
X949647D1*
Y1475684D1*
X983140Y1528301D2*
X1016634Y1475684D1*
X464260Y2525617D2*
Y2439507D1*
X421260Y2482506D2*
X507370D1*
X462610Y1504077D2*
Y1559346D1*
X2946572Y1467810D2*
Y1568290D1*
X2908326Y1467810D1*
X2870079Y1568290D1*
Y1467810D1*
X3006191Y1568290D2*
X2996574Y1563537D1*
X2987068Y1553920D1*
X2982204Y1544414D1*
X2977451Y1530043D1*
Y1506056D1*
X2982204Y1491797D1*
X2987068Y1482180D1*
X2996574Y1472674D1*
X3006191Y1467810D1*
X3025314D1*
X3034821Y1472674D1*
X3044437Y1482180D1*
X3049191Y1491797D1*
X3053944Y1506056D1*
Y1530043D1*
X3049191Y1544414D1*
X3044437Y1553920D1*
X3034821Y1563537D1*
X3025314Y1568290D1*
X3006191D1*
X3118316D2*
Y1467810D1*
X3084822Y1568290D2*
X3151809D1*
X3211428D2*
X3201811Y1563537D1*
X3192304Y1553920D1*
X3187441Y1544414D1*
X3182687Y1530043D1*
Y1506056D1*
X3187441Y1491797D1*
X3192304Y1482180D1*
X3201811Y1472674D1*
X3211428Y1467810D1*
X3230551D1*
X3240057Y1472674D1*
X3249674Y1482180D1*
X3254427Y1491797D1*
X3259180Y1506056D1*
Y1530043D1*
X3254427Y1544414D1*
X3249674Y1553920D1*
X3240057Y1563537D1*
X3230551Y1568290D1*
X3211428D1*
X3290059Y1520427D2*
X3333059D1*
X3347429Y1525290D1*
X3352292Y1530043D1*
X3357046Y1539550D1*
Y1549167D1*
X3352292Y1558673D1*
X3347429Y1563537D1*
X3333059Y1568290D1*
X3290059D1*
Y1467810D1*
X3323552Y1520427D2*
X3357046Y1467810D1*
X896857Y544369D2*
D83*
Y509925D1*
X879657Y527125D2*
X914101D1*
X487427Y837397D2*
D84*
Y887637D1*
X468303Y837397D1*
X449180Y887637D1*
Y837397D1*
X514804Y870890D2*
X510051Y868514D1*
X505242Y863705D1*
X502866Y856520D1*
Y851767D1*
X505242Y844582D1*
X510051Y839829D1*
X514804Y837397D1*
X521989D1*
X526797Y839829D1*
X531551Y844582D1*
X533983Y851767D1*
Y856520D1*
X531551Y863705D1*
X526797Y868514D1*
X521989Y870890D1*
X514804D1*
X556607Y887637D2*
Y846959D1*
X558983Y839829D1*
X563792Y837397D1*
X568545D1*
X549422Y870890D2*
X566168D1*
X595923D2*
X591169Y868514D1*
X586361Y863705D1*
X583984Y856520D1*
Y851767D1*
X586361Y844582D1*
X591169Y839829D1*
X595923Y837397D1*
X603108D1*
X607916Y839829D1*
X612669Y844582D1*
X615101Y851767D1*
Y856520D1*
X612669Y863705D1*
X607916Y868514D1*
X603108Y870890D1*
X595923D1*
X630540D2*
Y837397D1*
Y856520D2*
X632972Y863705D1*
X637725Y868514D1*
X642534Y870890D1*
X649719D1*
X485050Y775699D2*
X482673Y780452D1*
X477865Y785261D1*
X473112Y787637D1*
X463550D1*
X458742Y785261D1*
X453988Y780452D1*
X451557Y775699D1*
X449180Y768514D1*
Y756520D1*
X451557Y749391D1*
X453988Y744582D1*
X458742Y739829D1*
X463550Y737397D1*
X473112D1*
X477865Y739829D1*
X482673Y744582D1*
X485050Y749391D1*
X512427Y770890D2*
X507674Y768514D1*
X502866Y763705D1*
X500489Y756520D1*
Y751767D1*
X502866Y744582D1*
X507674Y739829D1*
X512427Y737397D1*
X519612D1*
X524421Y739829D1*
X529174Y744582D1*
X531606Y751767D1*
Y756520D1*
X529174Y763705D1*
X524421Y768514D1*
X519612Y770890D1*
X512427D1*
X547045D2*
Y737397D1*
Y761329D2*
X554230Y768514D1*
X559039Y770890D1*
X566168D1*
X570977Y768514D1*
X573353Y761329D1*
Y737397D1*
X595978Y787637D2*
Y746959D1*
X598354Y739829D1*
X603163Y737397D1*
X607916D1*
X588793Y770890D2*
X605539D1*
X623355D2*
Y737397D1*
Y756520D2*
X625787Y763705D1*
X630540Y768514D1*
X635349Y770890D1*
X642534D1*
X669911D2*
X665158Y768514D1*
X660350Y763705D1*
X657973Y756520D1*
Y751767D1*
X660350Y744582D1*
X665158Y739829D1*
X669911Y737397D1*
X677096D1*
X681905Y739829D1*
X686658Y744582D1*
X689090Y751767D1*
Y756520D1*
X686658Y763705D1*
X681905Y768514D1*
X677096Y770890D1*
X669911D1*
X704529Y787637D2*
Y737397D1*
X719968Y787637D2*
Y737397D1*
X735408Y756520D2*
X764092D1*
Y761329D1*
X761716Y766137D1*
X759339Y768514D1*
X754531Y770890D1*
X747346D1*
X742593Y768514D1*
X737784Y763705D1*
X735408Y756520D1*
Y751767D1*
X737784Y744582D1*
X742593Y739829D1*
X747346Y737397D1*
X754531D1*
X759339Y739829D1*
X764092Y744582D1*
X779532Y770890D2*
Y737397D1*
Y756520D2*
X781963Y763705D1*
X786717Y768514D1*
X791525Y770890D1*
X798710D1*
X3156841Y1001156D2*
D85*
X3153989Y1006860D1*
X3148219Y1012630D1*
X3142515Y1015482D1*
X3131041D1*
X3125271Y1012630D1*
X3119567Y1006860D1*
X3116649Y1001156D1*
X3113797Y992534D1*
Y978141D1*
X3116649Y969586D1*
X3119567Y963816D1*
X3125271Y958112D1*
X3131041Y955194D1*
X3142515D1*
X3148219Y958112D1*
X3153989Y963816D1*
X3156841Y969586D1*
Y978141D1*
X3142515D1*
X3215560Y1015482D2*
Y955194D1*
X3175368Y1015482D1*
Y955194D1*
X3234087Y1015482D2*
Y955194D1*
X3254183D1*
X3262805Y958112D1*
X3268575Y963816D1*
X3271427Y969586D1*
X3274279Y978141D1*
Y992534D1*
X3271427Y1001156D1*
X3268575Y1006860D1*
X3262805Y1012630D1*
X3254183Y1015482D1*
X3234087D1*
X3156842Y915482D2*
Y855194D1*
X3176938D1*
X3185560Y858112D1*
X3191330Y863816D1*
X3194182Y869586D1*
X3197034Y878141D1*
Y892534D1*
X3194182Y901156D1*
X3191330Y906860D1*
X3185560Y912630D1*
X3176938Y915482D1*
X3156842D1*
X3215561D2*
Y855194D1*
X3234088Y886764D2*
X3259888D1*
X3268510Y889682D1*
X3271428Y892534D1*
X3274280Y898237D1*
Y904008D1*
X3271428Y909711D1*
X3268510Y912630D1*
X3259888Y915482D1*
X3234088D1*
Y855194D1*
X3254184Y886764D2*
X3274280Y855194D1*
X3093701Y783912D2*
X3119567D1*
X3128123Y786764D1*
X3131041Y789682D1*
X3133893Y795386D1*
Y804008D1*
X3131041Y809711D1*
X3128123Y812630D1*
X3119567Y815482D1*
X3093701D1*
Y755194D1*
X3152420Y815482D2*
X3166813Y755194D1*
X3181138Y815482D1*
X3195464Y755194D1*
X3209857Y815482D1*
X3274279Y755194D2*
Y815482D1*
X3251332Y755194D1*
X3228384Y815482D1*
Y755194D1*
X495848Y936457D2*
Y996745D1*
X472900Y936457D1*
X449952Y996745D1*
Y936457D1*
X548797Y976649D2*
Y936457D1*
Y968027D2*
X543093Y973797D1*
X537323Y976649D1*
X528767D1*
X522997Y973797D1*
X517293Y968027D1*
X514375Y959405D1*
Y953701D1*
X517293Y945079D1*
X522997Y939376D1*
X528767Y936457D1*
X537323D1*
X543093Y939376D1*
X548797Y945079D1*
X567324Y976649D2*
Y936457D1*
Y959405D2*
X570242Y968027D1*
X575946Y973797D1*
X581716Y976649D1*
X590338D1*
X640435Y968027D2*
X637583Y973797D1*
X628961Y976649D1*
X620339D1*
X611717Y973797D1*
X608865Y968027D1*
X611717Y962324D1*
X617487Y959405D1*
X631813Y956553D1*
X637583Y953701D1*
X640435Y947931D1*
Y945079D1*
X637583Y939376D1*
X628961Y936457D1*
X620339D1*
X611717Y939376D1*
X608865Y945079D1*
X717283Y968027D2*
X743083D1*
X751705Y970946D1*
X754624Y973797D1*
X757475Y979501D1*
Y985271D1*
X754624Y990975D1*
X751705Y993893D1*
X743083Y996745D1*
X717283D1*
Y936457D1*
X737379Y968027D2*
X757475Y936457D1*
X790328Y976649D2*
X784625Y973797D1*
X778854Y968027D1*
X776003Y959405D1*
Y953701D1*
X778854Y945079D1*
X784625Y939376D1*
X790328Y936457D1*
X798950D1*
X804721Y939376D1*
X810424Y945079D1*
X813343Y953701D1*
Y959405D1*
X810424Y968027D1*
X804721Y973797D1*
X798950Y976649D1*
X790328D1*
X831870D2*
X849114Y936457D1*
X866292Y976649D1*
X884819Y959405D2*
X919241D1*
Y965175D1*
X916389Y970946D1*
X913537Y973797D1*
X907767Y976649D1*
X899145D1*
X893441Y973797D1*
X887671Y968027D1*
X884819Y959405D1*
Y953701D1*
X887671Y945079D1*
X893441Y939376D1*
X899145Y936457D1*
X907767D1*
X913537Y939376D1*
X919241Y945079D1*
X937768Y976649D2*
Y936457D1*
Y959405D2*
X940686Y968027D1*
X946390Y973797D1*
X952160Y976649D1*
X960782D1*
X452870Y682344D2*
Y685196D1*
X455722Y690966D1*
X458574Y693818D1*
X464344Y696670D1*
X475818D1*
X481522Y693818D1*
X484374Y690966D1*
X487292Y685196D1*
Y679492D1*
X484374Y673722D1*
X478670Y665166D1*
X449952Y636448D1*
X490144D1*
X525915Y696670D2*
X517293Y693818D1*
X511523Y685196D1*
X508671Y670870D1*
Y662248D1*
X511523Y647922D1*
X517293Y639300D1*
X525915Y636448D1*
X531619D1*
X540241Y639300D1*
X545945Y647922D1*
X548863Y662248D1*
Y670870D1*
X545945Y685196D1*
X540241Y693818D1*
X531619Y696670D1*
X525915D1*
X545945Y685196D2*
X511523Y647922D1*
X567390Y685196D2*
X573160Y688114D1*
X581782Y696670D1*
Y636448D1*
X614635Y696670D2*
X606080Y693818D1*
X603161Y688114D1*
Y682344D1*
X606080Y676640D1*
X611783Y673722D1*
X623257Y670870D1*
X631879Y668018D1*
X637583Y662248D1*
X640435Y656544D1*
Y647922D1*
X637583Y642218D1*
X634731Y639300D1*
X626109Y636448D1*
X614635D1*
X606080Y639300D1*
X603161Y642218D1*
X600309Y647922D1*
Y656544D1*
X603161Y662248D1*
X608932Y668018D1*
X617487Y670870D1*
X628961Y673722D1*
X634731Y676640D1*
X637583Y682344D1*
Y688114D1*
X634731Y693818D1*
X626109Y696670D1*
X614635D1*
X956201Y508912D2*
X982067D1*
X990623Y511764D1*
X993541Y514682D1*
X996393Y520386D1*
Y529008D1*
X993541Y534711D1*
X990623Y537630D1*
X982067Y540482D1*
X956201D1*
Y480194D1*
X1014920Y540482D2*
X1029313Y480194D1*
X1043638Y540482D1*
X1057964Y480194D1*
X1072357Y540482D1*
X1090884Y511764D2*
X1116683D1*
X1125305Y514682D1*
X1128224Y517534D1*
X1131076Y523237D1*
Y529008D1*
X1128224Y534711D1*
X1125305Y537630D1*
X1116683Y540482D1*
X1090884D1*
Y480194D1*
X1110980Y511764D2*
X1131076Y480194D1*
M02*
