G04 DipTrace 3.2.0.1*
G04 BottomMask.gbr*
%MOIN*%
G04 #@! TF.FileFunction,Soldermask,Bot*
G04 #@! TF.Part,Single*
%ADD31C,0.043307*%
%ADD32C,0.11811*%
%ADD33C,0.129921*%
%ADD39C,0.204724*%
%ADD41O,0.362205X0.204724*%
%ADD43C,0.066929*%
%ADD45R,0.025591X0.045276*%
%ADD47R,0.064961X0.025591*%
%ADD49R,0.059055X0.066929*%
%ADD51C,0.055118*%
%ADD53R,0.055118X0.055118*%
%ADD55R,0.066929X0.059055*%
%FSLAX26Y26*%
G04*
G70*
G90*
G75*
G01*
G04 BotMask*
%LPD*%
D55*
X962510Y1225038D3*
Y1150235D3*
X762490Y793743D3*
Y718940D3*
X674980Y793743D3*
Y718940D3*
D53*
X1313848Y549581D3*
D51*
Y470841D3*
D31*
X1380777Y608636D3*
D49*
X956260Y918756D3*
X881457D3*
X687482Y912505D3*
X762285D3*
D55*
X762490Y1062521D3*
Y987718D3*
D49*
X1325049Y1225038D3*
X1250245D3*
D55*
X881252D3*
Y1150235D3*
D47*
X1237539Y1056270D3*
Y1081270D3*
Y1106270D3*
Y1131270D3*
X1062539Y1056270D3*
Y1081270D3*
Y1106270D3*
Y1131270D3*
D49*
X1425059Y925007D3*
X1350256D3*
X1425059Y856249D3*
X1350256D3*
X881252Y849999D3*
X956055D3*
D53*
X762490Y562469D3*
D51*
X841230D3*
D31*
X703434Y629398D3*
D32*
X587471Y524965D3*
X1543822D3*
D45*
X674980Y1062521D3*
X637579D3*
X674980Y975907D3*
X600177D3*
Y1062521D3*
D43*
X975012Y674980D3*
X1050209D3*
X1125406D3*
D41*
X1247059Y1517500D3*
X853358D3*
D39*
X713109Y2062686D3*
D33*
X713020Y1747726D3*
D39*
X1386993Y2062703D3*
D33*
Y1747743D3*
D53*
X1082573Y549581D3*
D51*
Y470841D3*
D31*
X1149503Y608636D3*
M02*
