M48
INCH
T01C0.0157
T02C0.0276
T03C0.0315
T04C0.0433
T05C0.0787
T06C0.1181
T07C0.1299
%
T01
X+013033Y+011313
X+013813Y+012250
X+012658Y+009218
X+013033Y+008468
X+010250Y+009188
X+008187Y+010625
X+006750Y+010188
X+007687Y+008437
X+008250Y+012250
T02
X+013138Y+005496
X+013138Y+004708
X+010826Y+004708
X+010826Y+005496
X+008412Y+005625
X+007625Y+005625
T03
X+009750Y+006750
X+010502Y+006750
X+011254Y+006750
T04
X+013808Y+006086
X+011495Y+006086
X+007034Y+006294
T05
X+013258Y+015175G85X+011683Y+015175
X+009321Y+015175G85X+007746Y+015175
T06
X+005875Y+005250
X+015438Y+005250
T07
X+007131Y+020627
X+007130Y+017477
X+013870Y+017477
X+013870Y+020627
T00
M30
