G04 DipTrace 3.2.0.1*
G04 Top.gbr*
%MOIN*%
G04 #@! TF.FileFunction,Copper,L1,Top*
G04 #@! TF.Part,Single*
G04 #@! TA.AperFunction,Conductor*
%ADD13C,0.02*%
%ADD14C,0.01*%
G04 #@! TA.AperFunction,ComponentPad*
%ADD21R,0.047244X0.047244*%
%ADD22C,0.047244*%
%ADD27C,0.059055*%
%ADD28O,0.354331X0.19685*%
%ADD29C,0.19685*%
G04 #@! TA.AperFunction,ViaPad*
%ADD30C,0.027559*%
%FSLAX26Y26*%
G04*
G70*
G90*
G75*
G01*
G04 Top*
%LPD*%
X1303315Y1131270D2*
D13*
Y846814D1*
X1146845D1*
X975012Y674980D1*
X1025017Y918756D2*
D14*
X912505D1*
X837497Y843748D1*
X781417D1*
X775079Y850087D1*
X768740Y843748D1*
X818745Y1062521D2*
X768740Y1012516D1*
Y843748D1*
X1025017Y918756D2*
X1262745D1*
X1265811Y921822D1*
X1125406Y674980D2*
X1225038D1*
X1381304Y831247D1*
Y1225038D1*
X824996D2*
Y1168782D1*
X674980Y1018766D1*
D30*
X1303315Y1131270D3*
Y846814D3*
X1025017Y918756D3*
X768740Y843748D3*
X818745Y1062521D3*
X1265811Y921822D3*
X1025017Y918756D3*
X1381304Y1225038D3*
X824996D3*
X674980Y1018766D3*
D21*
X1313848Y549581D3*
D22*
Y470841D3*
D21*
X762490Y562469D3*
D22*
X841230D3*
D27*
X975012Y674980D3*
X1050209D3*
X1125406D3*
D28*
X1247059Y1517500D3*
X853358D3*
D29*
X713109Y2062686D3*
X1386993Y2062703D3*
D21*
X1082573Y549581D3*
D22*
Y470841D3*
M02*
