G04 DipTrace 3.2.0.1*
G04 TopSilk.gbr*
%MOIN*%
G04 #@! TF.FileFunction,Legend,Top*
G04 #@! TF.Part,Single*
%ADD19C,0.003937*%
%ADD57C,0.005906*%
%FSLAX26Y26*%
G04*
G70*
G90*
G75*
G01*
G04 TopSilk*
%LPD*%
X406202Y2325154D2*
D19*
X1025017D1*
Y1325049D1*
X406202D1*
Y2325154D1*
X1075022D2*
X1681336D1*
Y1325049D1*
X1075022D1*
Y2325154D1*
X978566Y1242680D2*
D57*
X976664Y1246527D1*
X970916Y1248428D1*
X965168D1*
X959420Y1246527D1*
X957519Y1242680D1*
X959420Y1238877D1*
X963267Y1236932D1*
X972818Y1235031D1*
X976664Y1233129D1*
X978566Y1229283D1*
Y1227381D1*
X976664Y1223579D1*
X970916Y1221633D1*
X965168D1*
X959420Y1223579D1*
X957519Y1227381D1*
X990377Y1236932D2*
X1013325D1*
Y1240779D1*
X1011423Y1244625D1*
X1009522Y1246527D1*
X1005675Y1248428D1*
X999927D1*
X996125Y1246527D1*
X992278Y1242680D1*
X990377Y1236932D1*
Y1233129D1*
X992278Y1227381D1*
X996125Y1223579D1*
X999927Y1221633D1*
X1005675D1*
X1009522Y1223579D1*
X1013325Y1227381D1*
X1025136Y1248428D2*
Y1221633D1*
Y1240779D2*
X1030884Y1246527D1*
X1034730Y1248428D1*
X1040434D1*
X1044281Y1246527D1*
X1046182Y1240779D1*
Y1221633D1*
X1079040Y1242680D2*
X1077139Y1246527D1*
X1071391Y1248428D1*
X1065643D1*
X1059895Y1246527D1*
X1057993Y1242680D1*
X1059895Y1238877D1*
X1063741Y1236932D1*
X1073292Y1235031D1*
X1077139Y1233129D1*
X1079040Y1229283D1*
Y1227381D1*
X1077139Y1223579D1*
X1071391Y1221633D1*
X1065643D1*
X1059895Y1223579D1*
X1057993Y1227381D1*
X1100402Y1248428D2*
X1096599Y1246527D1*
X1092752Y1242680D1*
X1090851Y1236932D1*
Y1233129D1*
X1092752Y1227381D1*
X1096599Y1223579D1*
X1100402Y1221633D1*
X1106150D1*
X1109996Y1223579D1*
X1113799Y1227381D1*
X1115744Y1233129D1*
Y1236932D1*
X1113799Y1242680D1*
X1109996Y1246527D1*
X1106150Y1248428D1*
X1100402D1*
X1127555D2*
Y1221633D1*
Y1236932D2*
X1129501Y1242680D1*
X1133303Y1246527D1*
X1137150Y1248428D1*
X1142898D1*
M02*
