G04 DipTrace 3.2.0.1*
G04 Bottom.gbr*
%MOIN*%
G04 #@! TF.FileFunction,Copper,L2,Bot*
G04 #@! TF.Part,Single*
G04 #@! TA.AperFunction,CopperBalancing*
%ADD15C,0.025*%
G04 #@! TA.AperFunction,ComponentPad*
%ADD17C,0.125984*%
%ADD21R,0.047244X0.047244*%
%ADD22C,0.047244*%
%ADD23R,0.06378X0.06378*%
%ADD24C,0.06378*%
G04 #@! TA.AperFunction,ViaPad*
%ADD28C,0.027559*%
%FSLAX26Y26*%
G04*
G70*
G90*
G75*
G01*
G04 Bottom*
%LPD*%
D28*
X522883Y716441D3*
X803150Y921260D3*
X448089Y1376017D2*
D15*
X969259D1*
X448089Y1351148D2*
X969259D1*
X641504Y1326280D2*
X658501D1*
X741478D2*
X758510D1*
X841487D2*
X969259D1*
X860327Y1301411D2*
X969259D1*
X865206Y1276542D2*
X969259D1*
X859789Y1251673D2*
X969259D1*
X840841Y1226804D2*
X859165D1*
X940815D2*
X969259D1*
X540563Y1127329D2*
X559425D1*
X640572D2*
X659434D1*
X740581D2*
X759444D1*
X840554D2*
X859417D1*
X940563D2*
X969259D1*
X448089Y1102461D2*
X969259D1*
X448089Y1077592D2*
X969259D1*
X448089Y1052723D2*
X969259D1*
X554126Y1027854D2*
X969259D1*
X554126Y1002986D2*
X969259D1*
X554126Y978117D2*
X969259D1*
X554126Y953248D2*
X969259D1*
X554126Y928379D2*
X969259D1*
X549713Y903510D2*
X969259D1*
X554126Y878642D2*
X969259D1*
X548206Y853773D2*
X969259D1*
X527214Y828904D2*
X969259D1*
X448089Y804035D2*
X969259D1*
X448089Y779167D2*
X969259D1*
X448089Y754298D2*
X969259D1*
X448089Y729429D2*
X803259D1*
X875398D2*
X969259D1*
X448089Y704560D2*
X767051D1*
X911570D2*
X969259D1*
X448089Y679692D2*
X750975D1*
X927646D2*
X969259D1*
X448089Y654823D2*
X743906D1*
X934714D2*
X969259D1*
X448089Y629954D2*
X743762D1*
X934894D2*
X969259D1*
X448089Y605085D2*
X750509D1*
X928147D2*
X969259D1*
X448089Y580217D2*
X766083D1*
X912573D2*
X969259D1*
X448089Y555348D2*
X584114D1*
X613514D2*
X662844D1*
X692245D2*
X771214D1*
X907407D2*
X969259D1*
X448089Y530479D2*
X549736D1*
X726622D2*
X753021D1*
X925600D2*
X969259D1*
X448089Y505610D2*
X541950D1*
X934033D2*
X969259D1*
X448089Y480741D2*
X546328D1*
X730067D2*
X743295D1*
X935324D2*
X969259D1*
X448089Y455873D2*
X567858D1*
X629770D2*
X646588D1*
X708500D2*
X748786D1*
X929870D2*
X969259D1*
X932848Y634466D2*
X931982Y627151D1*
X930545Y619927D1*
X928545Y612836D1*
X925995Y605925D1*
X922911Y599236D1*
X919312Y592808D1*
X915219Y586684D1*
X910659Y580899D1*
X905659Y575490D1*
X900249Y570490D1*
X893197Y565081D1*
X900249Y559621D1*
X905659Y554621D1*
X910659Y549211D1*
X915219Y543427D1*
X919312Y537302D1*
X922911Y530874D1*
X925995Y524185D1*
X928545Y517274D1*
X930545Y510184D1*
X931982Y502959D1*
X932848Y495644D1*
X933136Y488283D1*
X932848Y480923D1*
X931982Y473608D1*
X930545Y466383D1*
X928545Y459293D1*
X925995Y452382D1*
X920647Y441651D1*
X971728Y441634D1*
X971752Y1400913D1*
X445594Y1400886D1*
X445571Y1339860D1*
X562713Y1339878D1*
Y1327570D1*
X567232Y1330636D1*
X576001Y1335104D1*
X585360Y1338146D1*
X595080Y1339685D1*
X604920D1*
X614640Y1338146D1*
X623999Y1335104D1*
X632768Y1330636D1*
X640728Y1324853D1*
X647688Y1317894D1*
X649986Y1314979D1*
X655655Y1321510D1*
X663139Y1327900D1*
X671529Y1333043D1*
X680621Y1336808D1*
X690189Y1339106D1*
X700000Y1339878D1*
X709811Y1339106D1*
X719379Y1336808D1*
X728471Y1333043D1*
X736861Y1327900D1*
X744345Y1321510D1*
X749986Y1314979D1*
X755655Y1321510D1*
X763139Y1327900D1*
X771529Y1333043D1*
X780621Y1336808D1*
X790189Y1339106D1*
X800000Y1339878D1*
X809811Y1339106D1*
X819379Y1336808D1*
X828471Y1333043D1*
X836861Y1327900D1*
X844345Y1321510D1*
X850735Y1314026D1*
X855878Y1305636D1*
X859643Y1296545D1*
X861941Y1286976D1*
X862713Y1277165D1*
X861941Y1267354D1*
X859643Y1257786D1*
X855878Y1248694D1*
X850735Y1240304D1*
X844345Y1232820D1*
X837814Y1227180D1*
X844345Y1221510D1*
X849986Y1214979D1*
X855655Y1221510D1*
X863139Y1227900D1*
X871529Y1233043D1*
X880621Y1236808D1*
X890189Y1239106D1*
X900000Y1239878D1*
X909811Y1239106D1*
X919379Y1236808D1*
X928471Y1233043D1*
X936861Y1227900D1*
X944345Y1221510D1*
X950735Y1214026D1*
X955878Y1205636D1*
X959643Y1196545D1*
X961941Y1186976D1*
X962713Y1177165D1*
X961941Y1167354D1*
X959643Y1157786D1*
X955878Y1148694D1*
X950735Y1140304D1*
X944345Y1132820D1*
X936861Y1126430D1*
X928471Y1121287D1*
X919379Y1117522D1*
X909811Y1115224D1*
X900000Y1114453D1*
X890189Y1115224D1*
X880621Y1117522D1*
X871529Y1121287D1*
X863139Y1126430D1*
X855655Y1132820D1*
X850014Y1139352D1*
X844345Y1132820D1*
X836861Y1126430D1*
X828471Y1121287D1*
X819379Y1117522D1*
X809811Y1115224D1*
X800000Y1114453D1*
X790189Y1115224D1*
X780621Y1117522D1*
X771529Y1121287D1*
X763139Y1126430D1*
X755655Y1132820D1*
X750014Y1139352D1*
X744345Y1132820D1*
X736861Y1126430D1*
X728471Y1121287D1*
X719379Y1117522D1*
X709811Y1115224D1*
X700000Y1114453D1*
X690189Y1115224D1*
X680621Y1117522D1*
X671529Y1121287D1*
X663139Y1126430D1*
X655655Y1132820D1*
X650014Y1139352D1*
X644345Y1132820D1*
X636861Y1126430D1*
X628471Y1121287D1*
X619379Y1117522D1*
X609811Y1115224D1*
X600000Y1114453D1*
X590189Y1115224D1*
X580621Y1117522D1*
X571529Y1121287D1*
X563139Y1126430D1*
X555655Y1132820D1*
X550014Y1139352D1*
X544345Y1132820D1*
X536861Y1126430D1*
X528471Y1121287D1*
X519379Y1117522D1*
X509811Y1115224D1*
X500000Y1114453D1*
X490189Y1115224D1*
X480621Y1117522D1*
X471529Y1121287D1*
X463139Y1126430D1*
X455655Y1132820D1*
X449265Y1140304D1*
X445580Y1146093D1*
X445571Y1043097D1*
X551640Y1043122D1*
Y917697D1*
X539332D1*
X542399Y913177D1*
X546866Y904408D1*
X549908Y895050D1*
X551448Y885329D1*
Y875490D1*
X549908Y865769D1*
X546866Y856411D1*
X542399Y847642D1*
X536615Y839681D1*
X529656Y832722D1*
X521696Y826938D1*
X512927Y822471D1*
X503568Y819429D1*
X493848Y817890D1*
X484008D1*
X474287Y819429D1*
X464929Y822471D1*
X456160Y826938D1*
X448199Y832722D1*
X445558Y835164D1*
X445571Y441606D1*
X757930Y441634D1*
X752648Y452382D1*
X750098Y459293D1*
X748098Y466383D1*
X746661Y473608D1*
X745795Y480923D1*
X745507Y488283D1*
X745795Y495644D1*
X746661Y502959D1*
X748098Y510184D1*
X750098Y517274D1*
X752648Y524185D1*
X755732Y530874D1*
X759331Y537302D1*
X763424Y543427D1*
X767984Y549211D1*
X772984Y554621D1*
X778394Y559621D1*
X785446Y565029D1*
X778394Y570490D1*
X772984Y575490D1*
X767984Y580899D1*
X763424Y586684D1*
X759331Y592808D1*
X755732Y599236D1*
X752648Y605925D1*
X750098Y612836D1*
X748098Y619927D1*
X746661Y627151D1*
X745795Y634466D1*
X745507Y641827D1*
X745795Y649188D1*
X746661Y656503D1*
X748098Y663727D1*
X750098Y670818D1*
X752648Y677728D1*
X755732Y684417D1*
X759331Y690845D1*
X763424Y696970D1*
X767984Y702755D1*
X772984Y708164D1*
X778394Y713164D1*
X784178Y717724D1*
X790303Y721818D1*
X796731Y725416D1*
X803420Y728500D1*
X810331Y731050D1*
X817421Y733050D1*
X824646Y734487D1*
X831961Y735353D1*
X839322Y735642D1*
X846682Y735353D1*
X853997Y734487D1*
X861222Y733050D1*
X868312Y731050D1*
X875223Y728500D1*
X881912Y725416D1*
X888340Y721818D1*
X894465Y717724D1*
X900249Y713164D1*
X905659Y708164D1*
X910659Y702755D1*
X915219Y696970D1*
X919312Y690845D1*
X922911Y684417D1*
X925995Y677728D1*
X928545Y670818D1*
X930545Y663727D1*
X931982Y656503D1*
X932848Y649188D1*
X933136Y641827D1*
X932848Y634466D1*
X638159Y464710D2*
X634169Y460888D1*
X627257Y455867D1*
X619644Y451988D1*
X611520Y449348D1*
X603081Y448012D1*
X594538D1*
X586100Y449348D1*
X577975Y451988D1*
X570362Y455867D1*
X563450Y460888D1*
X557409Y466929D1*
X552388Y473841D1*
X548509Y481454D1*
X545869Y489579D1*
X544533Y498017D1*
Y506560D1*
X545869Y514999D1*
X548509Y523123D1*
X552388Y530736D1*
X557409Y537648D1*
X563450Y543689D1*
X570362Y548710D1*
X577975Y552589D1*
X586100Y555230D1*
X594538Y556566D1*
X603081D1*
X611520Y555230D1*
X619644Y552589D1*
X627257Y548710D1*
X634169Y543689D1*
X638159Y539867D1*
X642190Y543689D1*
X649102Y548710D1*
X656715Y552589D1*
X664840Y555230D1*
X673278Y556566D1*
X681822D1*
X690260Y555230D1*
X698385Y552589D1*
X705997Y548710D1*
X712909Y543689D1*
X718950Y537648D1*
X723971Y530736D1*
X727850Y523123D1*
X730491Y514999D1*
X731827Y506560D1*
Y498017D1*
X730491Y489579D1*
X727850Y481454D1*
X723971Y473841D1*
X718950Y466929D1*
X712909Y460888D1*
X705997Y455867D1*
X698385Y451988D1*
X690260Y449348D1*
X681822Y448012D1*
X673278D1*
X664840Y449348D1*
X656715Y451988D1*
X649102Y455867D1*
X642190Y460888D1*
X638201Y464710D1*
D17*
X839322Y641827D3*
Y488283D3*
D21*
X520070Y502289D3*
D22*
X598810D3*
X677550D3*
D23*
X488928Y980409D3*
D24*
Y880409D3*
X500000Y1177165D3*
X600000D3*
X700000D3*
X800000D3*
X900000D3*
Y1277165D3*
X800000D3*
X700000D3*
X600000D3*
D23*
X500000D3*
M02*
