G04 DipTrace 3.2.0.1*
G04 Top.gbr*
%MOIN*%
G04 #@! TF.FileFunction,Copper,L1,Top*
G04 #@! TF.Part,Single*
G04 #@! TA.AperFunction,Conductor*
%ADD14C,0.017323*%
%ADD16R,0.043307X0.03937*%
G04 #@! TA.AperFunction,ComponentPad*
%ADD17C,0.125984*%
%ADD19R,0.019685X0.033465*%
%ADD20R,0.051181X0.059055*%
G04 #@! TA.AperFunction,ComponentPad*
%ADD21R,0.047244X0.047244*%
%ADD22C,0.047244*%
%ADD23R,0.06378X0.06378*%
%ADD24C,0.06378*%
%ADD25R,0.03937X0.043307*%
%ADD27R,0.03X0.045*%
G04 #@! TA.AperFunction,ViaPad*
%ADD28C,0.027559*%
%FSLAX26Y26*%
G04*
G70*
G90*
G75*
G01*
G04 Top*
%LPD*%
X590556Y633858D2*
D14*
X681102D1*
X771654Y724409D1*
Y757676D1*
X769636Y755659D1*
X677550Y502289D2*
X699783D1*
X839322Y641827D1*
X582677Y862205D2*
X744094D1*
X775591Y830709D1*
Y761613D1*
X769636Y755659D1*
X677550Y502289D2*
Y538986D1*
X645669Y570866D1*
X618110D1*
X590551Y598425D1*
Y633853D1*
X590556Y633858D1*
X598810Y502289D2*
Y468119D1*
X625984Y440945D1*
X791983D1*
X839322Y488283D1*
X488928Y880409D2*
Y869340D1*
X547244Y811024D1*
X704724D1*
X724409Y791339D1*
Y760432D1*
X719636Y755659D1*
X598810Y502289D2*
Y523238D1*
X539370Y582677D1*
Y633858D1*
X527559D1*
X472441Y688976D1*
Y732283D1*
X503937Y763780D1*
X586614D1*
X665354Y685039D1*
X677165D1*
X719636Y727510D1*
Y755659D1*
X522883Y716441D2*
X564869D1*
X564963Y716535D1*
X769636Y996157D2*
Y954773D1*
X822835Y901575D1*
X944882D1*
X769636Y996157D2*
Y1069710D1*
X772639Y1072713D1*
X850394Y1381890D2*
X870079D1*
X897638Y1354331D1*
Y1279528D1*
X900000Y1277165D1*
X488928Y980409D2*
Y967765D1*
X531496Y925197D1*
X578740D1*
X582677Y929134D1*
X819636Y996157D2*
Y996802D1*
X846457Y1023622D1*
Y1130709D1*
X800000Y1177165D1*
X669636Y996157D2*
Y1003592D1*
X645669Y1027559D1*
Y1122835D1*
X700000Y1177165D1*
X673228Y1381890D2*
X783465D1*
X819636Y755659D2*
X865895D1*
X944882Y834646D1*
X719636Y996157D2*
Y1058786D1*
X705710Y1072713D1*
X500000Y1277165D2*
Y1275591D1*
X440945Y1216535D1*
Y1114173D1*
X480315Y1074803D1*
X562992D1*
X586614Y1051181D1*
Y1003937D1*
X665354Y925197D1*
X708661D1*
X720472Y937008D1*
Y995322D1*
X719636Y996157D1*
X500000Y1277165D2*
Y1334646D1*
X547244Y1381890D1*
X598425D1*
D28*
X522883Y716441D3*
X803150Y921260D3*
D16*
X772639Y1072713D3*
X705710D3*
D17*
X839322Y641827D3*
Y488283D3*
D19*
X539370Y633858D3*
X590556D3*
X564963Y716535D3*
D20*
X598425Y1381890D3*
X673228D3*
D21*
X520070Y502289D3*
D22*
X598810D3*
X677550D3*
D23*
X488928Y980409D3*
D24*
Y880409D3*
X500000Y1177165D3*
X600000D3*
X700000D3*
X800000D3*
X900000D3*
Y1277165D3*
X800000D3*
X700000D3*
X600000D3*
D23*
X500000D3*
D25*
X582677Y862205D3*
Y929134D3*
X944882Y834646D3*
Y901575D3*
D16*
X850394Y1381890D3*
X783465D3*
D27*
X819636Y996157D3*
X769636D3*
X719636D3*
X669636D3*
Y755659D3*
X719636D3*
X769636D3*
X819636D3*
M02*
