G04 DipTrace 3.2.0.1*
G04 TopDimension.gbr*
%MOIN*%
G04 #@! TF.FileFunction,Drawing,Top*
G04 #@! TF.Part,Single*
%ADD13C,0.001378*%
%ADD55C,0.006176*%
%FSLAX26Y26*%
G04*
G70*
G90*
G75*
G01*
G04 TopDimension*
%LPD*%
X393701Y1452756D2*
D13*
X299213D1*
X393701Y393701D2*
X299213D1*
X318898Y923228D2*
Y1413386D1*
G36*
Y1452756D2*
X326772Y1413386D1*
X311024D1*
X318898Y1452756D1*
G37*
Y923228D2*
D13*
Y433071D1*
G36*
Y393701D2*
X311024Y433071D1*
X326772D1*
X318898Y393701D1*
G37*
X393701Y1452756D2*
D13*
Y1555118D1*
X1031496Y1452756D2*
Y1555118D1*
X712598Y1535433D2*
X433071D1*
G36*
X393701D2*
X433071Y1543307D1*
Y1527559D1*
X393701Y1535433D1*
G37*
X712598D2*
D13*
X992126D1*
G36*
X1031496D2*
X992126Y1527559D1*
Y1543307D1*
X1031496Y1535433D1*
G37*
X276090Y869543D2*
D55*
X274188D1*
X270342Y871444D1*
X268440Y873345D1*
X266539Y877192D1*
Y884841D1*
X268440Y888644D1*
X270342Y890545D1*
X274188Y892490D1*
X277991D1*
X281838Y890545D1*
X287542Y886742D1*
X306687Y867597D1*
Y894392D1*
X272243Y929691D2*
X268440Y927790D1*
X266539Y922042D1*
Y918239D1*
X268440Y912491D1*
X274188Y908644D1*
X283739Y906743D1*
X293290D1*
X300939Y908644D1*
X304786Y912491D1*
X306687Y918239D1*
Y920140D1*
X304786Y925844D1*
X300939Y929691D1*
X295191Y931592D1*
X293290D1*
X287542Y929691D1*
X283739Y925844D1*
X281838Y920140D1*
Y918239D1*
X283739Y912491D1*
X287542Y908644D1*
X293290Y906743D1*
X302840Y945845D2*
X304786Y943944D1*
X306687Y945845D1*
X304786Y947791D1*
X302840Y945845D1*
X279892Y985035D2*
X285640Y983090D1*
X289487Y979287D1*
X291388Y973539D1*
Y971638D1*
X289487Y965890D1*
X285640Y962087D1*
X279892Y960142D1*
X277991D1*
X272243Y962087D1*
X268440Y965890D1*
X266539Y971638D1*
Y973539D1*
X268440Y979287D1*
X272243Y983090D1*
X279892Y985035D1*
X289487D1*
X299038Y983090D1*
X304786Y979287D1*
X306687Y973539D1*
Y969737D1*
X304786Y963989D1*
X300939Y962087D1*
X664616Y1580142D2*
X668463Y1582088D1*
X674211Y1587792D1*
Y1547644D1*
X709511Y1582088D2*
X707609Y1585890D1*
X701861Y1587792D1*
X698059D1*
X692311Y1585890D1*
X688464Y1580142D1*
X686563Y1570592D1*
Y1561041D1*
X688464Y1553392D1*
X692311Y1549545D1*
X698059Y1547644D1*
X699960D1*
X705664Y1549545D1*
X709511Y1553392D1*
X711412Y1559140D1*
Y1561041D1*
X709511Y1566789D1*
X705664Y1570592D1*
X699960Y1572493D1*
X698059D1*
X692311Y1570592D1*
X688464Y1566789D1*
X686563Y1561041D1*
X725665Y1551491D2*
X723763Y1549545D1*
X725665Y1547644D1*
X727610Y1549545D1*
X725665Y1551491D1*
X741907Y1578241D2*
Y1580142D1*
X743808Y1583989D1*
X745709Y1585890D1*
X749556Y1587792D1*
X757205D1*
X761008Y1585890D1*
X762909Y1583989D1*
X764855Y1580142D1*
Y1576340D1*
X762909Y1572493D1*
X759107Y1566789D1*
X739961Y1547644D1*
X766756D1*
M02*
