G04 DipTrace 3.2.0.1*
G04 TopSilk.gbr*
%MOIN*%
G04 #@! TF.FileFunction,Legend,Top*
G04 #@! TF.Part,Single*
%ADD10C,0.009843*%
%ADD18C,0.015415*%
%ADD26C,0.025006*%
%ADD54C,0.005906*%
%FSLAX26Y26*%
G04*
G70*
G90*
G75*
G01*
G04 TopSilk*
%LPD*%
D18*
X512464Y630958D3*
X525588Y665360D2*
D10*
X604335D1*
Y685034D1*
X525588D1*
Y665360D1*
X441329Y590871D2*
X756290D1*
Y413706D1*
X441329D1*
Y590871D1*
X538140Y1040252D2*
X439715D1*
Y820567D1*
X538140D1*
Y1040252D1*
X440157Y1327165D2*
X959843D1*
Y1127165D1*
X440157D1*
Y1327165D1*
X857143Y800908D2*
X632137D1*
Y950909D1*
X857143D1*
Y900918D1*
Y800908D2*
Y850898D1*
Y900918D2*
G03X857143Y850898I4J-25010D01*
G01*
D26*
X866000Y996674D3*
X652268Y1086172D2*
D54*
X650367Y1089975D1*
X646520Y1093822D1*
X642718Y1095723D1*
X635069D1*
X631222Y1093822D1*
X627419Y1089975D1*
X625474Y1086172D1*
X623572Y1080424D1*
Y1070829D1*
X625474Y1065126D1*
X627419Y1061279D1*
X631222Y1057476D1*
X635069Y1055531D1*
X642718D1*
X646520Y1057476D1*
X650367Y1061279D1*
X652268Y1065126D1*
X664079Y1088029D2*
X667926Y1089975D1*
X673674Y1095679D1*
Y1055531D1*
X936098Y604217D2*
X932296Y602316D1*
X928449Y598469D1*
X926547Y594666D1*
Y587017D1*
X928449Y583170D1*
X932295Y579368D1*
X936098Y577422D1*
X941846Y575521D1*
X951441D1*
X957145Y577422D1*
X960991Y579368D1*
X964794Y583170D1*
X966740Y587017D1*
Y594666D1*
X964794Y598469D1*
X960991Y602316D1*
X957145Y604217D1*
X966739Y646669D2*
X926548Y631327D1*
X966739Y616028D1*
X953342Y621776D2*
Y640921D1*
X926547Y685275D2*
X966739D1*
X926548Y658480D1*
X966739D1*
X926547Y697086D2*
X966739D1*
X926547Y723881D2*
X966739D1*
X945693Y697086D2*
Y723881D1*
X940035Y436849D2*
X936233Y434948D1*
X932386Y431101D1*
X930484Y427298D1*
Y419649D1*
X932386Y415802D1*
X936232Y412000D1*
X940035Y410054D1*
X945783Y408153D1*
X955378D1*
X961082Y410054D1*
X964928Y412000D1*
X968731Y415802D1*
X970677Y419649D1*
Y427298D1*
X968731Y431101D1*
X964928Y434948D1*
X961082Y436849D1*
X970676Y479301D2*
X930485Y463959D1*
X970677Y448660D1*
X957279Y454408D2*
Y473553D1*
X930485Y517907D2*
X970676D1*
X930485Y491112D1*
X970676D1*
X930485Y529718D2*
X970676D1*
Y552666D1*
X459580Y728719D2*
Y688527D1*
X472977D1*
X478725Y690472D1*
X482572Y694275D1*
X484473Y698122D1*
X486374Y703826D1*
Y713420D1*
X484473Y719168D1*
X482572Y722971D1*
X478725Y726818D1*
X472977Y728719D1*
X459580D1*
X498185Y721025D2*
X502032Y722971D1*
X507780Y728675D1*
Y688527D1*
X444217Y1381885D2*
X461462D1*
X467165Y1383786D1*
X469111Y1385732D1*
X471012Y1389534D1*
Y1395282D1*
X469111Y1399085D1*
X467165Y1401030D1*
X461462Y1402932D1*
X444217D1*
Y1362740D1*
X482823Y1402932D2*
X492418Y1362740D1*
X501969Y1402932D1*
X511519Y1362740D1*
X521114Y1402932D1*
X532925Y1383786D2*
X550125D1*
X555873Y1385732D1*
X557818Y1387633D1*
X559720Y1391435D1*
Y1395282D1*
X557818Y1399085D1*
X555873Y1401030D1*
X550125Y1402932D1*
X532925D1*
Y1362740D1*
X546322Y1383786D2*
X559720Y1362740D1*
X446644Y643701D2*
X444743Y647504D1*
X440896Y651350D1*
X437094Y653252D1*
X429444D1*
X425598Y651350D1*
X421795Y647504D1*
X419850Y643701D1*
X417948Y637953D1*
Y628358D1*
X419850Y622655D1*
X421795Y618808D1*
X425598Y615005D1*
X429444Y613060D1*
X437094D1*
X440896Y615005D1*
X444743Y618808D1*
X446644Y622655D1*
X489097Y613060D2*
X473754Y653252D1*
X458455Y613060D1*
X464203Y626457D2*
X483349D1*
X527703Y653252D2*
Y613060D1*
X500908Y653252D1*
Y613060D1*
X459513Y807357D2*
Y776760D1*
X457611Y771012D1*
X455666Y769110D1*
X451863Y767165D1*
X448017D1*
X444214Y769110D1*
X442313Y771012D1*
X440367Y776760D1*
Y780562D1*
X475170Y807313D2*
X496173D1*
X484721Y792014D1*
X490469D1*
X494272Y790113D1*
X496173Y788211D1*
X498118Y782463D1*
Y778661D1*
X496173Y772913D1*
X492370Y769066D1*
X486622Y767165D1*
X480874D1*
X475170Y769066D1*
X473269Y771012D1*
X471324Y774814D1*
X922553Y1110018D2*
Y1079421D1*
X920652Y1073673D1*
X918707Y1071772D1*
X914904Y1069826D1*
X911057D1*
X907255Y1071772D1*
X905353Y1073673D1*
X903408Y1079421D1*
Y1083224D1*
X936310Y1100423D2*
Y1102325D1*
X938211Y1106171D1*
X940112Y1108073D1*
X943959Y1109974D1*
X951608D1*
X955411Y1108073D1*
X957312Y1106171D1*
X959258Y1102325D1*
Y1098522D1*
X957312Y1094675D1*
X953510Y1088972D1*
X934364Y1069826D1*
X961159D1*
X582749Y961394D2*
Y978594D1*
X580804Y984342D1*
X578903Y986288D1*
X575100Y988189D1*
X571253D1*
X567451Y986288D1*
X565505Y984342D1*
X563604Y978594D1*
Y961394D1*
X603796D1*
X582749Y974792D2*
X603796Y988189D1*
X573199Y1001946D2*
X571297D1*
X567451Y1003847D1*
X565549Y1005748D1*
X563648Y1009595D1*
Y1017244D1*
X565549Y1021047D1*
X567451Y1022948D1*
X571297Y1024893D1*
X575100D1*
X578947Y1022948D1*
X584651Y1019145D1*
X603796Y1000000D1*
Y1026795D1*
X944954Y934561D2*
Y951761D1*
X943009Y957509D1*
X941107Y959455D1*
X937305Y961356D1*
X933458D1*
X929655Y959455D1*
X927710Y957509D1*
X925809Y951761D1*
Y934561D1*
X966001D1*
X944954Y947959D2*
X966001Y961356D1*
X933502Y973167D2*
X931557Y977014D1*
X925853Y982762D1*
X966001D1*
X890528Y1381818D2*
X907728D1*
X913476Y1383763D1*
X915422Y1385664D1*
X917323Y1389467D1*
Y1393314D1*
X915422Y1397116D1*
X913476Y1399062D1*
X907728Y1400963D1*
X890528D1*
Y1360771D1*
X903925Y1381818D2*
X917323Y1360771D1*
X932981Y1400919D2*
X953983D1*
X942531Y1385620D1*
X948279D1*
X952082Y1383719D1*
X953983Y1381818D1*
X955929Y1376070D1*
Y1372267D1*
X953983Y1366519D1*
X950180Y1362672D1*
X944432Y1360771D1*
X938684D1*
X932981Y1362672D1*
X931079Y1364618D1*
X929134Y1368420D1*
X723346Y895998D2*
Y867303D1*
X725247Y861555D1*
X729094Y857752D1*
X734842Y855806D1*
X738645D1*
X744393Y857752D1*
X748239Y861555D1*
X750141Y867303D1*
Y895998D1*
X761952Y888305D2*
X765798Y890250D1*
X771546Y895954D1*
Y855806D1*
M02*
