G04 DipTrace 3.2.0.1*
G04 Bottom.gbr*
%MOIN*%
G04 #@! TF.FileFunction,Copper,L2,Bot*
G04 #@! TF.Part,Single*
G04 #@! TA.AperFunction,Conductor*
%ADD14C,0.01*%
%ADD16C,0.02*%
G04 #@! TA.AperFunction,CopperBalancing*
%ADD17C,0.025*%
%ADD19R,0.051181X0.059055*%
%ADD20R,0.059055X0.051181*%
G04 #@! TA.AperFunction,ComponentPad*
%ADD21R,0.047244X0.047244*%
%ADD22C,0.047244*%
%ADD24R,0.057087X0.017717*%
%ADD25R,0.017717X0.037402*%
G04 #@! TA.AperFunction,ComponentPad*
%ADD28C,0.11811*%
G04 #@! TA.AperFunction,ViaPad*
%ADD29C,0.027559*%
%FSLAX26Y26*%
G04*
G70*
G90*
G75*
G01*
G04 Bottom*
%LPD*%
X1337550Y1000012D2*
D14*
X1300043D1*
X1281294Y981262D1*
Y875001D1*
X743738Y1043769D2*
Y987513D1*
X781241Y950009D1*
X837497D1*
X618622Y981262D2*
X612474D1*
X618724Y975012D1*
Y1012516D1*
X631226Y1025017D1*
X656228D1*
Y662479D2*
X818745D1*
X912505Y962510D2*
X837497D1*
Y950009D1*
X1406102Y662479D2*
Y731236D1*
X1337550Y1025012D2*
X1337555Y1025017D1*
X1387555D1*
X1406102Y1006470D1*
Y731236D1*
X831247Y512463D2*
D16*
Y562469D1*
X893549Y624770D1*
Y662479D1*
X937508D1*
X1062521Y787492D1*
Y806244D1*
D14*
Y849999D1*
X981262D1*
X962510Y868751D1*
Y1043769D1*
X1187534Y731236D2*
X1218787D1*
X1243790Y756239D1*
Y806244D1*
X1225038D1*
X1200035Y831247D1*
Y875001D1*
X1206491D1*
X656024Y1067877D2*
X682126D1*
X699983Y1050020D1*
Y981262D1*
X762490Y918756D1*
X962510Y993764D2*
Y1043769D1*
X1337550Y1050012D2*
X1275035D1*
X1206286Y981262D1*
Y875001D1*
X1206491D1*
X1156281D1*
X1131278Y849999D1*
X1062521D1*
X1337550Y806244D2*
Y731236D1*
X1331299D1*
X1162550Y975012D2*
X1156281D1*
Y937508D1*
X1337550Y975012D2*
Y943759D1*
X1162550Y1025012D2*
X1125022D1*
X1112731Y1012720D1*
Y943759D1*
Y787697D2*
Y731236D1*
Y662479D1*
X731236Y812290D2*
Y806244D1*
X681231D1*
X656024Y831451D1*
Y868751D1*
X731236Y812290D2*
Y875001D1*
X1106276Y1050012D2*
X1162550D1*
X656024Y981262D2*
Y868751D1*
X818541Y1043769D2*
X881252D1*
X887707D1*
X581220Y981262D2*
Y1012516D1*
X618724Y1050020D1*
Y1087524D1*
X637476Y1106276D1*
X806244D1*
X818541Y1093979D1*
Y1043769D1*
X818950Y737487D2*
X731236D1*
X581220Y868751D2*
Y806244D1*
Y1112526D2*
Y1067877D1*
X731236Y737487D2*
X599972D1*
X581220Y756239D1*
Y806244D1*
X962510D2*
X868751D1*
X843748Y831247D1*
Y881252D1*
X837702Y875206D1*
X837497D1*
X1012516Y806244D2*
Y781241D1*
X968761Y737487D1*
X893753D1*
D29*
X656228Y1025017D3*
Y662479D3*
X912505Y962510D3*
X762490Y918756D3*
X962510Y993764D3*
X1337550Y806244D3*
X1243790D3*
X1156281Y937508D3*
X1337550Y943759D3*
X1112731D3*
Y787697D3*
X731236Y875001D3*
X1106276Y1050012D3*
X581220Y806244D3*
Y1112526D3*
X962510Y806244D3*
X1012516D3*
X1062521D3*
X1312547Y449957D3*
X483727Y1137664D2*
D17*
X547265D1*
X615171D2*
X632419D1*
X811314D2*
X1485063D1*
X483727Y1112795D2*
X538438D1*
X846301D2*
X1485063D1*
X483727Y1087927D2*
X543354D1*
X1017109D2*
X1090193D1*
X1122357D2*
X1485063D1*
X483727Y1063058D2*
X543354D1*
X1017109D2*
X1065684D1*
X1220070D2*
X1241050D1*
X1395077D2*
X1485063D1*
X483727Y1038189D2*
X543354D1*
X1017109D2*
X1065290D1*
X1421416D2*
X1485063D1*
X483727Y1013320D2*
X543354D1*
X1017109D2*
X1078747D1*
X1439358D2*
X1485063D1*
X483727Y988451D2*
X543354D1*
X1017109D2*
X1078747D1*
X1260512D2*
X1280021D1*
X1440112D2*
X1485063D1*
X483727Y963583D2*
X543354D1*
X996512D2*
X1075193D1*
X1240273D2*
X1280021D1*
X1440112D2*
X1485063D1*
X483727Y938714D2*
X543354D1*
X996512D2*
X1070277D1*
X1240273D2*
X1295092D1*
X1440112D2*
X1485063D1*
X483727Y913845D2*
X526633D1*
X996512D2*
X1083268D1*
X1261085D2*
X1308081D1*
X1440112D2*
X1485063D1*
X483727Y888976D2*
X526633D1*
X996512D2*
X1123206D1*
X1261085D2*
X1372100D1*
X1440112D2*
X1485063D1*
X483727Y864108D2*
X526633D1*
X1261085D2*
X1372100D1*
X1440112D2*
X1485063D1*
X483727Y839239D2*
X526633D1*
X1269375D2*
X1311958D1*
X1440112D2*
X1485063D1*
X483727Y814370D2*
X526633D1*
X1440112D2*
X1485063D1*
X483727Y789501D2*
X542098D1*
X1282903D2*
X1298429D1*
X1440112D2*
X1485063D1*
X483727Y764633D2*
X547230D1*
X1460673D2*
X1485063D1*
X483727Y739764D2*
X551895D1*
X1460673D2*
X1485063D1*
X483727Y714895D2*
X575542D1*
X1044022D2*
X1058148D1*
X1249495D2*
X1276719D1*
X1460673D2*
X1485063D1*
X483727Y690026D2*
X672717D1*
X1019155D2*
X1058148D1*
X1242102D2*
X1276719D1*
X1460673D2*
X1485063D1*
X483727Y665157D2*
X838969D1*
X994287D2*
X1058148D1*
X1167320D2*
X1351538D1*
X1460673D2*
X1485063D1*
X483727Y640289D2*
X838969D1*
X969419D2*
X1058148D1*
X1167320D2*
X1351538D1*
X1460673D2*
X1485063D1*
X483727Y615420D2*
X830105D1*
X948139D2*
X1038484D1*
X1167320D2*
X1351538D1*
X1460673D2*
X1485063D1*
X483727Y590551D2*
X805236D1*
X913440D2*
X1025171D1*
X1131759D2*
X1485063D1*
X543438Y565682D2*
X792390D1*
X888572D2*
X1025816D1*
X1131150D2*
X1425387D1*
X570387Y540814D2*
X778647D1*
X883871D2*
X1041104D1*
X1260081D2*
X1398403D1*
X583018Y515945D2*
X778647D1*
X883871D2*
X1084919D1*
X1268765D2*
X1385772D1*
X587504Y491076D2*
X778647D1*
X917890D2*
X1084919D1*
X1264100D2*
X1381286D1*
X585063Y466207D2*
X778647D1*
X940533D2*
X1084919D1*
X1238049D2*
X1383726D1*
X1237768Y931021D2*
X1258573D1*
Y843715D1*
X1264832Y840581D1*
X1269945Y836867D1*
X1274413Y832399D1*
X1278127Y827286D1*
X1280996Y821655D1*
X1282949Y815646D1*
X1283937Y809404D1*
Y803084D1*
X1282949Y796843D1*
X1280996Y790833D1*
X1278127Y785202D1*
X1275277Y781186D1*
X1275185Y753768D1*
X1274412Y748887D1*
X1272885Y744188D1*
X1270642Y739785D1*
X1267736Y735786D1*
X1241049Y708962D1*
X1239617Y704579D1*
Y675217D1*
X1164798D1*
X1164814Y606459D1*
X1122865D1*
X1126517Y599293D1*
X1129038Y591531D1*
X1130315Y583472D1*
Y575312D1*
X1129038Y567253D1*
X1127659Y562589D1*
X1187643Y562577D1*
Y553571D1*
X1193517Y557115D1*
X1200783Y560125D1*
X1208429Y561961D1*
X1216269Y562577D1*
X1224109Y561961D1*
X1231755Y560125D1*
X1239021Y557115D1*
X1245726Y553007D1*
X1251705Y547899D1*
X1256812Y541920D1*
X1260921Y535215D1*
X1263930Y527949D1*
X1265766Y520303D1*
X1266383Y512463D1*
X1265766Y504623D1*
X1263930Y496978D1*
X1260921Y489711D1*
X1256812Y483007D1*
X1251705Y477028D1*
X1245726Y471920D1*
X1239021Y467811D1*
X1231755Y464802D1*
X1224109Y462966D1*
X1216269Y462349D1*
X1208429Y462966D1*
X1200783Y464802D1*
X1193517Y467811D1*
X1187643Y471365D1*
Y462349D1*
X1087415D1*
Y528197D1*
X1082554Y527551D1*
X1074394D1*
X1066335Y528828D1*
X1058573Y531349D1*
X1051303Y535054D1*
X1044702Y539850D1*
X1038932Y545621D1*
X1034135Y552222D1*
X1030430Y559492D1*
X1027909Y567253D1*
X1026633Y575312D1*
Y583472D1*
X1027909Y591531D1*
X1030430Y599293D1*
X1034135Y606563D1*
X1038932Y613164D1*
X1044702Y618934D1*
X1051303Y623731D1*
X1058573Y627436D1*
X1060654Y628202D1*
X1060648Y734030D1*
X961207Y634730D1*
X956575Y631365D1*
X951472Y628765D1*
X946016Y626993D1*
X945631Y626635D1*
Y606459D1*
X925142D1*
X921298Y601071D1*
X886874Y566488D1*
X881367Y560982D1*
X881361Y496730D1*
X886222Y497375D1*
X894382D1*
X902441Y496098D1*
X910202Y493577D1*
X917472Y489873D1*
X924073Y485076D1*
X929844Y479306D1*
X934640Y472705D1*
X938345Y465434D1*
X940866Y457673D1*
X942143Y449614D1*
X942231Y443701D1*
X1394844Y443705D1*
X1390663Y452475D1*
X1388180Y459206D1*
X1386232Y466110D1*
X1384832Y473147D1*
X1383990Y480272D1*
X1383707Y487441D1*
X1383990Y494610D1*
X1384832Y501735D1*
X1386232Y508772D1*
X1388180Y515676D1*
X1390663Y522407D1*
X1393667Y528923D1*
X1397172Y535182D1*
X1401157Y541148D1*
X1405600Y546782D1*
X1410470Y552050D1*
X1415738Y556920D1*
X1421371Y561362D1*
X1427337Y565348D1*
X1433597Y568853D1*
X1440113Y571857D1*
X1446844Y574340D1*
X1453748Y576287D1*
X1460785Y577688D1*
X1467909Y578530D1*
X1475079Y578812D1*
X1482248Y578530D1*
X1487563Y577902D1*
X1487567Y1162560D1*
X481205Y1162533D1*
X481209Y577955D1*
X493701Y578832D1*
X500870Y578550D1*
X507995Y577707D1*
X515031Y576307D1*
X521936Y574360D1*
X528667Y571877D1*
X535182Y568873D1*
X541442Y565367D1*
X547408Y561382D1*
X553042Y556940D1*
X558310Y552070D1*
X563180Y546802D1*
X567622Y541168D1*
X571608Y535202D1*
X575113Y528942D1*
X578117Y522427D1*
X580600Y515696D1*
X582547Y508791D1*
X583948Y501755D1*
X584790Y494630D1*
X585072Y487461D1*
X584790Y480291D1*
X583948Y473167D1*
X582547Y466130D1*
X580600Y459226D1*
X578117Y452495D1*
X573840Y443705D1*
X838352D1*
X838461Y449614D1*
X839738Y457673D1*
X841117Y462337D1*
X781133Y462349D1*
Y562577D1*
X794732D1*
X795203Y568177D1*
X796541Y573745D1*
X798732Y579035D1*
X801724Y583919D1*
X805442Y588273D1*
X841449Y624278D1*
X841466Y681493D1*
X766867Y681467D1*
Y685378D1*
X675217Y685404D1*
Y705966D1*
X597501Y706092D1*
X592621Y706865D1*
X587921Y708392D1*
X583518Y710635D1*
X579520Y713539D1*
X558953Y733971D1*
X555743Y737728D1*
X553160Y741942D1*
X551269Y746507D1*
X550115Y751312D1*
X549728Y756239D1*
Y781178D1*
X546883Y785202D1*
X544014Y790833D1*
X542062Y796843D1*
X541073Y803084D1*
Y809404D1*
X541440Y812731D1*
X529138D1*
Y924770D1*
X624554D1*
X624531Y936105D1*
X620673Y936070D1*
Y1007444D1*
X616571Y998896D1*
Y936070D1*
X545870D1*
Y1093268D1*
X544014Y1097115D1*
X542062Y1103125D1*
X541073Y1109366D1*
Y1115686D1*
X542062Y1121928D1*
X544014Y1127937D1*
X546883Y1133568D1*
X550597Y1138681D1*
X555066Y1143150D1*
X560178Y1146864D1*
X565810Y1149732D1*
X571819Y1151685D1*
X578060Y1152673D1*
X584381D1*
X590622Y1151685D1*
X596631Y1149732D1*
X602262Y1146864D1*
X607375Y1143150D1*
X611844Y1138681D1*
X615558Y1133568D1*
X617273Y1130440D1*
X621022Y1133127D1*
X625425Y1135370D1*
X630125Y1136898D1*
X635005Y1137671D1*
X701781Y1137768D1*
X808715Y1137671D1*
X813596Y1136898D1*
X818295Y1135370D1*
X822698Y1133127D1*
X826697Y1130222D1*
X840808Y1116247D1*
X844018Y1112490D1*
X846601Y1108276D1*
X848492Y1103710D1*
X849164Y1101322D1*
X853997Y1099789D1*
X1014593D1*
Y987749D1*
X1002357D1*
X1000811Y981319D1*
X998392Y975480D1*
X995091Y970093D1*
X993997Y968706D1*
X994003Y881824D1*
X1008822Y881491D1*
X1118249D1*
X1135828Y898949D1*
X1137778Y900484D1*
X1137997Y901626D1*
X1132610Y904928D1*
X1129736Y907245D1*
X1125176Y905458D1*
X1119031Y903983D1*
X1112731Y903487D1*
X1106430Y903983D1*
X1100286Y905458D1*
X1094448Y907877D1*
X1089060Y911178D1*
X1084255Y915282D1*
X1080151Y920088D1*
X1076849Y925475D1*
X1074430Y931314D1*
X1072955Y937458D1*
X1072459Y943759D1*
X1072955Y950059D1*
X1074430Y956203D1*
X1076849Y962042D1*
X1080151Y967429D1*
X1081244Y968816D1*
X1081336Y1015192D1*
X1081629Y1017656D1*
X1075652Y1023857D1*
X1071938Y1028970D1*
X1069070Y1034601D1*
X1067117Y1040610D1*
X1066129Y1046852D1*
Y1053172D1*
X1067117Y1059413D1*
X1069070Y1065423D1*
X1071938Y1071054D1*
X1075652Y1076167D1*
X1080121Y1080635D1*
X1085234Y1084349D1*
X1090865Y1087218D1*
X1096874Y1089171D1*
X1103115Y1090159D1*
X1109436D1*
X1115677Y1089171D1*
X1121686Y1087218D1*
X1125887Y1085362D1*
X1217585D1*
Y1037098D1*
X1254583Y1073959D1*
X1258581Y1076864D1*
X1262984Y1079106D1*
X1267684Y1080634D1*
X1272564Y1081407D1*
X1275045Y1081504D1*
X1282514Y1085362D1*
X1392585D1*
Y1056117D1*
X1397287Y1054969D1*
X1401852Y1053077D1*
X1406066Y1050495D1*
X1409823Y1047285D1*
X1430050Y1026923D1*
X1432954Y1022924D1*
X1435197Y1018521D1*
X1436724Y1013822D1*
X1437497Y1008941D1*
X1437594Y942165D1*
Y787253D1*
X1458185Y787256D1*
Y606459D1*
X1354020D1*
Y675252D1*
X1279217Y675217D1*
X1279324Y787256D1*
X1302003D1*
X1299249Y793799D1*
X1297774Y799944D1*
X1297278Y806244D1*
X1297774Y812545D1*
X1299249Y818689D1*
X1301668Y824528D1*
X1304970Y829915D1*
X1309073Y834720D1*
X1313879Y838824D1*
X1319266Y842126D1*
X1325105Y844545D1*
X1331249Y846020D1*
X1337550Y846516D1*
X1343850Y846020D1*
X1349995Y844545D1*
X1355833Y842126D1*
X1361220Y838824D1*
X1366026Y834720D1*
X1370130Y829915D1*
X1373432Y824528D1*
X1374606Y821980D1*
X1374610Y927990D1*
X1371887Y922717D1*
X1368173Y917604D1*
X1363705Y913135D1*
X1358592Y909421D1*
X1352961Y906552D1*
X1346951Y904600D1*
X1340710Y903612D1*
X1334390D1*
X1328148Y904600D1*
X1322139Y906552D1*
X1316508Y909421D1*
X1311395Y913135D1*
X1306927Y917604D1*
X1303213Y922717D1*
X1300344Y928348D1*
X1298391Y934357D1*
X1297514Y939655D1*
X1282514Y939661D1*
X1282550Y1010362D1*
X1277816Y1008256D1*
X1237802Y968241D1*
X1237778Y930988D1*
D19*
X1281294Y875001D3*
X1206491D3*
D20*
X837497Y950009D3*
Y875206D3*
D19*
X818745Y662479D3*
X893549D3*
D20*
X731236Y737487D3*
Y812290D3*
D21*
X1137529Y512463D3*
D22*
X1216269D3*
D21*
X831247D3*
D22*
X752507D3*
D19*
X1331299Y731236D3*
X1406102D3*
X1331299Y662479D3*
X1406102D3*
X1187534Y731236D3*
X1112731D3*
X1187534Y662479D3*
X1112731D3*
X962510Y1043769D3*
X887707D3*
X743738D3*
X818541D3*
X893753Y737487D3*
X818950D3*
X581220Y868751D3*
X656024D3*
D24*
X1337550Y975012D3*
Y1000012D3*
Y1025012D3*
Y1050012D3*
X1162550Y975012D3*
Y1000012D3*
Y1025012D3*
Y1050012D3*
D25*
X581220Y981262D3*
X618622D3*
X581220Y1067877D3*
X656024D3*
Y981262D3*
D28*
X793743Y1456312D3*
X1167759Y1455525D3*
M02*
