G04 DipTrace 3.2.0.1*
G04 BottomMask.gbr*
%MOIN*%
G04 #@! TF.FileFunction,Soldermask,Bot*
G04 #@! TF.Part,Single*
%ADD30C,0.043307*%
%ADD31C,0.11811*%
%ADD36C,0.125984*%
%ADD40R,0.025591X0.045276*%
%ADD42R,0.064961X0.025591*%
%ADD44C,0.055118*%
%ADD46R,0.055118X0.055118*%
%ADD48R,0.066929X0.059055*%
%ADD50R,0.059055X0.066929*%
%FSLAX26Y26*%
G04*
G70*
G90*
G75*
G01*
G04 BotMask*
%LPD*%
D50*
X1281294Y875001D3*
X1206491D3*
D48*
X837497Y950009D3*
Y875206D3*
D50*
X818745Y662479D3*
X893549D3*
D48*
X731236Y737487D3*
Y812290D3*
D46*
X1137529Y512463D3*
D44*
X1216269D3*
D30*
X1078474Y579392D3*
D46*
X831247Y512463D3*
D44*
X752507D3*
D30*
X890302Y445534D3*
D50*
X1331299Y731236D3*
X1406102D3*
X1331299Y662479D3*
X1406102D3*
X1187534Y731236D3*
X1112731D3*
X1187534Y662479D3*
X1112731D3*
X962510Y1043769D3*
X887707D3*
X743738D3*
X818541D3*
X893753Y737487D3*
X818950D3*
X581220Y868751D3*
X656024D3*
D42*
X1337550Y975012D3*
Y1000012D3*
Y1025012D3*
Y1050012D3*
X1162550Y975012D3*
Y1000012D3*
Y1025012D3*
Y1050012D3*
D40*
X581220Y981262D3*
X618622D3*
X581220Y1067877D3*
X656024D3*
Y981262D3*
D36*
X793743Y1456312D3*
X1167759Y1455525D3*
D31*
X493701Y487461D3*
X1475079Y487441D3*
Y1475079D3*
X493711Y1475064D3*
M02*
