G04 DipTrace 3.2.0.1*
G04 BottomSilk.gbr*
%MOIN*%
G04 #@! TF.FileFunction,Legend,Bot*
G04 #@! TF.Part,Single*
%ADD10C,0.009843*%
%ADD18C,0.005*%
%ADD23C,0.018753*%
%ADD52C,0.005906*%
%ADD53C,0.006176*%
%FSLAX26Y26*%
G04*
G70*
G90*
G75*
G01*
G04 BotSilk*
%LPD*%
X1322654Y849430D2*
D10*
Y900572D1*
X863068Y991369D2*
X811927D1*
X777386Y688050D2*
Y636908D1*
X705665Y696127D2*
X756807D1*
X1058783Y408133D2*
X1295009D1*
Y616804D1*
X1058783D1*
Y408133D1*
X909993Y616794D2*
X673766D1*
Y408123D1*
X909993D1*
Y616794D1*
X1300041Y937512D2*
X1200058D1*
Y1087512D1*
X1300041D1*
Y937512D1*
D23*
X1221921Y959382D3*
X561535Y1008820D2*
D10*
X675713D1*
Y1040320D1*
X561535D1*
Y1008820D1*
X675713Y995041D2*
G02X675713Y995041I1967J0D01*
G01*
X1300046Y768740D2*
D18*
X1437560D1*
Y624975D1*
X1300046D1*
Y768740D1*
X1081273D2*
X1218787D1*
Y624975D1*
X1081273D1*
Y768740D1*
X1241881Y828409D2*
D52*
X1243782Y832211D1*
X1247629Y836058D1*
X1251432Y837959D1*
X1259081D1*
X1262928Y836058D1*
X1266730Y832211D1*
X1268676Y828409D1*
X1270577Y822661D1*
Y813066D1*
X1268676Y807362D1*
X1266730Y803515D1*
X1262928Y799713D1*
X1259081Y797767D1*
X1251432D1*
X1247629Y799713D1*
X1243782Y803515D1*
X1241881Y807362D1*
X1230070Y830266D2*
X1226223Y832211D1*
X1220475Y837915D1*
Y797767D1*
X884090Y897695D2*
X880288Y899597D1*
X876441Y903443D1*
X874540Y907246D1*
Y914895D1*
X876441Y918742D1*
X880288Y922545D1*
X884090Y924490D1*
X889838Y926391D1*
X899433D1*
X905137Y924490D1*
X908984Y922545D1*
X912786Y918742D1*
X914732Y914895D1*
Y907246D1*
X912786Y903443D1*
X908984Y899597D1*
X905137Y897695D1*
X882233Y885884D2*
X880288Y882038D1*
X874584Y876290D1*
X914732D1*
X887937Y839585D2*
X893685Y841531D1*
X897532Y845333D1*
X899433Y851081D1*
Y852983D1*
X897532Y858731D1*
X893685Y862533D1*
X887937Y864479D1*
X886036D1*
X880288Y862533D1*
X876485Y858731D1*
X874584Y852983D1*
Y851081D1*
X876485Y845333D1*
X880288Y841531D1*
X887937Y839585D1*
X897532D1*
X907082Y841531D1*
X912830Y845333D1*
X914732Y851081D1*
Y854884D1*
X912830Y860632D1*
X908984Y862533D1*
X878771Y615886D2*
X880672Y619689D1*
X884519Y623536D1*
X888321Y625437D1*
X895971D1*
X899817Y623536D1*
X903620Y619689D1*
X905566Y615886D1*
X907467Y610138D1*
Y600543D1*
X905566Y594840D1*
X903620Y590993D1*
X899817Y587190D1*
X895971Y585245D1*
X888321D1*
X884519Y587190D1*
X880672Y590993D1*
X878771Y594840D1*
X865014Y615842D2*
Y617743D1*
X863113Y621590D1*
X861212Y623491D1*
X857365Y625393D1*
X849716D1*
X845913Y623491D1*
X844012Y621590D1*
X842066Y617743D1*
Y613941D1*
X844012Y610094D1*
X847814Y604390D1*
X866960Y585245D1*
X840165D1*
X816858Y625393D2*
X822606Y623491D1*
X826453Y617743D1*
X828354Y608193D1*
Y602445D1*
X826453Y592894D1*
X822606Y587146D1*
X816858Y585245D1*
X813056D1*
X807307Y587146D1*
X803505Y592894D1*
X801559Y602445D1*
Y608193D1*
X803505Y617743D1*
X807307Y623491D1*
X813056Y625393D1*
X816858D1*
X803505Y617743D2*
X826453Y592894D1*
X659067Y788912D2*
X655264Y790814D1*
X651417Y794660D1*
X649516Y798463D1*
Y806112D1*
X651417Y809959D1*
X655264Y813762D1*
X659067Y815707D1*
X664815Y817608D1*
X674409D1*
X680113Y815707D1*
X683960Y813762D1*
X687762Y809959D1*
X689708Y806112D1*
Y798463D1*
X687762Y794660D1*
X683960Y790814D1*
X680113Y788912D1*
X659111Y775156D2*
X657210D1*
X653363Y773255D1*
X651462Y771353D1*
X649560Y767507D1*
Y759857D1*
X651461Y756055D1*
X653363Y754154D1*
X657210Y752208D1*
X661012D1*
X664859Y754154D1*
X670563Y757956D1*
X689708Y777101D1*
Y750307D1*
X657209Y738496D2*
X655264Y734649D1*
X649560Y728901D1*
X689708D1*
X1308634Y545807D2*
X1348826D1*
X1318229Y532051D2*
X1316328D1*
X1312481Y530149D1*
X1310580Y528248D1*
X1308678Y524401D1*
Y516752D1*
X1310580Y512949D1*
X1312481Y511048D1*
X1316328Y509103D1*
X1320130D1*
X1323977Y511048D1*
X1329681Y514851D1*
X1348826Y533996D1*
Y507201D1*
X1318185Y466694D2*
X1314382Y468596D1*
X1310535Y472442D1*
X1308634Y476245D1*
Y483894D1*
X1310535Y487741D1*
X1314382Y491544D1*
X1318185Y493489D1*
X1323933Y495390D1*
X1333528D1*
X1339231Y493489D1*
X1343078Y491544D1*
X1346881Y487741D1*
X1348826Y483894D1*
Y476245D1*
X1346881Y472442D1*
X1343078Y468596D1*
X1339231Y466694D1*
X639309Y568284D2*
Y551040D1*
X637408Y545336D1*
X635463Y543390D1*
X631660Y541489D1*
X625912D1*
X622109Y543391D1*
X620164Y545336D1*
X618263Y551040D1*
Y568284D1*
X658455D1*
X618263Y529678D2*
X658455Y520083D1*
X618263Y510533D1*
X658455Y500982D1*
X618263Y491388D1*
X637408Y479577D2*
Y462377D1*
X635463Y456629D1*
X633561Y454683D1*
X629759Y452782D1*
X625912D1*
X622109Y454683D1*
X620164Y456629D1*
X618263Y462377D1*
Y479577D1*
X658455Y479576D1*
X637408Y466179D2*
X658455Y452782D1*
X1266896Y762211D2*
Y745011D1*
X1264951Y739263D1*
X1263050Y737317D1*
X1259247Y735416D1*
X1255400D1*
X1251598Y737317D1*
X1249652Y739263D1*
X1247751Y745011D1*
Y762211D1*
X1287943D1*
X1266896Y748813D2*
X1287943Y735416D1*
X1247795Y719758D2*
Y698756D1*
X1263094Y710208D1*
Y704460D1*
X1264995Y700657D1*
X1266896Y698756D1*
X1272644Y696810D1*
X1276447D1*
X1282195Y698756D1*
X1286042Y702558D1*
X1287943Y708306D1*
Y714054D1*
X1286042Y719758D1*
X1284096Y721660D1*
X1280294Y723605D1*
X1266896Y688153D2*
Y670954D1*
X1264951Y665206D1*
X1263050Y663260D1*
X1259247Y661359D1*
X1255400D1*
X1251598Y663260D1*
X1249652Y665206D1*
X1247751Y670954D1*
Y688153D1*
X1287943D1*
X1266896Y674756D2*
X1287943Y661359D1*
Y630402D2*
X1247795Y630403D1*
X1274546Y649548D1*
Y620852D1*
X1048328Y768461D2*
Y751262D1*
X1046383Y745513D1*
X1044481Y743568D1*
X1040679Y741667D1*
X1036832D1*
X1033029Y743568D1*
X1031084Y745514D1*
X1029183Y751262D1*
Y768461D1*
X1069375D1*
X1048328Y755064D2*
X1069375Y741667D1*
Y722206D2*
X1029227Y703061D1*
Y729856D1*
X1048328Y687181D2*
Y669981D1*
X1046383Y664233D1*
X1044481Y662287D1*
X1040679Y660386D1*
X1036832D1*
X1033029Y662287D1*
X1031084Y664233D1*
X1029183Y669981D1*
Y687181D1*
X1069375D1*
X1048328Y673783D2*
X1069375Y660386D1*
X1029227Y639025D2*
X1031128Y644728D1*
X1034931Y646674D1*
X1038777D1*
X1042580Y644728D1*
X1044525Y640926D1*
X1046427Y633277D1*
X1048328Y627528D1*
X1052175Y623726D1*
X1055977Y621825D1*
X1061725D1*
X1065528Y623726D1*
X1067473Y625627D1*
X1069375Y631375D1*
Y639024D1*
X1067473Y644728D1*
X1065528Y646674D1*
X1061725Y648575D1*
X1055977D1*
X1052175Y646674D1*
X1048328Y642827D1*
X1046427Y637123D1*
X1044525Y629474D1*
X1042580Y625627D1*
X1038777Y623726D1*
X1034931D1*
X1031128Y625627D1*
X1029227Y631375D1*
Y639025D1*
X963987Y1105858D2*
X946787D1*
X941039Y1107804D1*
X939094Y1109705D1*
X937192Y1113508D1*
Y1117354D1*
X939094Y1121157D1*
X941039Y1123102D1*
X946787Y1125004D1*
X963987D1*
Y1084812D1*
X950590Y1105858D2*
X937192Y1084812D1*
X925381Y1117310D2*
X921535Y1119256D1*
X915787Y1124960D1*
Y1084812D1*
X892480Y1124960D2*
X898228Y1123058D1*
X902074Y1117310D1*
X903976Y1107760D1*
Y1102012D1*
X902074Y1092461D1*
X898228Y1086713D1*
X892480Y1084812D1*
X888677D1*
X882929Y1086713D1*
X879126Y1092461D1*
X877181Y1102012D1*
Y1107760D1*
X879126Y1117310D1*
X882929Y1123058D1*
X888677Y1124960D1*
X892480D1*
X879126Y1117310D2*
X902074Y1092461D1*
X815942Y1106344D2*
X798742D1*
X792994Y1108289D1*
X791049Y1110191D1*
X789148Y1113993D1*
Y1117840D1*
X791049Y1121643D1*
X792994Y1123588D1*
X798742Y1125489D1*
X815942D1*
Y1085297D1*
X802545Y1106344D2*
X789148Y1085297D1*
X777337Y1117796D2*
X773490Y1119741D1*
X767742Y1125445D1*
Y1085297D1*
X755931Y1117796D2*
X752084Y1119741D1*
X746336Y1125445D1*
Y1085297D1*
X899755Y800062D2*
X882555D1*
X876807Y802007D1*
X874861Y803909D1*
X872960Y807711D1*
Y811558D1*
X874861Y815360D1*
X876807Y817306D1*
X882555Y819207D1*
X899755D1*
Y779015D1*
X886357Y800062D2*
X872960Y779015D1*
X861149Y811514D2*
X857302Y813459D1*
X851554Y819163D1*
Y779015D1*
X837798Y809612D2*
Y811514D1*
X835897Y815360D1*
X833995Y817262D1*
X830148Y819163D1*
X822499D1*
X818697Y817262D1*
X816795Y815360D1*
X814850Y811514D1*
Y807711D1*
X816795Y803864D1*
X820598Y798161D1*
X839743Y779015D1*
X812949D1*
X662025Y931326D2*
X644825D1*
X639077Y933271D1*
X637132Y935172D1*
X635230Y938975D1*
Y942822D1*
X637132Y946624D1*
X639077Y948570D1*
X644825Y950471D1*
X662025D1*
Y910279D1*
X648628Y931326D2*
X635230Y910279D1*
X623419Y942777D2*
X619573Y944723D1*
X613825Y950427D1*
Y910279D1*
X598167Y950427D2*
X577164D1*
X588616Y935128D1*
X582868D1*
X579066Y933227D1*
X577164Y931326D1*
X575219Y925578D1*
Y921775D1*
X577164Y916027D1*
X580967Y912180D1*
X586715Y910279D1*
X592463D1*
X598167Y912180D1*
X600068Y914126D1*
X602014Y917928D1*
X1274150Y1145955D2*
Y1117259D1*
X1272249Y1111511D1*
X1268402Y1107709D1*
X1262654Y1105763D1*
X1258852D1*
X1253103Y1107709D1*
X1249257Y1111511D1*
X1247355Y1117259D1*
Y1145955D1*
X1235544Y1138262D2*
X1231698Y1140207D1*
X1225950Y1145911D1*
Y1105763D1*
X505891Y1050520D2*
X534587D1*
X540335Y1048619D1*
X544138Y1044772D1*
X546083Y1039024D1*
Y1035222D1*
X544138Y1029474D1*
X540335Y1025627D1*
X534587Y1023726D1*
X505891D1*
X515486Y1009969D2*
X513585D1*
X509738Y1008068D1*
X507837Y1006167D1*
X505936Y1002320D1*
Y994671D1*
X507837Y990868D1*
X509738Y988967D1*
X513585Y987021D1*
X517387D1*
X521234Y988967D1*
X526938Y992769D1*
X546083Y1011915D1*
Y985120D1*
X1451909Y841463D2*
D53*
X1467252Y881655D1*
X1482550Y841463D1*
X1476802Y854860D2*
X1457657D1*
X1439557Y881655D2*
Y841463D1*
X1426160D1*
X1420412Y843408D1*
X1416565Y847211D1*
X1414664Y851058D1*
X1412763Y856761D1*
Y866356D1*
X1414664Y872104D1*
X1416565Y875907D1*
X1420412Y879754D1*
X1426160Y881655D1*
X1439557D1*
X1400411Y862509D2*
X1383212D1*
X1377463Y864455D1*
X1375518Y866356D1*
X1373617Y870159D1*
Y874006D1*
X1375518Y877808D1*
X1377463Y879754D1*
X1383212Y881655D1*
X1400411D1*
Y841463D1*
X1387014Y862509D2*
X1373617Y841463D1*
X1361265Y873961D2*
X1357419Y875907D1*
X1351671Y881611D1*
Y841463D1*
X1119072Y835212D2*
X1134415Y875404D1*
X1149713Y835212D1*
X1143965Y848610D2*
X1124820D1*
X1106721Y875404D2*
Y835212D1*
X1093323D1*
X1087575Y837158D1*
X1083728Y840960D1*
X1081827Y844807D1*
X1079926Y850511D1*
Y860106D1*
X1081827Y865854D1*
X1083728Y869656D1*
X1087575Y873503D1*
X1093323Y875404D1*
X1106721D1*
X1067575Y856259D2*
X1050375D1*
X1044627Y858204D1*
X1042681Y860106D1*
X1040780Y863908D1*
Y867755D1*
X1042681Y871557D1*
X1044627Y873503D1*
X1050375Y875404D1*
X1067575D1*
Y835212D1*
X1054177Y856259D2*
X1040780Y835212D1*
X1016932Y875360D2*
X1022680Y873459D1*
X1026527Y867711D1*
X1028428Y858160D1*
Y852412D1*
X1026527Y842861D1*
X1022680Y837113D1*
X1016932Y835212D1*
X1013130D1*
X1007382Y837113D1*
X1003579Y842861D1*
X1001634Y852412D1*
Y858160D1*
X1003579Y867711D1*
X1007382Y873459D1*
X1013130Y875360D1*
X1016932D1*
X1003579Y867711D2*
X1026527Y842861D1*
M02*
