M48
INCH
T01C0.0157
T02C0.0276
T03C0.0433
T04C0.063
T05C0.1181
%
T01
X+009625Y+008062
X+010125Y+008062
X+010625Y+008062
X+011127Y+007877
X+012438Y+008062
X+013375Y+008062
X+013375Y+009438
X+011563Y+009375
X+011127Y+009438
X+011063Y+010500
X+009625Y+009938
X+009125Y+009625
X+007625Y+009188
X+007312Y+008750
X+005812Y+008062
X+006562Y+006625
X+006562Y+010250
X+005812Y+011125
X+013125Y+004500
T02
X+011375Y+005125
X+012163Y+005125
X+008312Y+005125
X+007525Y+005125
T03
X+010785Y+005794
X+008903Y+004455
T04
X+007937Y+014563
X+011678Y+014555
T05
X+004937Y+004875
X+014751Y+004874
X+014751Y+014751
X+004937Y+014751
T00
M30
