G04 DipTrace 3.2.0.1*
G04 TopSilk.gbr*
%MOIN*%
G04 #@! TF.FileFunction,Legend,Top*
G04 #@! TF.Part,Single*
%ADD10C,0.009843*%
%ADD26O,0.01338X0.014165*%
%ADD52C,0.005906*%
%FSLAX26Y26*%
G04*
G70*
G90*
G75*
G01*
G04 TopSilk*
%LPD*%
X893804Y1056451D2*
D10*
X1080419D1*
Y951731D1*
X893804D1*
Y1056451D1*
D26*
X1057978Y1034413D3*
X1122193Y1005490D2*
D52*
X1120292Y1009336D1*
X1114544Y1011238D1*
X1108796D1*
X1103048Y1009336D1*
X1101146Y1005490D1*
X1103048Y1001687D1*
X1106894Y999742D1*
X1116445Y997840D1*
X1120292Y995939D1*
X1122193Y992092D1*
Y990191D1*
X1120292Y986388D1*
X1114544Y984443D1*
X1108796D1*
X1103048Y986388D1*
X1101146Y990191D1*
X1134004Y999742D2*
X1156952D1*
Y1003588D1*
X1155051Y1007435D1*
X1153149Y1009336D1*
X1149303Y1011238D1*
X1143555D1*
X1139752Y1009336D1*
X1135905Y1005490D1*
X1134004Y999742D1*
Y995939D1*
X1135905Y990191D1*
X1139752Y986388D1*
X1143555Y984443D1*
X1149303D1*
X1153149Y986388D1*
X1156952Y990191D1*
X1168763Y1011238D2*
Y984443D1*
Y1003588D2*
X1174511Y1009336D1*
X1178358Y1011238D1*
X1184062D1*
X1187908Y1009336D1*
X1189810Y1003588D1*
Y984443D1*
X1222667Y1005490D2*
X1220766Y1009336D1*
X1215018Y1011238D1*
X1209270D1*
X1203522Y1009336D1*
X1201621Y1005490D1*
X1203522Y1001687D1*
X1207369Y999742D1*
X1216919Y997840D1*
X1220766Y995939D1*
X1222667Y992092D1*
Y990191D1*
X1220766Y986388D1*
X1215018Y984443D1*
X1209270D1*
X1203522Y986388D1*
X1201621Y990191D1*
X1244029Y1011238D2*
X1240226Y1009336D1*
X1236380Y1005490D1*
X1234478Y999742D1*
Y995939D1*
X1236380Y990191D1*
X1240226Y986388D1*
X1244029Y984443D1*
X1249777D1*
X1253624Y986388D1*
X1257426Y990191D1*
X1259372Y995939D1*
Y999742D1*
X1257426Y1005490D1*
X1253624Y1009336D1*
X1249777Y1011238D1*
X1244029D1*
X1271183D2*
Y984443D1*
Y999742D2*
X1273128Y1005490D1*
X1276931Y1009336D1*
X1280778Y1011238D1*
X1286526D1*
X492069Y1305033D2*
Y1274435D1*
X490168Y1268687D1*
X488222Y1266786D1*
X484420Y1264841D1*
X480573D1*
X476771Y1266786D1*
X474869Y1268687D1*
X472924Y1274435D1*
Y1278238D1*
X503880Y1297339D2*
X507727Y1299285D1*
X513475Y1304988D1*
Y1264841D1*
M02*
