G04 DipTrace 3.2.0.0*
G04 shoulder_mc_pcb_TopPaste.gbr*
%MOMM*%
G04 #@! TF.FileFunction,Paste,Top*
G04 #@! TF.Part,Single*
%AMOUTLINE2*
4,1,16,
5.2,2.075,
3.75,2.075,
3.71173,2.06739,
3.67929,2.04571,
3.65761,2.01327,
3.65,1.975,
3.65,-4.125,
-3.65,-4.125,
-3.65,1.975,
-3.65761,2.01327,
-3.67929,2.04571,
-3.71173,2.06739,
-3.75,2.075,
-5.2,2.075,
-5.2,4.125,
5.2,4.125,
5.2,2.075,
0*%
%AMOUTLINE5*
4,1,5,
-0.05,-0.325,
-0.05,0.325,
0.00858,0.325,
0.05,0.28358,
0.05,-0.325,
-0.05,-0.325,
0*%
%AMOUTLINE8*
4,1,5,
0.05,-0.325,
0.05,0.325,
-0.05,0.325,
-0.05,-0.28358,
-0.00858,-0.325,
0.05,-0.325,
0*%
%AMOUTLINE11*
4,1,5,
-0.325,-0.05,
0.325,-0.05,
0.325,0.00858,
0.28358,0.05,
-0.325,0.05,
-0.325,-0.05,
0*%
%AMOUTLINE14*
4,1,5,
0.325,0.05,
-0.325,0.05,
-0.325,-0.00858,
-0.28358,-0.05,
0.325,-0.05,
0.325,0.05,
0*%
%AMOUTLINE17*
4,1,5,
0.05,0.325,
0.05,-0.325,
-0.05,-0.325,
-0.05,0.28358,
-0.00858,0.325,
0.05,0.325,
0*%
%AMOUTLINE20*
4,1,5,
-0.05,-0.325,
-0.05,0.325,
0.05,0.325,
0.05,-0.28358,
0.00858,-0.325,
-0.05,-0.325,
0*%
%AMOUTLINE23*
4,1,5,
-0.325,0.05,
0.325,0.05,
0.325,-0.00858,
0.28358,-0.05,
-0.325,-0.05,
-0.325,0.05,
0*%
%AMOUTLINE26*
4,1,5,
0.325,-0.05,
-0.325,-0.05,
-0.325,0.00858,
-0.28358,0.05,
0.325,0.05,
0.325,-0.05,
0*%
%ADD50R,0.8X0.7*%
%ADD52R,0.2X0.7*%
%ADD54R,2.6X2.6*%
%ADD56R,0.1X0.65*%
%ADD58R,0.65X0.1*%
%ADD60R,1.1X2.9*%
%ADD62R,0.45X0.85*%
%ADD72R,1.1X1.3*%
%ADD74R,1.4X0.6*%
%ADD76R,2.4X2.2*%
%ADD80R,0.8X0.9*%
%ADD82R,1.3X1.3*%
%ADD90OUTLINE2*%
%ADD93OUTLINE5*%
%ADD96OUTLINE8*%
%ADD99OUTLINE11*%
%ADD102OUTLINE14*%
%ADD105OUTLINE17*%
%ADD108OUTLINE20*%
%ADD111OUTLINE23*%
%ADD114OUTLINE26*%
%FSLAX35Y35*%
G04*
G71*
G90*
G75*
G01*
G04 TopPaste*
%LPD*%
D80*
X2080000Y1300000D3*
Y1130000D3*
X2047873Y1984377D3*
Y2154377D3*
X2921000Y820000D3*
Y650000D3*
X2280000Y1130000D3*
Y1300000D3*
X2740000Y650000D3*
Y820000D3*
D76*
X6490000Y5630000D3*
X7130033D3*
D80*
X6070823Y730653D3*
Y900653D3*
D74*
X2762250Y3127373D3*
Y2787373D3*
D72*
X1560000Y490000D3*
X1370000D3*
D62*
X2159000Y2841627D3*
X2349000D3*
X2254000Y3071627D3*
D60*
X2250000Y4329000D3*
X2758000D3*
D90*
X2504000Y5361500D3*
D60*
X5160000Y4329000D3*
X5668000D3*
D90*
X5414000Y5361500D3*
D60*
X3730000Y4329000D3*
X4238000D3*
D90*
X3984000Y5361500D3*
D60*
X5160000Y2089000D3*
X5668000D3*
D90*
X5414000Y3121500D3*
D60*
X3730000Y2089000D3*
X4238000D3*
D90*
X3984000Y3121500D3*
D62*
X6502920Y440000D3*
X6692920D3*
X6597920Y670000D3*
X6650000Y1260000D3*
X6460000D3*
X6555000Y1030000D3*
D80*
X2413000Y1984377D3*
Y2154377D3*
X2238373Y1984377D3*
Y2154377D3*
X1480000Y1130000D3*
Y1300000D3*
X1680000Y1130000D3*
Y1300000D3*
X1880000Y1130000D3*
Y1300000D3*
X3102000Y820000D3*
Y650000D3*
X3283000Y820000D3*
Y650000D3*
X6300740Y900653D3*
Y730653D3*
X4155000Y597500D3*
Y427500D3*
X4402943Y597500D3*
Y427500D3*
X4650887Y597500D3*
Y427500D3*
D82*
X3825473Y968273D3*
Y188273D3*
X4968353Y968273D3*
Y188273D3*
D93*
X2970000Y1090000D3*
D58*
X2642000Y1367000D3*
Y1317000D3*
Y1267000D3*
Y1217000D3*
D56*
X2770000Y1090000D3*
X2820000D3*
X2870000D3*
X2920000D3*
D58*
X3048000Y1217000D3*
Y1267000D3*
Y1317000D3*
Y1367000D3*
D56*
X2920000Y1494000D3*
X2870000D3*
X2820000D3*
X2770000D3*
D54*
X2845000Y1292000D3*
D96*
X2720000Y1494000D3*
D99*
X2642000Y1417000D3*
D102*
X3048000Y1167000D3*
D105*
X2720000Y1090000D3*
D108*
X2970000Y1494000D3*
D111*
X2642000Y1167000D3*
D114*
X3048000Y1417000D3*
D52*
X5412807Y619060D3*
X5347807D3*
X5282807D3*
Y399060D3*
X5412807D3*
D50*
X5619160Y920653D3*
Y710653D3*
X5809160Y920653D3*
Y710653D3*
M02*
