G04 DipTrace 3.2.0.0*
G04 shoulder_mc_pcb_TopMask.gbr*
%MOMM*%
G04 #@! TF.FileFunction,Soldermask,Top*
G04 #@! TF.Part,Single*
%AMOUTLINE1*
4,1,8,
5.4,1.875,
3.85,1.875,
3.85,-4.325,
-3.85,-4.325,
-3.85,1.875,
-5.4,1.875,
-5.4,4.325,
5.4,4.325,
5.4,1.875,
0*%
%AMOUTLINE4*
4,1,5,
-0.25,-0.525,
-0.25,0.525,
0.09142,0.525,
0.25,0.36642,
0.25,-0.525,
-0.25,-0.525,
0*%
%AMOUTLINE7*
4,1,5,
0.25,-0.525,
0.25,0.525,
-0.25,0.525,
-0.25,-0.36642,
-0.09142,-0.525,
0.25,-0.525,
0*%
%AMOUTLINE10*
4,1,5,
-0.525,-0.25,
0.525,-0.25,
0.525,0.09142,
0.36642,0.25,
-0.525,0.25,
-0.525,-0.25,
0*%
%AMOUTLINE13*
4,1,5,
0.525,0.25,
-0.525,0.25,
-0.525,-0.09142,
-0.36642,-0.25,
0.525,-0.25,
0.525,0.25,
0*%
%AMOUTLINE16*
4,1,5,
0.25,0.525,
0.25,-0.525,
-0.25,-0.525,
-0.25,0.36642,
-0.09142,0.525,
0.25,0.525,
0*%
%AMOUTLINE19*
4,1,5,
-0.25,-0.525,
-0.25,0.525,
0.25,0.525,
0.25,-0.36642,
0.09142,-0.525,
-0.25,-0.525,
0*%
%AMOUTLINE22*
4,1,5,
-0.525,0.25,
0.525,0.25,
0.525,-0.09142,
0.36642,-0.25,
-0.525,-0.25,
-0.525,0.25,
0*%
%AMOUTLINE25*
4,1,5,
0.525,-0.25,
-0.525,-0.25,
-0.525,0.09142,
-0.36642,0.25,
0.525,0.25,
0.525,-0.25,
0*%
%ADD17C,3.0*%
%ADD44C,1.1*%
%ADD49R,1.2X1.1*%
%ADD51R,0.6X1.1*%
%ADD53R,3.0X3.0*%
%ADD55R,0.5X1.05*%
%ADD57R,1.05X0.5*%
%ADD59R,1.5X3.3*%
%ADD61R,0.85X1.25*%
%ADD63C,5.2*%
%ADD65R,5.2X5.2*%
%ADD67C,1.4*%
%ADD69R,1.4X1.4*%
%ADD71R,1.5X1.7*%
%ADD73R,1.8X1.0*%
%ADD75R,2.8X2.6*%
%ADD77C,1.7*%
%ADD79R,1.2X1.3*%
%ADD81R,1.7X1.7*%
%ADD89OUTLINE1*%
%ADD92OUTLINE4*%
%ADD95OUTLINE7*%
%ADD98OUTLINE10*%
%ADD101OUTLINE13*%
%ADD104OUTLINE16*%
%ADD107OUTLINE19*%
%ADD110OUTLINE22*%
%ADD113OUTLINE25*%
%FSLAX35Y35*%
G04*
G71*
G90*
G75*
G01*
G04 TopMask*
%LPD*%
D79*
X2080000Y1300000D3*
Y1130000D3*
X2047873Y1984377D3*
Y2154377D3*
D81*
X1047750Y1936750D3*
D77*
Y2436750D3*
D79*
X2921000Y820000D3*
Y650000D3*
X2280000Y1130000D3*
Y1300000D3*
X2740000Y650000D3*
Y820000D3*
D75*
X6490000Y5630000D3*
X7130033D3*
D79*
X6070823Y730653D3*
Y900653D3*
D73*
X2762250Y3127373D3*
Y2787373D3*
D71*
X1560000Y490000D3*
X1370000D3*
D69*
X7622377Y1453500D3*
D67*
Y1253500D3*
Y1053500D3*
D44*
X7452377Y1603500D3*
D65*
X950000Y4530000D3*
D63*
Y3680000D3*
D65*
X7050000D3*
D63*
Y4530000D3*
D61*
X2159000Y2841627D3*
X2349000D3*
X2254000Y3071627D3*
D59*
X2250000Y4329000D3*
X2758000D3*
D89*
X2504000Y5361500D3*
D59*
X5160000Y4329000D3*
X5668000D3*
D89*
X5414000Y5361500D3*
D59*
X3730000Y4329000D3*
X4238000D3*
D89*
X3984000Y5361500D3*
D59*
X5160000Y2089000D3*
X5668000D3*
D89*
X5414000Y3121500D3*
D59*
X3730000Y2089000D3*
X4238000D3*
D89*
X3984000Y3121500D3*
D61*
X6502920Y440000D3*
X6692920D3*
X6597920Y670000D3*
X6650000Y1260000D3*
X6460000D3*
X6555000Y1030000D3*
D79*
X2413000Y1984377D3*
Y2154377D3*
X2238373Y1984377D3*
Y2154377D3*
X1480000Y1130000D3*
Y1300000D3*
X1680000Y1130000D3*
Y1300000D3*
X1880000Y1130000D3*
Y1300000D3*
X3102000Y820000D3*
Y650000D3*
X3283000Y820000D3*
Y650000D3*
X6300740Y900653D3*
Y730653D3*
X4155000Y597500D3*
Y427500D3*
X4402943Y597500D3*
Y427500D3*
X4650887Y597500D3*
Y427500D3*
D81*
X3825473Y968273D3*
Y188273D3*
X4968353Y968273D3*
Y188273D3*
D92*
X2970000Y1090000D3*
D57*
X2642000Y1367000D3*
Y1317000D3*
Y1267000D3*
Y1217000D3*
D55*
X2770000Y1090000D3*
X2820000D3*
X2870000D3*
X2920000D3*
D57*
X3048000Y1217000D3*
Y1267000D3*
Y1317000D3*
Y1367000D3*
D55*
X2920000Y1494000D3*
X2870000D3*
X2820000D3*
X2770000D3*
D53*
X2845000Y1292000D3*
D95*
X2720000Y1494000D3*
D98*
X2642000Y1417000D3*
D101*
X3048000Y1167000D3*
D104*
X2720000Y1090000D3*
D107*
X2970000Y1494000D3*
D110*
X2642000Y1167000D3*
D113*
X3048000Y1417000D3*
D51*
X5412807Y619060D3*
X5347807D3*
X5282807D3*
Y399060D3*
X5412807D3*
D49*
X5619160Y920653D3*
Y710653D3*
X5809160Y920653D3*
Y710653D3*
D17*
X381000Y381000D3*
X7620000D3*
X381000Y5842000D3*
X7620000D3*
M02*
