G04 DipTrace 3.2.0.0*
G04 shoulder_mc_pcb_Bottom.gbr*
%MOMM*%
G04 #@! TF.FileFunction,Copper,L2,Bot*
G04 #@! TF.Part,Single*
G04 #@! TA.AperFunction,Conductor*
%ADD14C,0.4*%
%ADD15C,0.2*%
G04 #@! TA.AperFunction,ViaPad*
%ADD16C,2.0*%
G04 #@! TA.AperFunction,Conductor*
%ADD18C,4.0*%
%ADD19C,1.5*%
G04 #@! TA.AperFunction,CopperBalancing*
%ADD20C,0.635*%
%ADD21R,1.5X1.5*%
G04 #@! TA.AperFunction,ComponentPad*
%ADD23C,1.5*%
%ADD28R,1.2X1.2*%
%ADD29C,1.2*%
%ADD30R,5.0X5.0*%
%ADD31C,5.0*%
G04 #@! TA.AperFunction,ViaPad*
%ADD42C,0.7*%
%FSLAX35Y35*%
G04*
G71*
G90*
G75*
G01*
G04 Bottom*
%LPD*%
X1809560Y492073D2*
D14*
X1990823D1*
X2260000Y761250D1*
X7622377Y1253500D2*
D15*
X7398373D1*
X7318373Y1333500D1*
X7076500D1*
X7070000Y1340000D1*
X2984500Y365127D2*
D14*
X2267877D1*
X2260000Y357250D1*
X4572000Y4508500D2*
D18*
X7028500D1*
X7050000Y4530000D1*
X4222750Y317500D2*
D15*
X5967500D1*
X6830000Y1180000D1*
X6510000Y300000D2*
X6850000D1*
X7070000Y520000D1*
X2174647Y1015893D2*
X1761940D1*
X1412727Y1365107D1*
Y1571460D1*
X1634953Y1793687D1*
X2158773D1*
X2190520Y1825433D1*
X1047750Y1936750D2*
D19*
X1492250D1*
X6048373Y1492250D2*
D15*
Y2746377D1*
X4984750Y3810000D1*
X1619250Y1476377D2*
X1736377D1*
X1850000Y1590000D1*
X3170000Y1080000D2*
X2360000D1*
X1850000Y1590000D1*
X7070000Y930000D2*
X7219500Y1079500D1*
X7596377D1*
X7622377Y1053500D1*
X6778623Y365127D2*
X6191250D1*
X6016623Y190500D1*
X4206413D1*
X3809600Y587313D1*
D42*
X1619250Y1476377D3*
X6830000Y1180000D3*
X3170000Y1080000D3*
X4222750Y317500D3*
X6510000Y300000D3*
X1809560Y492073D3*
X2984500Y365127D3*
X6778623D3*
X3809600Y587313D3*
X2794000Y1270000D3*
X6048373Y1492250D3*
X4984750Y3810000D3*
X2174647Y1015893D3*
X2190520Y1825433D3*
X1381123Y1031877D3*
D16*
X4127067Y2381000D3*
X5539793Y2412747D3*
X4572000Y4508500D3*
D42*
X2508250Y1873250D3*
X2635250Y539750D3*
X4857750Y460377D3*
X5207000Y539750D3*
X5699123Y619127D3*
X6175373Y1016000D3*
X2476500Y1174750D3*
X165100Y3842083D2*
D20*
X4615673D1*
X165100Y3778917D2*
X4678840D1*
X165100Y3715750D2*
X4742003D1*
X165100Y3652583D2*
X4805167D1*
X165100Y3589417D2*
X4868330D1*
X165100Y3526250D2*
X4931497D1*
X165100Y3463083D2*
X4994660D1*
X165100Y3399917D2*
X5057823D1*
X165100Y3336750D2*
X5120987D1*
X165100Y3273583D2*
X5184150D1*
X165100Y3210417D2*
X5247317D1*
X165100Y3147250D2*
X5310480D1*
X165100Y3084083D2*
X5373643D1*
X165100Y3020917D2*
X5436807D1*
X165100Y2957750D2*
X5499970D1*
X165100Y2894583D2*
X5563137D1*
X165100Y2831417D2*
X5626300D1*
X165100Y2768250D2*
X5689463D1*
X165100Y2705083D2*
X5752627D1*
X165100Y2641917D2*
X5803943D1*
X165100Y2578750D2*
X5803943D1*
X165100Y2515583D2*
X5803943D1*
X165100Y2452417D2*
X5803943D1*
X165100Y2389250D2*
X5803943D1*
X165100Y2326083D2*
X5803943D1*
X165100Y2262917D2*
X5803943D1*
X165100Y2199750D2*
X5803943D1*
X165100Y2136583D2*
X832120D1*
X1707880D2*
X5803943D1*
X165100Y2073417D2*
X832120D1*
X1707880D2*
X5803943D1*
X165100Y2010250D2*
X832120D1*
X1707880D2*
X3263890D1*
X165100Y1947083D2*
X832120D1*
X1707880D2*
X3263800D1*
X165100Y1883917D2*
X832120D1*
X1707880D2*
X2103970D1*
X2277087D2*
X3263710D1*
X165100Y1820750D2*
X832120D1*
X2296043D2*
X3263617D1*
X165100Y1757583D2*
X832120D1*
X2269337D2*
X3270817D1*
X165100Y1694417D2*
X1424293D1*
X1995627D2*
X5967733D1*
X6129000D2*
X7350233D1*
X7554520D2*
X7835857D1*
X165100Y1631250D2*
X1361130D1*
X1995627D2*
X5967733D1*
X6129000D2*
X7316873D1*
X7587880D2*
X7835857D1*
X165100Y1568083D2*
X1332053D1*
X1995627D2*
X5967733D1*
X6129000D2*
X7318787D1*
X7585967D2*
X7835857D1*
X165100Y1504917D2*
X1332053D1*
X2046487D2*
X5943580D1*
X6153243D2*
X7358163D1*
X7546590D2*
X7835857D1*
X165100Y1441750D2*
X1332053D1*
X2109650D2*
X5956520D1*
X6140210D2*
X6924400D1*
X7215640D2*
X7835857D1*
X2172813Y1378583D2*
X6924400D1*
X7384717D2*
X7835857D1*
X2235980Y1315417D2*
X6924400D1*
X7736540D2*
X7835857D1*
X2299143Y1252250D2*
X6755507D1*
X7215640D2*
X7288253D1*
X7753037D2*
X7835857D1*
X2362307Y1189083D2*
X6724790D1*
X6935183D2*
X7354970D1*
X7734990D2*
X7835857D1*
X165147Y1125917D2*
X1540507D1*
X1763297D2*
X2202680D1*
X3264377D2*
X6664543D1*
X6919600D2*
X7154543D1*
X7729703D2*
X7835857D1*
X165147Y1062750D2*
X1603670D1*
X3274130D2*
X6601377D1*
X6824170D2*
X6924400D1*
X7752670D2*
X7835857D1*
X165147Y999583D2*
X1666833D1*
X2278910D2*
X3105387D1*
X3234573D2*
X6538213D1*
X6761003D2*
X6924400D1*
X7251003D2*
X7503997D1*
X7740730D2*
X7835857D1*
X165147Y936417D2*
X2108800D1*
X2240537D2*
X6475050D1*
X6697840D2*
X6924400D1*
X7215640D2*
X7574360D1*
X7670457D2*
X7835857D1*
X165147Y873250D2*
X2114360D1*
X2405600D2*
X6411793D1*
X6634677D2*
X6924400D1*
X7215640D2*
X7835857D1*
X165147Y810083D2*
X2114360D1*
X2405600D2*
X6348630D1*
X6571513D2*
X6924400D1*
X7215640D2*
X7835857D1*
X165147Y746917D2*
X2114360D1*
X2405600D2*
X6285467D1*
X6508350D2*
X7835857D1*
X165147Y683750D2*
X2056937D1*
X2405600D2*
X3779593D1*
X3839600D2*
X6222303D1*
X6445183D2*
X7835857D1*
X673100Y620583D2*
X1993773D1*
X2244910D2*
X3709687D1*
X3909507D2*
X6159137D1*
X6382020D2*
X6924400D1*
X7215640D2*
X7327900D1*
X673100Y557417D2*
X1728447D1*
X2181747D2*
X3708590D1*
X3950887D2*
X6095973D1*
X6318857D2*
X6924400D1*
X7215640D2*
X7327900D1*
X673100Y494250D2*
X1703930D1*
X2405600D2*
X3768657D1*
X4014053D2*
X6032810D1*
X6255693D2*
X6924400D1*
X7215640D2*
X7327900D1*
X673100Y431083D2*
X1724893D1*
X2055327D2*
X2114360D1*
X3065040D2*
X3854423D1*
X4077217D2*
X5969647D1*
X7215640D2*
X7327900D1*
X673100Y367917D2*
X2114360D1*
X3090107D2*
X3917590D1*
X7029337D2*
X7327900D1*
X673100Y304750D2*
X2114360D1*
X3069690D2*
X3980753D1*
X6966173D2*
X7327900D1*
X673100Y241583D2*
X2114360D1*
X2405600D2*
X4043917D1*
X6179130D2*
X6423370D1*
X6902280D2*
X7327900D1*
X673100Y178417D2*
X4107080D1*
X6115967D2*
X7327900D1*
X2144043Y900540D2*
X2399290D1*
Y621960D1*
X2239877D1*
X2045567Y427980D1*
X2034863Y420203D1*
X2023080Y414200D1*
X2010500Y410113D1*
X1997437Y408043D1*
X1862033Y407783D1*
X1847557Y400340D1*
X1832740Y395527D1*
X1817350Y393090D1*
X1801770D1*
X1786380Y395527D1*
X1771563Y400340D1*
X1757680Y407413D1*
X1745077Y416573D1*
X1734060Y427590D1*
X1724900Y440193D1*
X1717827Y454077D1*
X1713013Y468893D1*
X1710577Y484283D1*
Y499863D1*
X1713013Y515253D1*
X1717827Y530070D1*
X1724900Y543953D1*
X1734060Y556557D1*
X1745077Y567573D1*
X1757680Y576733D1*
X1771563Y583807D1*
X1786380Y588620D1*
X1801770Y591057D1*
X1817350D1*
X1832740Y588620D1*
X1847557Y583807D1*
X1861970Y576377D1*
X1955850Y576363D1*
X2120767Y741223D1*
X2120710Y900540D1*
X2144043D1*
X861793Y2146040D2*
X1701540D1*
Y1867953D1*
X2100800Y1867977D1*
X2110193Y1883793D1*
X2120310Y1895643D1*
X2132160Y1905760D1*
X2145443Y1913900D1*
X2159837Y1919863D1*
X2174987Y1923500D1*
X2190520Y1924723D1*
X2206053Y1923500D1*
X2221203Y1919863D1*
X2235597Y1913900D1*
X2248880Y1905760D1*
X2260730Y1895643D1*
X2270847Y1883793D1*
X2278987Y1870510D1*
X2284950Y1856117D1*
X2288587Y1840967D1*
X2289810Y1825433D1*
X2288587Y1809900D1*
X2284950Y1794750D1*
X2278987Y1780357D1*
X2270847Y1767073D1*
X2260730Y1755223D1*
X2248880Y1745107D1*
X2235597Y1736967D1*
X2221203Y1731003D1*
X2206053Y1727367D1*
X2189760Y1726173D1*
X2176117Y1721450D1*
X2164603Y1719627D1*
X1989333Y1719397D1*
X1989290Y1555840D1*
X2390740Y1154323D1*
X3104207Y1154290D1*
X3118120Y1164660D1*
X3132003Y1171733D1*
X3146820Y1176547D1*
X3162210Y1178983D1*
X3177790D1*
X3193180Y1176547D1*
X3207997Y1171733D1*
X3221880Y1164660D1*
X3234483Y1155500D1*
X3245500Y1144483D1*
X3254660Y1131880D1*
X3261733Y1117997D1*
X3266547Y1103180D1*
X3268983Y1087790D1*
Y1072210D1*
X3266547Y1056820D1*
X3261733Y1042003D1*
X3254660Y1028120D1*
X3245500Y1015517D1*
X3234483Y1004500D1*
X3221880Y995340D1*
X3207997Y988267D1*
X3193180Y983453D1*
X3177790Y981017D1*
X3162210D1*
X3146820Y983453D1*
X3132003Y988267D1*
X3118120Y995340D1*
X3104197Y1005720D1*
X2354170Y1005940D1*
X2342657Y1007763D1*
X2331570Y1011363D1*
X2321183Y1016657D1*
X2311753Y1023510D1*
X2160200Y1174737D1*
X1708163Y1174750D1*
X1792727Y1090167D1*
X2108750Y1090183D1*
X2122767Y1100553D1*
X2136650Y1107627D1*
X2151467Y1112440D1*
X2166857Y1114877D1*
X2182437D1*
X2197827Y1112440D1*
X2212643Y1107627D1*
X2226527Y1100553D1*
X2239130Y1091393D1*
X2250147Y1080377D1*
X2259307Y1067773D1*
X2266380Y1053890D1*
X2271193Y1039073D1*
X2273630Y1023683D1*
Y1008103D1*
X2271193Y992713D1*
X2266380Y977897D1*
X2259307Y964013D1*
X2250147Y951410D1*
X2239130Y940393D1*
X2226527Y931233D1*
X2212643Y924160D1*
X2197827Y919347D1*
X2182437Y916910D1*
X2166857D1*
X2151467Y919347D1*
X2136650Y924160D1*
X2122767Y931233D1*
X2108843Y941613D1*
X1756110Y941833D1*
X1744597Y943657D1*
X1733510Y947257D1*
X1723123Y952550D1*
X1713693Y959403D1*
X1560917Y1111853D1*
X1498077Y1174693D1*
X158683Y1174750D1*
X158750Y666827D1*
X637490Y666653D1*
X644810Y665197D1*
X651590Y662070D1*
X657450Y657450D1*
X662070Y651590D1*
X665197Y644810D1*
X666653Y637490D1*
X666750Y158763D1*
X4133087Y158750D1*
X3803597Y488253D1*
X3786420Y490767D1*
X3771603Y495580D1*
X3757720Y502653D1*
X3745117Y511813D1*
X3734100Y522830D1*
X3724940Y535433D1*
X3717867Y549317D1*
X3713053Y564133D1*
X3710617Y579523D1*
Y595103D1*
X3713053Y610493D1*
X3717867Y625310D1*
X3724940Y639193D1*
X3734100Y651797D1*
X3745117Y662813D1*
X3757720Y671973D1*
X3771603Y679047D1*
X3786420Y683860D1*
X3801810Y686297D1*
X3817390D1*
X3832780Y683860D1*
X3847597Y679047D1*
X3861480Y671973D1*
X3874083Y662813D1*
X3885100Y651797D1*
X3894260Y639193D1*
X3901333Y625310D1*
X3906147Y610493D1*
X3908653Y593307D1*
X4136107Y365867D1*
X4142423Y375860D1*
X4152540Y387710D1*
X4164390Y397827D1*
X4177673Y405967D1*
X4192067Y411930D1*
X4207217Y415567D1*
X4222750Y416790D1*
X4238283Y415567D1*
X4253433Y411930D1*
X4267827Y405967D1*
X4281110Y397827D1*
X4288553Y391780D1*
X5936747Y391790D1*
X6730840Y1185903D1*
X6733453Y1203180D1*
X6738267Y1217997D1*
X6745340Y1231880D1*
X6754500Y1244483D1*
X6765517Y1255500D1*
X6778120Y1264660D1*
X6792003Y1271733D1*
X6806820Y1276547D1*
X6822210Y1278983D1*
X6837790D1*
X6853180Y1276547D1*
X6867997Y1271733D1*
X6881880Y1264660D1*
X6894483Y1255500D1*
X6905500Y1244483D1*
X6914660Y1231880D1*
X6921733Y1217997D1*
X6926547Y1203180D1*
X6928983Y1187790D1*
Y1172210D1*
X6926547Y1156820D1*
X6921733Y1142003D1*
X6914660Y1128120D1*
X6905500Y1115517D1*
X6894483Y1104500D1*
X6881880Y1095340D1*
X6867997Y1088267D1*
X6853180Y1083453D1*
X6835993Y1080947D1*
X6194530Y439467D1*
X6712697Y439417D1*
X6726743Y449787D1*
X6740627Y456860D1*
X6755443Y461673D1*
X6770833Y464110D1*
X6786413D1*
X6801803Y461673D1*
X6816620Y456860D1*
X6830503Y449787D1*
X6843107Y440627D1*
X6854123Y429610D1*
X6862757Y417790D1*
X6930687Y485750D1*
X6930710Y659290D1*
X7209290D1*
Y380710D1*
X7035840D1*
X6898247Y243510D1*
X6888817Y236657D1*
X6878430Y231363D1*
X6867343Y227763D1*
X6855830Y225940D1*
X6640000Y225710D1*
X6575923D1*
X6561880Y215340D1*
X6547997Y208267D1*
X6533180Y203453D1*
X6517790Y201017D1*
X6502210D1*
X6486820Y203453D1*
X6472003Y208267D1*
X6458120Y215340D1*
X6445517Y224500D1*
X6434500Y235517D1*
X6425340Y248120D1*
X6418267Y262003D1*
X6413453Y276820D1*
X6411177Y290850D1*
X6221997Y290837D1*
X6089940Y158753D1*
X7334310Y158750D1*
X7334640Y639967D1*
X7336667Y647150D1*
X7340313Y653663D1*
X7345380Y659143D1*
X7351587Y663290D1*
X7358587Y665873D1*
X7366000Y666750D1*
X7842237D1*
X7842250Y1746160D1*
X6122657Y1746233D1*
X6122663Y1558110D1*
X6133033Y1544130D1*
X6140107Y1530247D1*
X6144920Y1515430D1*
X6147357Y1500040D1*
Y1484460D1*
X6144920Y1469070D1*
X6140107Y1454253D1*
X6133033Y1440370D1*
X6123873Y1427767D1*
X6112857Y1416750D1*
X6100253Y1407590D1*
X6086370Y1400517D1*
X6071553Y1395703D1*
X6056163Y1393267D1*
X6040583D1*
X6025193Y1395703D1*
X6010377Y1400517D1*
X5996493Y1407590D1*
X5983890Y1416750D1*
X5972873Y1427767D1*
X5963713Y1440370D1*
X5956640Y1454253D1*
X5951827Y1469070D1*
X5949390Y1484460D1*
Y1500040D1*
X5951827Y1515430D1*
X5956640Y1530247D1*
X5963713Y1544130D1*
X5974093Y1558053D1*
X5974083Y1746273D1*
X3299120Y1746163D1*
X3291800Y1747630D1*
X3285027Y1750763D1*
X3279173Y1755393D1*
X3274560Y1761260D1*
X3271443Y1768043D1*
X3269997Y1775367D1*
X3270347Y2034490D1*
X3271803Y2041810D1*
X3274930Y2048590D1*
X3279550Y2054450D1*
X3285410Y2059070D1*
X3292190Y2062197D1*
X3299510Y2063653D1*
X5810243Y2063750D1*
X5810250Y2653887D1*
X4558900Y3905200D1*
X158810Y3905250D1*
X158750Y1428757D1*
X1338420Y1428750D1*
X1338667Y1577290D1*
X1340490Y1588803D1*
X1344090Y1599890D1*
X1349383Y1610277D1*
X1356237Y1619707D1*
X1463637Y1727433D1*
X838460Y1727460D1*
Y2146040D1*
X861793D1*
X6954043Y1479290D2*
X7209290D1*
Y1407740D1*
X7324203Y1407560D1*
X7335717Y1405737D1*
X7346803Y1402137D1*
X7357190Y1396843D1*
X7366620Y1389990D1*
X7429103Y1327833D1*
X7522787Y1327790D1*
X7534490Y1341387D1*
X7549320Y1354053D1*
X7565950Y1364243D1*
X7583970Y1371707D1*
X7602933Y1376260D1*
X7622377Y1377790D1*
X7641820Y1376260D1*
X7660783Y1371707D1*
X7678803Y1364243D1*
X7695433Y1354053D1*
X7710263Y1341387D1*
X7722930Y1326557D1*
X7733120Y1309927D1*
X7740583Y1291907D1*
X7745137Y1272943D1*
X7746667Y1253500D1*
X7745137Y1234057D1*
X7740583Y1215093D1*
X7733120Y1197073D1*
X7722930Y1180443D1*
X7710263Y1165613D1*
X7696180Y1153537D1*
X7710263Y1141387D1*
X7722930Y1126557D1*
X7733120Y1109927D1*
X7740583Y1091907D1*
X7745137Y1072943D1*
X7746667Y1053500D1*
X7745137Y1034057D1*
X7740583Y1015093D1*
X7733120Y997073D1*
X7722930Y980443D1*
X7710263Y965613D1*
X7695433Y952947D1*
X7678803Y942757D1*
X7660783Y935293D1*
X7641820Y930740D1*
X7622377Y929210D1*
X7602933Y930740D1*
X7583970Y935293D1*
X7565950Y942757D1*
X7549320Y952947D1*
X7534490Y965613D1*
X7521823Y980443D1*
X7511633Y997073D1*
X7507883Y1005210D1*
X7250297D1*
X7209320Y964260D1*
X7209290Y790710D1*
X6930710D1*
Y1069290D1*
X7104160D1*
X7171253Y1135990D1*
X7180683Y1142843D1*
X7191070Y1148137D1*
X7202157Y1151737D1*
X7213670Y1153560D1*
X7429500Y1153790D1*
X7548263D1*
X7534490Y1165613D1*
X7522790Y1179217D1*
X7392543Y1179440D1*
X7381030Y1181263D1*
X7369943Y1184863D1*
X7359557Y1190157D1*
X7350127Y1197010D1*
X7287643Y1259167D1*
X7209273Y1259210D1*
X7209290Y1200710D1*
X6930710D1*
Y1479290D1*
X6954043D1*
X2144043Y496540D2*
X2399290D1*
Y449417D1*
X2932620Y449787D1*
X2946503Y456860D1*
X2961320Y461673D1*
X2976710Y464110D1*
X2992290D1*
X3007680Y461673D1*
X3022497Y456860D1*
X3036380Y449787D1*
X3048983Y440627D1*
X3060000Y429610D1*
X3069160Y417007D1*
X3076233Y403123D1*
X3081047Y388307D1*
X3083483Y372917D1*
Y357337D1*
X3081047Y341947D1*
X3076233Y327130D1*
X3069160Y313247D1*
X3060000Y300643D1*
X3048983Y289627D1*
X3036380Y280467D1*
X3022497Y273393D1*
X3007680Y268580D1*
X2992290Y266143D1*
X2976710D1*
X2961320Y268580D1*
X2946503Y273393D1*
X2932090Y280823D1*
X2399253Y280837D1*
X2399290Y217960D1*
X2120710D1*
Y496540D1*
X2144043D1*
X7584053Y1593137D2*
X7580810Y1572667D1*
X7574407Y1552953D1*
X7564997Y1534487D1*
X7552813Y1517720D1*
X7538157Y1503063D1*
X7521390Y1490880D1*
X7502923Y1481470D1*
X7483210Y1475067D1*
X7462740Y1471823D1*
X7442013D1*
X7421543Y1475067D1*
X7401830Y1481470D1*
X7383363Y1490880D1*
X7366597Y1503063D1*
X7351940Y1517720D1*
X7339757Y1534487D1*
X7330347Y1552953D1*
X7323943Y1572667D1*
X7320700Y1593137D1*
Y1613863D1*
X7323943Y1634333D1*
X7330347Y1654047D1*
X7339757Y1672513D1*
X7351940Y1689280D1*
X7366597Y1703937D1*
X7383363Y1716120D1*
X7401830Y1725530D1*
X7421543Y1731933D1*
X7442013Y1735177D1*
X7462740D1*
X7483210Y1731933D1*
X7502923Y1725530D1*
X7521390Y1716120D1*
X7538157Y1703937D1*
X7552813Y1689280D1*
X7564997Y1672513D1*
X7574407Y1654047D1*
X7580810Y1634333D1*
X7584053Y1613863D1*
Y1593137D1*
D21*
X2260000Y761250D3*
X1047750Y1936750D3*
D23*
Y2436750D3*
D21*
X7070000Y1340000D3*
X2260000Y357250D3*
D28*
X7622377Y1453500D3*
D29*
Y1253500D3*
Y1053500D3*
D30*
X950000Y4530000D3*
D31*
Y3680000D3*
D30*
X7050000D3*
D31*
Y4530000D3*
D21*
X1850000Y1590000D3*
X7070000Y520000D3*
Y930000D3*
X1492250Y1936750D3*
M02*
