M48
METRIC,0000.00
T01C0.4
T02C0.7
T03C0.9
T04C1.0
T05C1.1
T06C2.0
T07C3.0
%
T01
X+001619Y+001476
X+001381Y+001032
X+001810Y+000492
X+002175Y+001016
X+002476Y+001175
X+002794Y+001270
X+003170Y+001080
X+002985Y+000365
X+002635Y+000540
X+003810Y+000587
X+004223Y+000317
X+004858Y+000460
X+005207Y+000540
X+005699Y+000619
X+006175Y+001016
X+006048Y+001492
X+006830Y+001180
X+006779Y+000365
X+006510Y+000300
X+004985Y+003810
X+002508Y+001873
X+002191Y+001825
T02
X+007622Y+001453
X+007622Y+001253
X+007622Y+001053
T03
X+001048Y+001937
X+001048Y+002437
T04
X+004127Y+002381
X+005540Y+002413
X+004572Y+004508
T05
X+007452Y+001603
T06
X+000950Y+004530
X+000950Y+003680
X+007050Y+003680
X+007050Y+004530
T07
X+000381Y+000381
X+000381Y+005842
X+007620Y+005842
X+007620Y+000381
T00
M30
