G04 DipTrace 3.2.0.1*
G04 Bottom.gbr*
%MOIN*%
G04 #@! TF.FileFunction,Copper,L2,Bot*
G04 #@! TF.Part,Single*
G04 #@! TA.AperFunction,Conductor*
%ADD14C,0.007874*%
G04 #@! TA.AperFunction,ViaPad*
%ADD17C,0.027559*%
G04 #@! TA.AperFunction,CopperBalancing*
%ADD20C,0.025*%
%ADD21C,0.012992*%
%ADD24R,0.043307X0.03937*%
%ADD25R,0.03937X0.043307*%
G04 #@! TA.AperFunction,ComponentPad*
%ADD36R,0.047244X0.047244*%
%ADD37C,0.047244*%
G04 #@! TA.AperFunction,ViaPad*
%ADD49C,0.062992*%
%FSLAX26Y26*%
G04*
G70*
G90*
G75*
G01*
G04 Bottom*
%LPD*%
X1945921Y1644104D2*
D14*
X1949618Y1647801D1*
X1997301D1*
X1997344Y1647844D1*
X2053555D1*
X1676442Y1483272D2*
Y1539521D1*
Y1483272D2*
X1662416Y1469245D1*
Y1406500D1*
X1642731Y1674217D2*
Y1719096D1*
X1655789D1*
X1691471Y1350385D2*
X1685222D1*
X1714655Y1320951D1*
Y1281642D1*
X1978941Y1350385D2*
Y1294140D1*
X1977127D1*
X1977441Y1243780D2*
X1977127Y1244093D1*
Y1294140D1*
X1229458Y2365123D2*
Y2290146D1*
X1229409D1*
X1162529Y2365123D2*
X1161256Y2366396D1*
X1108306D1*
X1460478Y2437659D2*
X1768780Y2129357D1*
Y1826457D1*
X1743638Y1801315D1*
X1712196D1*
X1458642Y2492409D2*
Y2486160D1*
Y2492409D2*
X1788400Y2162651D1*
Y1815949D1*
X1745093Y1772642D1*
X1682101D1*
X1702850Y766579D2*
X1760906Y824634D1*
Y1137480D1*
X1800276Y1141417D2*
X1949882Y991811D1*
Y812677D1*
X1819961Y1326457D2*
X1796339Y1302835D1*
Y1184724D1*
X1981378Y999685D1*
Y767402D1*
X1973504Y1070551D2*
X2229409Y814646D1*
X2241220D1*
X1938071Y1125669D2*
X2020748D1*
X2379016Y767402D1*
X1609513Y1539521D2*
Y1483272D1*
X1647726Y1281642D2*
Y1337886D1*
X1910198Y1294140D2*
Y1350385D1*
X1997301Y1580871D2*
X1994942Y1578513D1*
X1948530D1*
X1997301Y1580871D2*
X1997344Y1580915D1*
X2053555D1*
X1910512Y1243780D2*
X1910198Y1244093D1*
Y1294140D1*
X2540433Y2211406D2*
Y2167475D1*
X2524685Y2151727D1*
X2481378D1*
Y2143853D1*
X2381450Y1161873D2*
X2378518Y1158941D1*
X2330353D1*
X2382786Y1253785D2*
X2380396Y1251395D1*
X2265377D1*
Y1259997D1*
X2386327Y1353062D2*
X2381341Y1358047D1*
X2346031D1*
X2383966Y1453378D2*
X2381997Y1451409D1*
X2259551D1*
X2382786Y1557234D2*
X2381904Y1556352D1*
X2331281D1*
X2481378Y2076924D2*
X2477441D1*
Y1826457D1*
X2548307Y2112980D2*
Y2112357D1*
X2516811Y2080861D1*
X2481378D1*
Y2076924D1*
X1820717Y1581711D2*
Y1685912D1*
X2323891Y2189087D1*
X2241156D1*
D17*
X1460478Y2437659D3*
X1682101Y1772642D3*
X1760906Y1137480D3*
X1800276Y1141417D3*
X1949882Y812677D3*
X1819961Y1326457D3*
X1981378Y767402D3*
X1973504Y1070551D3*
X2241220Y814646D3*
X1938071Y1125669D3*
X2379016Y767402D3*
X2477441Y1826457D3*
X2548307Y2112980D3*
X2241156Y2189087D3*
X1108306Y2366396D3*
X1229409Y2290146D3*
X1706538Y1652580D3*
X2386991Y1651437D3*
X1623110Y1436693D3*
X1458642Y2492409D3*
X2382786Y1557234D3*
X1647726Y1337886D3*
X1318370Y1699294D3*
X1945921Y1644104D3*
X1642731Y1674217D3*
X1978941Y1350385D3*
X1691471D3*
X1662416Y1406500D3*
X1820717Y1581711D3*
X1910198Y1350385D3*
X1948530Y1578513D3*
X1464891Y2604909D3*
X2540433Y2211406D3*
D49*
X497126Y1031181D3*
D17*
X2383966Y1453378D3*
X1434490Y1684903D3*
X1181640Y985314D3*
X1001063Y1464252D3*
X2497126Y2534240D3*
X2386327Y1353062D3*
X764843Y1672913D3*
D49*
X497126Y1235906D3*
Y1338268D3*
D17*
X2311433Y2335936D3*
D49*
X497126Y1436693D3*
Y1137480D3*
X926260Y1046929D3*
Y1251654D3*
Y1354016D3*
Y1452441D3*
Y1153228D3*
X819961Y1464252D3*
X705787D3*
X717598Y1046929D3*
D17*
X1001063Y1613858D3*
Y1318583D3*
Y1165039D3*
X1394140Y985314D3*
X2382786Y1253785D3*
X2381450Y1161873D3*
X1672941Y2378129D3*
X1195428Y2516720D3*
X798012Y2416031D3*
X579803Y1594173D3*
X1387245Y1700651D3*
X1702850Y766579D3*
X1712196Y1801315D3*
X1011564Y2456350D3*
X1749094Y1653228D3*
X1220152Y1938253D3*
X924833Y1941917D3*
X642705Y1943383D3*
X608772Y2670978D2*
D20*
X2559747D1*
X610459Y2646109D2*
X2558061D1*
X605220Y2621240D2*
X2563300D1*
X591512Y2596371D2*
X2577008D1*
X2726441D2*
X2741967D1*
X443561Y2571503D2*
X471754D1*
X561871D2*
X2606648D1*
X2696801D2*
X2741967D1*
X443561Y2546634D2*
X2741967D1*
X443561Y2521765D2*
X1428570D1*
X1488724D2*
X2741967D1*
X443561Y2496896D2*
X1416118D1*
X1501176D2*
X2741967D1*
X443561Y2472028D2*
X1421393D1*
X1524572D2*
X2741967D1*
X443561Y2447159D2*
X1418845D1*
X1549440D2*
X2741967D1*
X443561Y2422290D2*
X1420747D1*
X1574308D2*
X2741967D1*
X443561Y2397421D2*
X1080135D1*
X1280093D2*
X1455196D1*
X1599176D2*
X2741967D1*
X443561Y2372552D2*
X1065996D1*
X1280093D2*
X1480064D1*
X1624043D2*
X2741967D1*
X443561Y2347684D2*
X1070159D1*
X1280093D2*
X1504932D1*
X1648911D2*
X2741967D1*
X443561Y2322815D2*
X1111892D1*
X1280093D2*
X1529799D1*
X1673779D2*
X2741967D1*
X443561Y2297946D2*
X1187392D1*
X1271409D2*
X1554667D1*
X1698647D2*
X2741967D1*
X443561Y2273077D2*
X1190443D1*
X1268395D2*
X1579535D1*
X1723514D2*
X2741967D1*
X443561Y2248209D2*
X1604403D1*
X1748382D2*
X2741967D1*
X443561Y2223340D2*
X1629270D1*
X1773250D2*
X2217484D1*
X2264827D2*
X2741967D1*
X443561Y2198471D2*
X1654138D1*
X1798118D2*
X2199506D1*
X2355327D2*
X2741967D1*
X443561Y2173602D2*
X1679006D1*
X1819289D2*
X2201480D1*
X2352600D2*
X2432717D1*
X2530047D2*
X2741967D1*
X443561Y2148734D2*
X1703874D1*
X1821335D2*
X2238010D1*
X2329060D2*
X2432717D1*
X2569340D2*
X2741967D1*
X443561Y2123865D2*
X1728741D1*
X1821335D2*
X2213142D1*
X2304192D2*
X2432717D1*
X2589579D2*
X2741967D1*
X443561Y2098996D2*
X1735846D1*
X1821335D2*
X2188274D1*
X2279324D2*
X2432717D1*
X2588574D2*
X2741967D1*
X443561Y2074127D2*
X1735846D1*
X1821335D2*
X2163406D1*
X2254457D2*
X2432717D1*
X2561410D2*
X2741967D1*
X443561Y2049259D2*
X1735846D1*
X1821335D2*
X2138539D1*
X2229589D2*
X2432717D1*
X2530047D2*
X2741967D1*
X443561Y2024390D2*
X1735846D1*
X1821335D2*
X2113671D1*
X2204721D2*
X2444523D1*
X2510383D2*
X2741967D1*
X443561Y1999521D2*
X1735846D1*
X1821335D2*
X2088803D1*
X2179853D2*
X2444523D1*
X2510383D2*
X2741967D1*
X443561Y1974652D2*
X1735846D1*
X1821335D2*
X2063935D1*
X2154986D2*
X2444523D1*
X2510383D2*
X2741967D1*
X443561Y1949783D2*
X1735846D1*
X1821335D2*
X2039068D1*
X2130118D2*
X2444523D1*
X2510383D2*
X2741967D1*
X443561Y1924915D2*
X1735846D1*
X1821335D2*
X2014200D1*
X2105250D2*
X2444523D1*
X2510383D2*
X2741967D1*
X443561Y1900046D2*
X1735846D1*
X1821335D2*
X1989332D1*
X2080383D2*
X2444523D1*
X2510383D2*
X2741967D1*
X443561Y1875177D2*
X1735846D1*
X1821335D2*
X1964465D1*
X2055515D2*
X2444523D1*
X2510383D2*
X2741967D1*
X443561Y1850308D2*
X1735846D1*
X1821335D2*
X1939597D1*
X2030647D2*
X2442478D1*
X2512392D2*
X2741967D1*
X443561Y1825440D2*
X1677463D1*
X1821335D2*
X1914693D1*
X2005779D2*
X2434691D1*
X2520215D2*
X2741967D1*
X443561Y1800571D2*
X1650586D1*
X1817172D2*
X1889825D1*
X1980912D2*
X2444093D1*
X2510777D2*
X2741967D1*
X443561Y1775702D2*
X1639461D1*
X1793704D2*
X1864958D1*
X1956044D2*
X2741967D1*
X443561Y1750833D2*
X1605156D1*
X1773357D2*
X1840090D1*
X1931176D2*
X2741967D1*
X443561Y1725965D2*
X1605156D1*
X1773357D2*
X1815222D1*
X1906308D2*
X2741967D1*
X443561Y1701096D2*
X1605156D1*
X1773357D2*
X1791862D1*
X1881441D2*
X2741967D1*
X443561Y1676227D2*
X1600025D1*
X1773357D2*
X1787771D1*
X1856573D2*
X1919143D1*
X2102236D2*
X2741967D1*
X443561Y1651358D2*
X1607058D1*
X1678372D2*
X1787771D1*
X1853630D2*
X1903820D1*
X2102236D2*
X2741967D1*
X443561Y1626490D2*
X1787771D1*
X1853630D2*
X1907193D1*
X2102236D2*
X2741967D1*
X443561Y1601621D2*
X1783213D1*
X1858224D2*
X1948640D1*
X2102236D2*
X2282614D1*
X2379944D2*
X2741967D1*
X443561Y1576752D2*
X1558866D1*
X1727103D2*
X1778261D1*
X1863176D2*
X1948640D1*
X2102236D2*
X2282614D1*
X2420529D2*
X2741967D1*
X443561Y1551883D2*
X1558866D1*
X1727103D2*
X1791144D1*
X1850257D2*
X1948640D1*
X2102236D2*
X2282614D1*
X2425194D2*
X2741967D1*
X997649Y1527014D2*
X1558866D1*
X1727103D2*
X2282614D1*
X2411917D2*
X2741967D1*
X1005256Y1502146D2*
X1558866D1*
X1727103D2*
X2282614D1*
X2379944D2*
X2741967D1*
X1005256Y1477277D2*
X1558866D1*
X1727103D2*
X2210881D1*
X2418878D2*
X2741967D1*
X1005256Y1452408D2*
X1558866D1*
X1727103D2*
X2210881D1*
X2426737D2*
X2741967D1*
X1005256Y1427539D2*
X1625574D1*
X1699257D2*
X2210881D1*
X2417371D2*
X2741967D1*
X1005256Y1402671D2*
X1619833D1*
X1704998D2*
X2210881D1*
X2394692D2*
X2741967D1*
X1005256Y1377802D2*
X1631675D1*
X1723478D2*
X1946953D1*
X2010947D2*
X2210881D1*
X2420600D2*
X2741967D1*
X1005256Y1352933D2*
X1648791D1*
X1734172D2*
X1787125D1*
X1852805D2*
X1936260D1*
X2021640D2*
X2210881D1*
X2429105D2*
X2741967D1*
X1005256Y1328064D2*
X1655466D1*
X1746731D2*
X1776037D1*
X2027776D2*
X2297362D1*
X2420385D2*
X2741967D1*
X1005256Y1303196D2*
X1597082D1*
X2027776D2*
X2216694D1*
X2394692D2*
X2741967D1*
X1005256Y1278327D2*
X1597082D1*
X1829265D2*
X1859539D1*
X2028099D2*
X2216694D1*
X2417227D2*
X2741967D1*
X1005256Y1253458D2*
X1597082D1*
X1829265D2*
X1859539D1*
X2028099D2*
X2216694D1*
X2425553D2*
X2741967D1*
X1005256Y1228589D2*
X1763405D1*
X1829265D2*
X1859862D1*
X2028099D2*
X2216694D1*
X2416689D2*
X2741967D1*
X1005256Y1203720D2*
X1763405D1*
X1829265D2*
X1859862D1*
X2028099D2*
X2216694D1*
X2379047D2*
X2741967D1*
X1005256Y1178852D2*
X1763980D1*
X1847745D2*
X2216694D1*
X2420457D2*
X2741967D1*
X1005256Y1153983D2*
X1721672D1*
X1872613D2*
X1906942D1*
X2034379D2*
X2216694D1*
X2423435D2*
X2741967D1*
X1005256Y1129114D2*
X1719017D1*
X2062835D2*
X2281681D1*
X2407359D2*
X2741967D1*
X1005256Y1104245D2*
X1727988D1*
X2087703D2*
X2281681D1*
X2379047D2*
X2741967D1*
X1005256Y1079377D2*
X1727988D1*
X1793847D2*
X1816765D1*
X2112571D2*
X2281681D1*
X2379047D2*
X2741967D1*
X1005256Y1054508D2*
X1727988D1*
X1793847D2*
X1841669D1*
X2137438D2*
X2281681D1*
X2379047D2*
X2741967D1*
X1005256Y1029639D2*
X1727988D1*
X1793847D2*
X1866537D1*
X2162306D2*
X2741967D1*
X1005256Y1004770D2*
X1727988D1*
X1793847D2*
X1891404D1*
X2187174D2*
X2741967D1*
X1005221Y979902D2*
X1727988D1*
X1793847D2*
X1916272D1*
X2212042D2*
X2741967D1*
X984623Y955033D2*
X1727988D1*
X1793847D2*
X1916954D1*
X2014320D2*
X2043481D1*
X2236909D2*
X2741967D1*
X443561Y930164D2*
X1727988D1*
X1793847D2*
X1916954D1*
X2014320D2*
X2068349D1*
X2261777D2*
X2741967D1*
X443561Y905295D2*
X1727988D1*
X1793847D2*
X1916954D1*
X2014320D2*
X2093217D1*
X2286645D2*
X2741967D1*
X443561Y880427D2*
X1727988D1*
X1793847D2*
X1916954D1*
X2014320D2*
X2118085D1*
X2311513D2*
X2741967D1*
X443561Y855558D2*
X1727988D1*
X1793847D2*
X1916954D1*
X2014320D2*
X2142952D1*
X2336380D2*
X2741967D1*
X443561Y830689D2*
X1721421D1*
X1793847D2*
X1911356D1*
X2014320D2*
X2167820D1*
X2361248D2*
X2741967D1*
X443561Y805820D2*
X1691314D1*
X1787316D2*
X1907696D1*
X2014320D2*
X2192688D1*
X2393580D2*
X2741967D1*
X443561Y780951D2*
X620781D1*
X790490D2*
X1662714D1*
X1762772D2*
X1922588D1*
X2021820D2*
X2216659D1*
X2265760D2*
X2319933D1*
X2419452D2*
X2741967D1*
X443561Y756083D2*
X620781D1*
X803695D2*
X1661458D1*
X1744219D2*
X1940243D1*
X2022537D2*
X2337875D1*
X2420170D2*
X2741967D1*
X443561Y731214D2*
X620781D1*
X802547D2*
X1681087D1*
X1724627D2*
X1961199D1*
X2001545D2*
X2358832D1*
X2399178D2*
X2741967D1*
X443561Y706345D2*
X567601D1*
X785358D2*
X2741967D1*
X443561Y681476D2*
X559886D1*
X668770D2*
X2741967D1*
X443561Y656608D2*
X564909D1*
X663783D2*
X2741967D1*
X443561Y631739D2*
X590136D1*
X638520D2*
X2741967D1*
X443561Y606870D2*
X474410D1*
X559216D2*
X2618705D1*
X2684708D2*
X2741967D1*
X590471Y582001D2*
X2581421D1*
X2722028D2*
X2741967D1*
X604717Y557133D2*
X2565417D1*
X610351Y532264D2*
X2558563D1*
X609023Y507395D2*
X2558814D1*
X600375Y482526D2*
X2566206D1*
X581428Y457657D2*
X2583108D1*
X2720305D2*
X2741967D1*
X1563205Y1585698D2*
X1724588D1*
Y1437094D1*
X1692830D1*
X1693039Y1432654D1*
X1696753Y1427542D1*
X1699622Y1421911D1*
X1701575Y1415901D1*
X1702564Y1409660D1*
Y1403340D1*
X1701575Y1397099D1*
X1699622Y1391089D1*
X1699090Y1389933D1*
X1703916Y1388685D1*
X1709754Y1386267D1*
X1715142Y1382965D1*
X1719947Y1378861D1*
X1724052Y1374056D1*
X1727353Y1368667D1*
X1729772Y1362829D1*
X1731247Y1356684D1*
X1731743Y1350385D1*
X1731597Y1347041D1*
X1737793Y1340714D1*
X1740600Y1336851D1*
X1742768Y1332596D1*
X1744245Y1328046D1*
X1762801Y1327819D1*
Y1235464D1*
X1599580D1*
Y1327819D1*
X1658122D1*
X1655589Y1332102D1*
X1653171Y1337940D1*
X1651695Y1344085D1*
X1651199Y1350385D1*
X1651695Y1356684D1*
X1653171Y1362829D1*
X1654798Y1366951D1*
X1649971Y1368199D1*
X1644133Y1370618D1*
X1638745Y1373920D1*
X1633940Y1378024D1*
X1629836Y1382829D1*
X1626534Y1388217D1*
X1624115Y1394055D1*
X1622640Y1400200D1*
X1622144Y1406500D1*
X1622640Y1412800D1*
X1624115Y1418945D1*
X1626534Y1424783D1*
X1629836Y1430171D1*
X1631986Y1432863D1*
X1631987Y1437109D1*
X1561368Y1437094D1*
X1561367Y1585698D1*
X1563205D1*
X1770864Y1755376D2*
Y1672919D1*
X1683014D1*
X1682507Y1667917D1*
X1681032Y1661772D1*
X1678613Y1655934D1*
X1675311Y1650545D1*
X1671207Y1645740D1*
X1666402Y1641636D1*
X1661014Y1638334D1*
X1655176Y1635916D1*
X1649031Y1634441D1*
X1642731Y1633945D1*
X1636431Y1634441D1*
X1630286Y1635916D1*
X1624448Y1638334D1*
X1619060Y1641636D1*
X1614255Y1645740D1*
X1610151Y1650545D1*
X1606849Y1655934D1*
X1604430Y1661772D1*
X1602955Y1667917D1*
X1602459Y1674217D1*
X1602955Y1680516D1*
X1604430Y1686661D1*
X1606849Y1692499D1*
X1607639Y1693911D1*
X1607643Y1765273D1*
X1642487D1*
X1641829Y1772642D1*
X1642325Y1778942D1*
X1643800Y1785086D1*
X1646219Y1790925D1*
X1649521Y1796313D1*
X1653625Y1801118D1*
X1658430Y1805222D1*
X1663818Y1808524D1*
X1669656Y1810942D1*
X1673342Y1811928D1*
X1674989Y1816726D1*
X1677858Y1822357D1*
X1681573Y1827469D1*
X1686041Y1831938D1*
X1691154Y1835652D1*
X1696784Y1838521D1*
X1702794Y1840474D1*
X1709036Y1841462D1*
X1715355D1*
X1721597Y1840474D1*
X1727607Y1838521D1*
X1733237Y1835652D1*
X1734254Y1834973D1*
X1738335Y1839046D1*
X1738350Y2116724D1*
X1457619Y2397484D1*
X1451076Y2398500D1*
X1445066Y2400453D1*
X1439436Y2403322D1*
X1434323Y2407036D1*
X1429855Y2411504D1*
X1426140Y2416617D1*
X1423272Y2422247D1*
X1421319Y2428258D1*
X1420330Y2434499D1*
Y2440818D1*
X1421319Y2447060D1*
X1423272Y2453070D1*
X1426140Y2458701D1*
X1430064Y2464040D1*
X1426061Y2468738D1*
X1422759Y2474127D1*
X1420341Y2479965D1*
X1418866Y2486110D1*
X1418370Y2492409D1*
X1418866Y2498709D1*
X1420341Y2504854D1*
X1422759Y2510692D1*
X1426061Y2516081D1*
X1430165Y2520886D1*
X1434971Y2524990D1*
X1440359Y2528292D1*
X1446197Y2530710D1*
X1452342Y2532185D1*
X1458642Y2532681D1*
X1464942Y2532185D1*
X1471086Y2530710D1*
X1476925Y2528292D1*
X1482313Y2524990D1*
X1487118Y2520886D1*
X1491222Y2516081D1*
X1494524Y2510692D1*
X1496942Y2504854D1*
X1498418Y2498709D1*
X1498800Y2495285D1*
X1811539Y2182413D1*
X1814345Y2178550D1*
X1816513Y2174296D1*
X1817989Y2169754D1*
X1818736Y2165038D1*
X1818830Y2089160D1*
X1818736Y1813561D1*
X1817989Y1808845D1*
X1816513Y1804304D1*
X1814345Y1800050D1*
X1811539Y1796187D1*
X1770858Y1755373D1*
X1863890Y1340317D2*
X1939943D1*
X1938793Y1347225D1*
Y1353544D1*
X1939782Y1359786D1*
X1941735Y1365796D1*
X1944604Y1371426D1*
X1948318Y1376539D1*
X1952787Y1381007D1*
X1957899Y1384722D1*
X1963530Y1387591D1*
X1969540Y1389543D1*
X1975781Y1390532D1*
X1982101D1*
X1988342Y1389543D1*
X1994352Y1387591D1*
X1999983Y1384722D1*
X2005095Y1381007D1*
X2009564Y1376539D1*
X2013278Y1371426D1*
X2016147Y1365796D1*
X2018100Y1359786D1*
X2019088Y1353544D1*
Y1347225D1*
X2017909Y1340306D1*
X2025273Y1340317D1*
Y1289972D1*
X2025587Y1289956D1*
Y1197602D1*
X1862366D1*
Y1247962D1*
X1862053Y1247963D1*
Y1340317D1*
X1863890D1*
X2099732Y1599700D2*
Y1532769D1*
X1951124Y1532726D1*
Y1604171D1*
X1945921Y1603832D1*
X1939621Y1604328D1*
X1933477Y1605803D1*
X1927638Y1608221D1*
X1922250Y1611523D1*
X1917445Y1615627D1*
X1913341Y1620433D1*
X1910039Y1625821D1*
X1907621Y1631659D1*
X1906145Y1637804D1*
X1905650Y1644104D1*
X1906145Y1650404D1*
X1907621Y1656548D1*
X1910039Y1662387D1*
X1913341Y1667775D1*
X1917445Y1672580D1*
X1922250Y1676684D1*
X1927638Y1679986D1*
X1933477Y1682404D1*
X1939621Y1683880D1*
X1945921Y1684375D1*
X1951129Y1684009D1*
X1951124Y1695946D1*
X2099732Y1695989D1*
X2099697Y1599698D1*
X625112Y796044D2*
X723503D1*
Y787066D1*
X729377Y790583D1*
X736642Y793592D1*
X744289Y795428D1*
X752129Y796045D1*
X759968Y795428D1*
X767615Y793592D1*
X774880Y790583D1*
X781585Y786474D1*
X787565Y781367D1*
X792672Y775387D1*
X796781Y768682D1*
X799790Y761417D1*
X801626Y753770D1*
X802243Y745930D1*
X801626Y738091D1*
X799790Y730444D1*
X796781Y723179D1*
X792672Y716474D1*
X787565Y710494D1*
X781585Y705387D1*
X774880Y701278D1*
X767615Y698269D1*
X759968Y696433D1*
X752129Y695816D1*
X744289Y696433D1*
X736642Y698269D1*
X729377Y701278D1*
X723503Y704832D1*
Y695816D1*
X663540D1*
X665694Y687136D1*
X666335Y679001D1*
X665694Y670867D1*
X663790Y662932D1*
X660667Y655393D1*
X656403Y648436D1*
X651104Y642231D1*
X644899Y636931D1*
X637941Y632668D1*
X630403Y629545D1*
X622468Y627640D1*
X614333Y627000D1*
X606199Y627640D1*
X598264Y629545D1*
X590725Y632668D1*
X583768Y636931D1*
X577563Y642231D1*
X572263Y648436D1*
X568000Y655393D1*
X564877Y662932D1*
X562972Y670867D1*
X562332Y679001D1*
X562972Y687136D1*
X564877Y695071D1*
X568000Y702609D1*
X572263Y709567D1*
X577563Y715772D1*
X583768Y721071D1*
X590725Y725335D1*
X598264Y728457D1*
X606199Y730362D1*
X614333Y731003D1*
X622468Y730362D1*
X623266Y730204D1*
X623275Y796044D1*
X625112D1*
X2376530Y1110797D2*
Y1043866D1*
X2284176D1*
X2283995Y1144922D1*
X2219200D1*
X2219199Y1308143D1*
X2299831D1*
X2299854Y1336336D1*
X2213374Y1336335D1*
Y1499555D1*
X2285107D1*
X2285104Y1604497D1*
X2377458D1*
Y1597141D1*
X2382786Y1597505D1*
X2389086Y1597009D1*
X2395231Y1595534D1*
X2401069Y1593116D1*
X2406457Y1589814D1*
X2411262Y1585710D1*
X2415367Y1580905D1*
X2418668Y1575517D1*
X2421087Y1569678D1*
X2422562Y1563533D1*
X2423058Y1557234D1*
X2422562Y1550934D1*
X2421087Y1544789D1*
X2418668Y1538951D1*
X2415367Y1533563D1*
X2411262Y1528757D1*
X2406457Y1524653D1*
X2401069Y1521351D1*
X2395231Y1518933D1*
X2389086Y1517458D1*
X2382786Y1516962D1*
X2377455Y1517343D1*
X2377458Y1493122D1*
X2383966Y1493650D1*
X2390266Y1493154D1*
X2396411Y1491679D1*
X2402249Y1489260D1*
X2407637Y1485958D1*
X2412442Y1481854D1*
X2416546Y1477049D1*
X2419848Y1471661D1*
X2422266Y1465823D1*
X2423742Y1459678D1*
X2424238Y1453378D1*
X2423742Y1447078D1*
X2422266Y1440933D1*
X2419848Y1435095D1*
X2416546Y1429707D1*
X2412442Y1424902D1*
X2407637Y1420798D1*
X2402249Y1417496D1*
X2396411Y1415077D1*
X2390266Y1413602D1*
X2383966Y1413106D1*
X2377666Y1413602D1*
X2371521Y1415077D1*
X2365683Y1417496D1*
X2360072Y1420973D1*
X2305743Y1420980D1*
X2305728Y1406187D1*
X2392209Y1406193D1*
Y1392880D1*
X2398771Y1391362D1*
X2404610Y1388944D1*
X2409998Y1385642D1*
X2414803Y1381538D1*
X2418907Y1376733D1*
X2422209Y1371345D1*
X2424627Y1365506D1*
X2426103Y1359362D1*
X2426598Y1353062D1*
X2426103Y1346762D1*
X2424627Y1340617D1*
X2422209Y1334779D1*
X2418907Y1329391D1*
X2414803Y1324585D1*
X2409998Y1320481D1*
X2404610Y1317179D1*
X2398771Y1314761D1*
X2392197Y1313235D1*
X2392209Y1292937D1*
X2398197Y1290991D1*
X2403828Y1288122D1*
X2408940Y1284408D1*
X2413409Y1279939D1*
X2417123Y1274827D1*
X2419992Y1269196D1*
X2421945Y1263186D1*
X2422934Y1256944D1*
Y1250625D1*
X2421945Y1244384D1*
X2419992Y1238373D1*
X2417123Y1232743D1*
X2413409Y1227630D1*
X2408940Y1223162D1*
X2403828Y1219448D1*
X2398197Y1216579D1*
X2392187Y1214626D1*
X2385946Y1213637D1*
X2379626D1*
X2373385Y1214626D1*
X2367375Y1216579D1*
X2361744Y1219448D1*
X2359474Y1220964D1*
X2311535Y1220966D1*
X2311735Y1207086D1*
X2376530D1*
Y1201811D1*
X2381450Y1202144D1*
X2387750Y1201649D1*
X2393895Y1200173D1*
X2399733Y1197755D1*
X2405121Y1194453D1*
X2409926Y1190349D1*
X2414031Y1185544D1*
X2417332Y1180156D1*
X2419751Y1174317D1*
X2421226Y1168173D1*
X2421722Y1161873D1*
X2421226Y1155573D1*
X2419751Y1149428D1*
X2417332Y1143590D1*
X2414031Y1138202D1*
X2409926Y1133396D1*
X2405121Y1129292D1*
X2399733Y1125990D1*
X2393895Y1123572D1*
X2387750Y1122097D1*
X2381450Y1121601D1*
X2376536Y1121933D1*
X2376495Y1110795D1*
X1190499Y2411300D2*
X1277604D1*
Y2318946D1*
X1259913D1*
X1260032Y2316300D1*
X1263747Y2311188D1*
X1266616Y2305557D1*
X1268568Y2299547D1*
X1269557Y2293305D1*
Y2286986D1*
X1268568Y2280744D1*
X1266616Y2274734D1*
X1263747Y2269104D1*
X1260032Y2263991D1*
X1255564Y2259523D1*
X1250451Y2255808D1*
X1244821Y2252940D1*
X1238811Y2250987D1*
X1232569Y2249998D1*
X1226250D1*
X1220008Y2250987D1*
X1213998Y2252940D1*
X1208368Y2255808D1*
X1203255Y2259523D1*
X1198787Y2263991D1*
X1195072Y2269104D1*
X1192203Y2274734D1*
X1190251Y2280744D1*
X1189262Y2286986D1*
Y2293305D1*
X1190251Y2299547D1*
X1192203Y2305557D1*
X1195072Y2311188D1*
X1199030Y2316563D1*
X1199029Y2318961D1*
X1114383Y2318946D1*
Y2326589D1*
X1108306Y2326125D1*
X1102006Y2326620D1*
X1095861Y2328096D1*
X1090023Y2330514D1*
X1084635Y2333816D1*
X1079829Y2337920D1*
X1075725Y2342725D1*
X1072423Y2348113D1*
X1070005Y2353952D1*
X1068530Y2360096D1*
X1068034Y2366396D1*
X1068530Y2372696D1*
X1070005Y2378841D1*
X1072423Y2384679D1*
X1075725Y2390067D1*
X1079829Y2394873D1*
X1084635Y2398977D1*
X1090023Y2402279D1*
X1095861Y2404697D1*
X1102006Y2406172D1*
X1108306Y2406668D1*
X1114373Y2406200D1*
X1114383Y2411300D1*
X1190499D1*
X2437038Y2191999D2*
X2527555D1*
Y2147495D1*
X2532896Y2150186D1*
X2538906Y2152139D1*
X2545147Y2153128D1*
X2551467D1*
X2557708Y2152139D1*
X2563718Y2150186D1*
X2569349Y2147318D1*
X2574461Y2143603D1*
X2578930Y2139135D1*
X2582644Y2134022D1*
X2585513Y2128392D1*
X2587466Y2122382D1*
X2588455Y2116140D1*
Y2109821D1*
X2587466Y2103579D1*
X2585513Y2097569D1*
X2582644Y2091938D1*
X2578930Y2086826D1*
X2574461Y2082358D1*
X2569349Y2078643D1*
X2563718Y2075774D1*
X2557708Y2073821D1*
X2551872Y2072881D1*
X2536573Y2057722D1*
X2532710Y2054916D1*
X2528447Y2052745D1*
X2527555Y2051579D1*
Y2028778D1*
X2507855D1*
X2507870Y1852827D1*
X2511778Y1847499D1*
X2514647Y1841868D1*
X2516600Y1835858D1*
X2517588Y1829616D1*
Y1823297D1*
X2516600Y1817055D1*
X2514647Y1811045D1*
X2511778Y1805415D1*
X2508064Y1800302D1*
X2503595Y1795834D1*
X2498483Y1792119D1*
X2492852Y1789251D1*
X2486842Y1787298D1*
X2480601Y1786309D1*
X2474281D1*
X2468040Y1787298D1*
X2462030Y1789251D1*
X2456399Y1792119D1*
X2451287Y1795834D1*
X2446818Y1800302D1*
X2443104Y1805415D1*
X2440235Y1811045D1*
X2438282Y1817055D1*
X2437293Y1823297D1*
Y1829616D1*
X2438282Y1835858D1*
X2440235Y1841868D1*
X2443104Y1847499D1*
X2447011Y1852820D1*
X2447012Y2028808D1*
X2435201Y2028778D1*
Y2191999D1*
X2437038D1*
X607901Y2645181D2*
X607057Y2638057D1*
X605658Y2631020D1*
X603710Y2624115D1*
X601227Y2617384D1*
X598224Y2610869D1*
X594718Y2604609D1*
X590732Y2598644D1*
X586290Y2593009D1*
X581420Y2587741D1*
X576152Y2582871D1*
X570518Y2578429D1*
X564552Y2574443D1*
X558293Y2570938D1*
X551777Y2567934D1*
X545046Y2565451D1*
X538141Y2563504D1*
X531105Y2562104D1*
X523980Y2561261D1*
X516811Y2560979D1*
X509642Y2561261D1*
X502517Y2562104D1*
X495481Y2563504D1*
X488576Y2565451D1*
X481845Y2567934D1*
X475329Y2570938D1*
X469070Y2574443D1*
X463104Y2578429D1*
X457470Y2582871D1*
X452202Y2587741D1*
X447332Y2593009D1*
X441037Y2601417D1*
X441043Y1533821D1*
X446620Y1534837D1*
X558934Y1534919D1*
X978336Y1534837D1*
X982442Y1534187D1*
X986395Y1532902D1*
X990099Y1531015D1*
X993463Y1528571D1*
X996402Y1525632D1*
X998846Y1522269D1*
X1000733Y1518565D1*
X1002017Y1514611D1*
X1002668Y1510505D1*
X1002749Y1398190D1*
X1002668Y978789D1*
X1002017Y974683D1*
X1000733Y970729D1*
X998846Y967025D1*
X996402Y963662D1*
X993463Y960723D1*
X990099Y958279D1*
X986395Y956392D1*
X982442Y955107D1*
X978336Y954457D1*
X866021Y954375D1*
X446620Y954457D1*
X442506Y955109D1*
X441043Y953753D1*
Y575713D1*
X447332Y584021D1*
X452202Y589289D1*
X457470Y594159D1*
X463104Y598601D1*
X469070Y602587D1*
X475329Y606092D1*
X481845Y609096D1*
X488576Y611579D1*
X495481Y613527D1*
X502517Y614926D1*
X509642Y615770D1*
X516811Y616051D1*
X523980Y615770D1*
X531105Y614926D1*
X538141Y613527D1*
X545046Y611579D1*
X551777Y609096D1*
X558293Y606092D1*
X564552Y602587D1*
X570518Y598601D1*
X576152Y594159D1*
X581420Y589289D1*
X586290Y584021D1*
X590732Y578387D1*
X594718Y572421D1*
X598224Y566162D1*
X601227Y559646D1*
X603710Y552915D1*
X605658Y546010D1*
X607057Y538973D1*
X607901Y531849D1*
X608182Y524680D1*
X607901Y517511D1*
X607057Y510386D1*
X605658Y503350D1*
X603710Y496444D1*
X601227Y489713D1*
X598224Y483198D1*
X594718Y476938D1*
X590732Y470973D1*
X586290Y465339D1*
X581420Y460070D1*
X576152Y455200D1*
X570518Y450759D1*
X564552Y446773D1*
X558293Y443267D1*
X551777Y440264D1*
X545046Y437780D1*
X538749Y435881D1*
X2607214Y440952D1*
X2598010Y446822D1*
X2592376Y451263D1*
X2587107Y456133D1*
X2582237Y461402D1*
X2577796Y467036D1*
X2573810Y473001D1*
X2570304Y479261D1*
X2567300Y485776D1*
X2564817Y492507D1*
X2562870Y499413D1*
X2561470Y506449D1*
X2560627Y513574D1*
X2560345Y520743D1*
X2560627Y527912D1*
X2561470Y535036D1*
X2562870Y542073D1*
X2564817Y548978D1*
X2567300Y555709D1*
X2570304Y562225D1*
X2573810Y568484D1*
X2577796Y574450D1*
X2582237Y580084D1*
X2587107Y585352D1*
X2592376Y590222D1*
X2598010Y594664D1*
X2603975Y598650D1*
X2610235Y602155D1*
X2616750Y605159D1*
X2623481Y607642D1*
X2630386Y609590D1*
X2637423Y610989D1*
X2644548Y611833D1*
X2651717Y612114D1*
X2658885Y611833D1*
X2666010Y610989D1*
X2673047Y609590D1*
X2679952Y607642D1*
X2686683Y605159D1*
X2693198Y602155D1*
X2699458Y598650D1*
X2705423Y594664D1*
X2711058Y590222D1*
X2716326Y585352D1*
X2721196Y580084D1*
X2725638Y574450D1*
X2729623Y568484D1*
X2733129Y562225D1*
X2736133Y555709D1*
X2738616Y548978D1*
X2740563Y542073D1*
X2741963Y535036D1*
X2742806Y527912D1*
X2743088Y520743D1*
X2742806Y513574D1*
X2741963Y506449D1*
X2740563Y499413D1*
X2738616Y492507D1*
X2736133Y485776D1*
X2733129Y479261D1*
X2729623Y473001D1*
X2725638Y467036D1*
X2721196Y461402D1*
X2716326Y456133D1*
X2711058Y451263D1*
X2705423Y446822D1*
X2696499Y441179D1*
X2744435Y441288D1*
X2744468Y2695874D1*
X2732101Y2695846D1*
X2736133Y2687317D1*
X2738616Y2680586D1*
X2740563Y2673681D1*
X2741963Y2666644D1*
X2742806Y2659519D1*
X2743088Y2652350D1*
X2742806Y2645181D1*
X2741963Y2638057D1*
X2740563Y2631020D1*
X2738616Y2624115D1*
X2736133Y2617384D1*
X2733129Y2610869D1*
X2729623Y2604609D1*
X2725638Y2598644D1*
X2721196Y2593009D1*
X2716326Y2587741D1*
X2711058Y2582871D1*
X2705423Y2578429D1*
X2699458Y2574443D1*
X2693198Y2570938D1*
X2686683Y2567934D1*
X2679952Y2565451D1*
X2673047Y2563504D1*
X2666010Y2562104D1*
X2658885Y2561261D1*
X2651717Y2560979D1*
X2644548Y2561261D1*
X2637423Y2562104D1*
X2630386Y2563504D1*
X2623481Y2565451D1*
X2616750Y2567934D1*
X2610235Y2570938D1*
X2603975Y2574443D1*
X2598010Y2578429D1*
X2592376Y2582871D1*
X2587107Y2587741D1*
X2582237Y2593009D1*
X2577796Y2598644D1*
X2573810Y2604609D1*
X2570304Y2610869D1*
X2567300Y2617384D1*
X2564817Y2624115D1*
X2562870Y2631020D1*
X2561470Y2638057D1*
X2560627Y2645181D1*
X2560345Y2652350D1*
X2560627Y2659519D1*
X2561470Y2666644D1*
X2562870Y2673681D1*
X2564817Y2680586D1*
X2567300Y2687317D1*
X2571441Y2695862D1*
X597135Y2695846D1*
X601227Y2687317D1*
X603710Y2680586D1*
X605658Y2673681D1*
X607057Y2666644D1*
X607901Y2659519D1*
X608182Y2652350D1*
X607901Y2645181D1*
X1860864Y1578552D2*
X1859875Y1572310D1*
X1857923Y1566300D1*
X1855054Y1560669D1*
X1851339Y1555557D1*
X1846871Y1551088D1*
X1841758Y1547374D1*
X1836128Y1544505D1*
X1830118Y1542552D1*
X1823876Y1541564D1*
X1817557D1*
X1811315Y1542552D1*
X1805305Y1544505D1*
X1799675Y1547374D1*
X1794562Y1551088D1*
X1790094Y1555557D1*
X1786379Y1560669D1*
X1783510Y1566300D1*
X1781558Y1572310D1*
X1780569Y1578552D1*
Y1584871D1*
X1781558Y1591113D1*
X1783510Y1597123D1*
X1786379Y1602753D1*
X1790287Y1608074D1*
X1790381Y1688300D1*
X1791128Y1693016D1*
X1792604Y1697557D1*
X1794771Y1701811D1*
X1797578Y1705674D1*
X1851166Y1759395D1*
X2240580Y2148809D1*
X2234856Y2149311D1*
X2228712Y2150786D1*
X2222873Y2153204D1*
X2217485Y2156506D1*
X2212680Y2160610D1*
X2208576Y2165416D1*
X2205274Y2170804D1*
X2202856Y2176642D1*
X2201380Y2182787D1*
X2200885Y2189087D1*
X2201380Y2195386D1*
X2202856Y2201531D1*
X2205274Y2207370D1*
X2208576Y2212758D1*
X2212680Y2217563D1*
X2217485Y2221667D1*
X2222873Y2224969D1*
X2228712Y2227387D1*
X2234856Y2228862D1*
X2241156Y2229358D1*
X2247456Y2228862D1*
X2253601Y2227387D1*
X2259439Y2224969D1*
X2264827Y2221667D1*
X2267519Y2219517D1*
X2326279Y2219422D1*
X2330995Y2218675D1*
X2335536Y2217200D1*
X2339790Y2215032D1*
X2343653Y2212225D1*
X2347030Y2208849D1*
X2349836Y2204986D1*
X2352004Y2200731D1*
X2353480Y2196190D1*
X2354226Y2191474D1*
Y2186699D1*
X2353480Y2181983D1*
X2352004Y2177442D1*
X2349836Y2173187D1*
X2347030Y2169324D1*
X2293442Y2115604D1*
X1851149Y1673311D1*
X1851339Y1607866D1*
X1855054Y1602753D1*
X1857923Y1597123D1*
X1859875Y1591113D1*
X1860864Y1584871D1*
Y1578552D1*
X1743009Y763703D2*
X1742009Y757178D1*
X1740057Y751167D1*
X1737188Y745537D1*
X1733473Y740424D1*
X1729005Y735956D1*
X1723892Y732242D1*
X1718262Y729373D1*
X1712252Y727420D1*
X1706010Y726431D1*
X1699691D1*
X1693449Y727420D1*
X1687439Y729373D1*
X1681809Y732242D1*
X1676696Y735956D1*
X1672228Y740424D1*
X1668513Y745537D1*
X1665644Y751167D1*
X1663691Y757178D1*
X1662703Y763419D1*
Y769738D1*
X1663691Y775980D1*
X1665644Y781990D1*
X1668513Y787621D1*
X1672228Y792733D1*
X1676696Y797202D1*
X1681809Y800916D1*
X1687439Y803785D1*
X1693449Y805738D1*
X1699975Y806737D1*
X1730483Y837245D1*
X1730283Y1111326D1*
X1726568Y1116438D1*
X1723699Y1122069D1*
X1721747Y1128079D1*
X1720758Y1134321D1*
Y1140640D1*
X1721747Y1146882D1*
X1723699Y1152892D1*
X1726568Y1158522D1*
X1730283Y1163635D1*
X1734751Y1168103D1*
X1739864Y1171818D1*
X1745494Y1174686D1*
X1751504Y1176639D1*
X1757746Y1177628D1*
X1764065D1*
X1766825Y1177301D1*
X1766003Y1182337D1*
X1765909Y1258215D1*
X1766003Y1305222D1*
X1766750Y1309938D1*
X1768226Y1314479D1*
X1770393Y1318734D1*
X1773200Y1322597D1*
X1779813Y1329616D1*
X1780802Y1335858D1*
X1782754Y1341868D1*
X1785623Y1347499D1*
X1789338Y1352611D1*
X1793806Y1357079D1*
X1798919Y1360794D1*
X1804549Y1363663D1*
X1810559Y1365616D1*
X1816801Y1366604D1*
X1823120D1*
X1829362Y1365616D1*
X1835372Y1363663D1*
X1841003Y1360794D1*
X1846115Y1357079D1*
X1850583Y1352611D1*
X1854298Y1347499D1*
X1857167Y1341868D1*
X1859120Y1335858D1*
X1860108Y1329616D1*
Y1323297D1*
X1859120Y1317055D1*
X1857167Y1311045D1*
X1854298Y1305415D1*
X1850583Y1300302D1*
X1846115Y1295834D1*
X1841003Y1292119D1*
X1835372Y1289251D1*
X1829362Y1287298D1*
X1826757Y1286780D1*
X1826768Y1197299D1*
X1897809Y1126288D1*
X1898295Y1131969D1*
X1899770Y1138114D1*
X1902189Y1143952D1*
X1905490Y1149340D1*
X1909595Y1154146D1*
X1914400Y1158250D1*
X1919788Y1161552D1*
X1925626Y1163970D1*
X1931771Y1165445D1*
X1938071Y1165941D1*
X1944371Y1165445D1*
X1950515Y1163970D1*
X1956354Y1161552D1*
X1961742Y1158250D1*
X1964434Y1156099D1*
X2023135Y1156005D1*
X2027852Y1155258D1*
X2032393Y1153782D1*
X2036647Y1151614D1*
X2040510Y1148808D1*
X2094231Y1095220D1*
X2382175Y807549D1*
X2388417Y806561D1*
X2394427Y804608D1*
X2400058Y801739D1*
X2405170Y798024D1*
X2409639Y793556D1*
X2413353Y788443D1*
X2416222Y782813D1*
X2418175Y776803D1*
X2419163Y770561D1*
Y764242D1*
X2418175Y758000D1*
X2416222Y751990D1*
X2413353Y746360D1*
X2409639Y741247D1*
X2405170Y736779D1*
X2400058Y733064D1*
X2394427Y730195D1*
X2388417Y728243D1*
X2382175Y727254D1*
X2375856D1*
X2369615Y728243D1*
X2363604Y730195D1*
X2357974Y733064D1*
X2352861Y736779D1*
X2348393Y741247D1*
X2344679Y746360D1*
X2341810Y751990D1*
X2339857Y758000D1*
X2338857Y764526D1*
X2280692Y822692D1*
X2281368Y817805D1*
Y811486D1*
X2280379Y805244D1*
X2278427Y799234D1*
X2275558Y793604D1*
X2271843Y788491D1*
X2267375Y784023D1*
X2262262Y780308D1*
X2256632Y777440D1*
X2250622Y775487D1*
X2244380Y774498D1*
X2238061D1*
X2231819Y775487D1*
X2225809Y777440D1*
X2220179Y780308D1*
X2215066Y784023D1*
X2210598Y788491D1*
X2206883Y793604D1*
X2206201Y794822D1*
X2011828Y989194D1*
X2011807Y793746D1*
X2015715Y788443D1*
X2018584Y782813D1*
X2020537Y776803D1*
X2021525Y770561D1*
Y764242D1*
X2020537Y758000D1*
X2018584Y751990D1*
X2015715Y746360D1*
X2012001Y741247D1*
X2007532Y736779D1*
X2002420Y733064D1*
X1996789Y730195D1*
X1990779Y728243D1*
X1984538Y727254D1*
X1978218D1*
X1971977Y728243D1*
X1965967Y730195D1*
X1960336Y733064D1*
X1955224Y736779D1*
X1950755Y741247D1*
X1947041Y746360D1*
X1944172Y751990D1*
X1942219Y758000D1*
X1941230Y764242D1*
Y770561D1*
X1941551Y773272D1*
X1934471Y775471D1*
X1928840Y778340D1*
X1923728Y782054D1*
X1919259Y786523D1*
X1915545Y791635D1*
X1912676Y797266D1*
X1910723Y803276D1*
X1909734Y809517D1*
Y815837D1*
X1910723Y822078D1*
X1912676Y828088D1*
X1915545Y833719D1*
X1919452Y839040D1*
X1919453Y979216D1*
X1797116Y1101270D1*
X1791323Y1102169D1*
X1791241Y822246D1*
X1790494Y817530D1*
X1789018Y812989D1*
X1786851Y808735D1*
X1784044Y804872D1*
X1743016Y763711D1*
X1609513Y1585662D2*
D21*
Y1539521D1*
X1561403D2*
X1609513D1*
Y1483272D2*
Y1437130D1*
X1561403Y1483272D2*
X1609513D1*
X1722718Y1719096D2*
Y1672954D1*
Y1719096D2*
X1770828D1*
X1910198Y1340282D2*
Y1294140D1*
X1862088D2*
X1910198D1*
X1647726Y1327783D2*
Y1235500D1*
X1599616Y1281642D2*
X1647726D1*
X2053555Y1580915D2*
Y1532805D1*
Y1580915D2*
X2099697D1*
X1997301Y1580871D2*
Y1532761D1*
X1951159Y1580871D2*
X1997301D1*
X1910512Y1243780D2*
Y1197638D1*
X1862402Y1243780D2*
X1910512D1*
X673388Y796008D2*
Y695852D1*
X623310Y745930D2*
X673388D1*
X2330353Y1092012D2*
Y1043902D1*
X2284212Y1092012D2*
X2376495D1*
X2265377Y1193068D2*
Y1144958D1*
X2219236Y1193068D2*
X2265377D1*
X2346031Y1291118D2*
X2392173D1*
X2259551Y1384480D2*
Y1336370D1*
X2213410Y1384480D2*
X2259551D1*
X2285140Y1489423D2*
X2377422D1*
X2481378Y2191963D2*
Y2143853D1*
X2435237D2*
X2527519D1*
X463716Y1471058D2*
D20*
X958870D1*
X463716Y1446189D2*
X961274D1*
X463716Y1421320D2*
X961274D1*
X463716Y1396451D2*
X961274D1*
X463716Y1371583D2*
X961274D1*
X463716Y1346714D2*
X961274D1*
X463716Y1321845D2*
X958439D1*
X463716Y1296976D2*
X961274D1*
X463716Y1272108D2*
X961274D1*
X463716Y1247239D2*
X961274D1*
X463716Y1222370D2*
X961274D1*
X463716Y1197501D2*
X961274D1*
X463716Y1172633D2*
X959013D1*
X463716Y1147764D2*
X961274D1*
X463716Y1122895D2*
X961274D1*
X463716Y1098026D2*
X961274D1*
X463716Y1073157D2*
X961274D1*
X463716Y1048289D2*
X961274D1*
X463716Y1023420D2*
X961274D1*
X463716Y998551D2*
X961274D1*
X963759Y1449107D2*
X961904Y1454851D1*
X960915Y1461092D1*
Y1467412D1*
X961904Y1473653D1*
X963759Y1479397D1*
X963757Y1495913D1*
X461211Y1495926D1*
X461198Y993381D1*
X963744Y993367D1*
X963757Y1149846D1*
X961904Y1155638D1*
X960915Y1161880D1*
Y1168199D1*
X961904Y1174441D1*
X963759Y1180184D1*
X963757Y1303430D1*
X961904Y1309181D1*
X960915Y1315423D1*
Y1321742D1*
X961904Y1327984D1*
X963759Y1333727D1*
X963757Y1449048D1*
D24*
X1609513Y1539521D3*
X1676442D3*
X1609513Y1483272D3*
X1676442D3*
X1722718Y1719096D3*
X1655789D3*
X1910198Y1294140D3*
X1977127D3*
X1647726Y1281642D3*
X1714655D3*
D25*
X2053555Y1580915D3*
Y1647844D3*
X1997301Y1580871D3*
Y1647801D3*
D24*
X1910512Y1243780D3*
X1977441D3*
D36*
X673388Y745930D3*
D37*
X752129D3*
D25*
X2330353Y1092012D3*
Y1158941D3*
X2265377Y1193068D3*
Y1259997D3*
X2346031Y1291118D3*
Y1358047D3*
X2259551Y1384480D3*
Y1451409D3*
X2331281Y1489423D3*
Y1556352D3*
D24*
X1229458Y2365123D3*
X1162529D3*
D25*
X2481378Y2143853D3*
Y2076924D3*
M02*
