G04 DipTrace 3.2.0.1*
G04 Plated_Through.gbr*
%MOIN*%
G04 #@! TF.FileFunction,Plated,1,2,PTH,Drill*
G04 #@! TF.Part,Single*
G04 Drill Symbols*
G04 D=0.015748 - Cross*
G04 D=0.027559 - X*
G04 D=0.031496 - Y*
G04 D=0.043307 - T*
G04 D=0.11811 - V*
%ADD10C,0.007874*%
%FSLAX26Y26*%
G04*
G70*
G90*
G75*
G01*
X649766Y769552D2*
D10*
X697010Y722308D1*
Y769552D2*
X649766Y722308D1*
X728507Y769552D2*
X775751Y722308D1*
Y769552D2*
X728507Y722308D1*
X1108306Y2390018D2*
Y2342774D1*
X1084684Y2366396D2*
X1131928D1*
X1229409Y2313768D2*
Y2266524D1*
X1205787Y2290146D2*
X1253031D1*
X1706538Y1676202D2*
Y1628958D1*
X1682916Y1652580D2*
X1730160D1*
X2386991Y1675059D2*
Y1627815D1*
X2363369Y1651437D2*
X2410613D1*
X1623110Y1460315D2*
Y1413071D1*
X1599488Y1436693D2*
X1646732D1*
X1458642Y2516031D2*
Y2468787D1*
X1435020Y2492409D2*
X1482264D1*
X2382786Y1580856D2*
Y1533612D1*
X2359164Y1557234D2*
X2406408D1*
X1647726Y1361508D2*
Y1314264D1*
X1624104Y1337886D2*
X1671348D1*
X1318370Y1722916D2*
Y1675672D1*
X1294748Y1699294D2*
X1341992D1*
X1945921Y1667726D2*
Y1620482D1*
X1922299Y1644104D2*
X1969543D1*
X1642731Y1697839D2*
Y1650594D1*
X1619109Y1674217D2*
X1666353D1*
X1978941Y1374007D2*
Y1326762D1*
X1955319Y1350385D2*
X2002563D1*
X1691471Y1374007D2*
Y1326762D1*
X1667849Y1350385D2*
X1715093D1*
X1662416Y1430122D2*
Y1382878D1*
X1638794Y1406500D2*
X1686038D1*
X1820717Y1605333D2*
Y1558089D1*
X1797094Y1581711D2*
X1844339D1*
X1910198Y1374007D2*
Y1326762D1*
X1886576Y1350385D2*
X1933820D1*
X1948530Y1602135D2*
Y1554891D1*
X1924908Y1578513D2*
X1972152D1*
X1464891Y2628531D2*
Y2581287D1*
X1441269Y2604909D2*
X1488513D1*
X2540433Y2235028D2*
Y2187783D1*
X2516811Y2211406D2*
X2564055D1*
X473504Y1054803D2*
X497126Y1031181D1*
X520748Y1054803D1*
X497126Y1031181D2*
Y1007559D1*
X2383966Y1477000D2*
Y1429756D1*
X2360344Y1453378D2*
X2407588D1*
X1434490Y1708525D2*
Y1661281D1*
X1410867Y1684903D2*
X1458112D1*
X1181640Y1008936D2*
Y961692D1*
X1158018Y985314D2*
X1205262D1*
X1001063Y1487874D2*
Y1440630D1*
X977441Y1464252D2*
X1024685D1*
X2497126Y2557862D2*
Y2510618D1*
X2473504Y2534240D2*
X2520748D1*
X2386327Y1376684D2*
Y1329440D1*
X2362705Y1353062D2*
X2409949D1*
X764843Y1696535D2*
Y1649291D1*
X741220Y1672913D2*
X788465D1*
X473504Y1259528D2*
X497126Y1235906D1*
X520748Y1259528D1*
X497126Y1235906D2*
Y1212283D1*
X473504Y1361890D2*
X497126Y1338268D1*
X520748Y1361890D1*
X497126Y1338268D2*
Y1314646D1*
X2311433Y2359558D2*
Y2312314D1*
X2287811Y2335936D2*
X2335055D1*
X473504Y1460315D2*
X497126Y1436693D1*
X520748Y1460315D1*
X497126Y1436693D2*
Y1413071D1*
X473504Y1161102D2*
X497126Y1137480D1*
X520748Y1161102D1*
X497126Y1137480D2*
Y1113858D1*
X902638Y1070551D2*
X926260Y1046929D1*
X949882Y1070551D1*
X926260Y1046929D2*
Y1023307D1*
X902638Y1275276D2*
X926260Y1251654D1*
X949882Y1275276D1*
X926260Y1251654D2*
Y1228031D1*
X902638Y1377638D2*
X926260Y1354016D1*
X949882Y1377638D1*
X926260Y1354016D2*
Y1330394D1*
X902638Y1476063D2*
X926260Y1452441D1*
X949882Y1476063D1*
X926260Y1452441D2*
Y1428819D1*
X902638Y1176850D2*
X926260Y1153228D1*
X949882Y1176850D1*
X926260Y1153228D2*
Y1129606D1*
X796339Y1487874D2*
X819961Y1464252D1*
X843583Y1487874D1*
X819961Y1464252D2*
Y1440630D1*
X682165Y1487874D2*
X705787Y1464252D1*
X729409Y1487874D1*
X705787Y1464252D2*
Y1440630D1*
X693976Y1070551D2*
X717598Y1046929D1*
X741220Y1070551D1*
X717598Y1046929D2*
Y1023307D1*
X1001063Y1637480D2*
Y1590236D1*
X977441Y1613858D2*
X1024685D1*
X1001063Y1342205D2*
Y1294961D1*
X977441Y1318583D2*
X1024685D1*
X1001063Y1188661D2*
Y1141417D1*
X977441Y1165039D2*
X1024685D1*
X1394140Y1008936D2*
Y961692D1*
X1370518Y985314D2*
X1417762D1*
X2382786Y1277407D2*
Y1230163D1*
X2359164Y1253785D2*
X2406408D1*
X2381450Y1185495D2*
Y1138251D1*
X2357828Y1161873D2*
X2405072D1*
X1672941Y2401751D2*
Y2354507D1*
X1649319Y2378129D2*
X1696563D1*
X1195428Y2540343D2*
Y2493098D1*
X1171806Y2516720D2*
X1219050D1*
X798012Y2439654D2*
Y2392409D1*
X774390Y2416031D2*
X821634D1*
X579803Y1617795D2*
Y1570551D1*
X556181Y1594173D2*
X603425D1*
X1387245Y1724273D2*
Y1677029D1*
X1363623Y1700651D2*
X1410867D1*
X1702850Y790201D2*
Y742957D1*
X1679228Y766579D2*
X1726472D1*
X1712196Y1824937D2*
Y1777693D1*
X1688573Y1801315D2*
X1735818D1*
X1011564Y2479972D2*
Y2432728D1*
X987942Y2456350D2*
X1035186D1*
X1749094Y1676850D2*
Y1629606D1*
X1725472Y1653228D2*
X1772717D1*
X1220152Y1961875D2*
Y1914631D1*
X1196530Y1938253D2*
X1243774D1*
X924833Y1965539D2*
Y1918295D1*
X901211Y1941917D2*
X948455D1*
X642705Y1967005D2*
Y1919761D1*
X619083Y1943383D2*
X666327D1*
X1460478Y2461281D2*
Y2414037D1*
X1436856Y2437659D2*
X1484100D1*
X1682101Y1796264D2*
Y1749020D1*
X1658479Y1772642D2*
X1705723D1*
X1760906Y1161102D2*
Y1113858D1*
X1737283Y1137480D2*
X1784528D1*
X1800276Y1165039D2*
Y1117795D1*
X1776654Y1141417D2*
X1823898D1*
X1949882Y836299D2*
Y789055D1*
X1926260Y812677D2*
X1973504D1*
X1819961Y1350079D2*
Y1302835D1*
X1796339Y1326457D2*
X1843583D1*
X1981378Y791024D2*
Y743780D1*
X1957756Y767402D2*
X2005000D1*
X1973504Y1094173D2*
Y1046929D1*
X1949882Y1070551D2*
X1997126D1*
X2241220Y838268D2*
Y791024D1*
X2217598Y814646D2*
X2264843D1*
X1938071Y1149291D2*
Y1102047D1*
X1914449Y1125669D2*
X1961693D1*
X2379016Y791024D2*
Y743780D1*
X2355394Y767402D2*
X2402638D1*
X2477441Y1850079D2*
Y1802835D1*
X2453819Y1826457D2*
X2501063D1*
X2548307Y2136602D2*
Y2089358D1*
X2524685Y2112980D2*
X2571929D1*
X2241156Y2212709D2*
Y2165465D1*
X2217534Y2189087D2*
X2264778D1*
M02*
