M48
INCH
T01C0.0157
T02C0.0276
T03C0.0315
T04C0.0433
T05C0.1181
%
T01
X+011083Y+023664
X+010116Y+024564
X+011954Y+025167
X+012294Y+022901
X+014605Y+024377
X+014586Y+024924
X+014649Y+026049
X+016729Y+023781
X+017122Y+018013
X+016821Y+017726
X+016427Y+016742
X+017065Y+016526
X+017491Y+016532
X+018207Y+015817
X+019485Y+015785
X+019459Y+016441
X+019789Y+013504
X+019102Y+013504
X+018200Y+013265
X+016915Y+013504
X+016477Y+013379
X+016624Y+014065
X+016231Y+014367
X+014345Y+016849
X+013872Y+017007
X+013184Y+016993
X+012202Y+019383
X+009248Y+019419
X+006427Y+019434
X+007648Y+016729
X+005798Y+015942
X+010011Y+016139
X+010011Y+014643
X+010011Y+013186
X+010011Y+011650
X+011816Y+009853
X+013941Y+009853
X+017029Y+007666
X+019499Y+008127
X+019814Y+007674
X+022412Y+008146
X+023790Y+007674
X+023815Y+011619
X+023828Y+012538
X+023863Y+013531
X+023840Y+014534
X+023828Y+015572
X+023870Y+016514
X+024774Y+018265
X+025483Y+021130
X+025404Y+022114
X+023114Y+023359
X+022412Y+021891
X+024971Y+025342
X+019381Y+011257
X+019735Y+010706
X+018003Y+011414
X+017609Y+011375
X+007980Y+024160
T02
X+006734Y+007459
X+007521Y+007459
T03
X+004971Y+010312
X+004971Y+011375
X+004971Y+012359
X+004971Y+013383
X+004971Y+014367
X+007058Y+014643
X+008200Y+014643
X+009263Y+014524
X+009263Y+013540
X+009263Y+012517
X+009263Y+011532
X+009263Y+010469
X+007176Y+010469
T04
X+006143Y+006790
T05
X+005168Y+026524
X+005168Y+005247
X+026517Y+005207
X+026517Y+026524
T00
M30
