G04 DipTrace 3.2.0.1*
G04 Top.gbr*
%MOIN*%
G04 #@! TF.FileFunction,Copper,L1,Top*
G04 #@! TF.Part,Single*
G04 #@! TA.AperFunction,Conductor*
%ADD14C,0.007874*%
%ADD15C,0.019685*%
%ADD16C,0.015748*%
G04 #@! TA.AperFunction,ViaPad*
%ADD17C,0.027559*%
G04 #@! TA.AperFunction,Conductor*
%ADD18C,0.023622*%
%ADD19C,0.011811*%
G04 #@! TA.AperFunction,CopperBalancing*
%ADD20C,0.025*%
%ADD22R,0.059055X0.059055*%
%ADD23R,0.021654X0.059055*%
%ADD24R,0.043307X0.03937*%
%ADD25R,0.03937X0.043307*%
%ADD26R,0.03937X0.07874*%
%ADD27R,0.027559X0.035433*%
%ADD29R,0.031496X0.041339*%
%ADD30R,0.059055X0.051181*%
%ADD31R,0.051181X0.059055*%
%ADD32R,0.110236X0.03937*%
%ADD33R,0.066929X0.023622*%
%ADD34R,0.03937X0.110236*%
%ADD35R,0.023622X0.066929*%
G04 #@! TA.AperFunction,ComponentPad*
%ADD36R,0.047244X0.047244*%
%ADD37C,0.047244*%
%ADD38R,0.022441X0.018898*%
%ADD40R,0.047244X0.011811*%
%ADD41R,0.011811X0.047244*%
%ADD43R,0.03X0.045*%
%ADD45R,0.03937X0.108268*%
%ADD46R,0.218504X0.242126*%
%ADD47R,0.03937X0.047244*%
G04 #@! TA.AperFunction,ViaPad*
%ADD49C,0.062992*%
%FSLAX26Y26*%
G04*
G70*
G90*
G75*
G01*
G04 Top*
%LPD*%
X1348009Y2605598D2*
D14*
X1354552Y2599055D1*
Y2543879D1*
X1945921Y1644104D2*
X2030329D1*
Y1643927D1*
X1577573Y1407706D2*
X1665501D1*
X1662416Y1406500D1*
X1656314Y1722667D2*
X1656891Y1723244D1*
Y1688377D1*
X1642731Y1674217D1*
X1695684Y1269911D2*
X1693810Y1271785D1*
Y1350385D1*
X1691471D1*
X1951589Y1269911D2*
X1950739D1*
Y1317470D1*
X1983654Y1350385D1*
X1978941D1*
X719402Y1234713D2*
X774848Y1290159D1*
Y1554087D1*
X719402Y1234713D2*
D15*
X461693D1*
Y2155382D1*
D14*
X1414449D1*
Y2143853D1*
X461693Y2155382D2*
D15*
Y2258650D1*
X878327Y2675283D1*
X1345277D1*
Y2605598D1*
X1348009D1*
X1345277Y2675283D2*
X1761841D1*
X2139891D1*
X2248451Y2566723D1*
Y2470058D1*
X2375264Y2343245D1*
Y2258731D1*
X2356008Y2239475D1*
X2309479D1*
X1761841Y2675283D2*
D14*
Y2377962D1*
X1761710D1*
X719402Y1234713D2*
D16*
Y1292827D1*
X890827Y1464252D1*
Y1590236D1*
X1012874Y1712283D1*
X1209724D1*
X1233346Y1735906D1*
X1418386D1*
Y1787087D1*
X719402Y1234713D2*
D14*
X629277Y1324837D1*
Y1471639D1*
X719402Y1234713D2*
Y1202606D1*
X967388Y954619D1*
X1115171D1*
X1119140D1*
Y910312D1*
X1150390Y879063D1*
X1431640D1*
X1449816Y897239D1*
Y954619D1*
X1418386Y1735906D2*
D16*
X1509881D1*
X1571570Y1674217D1*
X1642731D1*
X1577573Y1643927D2*
D14*
X1617745D1*
X1648035Y1674217D1*
X1642731D1*
X1296623Y1889157D2*
D16*
X1005371D1*
X1002589Y1891940D1*
X717892D1*
X712092Y1886140D1*
Y1464252D1*
X705787D1*
X752129Y745930D2*
D17*
X746406Y751654D1*
X760906D1*
X804213Y794961D1*
Y891194D1*
X809165D1*
Y970933D1*
X746207Y891194D2*
D14*
X804213D1*
X752129Y745930D2*
D18*
X832587Y665472D1*
X1098664D1*
X1392126Y665567D2*
D15*
X1098664D1*
Y665472D1*
X1392126Y665567D2*
X1688505D1*
Y664949D1*
D16*
X1827744D1*
X1827835Y665039D1*
X2034528D1*
D19*
X2325866D1*
X1663416Y928671D2*
D14*
X1660462D1*
Y1054310D1*
X1715369Y1109217D1*
Y1269911D1*
X1909121Y901287D2*
X1850259D1*
X1810861Y861890D1*
X1682165D1*
X1663416Y880639D1*
Y928671D1*
X1712629D2*
X1710462D1*
Y1073060D1*
X1735054Y1097652D1*
Y1269911D1*
X1712629Y928671D2*
Y940673D1*
X1779135D1*
X1827416Y988954D1*
X1890827D1*
Y1003622D1*
X1243123Y954619D2*
Y1041234D1*
Y1202375D1*
X1428769Y1388021D1*
X1577573D1*
X1321864Y954619D2*
Y1041234D1*
X1577573Y1368336D2*
X1578780Y1367130D1*
X1431500D1*
X1298241Y1233871D1*
Y1041234D1*
X1321864D1*
X1229409Y2290146D2*
Y2369251D1*
X1230362D1*
X1229409Y2290146D2*
X1308396Y2211159D1*
X1377218D1*
X1404552Y2238493D1*
Y2303381D1*
X1229409Y2290146D2*
Y2321966D1*
X1158543D1*
X1013042D1*
Y2320038D1*
X711152Y2319772D2*
X711419Y2320038D1*
X1013042D1*
X1193101Y2227154D2*
Y2321966D1*
X1158543D1*
X1013042Y2369251D2*
X1105559D1*
X1155559D1*
Y2405272D1*
X1166417Y2416130D1*
X1331772D1*
X1351457Y2396445D1*
Y2303381D1*
X1354552D1*
X711152Y2368984D2*
X711419Y2369251D1*
X1013042D1*
X1108306Y2366396D2*
X1106818D1*
Y2423613D1*
X1134921Y2451717D1*
Y2518492D1*
X1712196Y1801315D2*
X1715736Y1797774D1*
Y1722667D1*
X1715369D1*
X1304552Y2543879D2*
Y2504421D1*
X1371315Y2437659D1*
X1460478D1*
X1454552Y2543879D2*
X1458642D1*
Y2492409D1*
X1682101Y1772642D2*
X1693912Y1760831D1*
Y1722667D1*
X1695684D1*
X2448144Y1206693D2*
X2279995D1*
X2098667Y1388021D1*
X2030329D1*
X2448144Y1305118D2*
X2246668D1*
X2124395Y1427391D1*
X2030329D1*
X2448144Y1403543D2*
X2444752Y1400151D1*
X2328469D1*
X2261858Y1466761D1*
X2030329D1*
X2448144Y1501969D2*
Y1506131D1*
X2030329D1*
X2448144Y1600394D2*
X2282874D1*
X2227982Y1545501D1*
X2030329D1*
X2597520Y2164161D2*
X2485315D1*
X2323898Y2002744D1*
Y1822520D1*
X2086249Y1584871D1*
X2030329D1*
X1577573Y1348651D2*
X1523257D1*
X1473638Y1299031D1*
Y875478D1*
X1308539Y710379D1*
X1100235D1*
Y714685D1*
X1098664D1*
X1392126Y714780D2*
X1397844Y720497D1*
Y758927D1*
X1501063Y862146D1*
Y1172913D1*
X1599488Y1271339D1*
X1654606D1*
X1656314Y1273046D1*
Y1269911D1*
X1688505Y714161D2*
X1702850Y728507D1*
Y766579D1*
X1760906Y1137480D2*
X1754739Y1143647D1*
Y1269911D1*
X1774424D2*
X1772717D1*
Y1172913D1*
X1800276Y1145354D1*
Y1141417D1*
X1949882Y812677D2*
X2034528D1*
X1794109Y1269911D2*
X1792402D1*
Y1306772D1*
X1819961Y1334331D1*
Y1326457D1*
X1981378Y767402D2*
X2034528D1*
Y763465D1*
X1813794Y1269911D2*
X1812087Y1271618D1*
Y1172913D1*
X2099488Y885512D1*
Y731969D1*
X2081772Y714252D1*
X2034528D1*
X1833479Y1269911D2*
X1831772Y1268203D1*
Y1192598D1*
X1953819Y1070551D1*
X1973504D1*
X2241220Y814646D2*
X2243189Y812677D1*
X2325866D1*
X1853164Y1269911D2*
X1851457Y1268203D1*
Y1212283D1*
X1938071Y1125669D1*
X2379016Y767402D2*
Y763465D1*
X2325866D1*
X1872849Y1269911D2*
X1871142Y1268203D1*
Y1235906D1*
X2190039Y917008D1*
X2327835D1*
X2414449Y830394D1*
Y747717D1*
X2380984Y714252D1*
X2325866D1*
X1192961Y2463739D2*
X1195428Y2466206D1*
Y2516720D1*
X1675999Y1722667D2*
X1677299Y1721366D1*
Y1672394D1*
X1697113Y1652580D1*
X1706538D1*
X1577573Y1427391D2*
X1578780Y1426185D1*
X1608664D1*
X1623110Y1440631D1*
Y1436693D1*
X1647726Y1337886D2*
X1649391D1*
X1675196Y1312081D1*
Y1269911D1*
X1675999D1*
X1910198Y1350385D2*
X1931904Y1328678D1*
Y1269911D1*
X1948530Y1578513D2*
Y1585558D1*
X1987214Y1624241D1*
X2030329D1*
X1672941Y2378129D2*
X1673108Y2377962D1*
X1712497D1*
X1414938Y2605598D2*
X1404552D1*
Y2543879D1*
X1414938Y2605598D2*
X1415627Y2604909D1*
X1464891D1*
X1537312Y2630640D2*
X1510849D1*
X1485118Y2604909D1*
X1464891D1*
X1433730Y1630846D2*
X1434490Y1631606D1*
Y1684903D1*
X1277496Y1699589D2*
X1318370D1*
Y1699294D1*
X673388Y745930D2*
D17*
X629638Y789681D1*
Y889988D1*
Y970933D1*
X679278Y891194D2*
D14*
X678072Y889988D1*
X629638D1*
X673388Y745930D2*
D18*
X803059Y616260D1*
X1098664D1*
D15*
X1392126D1*
Y616354D1*
X1688505D1*
Y615736D1*
X1058104Y1464846D2*
D14*
X1001063D1*
Y1464252D1*
X769832Y1616986D2*
X777463D1*
X764843Y1629606D1*
Y1672913D1*
X1058104Y1614846D2*
X1057115Y1613858D1*
X1001063D1*
X1058104Y1314846D2*
X1054367Y1318583D1*
X1001063D1*
X1058104Y1164846D2*
X1057911Y1165039D1*
X1001063D1*
X1181640Y985314D2*
X1176194Y990760D1*
Y1041234D1*
X1394140Y985314D2*
X1388793Y990661D1*
Y1041234D1*
X629277Y1589749D2*
D16*
X624853Y1594173D1*
X579803D1*
X1391182Y1649470D2*
D14*
X1387245Y1653407D1*
Y1700651D1*
X2597520Y2213374D2*
X2595551Y2211406D1*
X2540433D1*
X2448144Y1649606D2*
X2446314Y1651437D1*
X2386991D1*
X711152Y2418197D2*
X713318Y2416031D1*
X798012D1*
X1013042Y2418463D2*
X1011564Y2419941D1*
Y2456350D1*
X1735054Y1722667D2*
X1733346D1*
Y1676850D1*
X1749094Y1661102D1*
Y1653228D1*
X2325866Y615827D2*
D19*
X2034528D1*
D16*
X1857362D1*
X1857272Y615736D1*
X1688505D1*
X2446248Y2538354D2*
D14*
X2442008D1*
Y2567398D1*
X2423984Y2585421D1*
X2294364D1*
Y2576882D1*
X2446248Y2538354D2*
X2497126D1*
Y2534240D1*
X2309479Y2288688D2*
Y2335936D1*
X2311433D1*
X642705Y1943383D2*
X644935Y1941152D1*
X717892D1*
X924833Y1941917D2*
X928380Y1938370D1*
X1005371D1*
X1220152Y1938253D2*
X1220269Y1938370D1*
X1296623D1*
X1414449Y2076924D2*
Y2069050D1*
X1607362D1*
X1714900D1*
X1774424Y2009526D1*
Y1722667D1*
X1607362Y2069050D2*
Y2116917D1*
X1615236D1*
X717892Y2039577D2*
X720675Y2036795D1*
X1005371D1*
X1296623D1*
X1299050Y2034369D1*
X1344299D1*
X1386854Y2076924D1*
X1414449D1*
X1418386Y1854016D2*
X1421020Y1851382D1*
X1575866D1*
X1702920D1*
X1754739Y1799563D1*
Y1722667D1*
X1583740Y1798898D2*
X1575866D1*
Y1851382D1*
X717892Y1990365D2*
X720675Y1987583D1*
X1005371D1*
X1296623D1*
X1298224Y1985982D1*
X1340759D1*
X1418386Y1908354D1*
Y1854016D1*
X1145606Y1613223D2*
Y1602047D1*
X1150669D1*
X1246585Y1506131D1*
X1577573D1*
X1145606Y1463223D2*
X1413420D1*
X1438094Y1487898D1*
X1577573D1*
Y1486446D1*
Y1466761D2*
X1578257Y1466077D1*
X1447770D1*
X1296736Y1315043D1*
X1145608D1*
X1577573Y1447076D2*
X1576585Y1446088D1*
X1463214D1*
X1182169Y1165043D1*
X1145608D1*
X1537312Y2563711D2*
Y2386140D1*
X1454552Y2303381D1*
X1577573Y1545501D2*
X1576881Y1546194D1*
X1526256D1*
X1515732Y1535671D1*
X1240668D1*
X1227501Y1548837D1*
Y1584789D1*
X1058104Y1090043D2*
X1066175Y1098114D1*
X1145608D1*
X1058104Y1240043D2*
X1066175Y1248114D1*
X1145608D1*
X1058104Y1390043D2*
X1064354Y1396294D1*
X1145606D1*
X1058104Y1540043D2*
X1064354Y1546294D1*
X1145606D1*
X841777Y1554087D2*
Y1616986D1*
X844635D1*
X1577573Y1565186D2*
X1467592D1*
X1453113Y1579665D1*
X1433730D1*
X1430854Y1582541D1*
X1391182D1*
X1340001Y1649470D2*
Y1645533D1*
X1277496D1*
Y1648408D1*
X1227501Y1651718D2*
X1232470Y1646749D1*
X1277496D1*
X2448144Y1157480D2*
X2443752Y1161873D1*
X2381450D1*
X2380566Y1160988D1*
X2297031D1*
X2089684Y1368336D1*
X2030329D1*
X2448144Y1255906D2*
X2446024Y1253785D1*
X2382786D1*
X2377507Y1259064D1*
X2258497D1*
X2109856Y1407706D1*
X2030329D1*
X2448144Y1354331D2*
X2446875Y1353062D1*
X2386327D1*
X2384648Y1354740D1*
X2319749D1*
X2227413Y1447076D1*
X2030329D1*
X2448144Y1452756D2*
X2447522Y1453378D1*
X2383966D1*
X2350898Y1486446D1*
X2030329D1*
X2448144Y1551181D2*
X2442092Y1557234D1*
X2382786D1*
X2351369Y1525816D1*
X2030329D1*
X2477441Y1826457D2*
X2216171Y1565186D1*
X2030329D1*
X2597520Y2114949D2*
X2595551Y2116917D1*
X2548307D1*
Y2112980D1*
X2309479Y2141050D2*
X2153749D1*
X1951589Y1938890D1*
Y1722667D1*
X2024685Y1724094D2*
X2023257Y1722667D1*
X1951589D1*
X2309479Y2091837D2*
X2303753Y2097563D1*
Y2115965D1*
Y1841745D1*
X2144764Y1682756D1*
X2066564Y1604556D1*
X2030329D1*
X2103425Y1724094D2*
X2144764Y1682756D1*
X1810923Y2377962D2*
X1808413Y2375453D1*
Y2239542D1*
X1853164Y2194791D1*
Y1722667D1*
X1810923Y2377962D2*
X1808150Y2380735D1*
Y2505239D1*
X1860135Y2377962D2*
X1858374Y2376201D1*
Y2224987D1*
X1892534Y2190827D1*
Y1722667D1*
X1860135Y2377962D2*
X1859331D1*
Y2422997D1*
X1900693Y2464360D1*
Y2509176D1*
X1902638D1*
X1909348Y2377962D2*
X1910512Y2376798D1*
Y2121314D1*
Y1722667D1*
X1912219D1*
X2032559Y2121314D2*
X1910512D1*
X2309479Y2190262D2*
X2310655Y2189087D1*
X2364571D1*
X2398701Y2223217D1*
Y2435205D1*
X2400579D1*
X2374552D1*
X2299804Y2509953D1*
X2294364D1*
X1820717Y1581711D2*
X1764822Y1525816D1*
X1577573D1*
X2241156Y2189087D2*
X2242332Y2190262D1*
X2309479D1*
D17*
X1460478Y2437659D3*
X1682101Y1772642D3*
X1760906Y1137480D3*
X1800276Y1141417D3*
X1949882Y812677D3*
X1819961Y1326457D3*
X1981378Y767402D3*
X1973504Y1070551D3*
X2241220Y814646D3*
X1938071Y1125669D3*
X2379016Y767402D3*
X2477441Y1826457D3*
X2548307Y2112980D3*
X2241156Y2189087D3*
X1108306Y2366396D3*
X1229409Y2290146D3*
X1706538Y1652580D3*
X2386991Y1651437D3*
X1623110Y1436693D3*
X1458642Y2492409D3*
X2382786Y1557234D3*
X1647726Y1337886D3*
X1318370Y1699294D3*
X1945921Y1644104D3*
X1642731Y1674217D3*
X1978941Y1350385D3*
X1691471D3*
X1662416Y1406500D3*
X1820717Y1581711D3*
X1910198Y1350385D3*
X1948530Y1578513D3*
X1464891Y2604909D3*
X2540433Y2211406D3*
D49*
X497126Y1031181D3*
D17*
X2383966Y1453378D3*
X1434490Y1684903D3*
X1181640Y985314D3*
X1001063Y1464252D3*
X2497126Y2534240D3*
X2386327Y1353062D3*
X764843Y1672913D3*
D49*
X497126Y1235906D3*
Y1338268D3*
D17*
X2311433Y2335936D3*
D49*
X497126Y1436693D3*
Y1137480D3*
X926260Y1046929D3*
Y1251654D3*
Y1354016D3*
Y1452441D3*
Y1153228D3*
X819961Y1464252D3*
X705787D3*
X717598Y1046929D3*
D17*
X1001063Y1613858D3*
Y1318583D3*
Y1165039D3*
X1394140Y985314D3*
X2382786Y1253785D3*
X2381450Y1161873D3*
X1672941Y2378129D3*
X1195428Y2516720D3*
X798012Y2416031D3*
X579803Y1594173D3*
X1387245Y1700651D3*
X1702850Y766579D3*
X1712196Y1801315D3*
X1011564Y2456350D3*
X1749094Y1653228D3*
X1220152Y1938253D3*
X924833Y1941917D3*
X642705Y1943383D3*
X1630196Y1645289D2*
D20*
X1658855D1*
X1791065D2*
X1962722D1*
X1630196Y1620420D2*
X1679811D1*
X1774953D2*
X1807093D1*
X1834341D2*
X1937855D1*
X1630196Y1595551D2*
X1780395D1*
X1861039D2*
X1909542D1*
X1630196Y1570682D2*
X1764139D1*
X1861936D2*
X1906528D1*
X1841482Y1545814D2*
X1922532D1*
X1805490Y1520945D2*
X1977722D1*
X1773768Y1496076D2*
X1977722D1*
X1646344Y1471207D2*
X1977722D1*
X1664716Y1446339D2*
X1977722D1*
X1662886Y1421470D2*
X1977722D1*
X1631559Y1396601D2*
X1977722D1*
X1672037Y1371732D2*
X1873550D1*
X1946838D2*
X1977722D1*
X1689476Y1346864D2*
X1782727D1*
X1958787D2*
X1977722D1*
X1980193Y1668075D2*
X1968665D1*
Y1670192D1*
X1785638Y1670157D1*
X1787395Y1665673D1*
X1788870Y1659528D1*
X1789366Y1653228D1*
X1788870Y1646928D1*
X1787395Y1640784D1*
X1784977Y1634945D1*
X1781675Y1629557D1*
X1777571Y1624752D1*
X1772766Y1620648D1*
X1767377Y1617346D1*
X1761539Y1614928D1*
X1755394Y1613453D1*
X1749094Y1612957D1*
X1742795Y1613453D1*
X1736650Y1614928D1*
X1730812Y1617346D1*
X1728344Y1618728D1*
X1721949Y1615374D1*
X1715939Y1613421D1*
X1709698Y1612433D1*
X1703378D1*
X1697137Y1613421D1*
X1691127Y1615374D1*
X1685496Y1618243D1*
X1680384Y1621957D1*
X1675915Y1626426D1*
X1672201Y1631538D1*
X1669100Y1637559D1*
X1654161Y1652632D1*
X1651354Y1656494D1*
X1649186Y1660749D1*
X1647711Y1665290D1*
X1646963Y1670016D1*
X1627676Y1670157D1*
X1627688Y1556240D1*
X1752222Y1556245D1*
X1780569Y1584871D1*
X1781558Y1591113D1*
X1783510Y1597123D1*
X1786379Y1602753D1*
X1790094Y1607866D1*
X1794562Y1612334D1*
X1799675Y1616049D1*
X1805305Y1618917D1*
X1811315Y1620870D1*
X1817557Y1621859D1*
X1823876D1*
X1830118Y1620870D1*
X1836128Y1618917D1*
X1841758Y1616049D1*
X1846871Y1612334D1*
X1851339Y1607866D1*
X1855054Y1602753D1*
X1857923Y1597123D1*
X1859875Y1591113D1*
X1860864Y1584871D1*
Y1578552D1*
X1859875Y1572310D1*
X1857923Y1566300D1*
X1855054Y1560669D1*
X1851339Y1555557D1*
X1846871Y1551088D1*
X1841758Y1547374D1*
X1836128Y1544505D1*
X1830118Y1542552D1*
X1823592Y1541553D1*
X1784584Y1502678D1*
X1780721Y1499871D1*
X1776466Y1497703D1*
X1771925Y1496228D1*
X1767209Y1495481D1*
X1691331Y1495387D1*
X1628067D1*
X1628232Y1476646D1*
X1635555Y1474994D1*
X1641393Y1472575D1*
X1646781Y1469273D1*
X1651587Y1465169D1*
X1655691Y1460364D1*
X1658993Y1454976D1*
X1661411Y1449138D1*
X1662886Y1442993D1*
X1663382Y1436693D1*
X1662886Y1430393D1*
X1661411Y1424248D1*
X1658993Y1418410D1*
X1655691Y1413022D1*
X1651587Y1408217D1*
X1646781Y1404112D1*
X1641393Y1400811D1*
X1635555Y1398392D1*
X1629079Y1396878D1*
X1629443Y1373768D1*
X1635281Y1376186D1*
X1641426Y1377662D1*
X1647726Y1378157D1*
X1654026Y1377662D1*
X1660170Y1376186D1*
X1666009Y1373768D1*
X1671397Y1370466D1*
X1676202Y1366362D1*
X1680306Y1361557D1*
X1683608Y1356169D1*
X1686026Y1350330D1*
X1687502Y1344186D1*
X1687686Y1342628D1*
X1698334Y1331844D1*
X1701141Y1327981D1*
X1703312Y1323717D1*
X1709230Y1322088D1*
X1766462Y1322678D1*
X1769263Y1326534D1*
X1781720Y1339123D1*
X1784078Y1344740D1*
X1787380Y1350128D1*
X1791484Y1354933D1*
X1796290Y1359037D1*
X1801678Y1362339D1*
X1807516Y1364757D1*
X1813661Y1366233D1*
X1819961Y1366728D1*
X1826261Y1366233D1*
X1832405Y1364757D1*
X1838244Y1362339D1*
X1843632Y1359037D1*
X1848437Y1354933D1*
X1852541Y1350128D1*
X1855843Y1344740D1*
X1858261Y1338901D1*
X1859736Y1332757D1*
X1860232Y1326457D1*
X1860122Y1323655D1*
X1879922Y1323848D1*
X1875861Y1329343D1*
X1872992Y1334973D1*
X1871039Y1340983D1*
X1870051Y1347225D1*
Y1353544D1*
X1871039Y1359786D1*
X1872992Y1365796D1*
X1875861Y1371426D1*
X1879575Y1376539D1*
X1884044Y1381007D1*
X1889156Y1384722D1*
X1894787Y1387591D1*
X1900797Y1389543D1*
X1907038Y1390532D1*
X1913358D1*
X1919599Y1389543D1*
X1925609Y1387591D1*
X1931240Y1384722D1*
X1936353Y1381007D1*
X1940821Y1376539D1*
X1944535Y1371426D1*
X1947404Y1365796D1*
X1949357Y1359786D1*
X1950357Y1353260D1*
X1955043Y1348441D1*
X1957849Y1344578D1*
X1960017Y1340323D1*
X1961493Y1335782D1*
X1962240Y1331066D1*
X1962333Y1324695D1*
X1980249Y1324882D1*
X1980251Y1400733D1*
X1980215Y1459788D1*
Y1553668D1*
X1977007Y1550037D1*
X1972201Y1545933D1*
X1966813Y1542631D1*
X1960975Y1540213D1*
X1954830Y1538737D1*
X1948530Y1538241D1*
X1942230Y1538737D1*
X1936086Y1540213D1*
X1930247Y1542631D1*
X1924859Y1545933D1*
X1920054Y1550037D1*
X1915950Y1554842D1*
X1912648Y1560230D1*
X1910230Y1566068D1*
X1908754Y1572213D1*
X1908259Y1578513D1*
X1908754Y1584813D1*
X1910230Y1590958D1*
X1912648Y1596796D1*
X1915950Y1602184D1*
X1920054Y1606989D1*
X1924859Y1611094D1*
X1930247Y1614395D1*
X1937025Y1617079D1*
X1967452Y1647380D1*
X1971315Y1650187D1*
X1975569Y1652354D1*
X1980119Y1653832D1*
X1980215Y1668046D1*
X468837Y1474127D2*
X959505D1*
X468837Y1449259D2*
X961192D1*
X468837Y1424390D2*
X962448D1*
X468837Y1399521D2*
X962448D1*
X468837Y1374652D2*
X962448D1*
X468837Y1349783D2*
X962448D1*
X468837Y1324915D2*
X958787D1*
X468837Y1300046D2*
X962448D1*
X468837Y1275177D2*
X962448D1*
X468837Y1250308D2*
X962448D1*
X468837Y1225440D2*
X962448D1*
X468837Y1200571D2*
X962448D1*
X468837Y1175702D2*
X959720D1*
X468837Y1150833D2*
X960869D1*
X468837Y1125965D2*
X962448D1*
X468837Y1101096D2*
X962448D1*
X468837Y1076227D2*
X962448D1*
X468837Y1051358D2*
X580963D1*
X678329D2*
X760491D1*
X857857D2*
X962448D1*
X468837Y1026490D2*
X580963D1*
X678329D2*
X760491D1*
X857857D2*
X962448D1*
X468837Y1001621D2*
X580963D1*
X678329D2*
X760491D1*
X857857D2*
X962448D1*
X592647Y1051559D2*
X675815D1*
Y988582D1*
X762961Y988563D1*
X762988Y1051559D1*
X855343D1*
Y988582D1*
X964917Y988563D1*
X964941Y1147266D1*
X962762Y1152595D1*
X961287Y1158739D1*
X960791Y1165039D1*
X961287Y1171339D1*
X962762Y1177484D1*
X964938Y1182795D1*
X964941Y1300779D1*
X962762Y1306138D1*
X961287Y1312283D1*
X960791Y1318583D1*
X961287Y1324883D1*
X962762Y1331027D1*
X964938Y1336338D1*
X964941Y1446469D1*
X962762Y1451807D1*
X961287Y1457952D1*
X960791Y1464252D1*
X961287Y1470552D1*
X962762Y1476697D1*
X964938Y1482008D1*
X964941Y1498931D1*
X466307Y1495153D1*
X466319Y988566D1*
X583468Y988563D1*
X583461Y1051559D1*
X592647D1*
D22*
X1909121Y901287D3*
X1890827Y1003622D3*
D23*
X1243123Y954619D3*
X1115171D3*
X1321864D3*
X1449816D3*
D26*
X629277Y1589749D3*
Y1471639D3*
D27*
X1277496Y1699589D3*
Y1648408D3*
X1433730Y1630846D3*
Y1579665D3*
D25*
X2294364Y2576882D3*
Y2509953D3*
D24*
X1414938Y2605598D3*
X1348009D3*
X679278Y891194D3*
X746207D3*
D22*
X1193101Y2227154D3*
X1134921Y2518492D3*
D29*
X1155559Y2369251D3*
X1230362D3*
X1192961Y2463739D3*
D30*
X1058104Y1390043D3*
Y1464846D3*
Y1240043D3*
Y1314846D3*
Y1090043D3*
Y1164846D3*
Y1540043D3*
Y1614846D3*
D31*
X844635Y1616986D3*
X769832D3*
D22*
X1615236Y2116917D3*
X1583740Y1798898D3*
D32*
X2580034Y1084646D3*
Y1771654D3*
D33*
X2448144Y1452756D3*
Y1206693D3*
Y1255906D3*
Y1157480D3*
Y1305118D3*
Y1354331D3*
Y1501969D3*
Y1403543D3*
Y1551181D3*
Y1600394D3*
Y1649606D3*
Y1698819D3*
D32*
X586003Y2112412D3*
Y1819105D3*
D33*
X717892Y1990365D3*
Y1941152D3*
Y2039577D3*
Y1891940D3*
D32*
X1230554Y543425D3*
Y789488D3*
D33*
X1098664Y616260D3*
Y665472D3*
Y714685D3*
D32*
X1524016Y543520D3*
Y789583D3*
D33*
X1392126Y616354D3*
Y665567D3*
Y714780D3*
D32*
X1820395Y542902D3*
Y788965D3*
D33*
X1688505Y615736D3*
Y664949D3*
Y714161D3*
D32*
X2166417Y542992D3*
Y885512D3*
D33*
X2034528Y615827D3*
Y665039D3*
Y714252D3*
Y615827D3*
Y763465D3*
Y812677D3*
D32*
X2457756Y542992D3*
Y885512D3*
D33*
X2325866Y615827D3*
Y665039D3*
Y714252D3*
Y615827D3*
Y763465D3*
Y812677D3*
D32*
X873482Y2109630D3*
Y1816323D3*
D33*
X1005371Y1987583D3*
Y1938370D3*
Y2036795D3*
Y1889157D3*
D32*
X1164734Y2109630D3*
Y1816323D3*
D33*
X1296623Y1987583D3*
Y1938370D3*
Y2036795D3*
Y1889157D3*
D32*
X2465630Y2286209D3*
Y2040146D3*
D33*
X2597520Y2213374D3*
Y2164161D3*
Y2114949D3*
D34*
X1639663Y2246072D3*
X1982182D3*
D35*
X1761710Y2377962D3*
X1810923D3*
X1712497D3*
X1860135D3*
X1909348D3*
D32*
X881152Y2491298D3*
Y2245235D3*
D33*
X1013042Y2418463D3*
Y2369251D3*
Y2320038D3*
D32*
X2177589Y2361522D3*
Y2019003D3*
D33*
X2309479Y2239475D3*
Y2190262D3*
Y2288688D3*
Y2141050D3*
Y2091837D3*
D36*
X673388Y745930D3*
D37*
X752129D3*
D34*
X1785463Y1060560D3*
X1588613D3*
D35*
X1712629Y928671D3*
X1663416D3*
D32*
X579262Y2491031D3*
Y2244969D3*
D33*
X711152Y2418197D3*
Y2368984D3*
Y2319772D3*
D24*
X1388793Y1041234D3*
X1321864D3*
X1176194D3*
X1243123D3*
D25*
X1414449Y2076924D3*
Y2143853D3*
X1418386Y1854016D3*
Y1787087D3*
X1145608Y1098114D3*
Y1165043D3*
Y1248114D3*
Y1315043D3*
X1145606Y1396294D3*
Y1463223D3*
Y1546294D3*
Y1613223D3*
X1227501Y1584789D3*
Y1651718D3*
X1537312Y2563711D3*
Y2630640D3*
D24*
X841777Y1554087D3*
X774848D3*
D38*
X2446248Y2435205D3*
Y2538354D3*
X2400579Y2435205D3*
Y2538354D3*
D22*
X2103425Y1724094D3*
X2024685D3*
D40*
X1577573Y1643927D3*
Y1624241D3*
Y1604556D3*
Y1584871D3*
Y1565186D3*
Y1545501D3*
Y1525816D3*
Y1506131D3*
Y1486446D3*
Y1466761D3*
Y1447076D3*
Y1427391D3*
Y1407706D3*
Y1388021D3*
Y1368336D3*
Y1348651D3*
D41*
X1656314Y1269911D3*
X1675999D3*
X1695684D3*
X1715369D3*
X1735054D3*
X1754739D3*
X1774424D3*
X1794109D3*
X1813794D3*
X1833479D3*
X1853164D3*
X1872849D3*
X1892534D3*
X1912219D3*
X1931904D3*
X1951589D3*
D40*
X2030329Y1348651D3*
Y1368336D3*
Y1388021D3*
Y1407706D3*
Y1427391D3*
Y1447076D3*
Y1466761D3*
Y1486446D3*
Y1506131D3*
Y1525816D3*
Y1545501D3*
Y1565186D3*
Y1584871D3*
Y1604556D3*
Y1624241D3*
Y1643927D3*
D41*
X1951589Y1722667D3*
X1931904D3*
X1912219D3*
X1892534D3*
X1872849D3*
X1853164D3*
X1833479D3*
X1813794D3*
X1794109D3*
X1774424D3*
X1754739D3*
X1735054D3*
X1715369D3*
X1695684D3*
X1675999D3*
X1656314D3*
D43*
X1454552Y2543879D3*
X1404552D3*
X1354552D3*
X1304552D3*
Y2303381D3*
X1354552D3*
X1404552D3*
X1454552D3*
D45*
X629638Y970933D3*
X809165D3*
D46*
X719402Y1234713D3*
D22*
X1808150Y2505239D3*
X1902638Y2509176D3*
X2032559Y2121314D3*
D47*
X1340001Y1582541D3*
X1391182D3*
X1340001Y1649470D3*
X1391182D3*
M02*
