G04 DipTrace 3.2.0.1*
G04 TopDimension.gbr*
%MOIN*%
G04 #@! TF.FileFunction,Drawing,Top*
G04 #@! TF.Part,Single*
%ADD13C,0.001378*%
%ADD104C,0.006176*%
%FSLAX26Y26*%
G04*
G70*
G90*
G75*
G01*
G04 TopDimension*
%LPD*%
X393701Y2795276D2*
D13*
Y3045428D1*
X2795276Y2795276D2*
Y3045428D1*
X1594488Y3025743D2*
X433071D1*
G36*
X393701D2*
X433071Y3033617D1*
Y3017869D1*
X393701Y3025743D1*
G37*
X1594488D2*
D13*
X2755906D1*
G36*
X2795276D2*
X2755906Y3017869D1*
Y3033617D1*
X2795276Y3025743D1*
G37*
Y2795276D2*
D13*
X3556181D1*
X2795276Y393701D2*
X3556181D1*
X3536496Y1594488D2*
Y2755906D1*
G36*
Y2795276D2*
X3544370Y2755906D1*
X3528622D1*
X3536496Y2795276D1*
G37*
Y1594488D2*
D13*
Y433071D1*
G36*
Y393701D2*
X3528622Y433071D1*
X3544370D1*
X3536496Y393701D1*
G37*
X1597126Y3072398D2*
D104*
X1595225Y3076200D1*
X1589477Y3078101D1*
X1585674D1*
X1579926Y3076200D1*
X1576080Y3070452D1*
X1574178Y3060901D1*
Y3051351D1*
X1576080Y3043702D1*
X1579926Y3039855D1*
X1585674Y3037954D1*
X1587576D1*
X1593280Y3039855D1*
X1597126Y3043702D1*
X1599028Y3049450D1*
Y3051351D1*
X1597126Y3057099D1*
X1593280Y3060901D1*
X1587576Y3062803D1*
X1585674D1*
X1579926Y3060901D1*
X1576080Y3057099D1*
X1574178Y3051351D1*
X1611379Y3070452D2*
X1615226Y3072398D1*
X1620974Y3078101D1*
Y3037954D1*
X3583151Y1591850D2*
X3586953Y1593751D1*
X3588855Y1599499D1*
Y1603302D1*
X3586953Y1609050D1*
X3581205Y1612897D1*
X3571655Y1614798D1*
X3562104D1*
X3554455Y1612897D1*
X3550608Y1609050D1*
X3548707Y1603302D1*
Y1601401D1*
X3550608Y1595697D1*
X3554455Y1591850D1*
X3560203Y1589949D1*
X3562104D1*
X3567852Y1591850D1*
X3571655Y1595697D1*
X3573556Y1601401D1*
Y1603302D1*
X3571655Y1609050D1*
X3567852Y1612897D1*
X3562104Y1614798D1*
X3581205Y1577597D2*
X3583151Y1573751D1*
X3588855Y1568003D1*
X3548707D1*
M02*
