G04 DipTrace 3.2.0.1*
G04 TopSilk.gbr*
%MOIN*%
G04 #@! TF.FileFunction,Legend,Top*
G04 #@! TF.Part,Single*
%ADD10C,0.009843*%
%ADD28C,0.015404*%
%ADD39C,0.02075*%
%ADD42C,0.025006*%
%ADD44C,0.01541*%
%ADD100C,0.005906*%
%ADD101C,0.00772*%
%FSLAX26Y26*%
G04*
G70*
G90*
G75*
G01*
G04 TopSilk*
%LPD*%
X723765Y1424395D2*
D10*
X536757D1*
Y1636993D1*
X723765D1*
Y1424395D1*
X570213Y1446059D2*
Y1481499D1*
X589905Y1461812D2*
X552503D1*
D28*
X1124710Y2356507D3*
X1133911Y2406647D2*
D10*
X1252016D1*
Y2426342D1*
X1133911D1*
Y2406647D1*
X2381215Y1019685D2*
X2666648D1*
Y1830709D1*
X2381215D1*
Y1019685D1*
X780885Y2185247D2*
X497420D1*
Y1752176D1*
X780885D1*
Y2185247D1*
X1029766Y486339D2*
X1317168D1*
Y842638D1*
X1029766D1*
Y486339D1*
X1323228Y486433D2*
X1610630D1*
Y842732D1*
X1323228D1*
Y486433D1*
X1619608Y485815D2*
X1907009D1*
Y842114D1*
X1619608D1*
Y485815D1*
X1971535Y452441D2*
X2256969D1*
Y964252D1*
X1971535D1*
Y452441D1*
X2262874D2*
X2548307D1*
Y964252D1*
X2262874D1*
Y452441D1*
X1068364Y2182465D2*
X784899D1*
Y1749394D1*
X1068364D1*
Y2182465D1*
X1359615D2*
X1076151D1*
Y1749394D1*
X1359615D1*
Y2182465D1*
X2666417Y2343295D2*
X2379016D1*
Y1986996D1*
X2666417D1*
Y2343295D1*
X1549112Y2440954D2*
X2060923D1*
Y2155521D1*
X1549112D1*
Y2440954D1*
X1081940Y2548385D2*
X794538D1*
Y2192085D1*
X1081940D1*
Y2548385D1*
X2372471Y2452073D2*
X2087038D1*
Y1940262D1*
X2372471D1*
Y2452073D1*
X594642Y850261D2*
X830869D1*
Y641590D1*
X594642D1*
Y850261D1*
X1850424Y859773D2*
X1531526D1*
Y1155049D1*
X1850424D1*
Y859773D1*
X780050Y2548118D2*
X492648D1*
Y2191819D1*
X780050D1*
Y2548118D1*
X1648451Y1651789D2*
X1959451D1*
Y1340789D1*
X1648451D1*
Y1651789D1*
G36*
D2*
Y1615539D1*
X1684701Y1651789D1*
X1648451D1*
G37*
D39*
X1586226Y1688089D3*
X1492059Y2348629D2*
D10*
X1267053D1*
Y2498630D1*
X1492059D1*
Y2448640D1*
Y2348629D2*
Y2398620D1*
Y2448640D2*
G03X1492059Y2398620I4J-25010D01*
G01*
D42*
X1500916Y2544396D3*
X589475Y1041820D2*
D10*
X849318D1*
X589475Y1317409D2*
Y1041820D1*
Y1317409D2*
X597341D1*
X849318D2*
Y1041820D1*
Y1317409D2*
X841452D1*
D44*
X590409Y926874D3*
X1984594Y1021824D2*
D100*
X1944402Y1006481D1*
X1984594Y991183D1*
X1971196Y996931D2*
X1971197Y1016076D1*
X1944402Y1033635D2*
X1984594D1*
Y1047032D1*
X1982648Y1052780D1*
X1978846Y1056627D1*
X1974999Y1058528D1*
X1969295Y1060430D1*
X1959700D1*
X1953952Y1058528D1*
X1950150Y1056627D1*
X1946303Y1052780D1*
X1944402Y1047032D1*
Y1033635D1*
X1953952Y1100937D2*
X1950150Y1099035D1*
X1946303Y1095189D1*
X1944402Y1091386D1*
Y1083737D1*
X1946303Y1079890D1*
X1950150Y1076087D1*
X1953952Y1074142D1*
X1959700Y1072241D1*
X1969295D1*
X1974999Y1074142D1*
X1978846Y1076087D1*
X1982648Y1079890D1*
X1984594Y1083737D1*
Y1091386D1*
X1982648Y1095189D1*
X1978846Y1099035D1*
X1974999Y1100937D1*
X1952095Y1112748D2*
X1950150Y1116594D1*
X1944446Y1122342D1*
X1984594D1*
X1908009Y1072288D2*
X1867817Y1056946D1*
X1908008Y1041647D1*
X1894611Y1047395D2*
Y1066540D1*
X1867817Y1084099D2*
X1908009D1*
Y1097497D1*
X1906063Y1103245D1*
X1902260Y1107091D1*
X1898414Y1108993D1*
X1892710Y1110894D1*
X1883115D1*
X1877367Y1108993D1*
X1873565Y1107092D1*
X1869718Y1103245D1*
X1867817Y1097497D1*
Y1084099D1*
X1877367Y1151401D2*
X1873565Y1149500D1*
X1869718Y1145653D1*
X1867817Y1141850D1*
Y1134201D1*
X1869718Y1130354D1*
X1873565Y1126552D1*
X1877367Y1124606D1*
X1883115Y1122705D1*
X1892710D1*
X1898414Y1124606D1*
X1902260Y1126552D1*
X1906063Y1130354D1*
X1908009Y1134201D1*
X1908008Y1141850D1*
X1906063Y1145653D1*
X1902260Y1149500D1*
X1898414Y1151401D1*
X1877411Y1165157D2*
X1875510D1*
X1871663Y1167059D1*
X1869762Y1168960D1*
X1867861Y1172807D1*
Y1180456D1*
X1869762Y1184259D1*
X1871663Y1186160D1*
X1875510Y1188105D1*
X1879313D1*
X1883159Y1186160D1*
X1888863Y1182357D1*
X1908008Y1163212D1*
Y1190007D1*
X1138801Y910522D2*
Y870330D1*
X1156045D1*
X1161793Y872276D1*
X1163695Y874177D1*
X1165596Y877979D1*
Y883727D1*
X1163695Y887574D1*
X1161793Y889475D1*
X1156045Y891377D1*
X1161793Y893322D1*
X1163695Y895224D1*
X1165596Y899026D1*
Y902873D1*
X1163695Y906675D1*
X1161793Y908621D1*
X1156045Y910522D1*
X1138801D1*
Y891377D2*
X1156045D1*
X1181254Y910478D2*
X1202256D1*
X1190804Y895179D1*
X1196552D1*
X1200355Y893278D1*
X1202256Y891377D1*
X1204201Y885629D1*
Y881826D1*
X1202256Y876078D1*
X1198453Y872231D1*
X1192705Y870330D1*
X1186957D1*
X1181254Y872231D1*
X1179352Y874177D1*
X1177407Y877979D1*
X1354769Y920993D2*
Y880801D1*
X1372013D1*
X1377761Y882747D1*
X1379663Y884648D1*
X1381564Y888451D1*
Y894199D1*
X1379663Y898045D1*
X1377761Y899947D1*
X1372013Y901848D1*
X1377761Y903793D1*
X1379663Y905695D1*
X1381564Y909497D1*
Y913344D1*
X1379663Y917146D1*
X1377761Y919092D1*
X1372013Y920993D1*
X1354769D1*
Y901848D2*
X1372013D1*
X1412520Y880801D2*
Y920949D1*
X1393375Y894199D1*
X1422071D1*
X665895Y1699677D2*
X663994Y1703479D1*
X660147Y1707326D1*
X656345Y1709227D1*
X648695D1*
X644849Y1707326D1*
X641046Y1703479D1*
X639101Y1699677D1*
X637199Y1693929D1*
Y1684334D1*
X639101Y1678630D1*
X641046Y1674783D1*
X644849Y1670981D1*
X648695Y1669035D1*
X656345D1*
X660147Y1670981D1*
X663994Y1674783D1*
X665895Y1678630D1*
X687257Y1709183D2*
X681553Y1707282D1*
X679608Y1703479D1*
Y1699632D1*
X681553Y1695830D1*
X685356Y1693884D1*
X693005Y1691983D1*
X698753Y1690082D1*
X702555Y1686235D1*
X704457Y1682433D1*
Y1676685D1*
X702555Y1672882D1*
X700654Y1670937D1*
X694906Y1669035D1*
X687257D1*
X681553Y1670937D1*
X679608Y1672882D1*
X677706Y1676685D1*
Y1682433D1*
X679608Y1686235D1*
X683454Y1690082D1*
X689158Y1691983D1*
X696807Y1693884D1*
X700654Y1695830D1*
X702555Y1699632D1*
Y1703479D1*
X700654Y1707282D1*
X694906Y1709183D1*
X687257D1*
X1274708Y1503243D2*
X1270906Y1501341D1*
X1267059Y1497495D1*
X1265158Y1493692D1*
Y1486043D1*
X1267059Y1482196D1*
X1270906Y1478393D1*
X1274708Y1476448D1*
X1280456Y1474547D1*
X1290051D1*
X1295755Y1476448D1*
X1299602Y1478393D1*
X1303404Y1482196D1*
X1305350Y1486043D1*
Y1493692D1*
X1303404Y1497494D1*
X1299602Y1501341D1*
X1295755Y1503243D1*
X1278555Y1539947D2*
X1284303Y1538001D1*
X1288150Y1534199D1*
X1290051Y1528451D1*
Y1526550D1*
X1288150Y1520802D1*
X1284303Y1516999D1*
X1278555Y1515054D1*
X1276654D1*
X1270906Y1516999D1*
X1267103Y1520802D1*
X1265202Y1526550D1*
Y1528451D1*
X1267103Y1534199D1*
X1270906Y1538001D1*
X1278555Y1539947D1*
X1288150D1*
X1297700Y1538001D1*
X1303448Y1534199D1*
X1305350Y1528451D1*
Y1524648D1*
X1303448Y1518900D1*
X1299602Y1516999D1*
X1427945Y1484537D2*
X1424142Y1482635D1*
X1420295Y1478789D1*
X1418394Y1474986D1*
Y1467337D1*
X1420295Y1463490D1*
X1424142Y1459687D1*
X1427944Y1457742D1*
X1433693Y1455841D1*
X1443287D1*
X1448991Y1457742D1*
X1452838Y1459687D1*
X1456640Y1463490D1*
X1458586Y1467337D1*
Y1474986D1*
X1456640Y1478788D1*
X1452838Y1482635D1*
X1448991Y1484536D1*
X1426087Y1496348D2*
X1424142Y1500194D1*
X1418438Y1505942D1*
X1458586D1*
X1418438Y1529249D2*
X1420339Y1523501D1*
X1426087Y1519655D1*
X1435638Y1517753D1*
X1441386D1*
X1450937Y1519655D1*
X1456685Y1523501D1*
X1458586Y1529249D1*
Y1533052D1*
X1456685Y1538800D1*
X1450937Y1542602D1*
X1441386Y1544548D1*
X1435638D1*
X1426087Y1542602D1*
X1420339Y1538800D1*
X1418438Y1533052D1*
Y1529249D1*
X1426087Y1542602D2*
X1450937Y1519655D1*
X2276191Y2665406D2*
X2272389Y2663504D1*
X2268542Y2659657D1*
X2266641Y2655855D1*
Y2648206D1*
X2268542Y2644359D1*
X2272389Y2640556D1*
X2276191Y2638611D1*
X2281939Y2636710D1*
X2291534D1*
X2297238Y2638611D1*
X2301085Y2640556D1*
X2304887Y2644359D1*
X2306833Y2648206D1*
Y2655855D1*
X2304887Y2659657D1*
X2301085Y2663504D1*
X2297238Y2665405D1*
X2274334Y2677217D2*
X2272389Y2681063D1*
X2266685Y2686811D1*
X2306833D1*
X2274334Y2698622D2*
X2272389Y2702469D1*
X2266685Y2708217D1*
X2306833D1*
X1360242Y2672188D2*
X1358341Y2675991D1*
X1354494Y2679838D1*
X1350691Y2681739D1*
X1343042D1*
X1339195Y2679838D1*
X1335393Y2675991D1*
X1333447Y2672188D1*
X1331546Y2666440D1*
Y2656845D1*
X1333447Y2651142D1*
X1335393Y2647295D1*
X1339195Y2643492D1*
X1343042Y2641547D1*
X1350691D1*
X1354494Y2643492D1*
X1358341Y2647295D1*
X1360242Y2651142D1*
X1372053Y2674045D2*
X1375900Y2675991D1*
X1381648Y2681695D1*
Y2641547D1*
X1395404Y2672144D2*
Y2674045D1*
X1397305Y2677892D1*
X1399207Y2679793D1*
X1403053Y2681695D1*
X1410703D1*
X1414505Y2679793D1*
X1416407Y2677892D1*
X1418352Y2674045D1*
Y2670243D1*
X1416407Y2666396D1*
X1412604Y2660692D1*
X1393459Y2641547D1*
X1420253D1*
X697085Y959772D2*
X695184Y963575D1*
X691337Y967421D1*
X687534Y969323D1*
X679885D1*
X676038Y967421D1*
X672236Y963575D1*
X670290Y959772D1*
X668389Y954024D1*
Y944429D1*
X670290Y938725D1*
X672236Y934879D1*
X676038Y931076D1*
X679885Y929131D1*
X687534D1*
X691337Y931076D1*
X695184Y934879D1*
X697085Y938725D1*
X708896Y961629D2*
X712743Y963575D1*
X718491Y969278D1*
Y929131D1*
X734149Y969278D2*
X755151D1*
X743699Y953980D1*
X749447D1*
X753250Y952079D1*
X755151Y950177D1*
X757097Y944429D1*
Y940627D1*
X755151Y934879D1*
X751348Y931032D1*
X745600Y929131D1*
X739852D1*
X734149Y931032D1*
X732247Y932977D1*
X730302Y936780D1*
X1272370Y2246499D2*
X1270469Y2250301D1*
X1266622Y2254148D1*
X1262819Y2256049D1*
X1255170D1*
X1251323Y2254148D1*
X1247521Y2250301D1*
X1245575Y2246499D1*
X1243674Y2240751D1*
Y2231156D1*
X1245575Y2225452D1*
X1247521Y2221605D1*
X1251323Y2217803D1*
X1255170Y2215857D1*
X1262819D1*
X1266622Y2217803D1*
X1270469Y2221605D1*
X1272370Y2225452D1*
X1314822Y2215857D2*
X1299479Y2256049D1*
X1284181Y2215857D1*
X1289929Y2229255D2*
X1309074D1*
X1353428Y2256049D2*
Y2215857D1*
X1326633Y2256049D1*
Y2215857D1*
X1365239Y2209225D2*
X1401584D1*
X1413395Y2256049D2*
Y2215857D1*
X1440190Y2256049D2*
Y2215857D1*
X1413395Y2236904D2*
X1440190D1*
X1113627Y2593073D2*
X1109824Y2591172D1*
X1105977Y2587325D1*
X1104076Y2583523D1*
Y2575874D1*
X1105977Y2572027D1*
X1109824Y2568224D1*
X1113627Y2566279D1*
X1119375Y2564377D1*
X1128969D1*
X1134673Y2566279D1*
X1138520Y2568224D1*
X1142323Y2572027D1*
X1144268Y2575873D1*
Y2583523D1*
X1142323Y2587325D1*
X1138520Y2591172D1*
X1134673Y2593073D1*
X1144268Y2635526D2*
X1104076Y2620183D1*
X1144268Y2604884D1*
X1130871Y2610632D2*
Y2629778D1*
X1104076Y2674131D2*
X1144268D1*
X1104076Y2647337D1*
X1144268D1*
X1150900Y2685942D2*
Y2722288D1*
X1104076Y2734099D2*
X1144268D1*
Y2757047D1*
X1189282Y2609959D2*
Y2569767D1*
X1202680D1*
X1208428Y2571713D1*
X1212274Y2575515D1*
X1214176Y2579362D1*
X1216077Y2585066D1*
Y2594661D1*
X1214176Y2600409D1*
X1212274Y2604211D1*
X1208428Y2608058D1*
X1202680Y2609959D1*
X1189282D1*
X1227888Y2602266D2*
X1231735Y2604211D1*
X1237483Y2609915D1*
Y2569767D1*
X974070Y1375060D2*
X1014262D1*
Y1388457D1*
X1012316Y1394205D1*
X1008514Y1398052D1*
X1004667Y1399953D1*
X998963Y1401854D1*
X989368D1*
X983620Y1399953D1*
X979818Y1398052D1*
X975971Y1394205D1*
X974070Y1388457D1*
Y1375060D1*
X983665Y1415611D2*
X981763D1*
X977917Y1417512D1*
X976015Y1419413D1*
X974114Y1423260D1*
Y1430910D1*
X976015Y1434712D1*
X977917Y1436613D1*
X981763Y1438559D1*
X985566D1*
X989413Y1436613D1*
X995116Y1432811D1*
X1014262Y1413665D1*
Y1440460D1*
X974070Y1217186D2*
X1014262D1*
Y1230583D1*
X1012316Y1236331D1*
X1008514Y1240178D1*
X1004667Y1242079D1*
X998963Y1243980D1*
X989368D1*
X983620Y1242079D1*
X979818Y1240178D1*
X975971Y1236331D1*
X974070Y1230583D1*
Y1217186D1*
X974114Y1259638D2*
Y1280641D1*
X989413Y1269189D1*
Y1274937D1*
X991314Y1278739D1*
X993215Y1280641D1*
X998963Y1282586D1*
X1002766D1*
X1008514Y1280641D1*
X1012361Y1276838D1*
X1014262Y1271090D1*
Y1265342D1*
X1012361Y1259638D1*
X1010415Y1257737D1*
X1006613Y1255791D1*
X974070Y1074109D2*
X1014262D1*
Y1087506D1*
X1012316Y1093254D1*
X1008514Y1097101D1*
X1004667Y1099002D1*
X998963Y1100904D1*
X989368D1*
X983620Y1099003D1*
X979818Y1097101D1*
X975971Y1093255D1*
X974070Y1087506D1*
Y1074109D1*
X1014262Y1131860D2*
X974114D1*
X1000864Y1112715D1*
Y1141411D1*
X1023435Y1702817D2*
Y1662625D1*
X1036832D1*
X1042580Y1664571D1*
X1046427Y1668373D1*
X1048328Y1672220D1*
X1050230Y1677924D1*
Y1687519D1*
X1048328Y1693267D1*
X1046427Y1697069D1*
X1042580Y1700916D1*
X1036832Y1702817D1*
X1023435D1*
X1084989Y1702773D2*
X1065887D1*
X1063986Y1685573D1*
X1065887Y1687475D1*
X1071635Y1689420D1*
X1077339D1*
X1083087Y1687475D1*
X1086934Y1683672D1*
X1088835Y1677924D1*
Y1674121D1*
X1086934Y1668373D1*
X1083087Y1664527D1*
X1077339Y1662625D1*
X1071635D1*
X1065887Y1664527D1*
X1063986Y1666472D1*
X1062041Y1670275D1*
X884459Y1642942D2*
Y1602750D1*
X897856D1*
X903604Y1604696D1*
X907451Y1608498D1*
X909352Y1612345D1*
X911254Y1618049D1*
Y1627643D1*
X909352Y1633391D1*
X907451Y1637194D1*
X903604Y1641041D1*
X897856Y1642942D1*
X884459D1*
X946013Y1637194D2*
X944111Y1640997D1*
X938363Y1642898D1*
X934561D1*
X928813Y1640997D1*
X924966Y1635249D1*
X923065Y1625698D1*
Y1616147D1*
X924966Y1608498D1*
X928813Y1604651D1*
X934561Y1602750D1*
X936462D1*
X942166Y1604651D1*
X946013Y1608498D1*
X947914Y1614246D1*
Y1616147D1*
X946013Y1621895D1*
X942166Y1625698D1*
X936462Y1627599D1*
X934561D1*
X928813Y1625698D1*
X924966Y1621895D1*
X923065Y1616147D1*
X1517897Y2025526D2*
Y1985334D1*
X1531654Y2015931D2*
Y2017832D1*
X1533555Y2021679D1*
X1535456Y2023580D1*
X1539303Y2025481D1*
X1546953D1*
X1550755Y2023580D1*
X1552656Y2021679D1*
X1554602Y2017832D1*
Y2014030D1*
X1552656Y2010183D1*
X1548854Y2004479D1*
X1529708Y1985334D1*
X1556503D1*
X1597010Y2015975D2*
X1595109Y2019778D1*
X1591262Y2023624D1*
X1587460Y2025526D1*
X1579810D1*
X1575963Y2023624D1*
X1572161Y2019778D1*
X1570215Y2015975D1*
X1568314Y2010227D1*
Y2000632D1*
X1570215Y1994928D1*
X1572161Y1991082D1*
X1575963Y1987279D1*
X1579810Y1985334D1*
X1587460D1*
X1591262Y1987279D1*
X1595109Y1991082D1*
X1597010Y1994928D1*
X1608821Y1978701D2*
X1645166D1*
X1683772Y2019778D2*
X1679970Y2023624D1*
X1674221Y2025526D1*
X1666572D1*
X1660824Y2023624D1*
X1656977Y2019778D1*
Y2015975D1*
X1658923Y2012128D1*
X1660824Y2010227D1*
X1664627Y2008326D1*
X1676123Y2004479D1*
X1679970Y2002578D1*
X1681871Y2000632D1*
X1683772Y1996830D1*
Y1991082D1*
X1679970Y1987279D1*
X1674221Y1985334D1*
X1666572D1*
X1660824Y1987279D1*
X1656977Y1991082D1*
X1724279Y2015975D2*
X1722378Y2019778D1*
X1718531Y2023624D1*
X1714728Y2025526D1*
X1707079D1*
X1703232Y2023624D1*
X1699430Y2019778D1*
X1697484Y2015975D1*
X1695583Y2010227D1*
Y2000632D1*
X1697484Y1994928D1*
X1699430Y1991082D1*
X1703232Y1987279D1*
X1707079Y1985334D1*
X1714728D1*
X1718531Y1987279D1*
X1722378Y1991082D1*
X1724279Y1994928D1*
X1736090Y2025526D2*
Y1985334D1*
X1759038D1*
X1535681Y1917370D2*
Y1877178D1*
X1549438Y1907775D2*
Y1909676D1*
X1551339Y1913523D1*
X1553241Y1915424D1*
X1557087Y1917326D1*
X1564737D1*
X1568539Y1915424D1*
X1570440Y1913523D1*
X1572386Y1909676D1*
Y1905874D1*
X1570440Y1902027D1*
X1566638Y1896323D1*
X1547493Y1877178D1*
X1574287D1*
X1614794Y1907819D2*
X1612893Y1911622D1*
X1609046Y1915469D1*
X1605244Y1917370D1*
X1597594D1*
X1593748Y1915469D1*
X1589945Y1911622D1*
X1587999Y1907819D1*
X1586098Y1902071D1*
Y1892476D1*
X1587999Y1886773D1*
X1589945Y1882926D1*
X1593748Y1879123D1*
X1597594Y1877178D1*
X1605244D1*
X1609046Y1879123D1*
X1612893Y1882926D1*
X1614794Y1886773D1*
X1626605Y1870545D2*
X1662950D1*
X1701556Y1911622D2*
X1697754Y1915469D1*
X1692006Y1917370D1*
X1684356D1*
X1678608Y1915469D1*
X1674761Y1911622D1*
Y1907819D1*
X1676707Y1903972D1*
X1678608Y1902071D1*
X1682411Y1900170D1*
X1693907Y1896323D1*
X1697754Y1894422D1*
X1699655Y1892476D1*
X1701556Y1888674D1*
Y1882926D1*
X1697754Y1879123D1*
X1692006Y1877178D1*
X1684356D1*
X1678608Y1879123D1*
X1674761Y1882926D1*
X1713367Y1917370D2*
Y1877178D1*
X1726764D1*
X1732513Y1879123D1*
X1736359Y1882926D1*
X1738261Y1886773D1*
X1740162Y1892476D1*
Y1902071D1*
X1738261Y1907819D1*
X1736359Y1911622D1*
X1732513Y1915469D1*
X1726764Y1917370D1*
X1713367D1*
X1782614Y1877178D2*
X1767271Y1917370D1*
X1751973Y1877178D1*
X1757721Y1890575D2*
X1776866D1*
X2293666Y1664737D2*
X2324263D1*
X2330011Y1662836D1*
X2331912Y1660891D1*
X2333858Y1657088D1*
Y1653241D1*
X2331912Y1649439D1*
X2330011Y1647537D1*
X2324263Y1645592D1*
X2320460D1*
X2301359Y1676548D2*
X2299414Y1680395D1*
X2293710Y1686143D1*
X2333858D1*
X579313Y1733958D2*
Y1703361D1*
X577412Y1697613D1*
X575466Y1695711D1*
X571664Y1693766D1*
X567817D1*
X564015Y1695711D1*
X562113Y1697613D1*
X560168Y1703361D1*
Y1707163D1*
X593070Y1724363D2*
Y1726264D1*
X594971Y1730111D1*
X596872Y1732012D1*
X600719Y1733914D1*
X608368D1*
X612171Y1732012D1*
X614072Y1730111D1*
X616018Y1726264D1*
Y1722462D1*
X614072Y1718615D1*
X610270Y1712911D1*
X591124Y1693766D1*
X617919D1*
X1167674Y475884D2*
Y445287D1*
X1165773Y439539D1*
X1163827Y437638D1*
X1160025Y435692D1*
X1156178D1*
X1152375Y437638D1*
X1150474Y439539D1*
X1148529Y445287D1*
Y449090D1*
X1183332Y475840D2*
X1204334D1*
X1192882Y460541D1*
X1198630D1*
X1202433Y458640D1*
X1204334Y456739D1*
X1206280Y450991D1*
Y447188D1*
X1204334Y441440D1*
X1200532Y437594D1*
X1194784Y435692D1*
X1189036D1*
X1183332Y437594D1*
X1181431Y439539D1*
X1179485Y443342D1*
X1468059Y464168D2*
Y433571D1*
X1466158Y427823D1*
X1464213Y425921D1*
X1460410Y423976D1*
X1456563D1*
X1452761Y425921D1*
X1450859Y427823D1*
X1448914Y433571D1*
Y437373D1*
X1499016Y423976D2*
Y464124D1*
X1479870Y437373D1*
X1508566D1*
X1749641Y467487D2*
Y436889D1*
X1747740Y431141D1*
X1745794Y429240D1*
X1741992Y427295D1*
X1738145D1*
X1734343Y429240D1*
X1732441Y431141D1*
X1730496Y436889D1*
Y440692D1*
X1784400Y467442D2*
X1765299D1*
X1763398Y450243D1*
X1765299Y452144D1*
X1771047Y454089D1*
X1776751D1*
X1782499Y452144D1*
X1786346Y448341D1*
X1788247Y442593D1*
Y438791D1*
X1786346Y433043D1*
X1782499Y429196D1*
X1776751Y427295D1*
X1771047D1*
X1765299Y429196D1*
X1763398Y431141D1*
X1761452Y434944D1*
X2081873Y1030569D2*
Y999972D1*
X2079971Y994224D1*
X2078026Y992323D1*
X2074223Y990377D1*
X2070376D1*
X2066574Y992323D1*
X2064673Y994224D1*
X2062727Y999972D1*
Y1003775D1*
X2116631Y1024821D2*
X2114730Y1028624D1*
X2108982Y1030525D1*
X2105180D1*
X2099432Y1028624D1*
X2095585Y1022876D1*
X2093684Y1013325D1*
Y1003775D1*
X2095585Y996125D1*
X2099432Y992279D1*
X2105180Y990377D1*
X2107081D1*
X2112785Y992279D1*
X2116631Y996125D1*
X2118533Y1001873D1*
Y1003775D1*
X2116631Y1009523D1*
X2112785Y1013325D1*
X2107081Y1015227D1*
X2105180D1*
X2099432Y1013325D1*
X2095585Y1009523D1*
X2093684Y1003775D1*
X2284914Y1034750D2*
Y1004153D1*
X2283013Y998405D1*
X2281067Y996504D1*
X2277265Y994558D1*
X2273418D1*
X2269616Y996504D1*
X2267714Y998405D1*
X2265769Y1004153D1*
Y1007956D1*
X2304375Y994558D2*
X2323520Y1034706D1*
X2296725D1*
X896188Y1732904D2*
Y1702307D1*
X894287Y1696559D1*
X892342Y1694657D1*
X888539Y1692712D1*
X884692D1*
X880890Y1694657D1*
X878988Y1696559D1*
X877043Y1702307D1*
Y1706109D1*
X917550Y1732860D2*
X911846Y1730959D1*
X909901Y1727156D1*
Y1723309D1*
X911846Y1719507D1*
X915649Y1717561D1*
X923298Y1715660D1*
X929046Y1713759D1*
X932848Y1709912D1*
X934750Y1706109D1*
Y1700361D1*
X932848Y1696559D1*
X930947Y1694613D1*
X925199Y1692712D1*
X917550D1*
X911846Y1694613D1*
X909901Y1696559D1*
X907999Y1700361D1*
Y1706109D1*
X909901Y1709912D1*
X913747Y1713759D1*
X919451Y1715660D1*
X927100Y1717561D1*
X930947Y1719507D1*
X932848Y1723309D1*
Y1727156D1*
X930947Y1730959D1*
X925199Y1732860D1*
X917550D1*
X1406871Y2008583D2*
Y1977986D1*
X1404970Y1972238D1*
X1403024Y1970337D1*
X1399222Y1968391D1*
X1395375D1*
X1391572Y1970337D1*
X1389671Y1972238D1*
X1387726Y1977986D1*
Y1981788D1*
X1443575Y1995186D2*
X1441630Y1989438D1*
X1437827Y1985591D1*
X1432079Y1983690D1*
X1430178D1*
X1424430Y1985591D1*
X1420627Y1989438D1*
X1418682Y1995186D1*
Y1997087D1*
X1420627Y2002835D1*
X1424430Y2006638D1*
X1430178Y2008539D1*
X1432079D1*
X1437827Y2006638D1*
X1441630Y2002835D1*
X1443575Y1995186D1*
Y1985591D1*
X1441630Y1976040D1*
X1437827Y1970292D1*
X1432079Y1968391D1*
X1428277D1*
X1422529Y1970292D1*
X1420627Y1974139D1*
X2506220Y2409613D2*
Y2379015D1*
X2504319Y2373267D1*
X2502374Y2371366D1*
X2498571Y2369421D1*
X2494724D1*
X2490922Y2371366D1*
X2489021Y2373267D1*
X2487075Y2379015D1*
Y2382818D1*
X2518031Y2401919D2*
X2521878Y2403865D1*
X2527626Y2409568D1*
Y2369421D1*
X2541383Y2400018D2*
Y2401919D1*
X2543284Y2405766D1*
X2545185Y2407667D1*
X2549032Y2409568D1*
X2556681D1*
X2560484Y2407667D1*
X2562385Y2405766D1*
X2564331Y2401919D1*
Y2398117D1*
X2562385Y2394270D1*
X2558583Y2388566D1*
X2539437Y2369421D1*
X2566232D1*
X1680833Y2511009D2*
Y2480411D1*
X1678932Y2474663D1*
X1676986Y2472762D1*
X1673184Y2470817D1*
X1669337D1*
X1665534Y2472762D1*
X1663633Y2474663D1*
X1661688Y2480411D1*
Y2484214D1*
X1692644Y2503315D2*
X1696491Y2505260D1*
X1702239Y2510964D1*
Y2470817D1*
X1717897Y2510964D2*
X1738899D1*
X1727447Y2495666D1*
X1733195D1*
X1736998Y2493764D1*
X1738899Y2491863D1*
X1740844Y2486115D1*
Y2482313D1*
X1738899Y2476565D1*
X1735096Y2472718D1*
X1729348Y2470817D1*
X1723600D1*
X1717897Y2472718D1*
X1715995Y2474663D1*
X1714050Y2478466D1*
X916855Y2606828D2*
Y2576231D1*
X914954Y2570483D1*
X913008Y2568581D1*
X909206Y2566636D1*
X905359D1*
X901557Y2568581D1*
X899655Y2570483D1*
X897710Y2576231D1*
Y2580033D1*
X928666Y2599134D2*
X932513Y2601080D1*
X938261Y2606784D1*
Y2566636D1*
X969217D2*
Y2606784D1*
X950072Y2580033D1*
X978768D1*
X2213259Y1916029D2*
Y1885431D1*
X2211357Y1879683D1*
X2209412Y1877782D1*
X2205609Y1875837D1*
X2201762D1*
X2197960Y1877782D1*
X2196059Y1879683D1*
X2194113Y1885431D1*
Y1889234D1*
X2225070Y1908335D2*
X2228916Y1910281D1*
X2234664Y1915984D1*
Y1875837D1*
X2269423Y1915984D2*
X2250322D1*
X2248421Y1898785D1*
X2250322Y1900686D1*
X2256070Y1902631D1*
X2261774D1*
X2267522Y1900686D1*
X2271369Y1896883D1*
X2273270Y1891135D1*
Y1887333D1*
X2271369Y1881585D1*
X2267522Y1877738D1*
X2261774Y1875837D1*
X2256070D1*
X2250322Y1877738D1*
X2248421Y1879683D1*
X2246475Y1883486D1*
X872432Y790594D2*
Y759997D1*
X870531Y754249D1*
X868585Y752348D1*
X864783Y750402D1*
X860936D1*
X857133Y752348D1*
X855232Y754249D1*
X853287Y759997D1*
Y763800D1*
X884243Y782901D2*
X888090Y784846D1*
X893838Y790550D1*
Y750402D1*
X928597Y784846D2*
X926696Y788649D1*
X920948Y790550D1*
X917145D1*
X911397Y788649D1*
X907550Y782901D1*
X905649Y773350D1*
Y763800D1*
X907550Y756150D1*
X911397Y752304D1*
X917145Y750402D1*
X919046D1*
X924750Y752304D1*
X928597Y756150D1*
X930498Y761898D1*
Y763800D1*
X928597Y769548D1*
X924750Y773350D1*
X919046Y775251D1*
X917145D1*
X911397Y773350D1*
X907550Y769548D1*
X905649Y763800D1*
X1457944Y1048138D2*
Y1017540D1*
X1456042Y1011792D1*
X1454097Y1009891D1*
X1450294Y1007946D1*
X1446448D1*
X1442645Y1009891D1*
X1440744Y1011792D1*
X1438798Y1017540D1*
Y1021343D1*
X1469755Y1040444D2*
X1473601Y1042390D1*
X1479349Y1048093D1*
Y1007946D1*
X1498810D2*
X1517955Y1048093D1*
X1491160D1*
X615938Y2606561D2*
Y2575964D1*
X614037Y2570216D1*
X612091Y2568315D1*
X608289Y2566369D1*
X604442D1*
X600640Y2568315D1*
X598738Y2570216D1*
X596793Y2575964D1*
Y2579767D1*
X627749Y2598868D2*
X631596Y2600813D1*
X637344Y2606517D1*
Y2566369D1*
X658706Y2606517D2*
X653002Y2604616D1*
X651056Y2600813D1*
Y2596967D1*
X653002Y2593164D1*
X656804Y2591219D1*
X664454Y2589317D1*
X670202Y2587416D1*
X674004Y2583569D1*
X675905Y2579767D1*
Y2574019D1*
X674004Y2570216D1*
X672103Y2568271D1*
X666355Y2566369D1*
X658706D1*
X653002Y2568271D1*
X651056Y2570216D1*
X649155Y2574019D1*
Y2579767D1*
X651056Y2583569D1*
X654903Y2587416D1*
X660607Y2589317D1*
X668256Y2591219D1*
X672103Y2593164D1*
X674004Y2596967D1*
Y2600813D1*
X672103Y2604616D1*
X666355Y2606517D1*
X658706D1*
X1322628Y1100217D2*
X1339828D1*
X1345576Y1102162D1*
X1347521Y1104063D1*
X1349423Y1107866D1*
Y1111713D1*
X1347521Y1115515D1*
X1345576Y1117461D1*
X1339828Y1119362D1*
X1322628D1*
Y1079170D1*
X1336025Y1100217D2*
X1349423Y1079170D1*
X1363179Y1109767D2*
Y1111668D1*
X1365080Y1115515D1*
X1366982Y1117417D1*
X1370828Y1119318D1*
X1378478D1*
X1382280Y1117417D1*
X1384182Y1115515D1*
X1386127Y1111668D1*
Y1107866D1*
X1384182Y1104019D1*
X1380379Y1098315D1*
X1361234Y1079170D1*
X1388028D1*
X1179739Y1103034D2*
X1196939D1*
X1202687Y1104980D1*
X1204633Y1106881D1*
X1206534Y1110684D1*
Y1114530D1*
X1204633Y1118333D1*
X1202687Y1120278D1*
X1196939Y1122180D1*
X1179739D1*
Y1081988D1*
X1193137Y1103034D2*
X1206534Y1081988D1*
X1222192Y1122135D2*
X1243194D1*
X1231742Y1106837D1*
X1237491D1*
X1241293Y1104935D1*
X1243194Y1103034D1*
X1245140Y1097286D1*
Y1093484D1*
X1243194Y1087736D1*
X1239392Y1083889D1*
X1233644Y1081988D1*
X1227896D1*
X1222192Y1083889D1*
X1220291Y1085834D1*
X1218345Y1089637D1*
X1474361Y2086032D2*
Y2103232D1*
X1472416Y2108980D1*
X1470515Y2110925D1*
X1466712Y2112826D1*
X1462865D1*
X1459063Y2110925D1*
X1457117Y2108980D1*
X1455216Y2103232D1*
Y2086032D1*
X1495408D1*
X1474361Y2099429D2*
X1495408Y2112826D1*
X1468613Y2149531D2*
X1474361Y2147585D1*
X1478208Y2143783D1*
X1480110Y2138035D1*
Y2136134D1*
X1478208Y2130385D1*
X1474361Y2126583D1*
X1468613Y2124637D1*
X1466712D1*
X1460964Y2126583D1*
X1457162Y2130386D1*
X1455260Y2136134D1*
Y2138035D1*
X1457162Y2143783D1*
X1460964Y2147585D1*
X1468613Y2149531D1*
X1478208D1*
X1487759Y2147585D1*
X1493507Y2143783D1*
X1495408Y2138035D1*
Y2134232D1*
X1493507Y2128484D1*
X1489660Y2126583D1*
X1470906Y1784698D2*
Y1801898D1*
X1468960Y1807646D1*
X1467059Y1809591D1*
X1463256Y1811493D1*
X1459410D1*
X1455607Y1809591D1*
X1453662Y1807646D1*
X1451760Y1801898D1*
Y1784698D1*
X1491952D1*
X1470906Y1798095D2*
X1491952Y1811493D1*
X1459454Y1823304D2*
X1457508Y1827151D1*
X1451805Y1832899D1*
X1491952Y1832898D1*
X1451805Y1856206D2*
X1453706Y1850458D1*
X1459454Y1846611D1*
X1469004Y1844710D1*
X1474752D1*
X1484303Y1846611D1*
X1490051Y1850458D1*
X1491952Y1856206D1*
Y1860008D1*
X1490051Y1865756D1*
X1484303Y1869559D1*
X1474752Y1871504D1*
X1469004D1*
X1459454Y1869559D1*
X1453706Y1865756D1*
X1451805Y1860008D1*
Y1856206D1*
X1459454Y1869559D2*
X1484303Y1846611D1*
X1196408Y1149171D2*
Y1166371D1*
X1194463Y1172119D1*
X1192561Y1174064D1*
X1188759Y1175965D1*
X1184912D1*
X1181109Y1174064D1*
X1179164Y1172119D1*
X1177263Y1166371D1*
Y1149171D1*
X1217455D1*
X1196408Y1162568D2*
X1217455Y1175965D1*
X1184956Y1187776D2*
X1183011Y1191623D1*
X1177307Y1197371D1*
X1217455D1*
X1184956Y1209182D2*
X1183011Y1213029D1*
X1177307Y1218777D1*
X1217455D1*
X1201548Y1255470D2*
X1201549Y1272670D1*
X1199603Y1278418D1*
X1197702Y1280363D1*
X1193899Y1282264D1*
X1190052D1*
X1186250Y1280363D1*
X1184304Y1278418D1*
X1182403Y1272670D1*
Y1255470D1*
X1222595D1*
X1201548Y1268867D2*
X1222595Y1282264D1*
X1190097Y1294075D2*
X1188151Y1297922D1*
X1182447Y1303670D1*
X1222595D1*
X1191998Y1317427D2*
X1190097D1*
X1186250Y1319328D1*
X1184349Y1321229D1*
X1182447Y1325076D1*
Y1332725D1*
X1184349Y1336528D1*
X1186250Y1338429D1*
X1190097Y1340375D1*
X1193899D1*
X1197746Y1338429D1*
X1203450Y1334627D1*
X1222595Y1315481D1*
Y1342276D1*
X1205796Y1361686D2*
Y1378886D1*
X1203851Y1384634D1*
X1201949Y1386579D1*
X1198147Y1388481D1*
X1194300D1*
X1190497Y1386579D1*
X1188552Y1384634D1*
X1186651Y1378886D1*
Y1361686D1*
X1226843D1*
X1205796Y1375083D2*
X1226843Y1388481D1*
X1194344Y1400292D2*
X1192399Y1404138D1*
X1186695Y1409886D1*
X1226843D1*
X1186695Y1425544D2*
Y1446547D1*
X1201993Y1435095D1*
Y1440843D1*
X1203895Y1444645D1*
X1205796Y1446547D1*
X1211544Y1448492D1*
X1215347D1*
X1221095Y1446546D1*
X1224941Y1442744D1*
X1226843Y1436996D1*
Y1431248D1*
X1224941Y1425544D1*
X1222996Y1423643D1*
X1219193Y1421697D1*
X1140948Y1650799D2*
Y1667998D1*
X1139002Y1673746D1*
X1137101Y1675692D1*
X1133298Y1677593D1*
X1129452D1*
X1125649Y1675692D1*
X1123704Y1673746D1*
X1121802Y1667998D1*
Y1650799D1*
X1161994D1*
X1140948Y1664196D2*
X1161994Y1677593D1*
X1129496Y1689404D2*
X1127550Y1693251D1*
X1121846Y1698999D1*
X1161994D1*
Y1729955D2*
X1121846D1*
X1148597Y1710810D1*
Y1739506D1*
X1229444Y1465086D2*
Y1482286D1*
X1227499Y1488034D1*
X1225597Y1489979D1*
X1221795Y1491880D1*
X1217948D1*
X1214146Y1489979D1*
X1212200Y1488034D1*
X1210299Y1482286D1*
Y1465086D1*
X1250491D1*
X1229444Y1478483D2*
X1250491Y1491880D1*
X1217992Y1503691D2*
X1216047Y1507538D1*
X1210343Y1513286D1*
X1250491D1*
X1216047Y1548045D2*
X1212244Y1546144D1*
X1210343Y1540396D1*
Y1536593D1*
X1212244Y1530845D1*
X1217992Y1526998D1*
X1227543Y1525097D1*
X1237093D1*
X1244743Y1526998D1*
X1248589Y1530845D1*
X1250491Y1536593D1*
Y1538494D1*
X1248589Y1544198D1*
X1244743Y1548045D1*
X1238995Y1549946D1*
X1237093D1*
X1231345Y1548045D1*
X1227543Y1544198D1*
X1225642Y1538494D1*
Y1536593D1*
X1227543Y1530845D1*
X1231345Y1526998D1*
X1237093Y1525097D1*
X1539918Y2676661D2*
Y2693861D1*
X1537973Y2699609D1*
X1536071Y2701555D1*
X1532269Y2703456D1*
X1528422D1*
X1524619Y2701555D1*
X1522674Y2699609D1*
X1520773Y2693861D1*
Y2676661D1*
X1560965D1*
X1539918Y2690058D2*
X1560965Y2703456D1*
X1528466Y2715267D2*
X1526521Y2719114D1*
X1520817Y2724862D1*
X1560965D1*
X1520817Y2746223D2*
X1522718Y2740519D1*
X1526521Y2738574D1*
X1530367D1*
X1534170Y2740519D1*
X1536115Y2744322D1*
X1538017Y2751971D1*
X1539918Y2757719D1*
X1543765Y2761522D1*
X1547567Y2763423D1*
X1553315D1*
X1557118Y2761522D1*
X1559063Y2759620D1*
X1560965Y2753872D1*
Y2746223D1*
X1559063Y2740519D1*
X1557118Y2738574D1*
X1553315Y2736673D1*
X1547567D1*
X1543765Y2738574D1*
X1539918Y2742421D1*
X1538017Y2748124D1*
X1536115Y2755774D1*
X1534170Y2759620D1*
X1530367Y2761522D1*
X1526521D1*
X1522718Y2759620D1*
X1520817Y2753872D1*
Y2746223D1*
X887181Y1555473D2*
X904381D1*
X910129Y1557418D1*
X912075Y1559319D1*
X913976Y1563122D1*
Y1566969D1*
X912075Y1570771D1*
X910129Y1572717D1*
X904381Y1574618D1*
X887181D1*
Y1534426D1*
X900579Y1555473D2*
X913976Y1534426D1*
X925787Y1566924D2*
X929634Y1568870D1*
X935382Y1574574D1*
Y1534426D1*
X972086Y1561221D2*
X970141Y1555473D1*
X966338Y1551626D1*
X960590Y1549725D1*
X958689D1*
X952941Y1551626D1*
X949138Y1555473D1*
X947193Y1561221D1*
Y1563122D1*
X949138Y1568870D1*
X952941Y1572672D1*
X958689Y1574574D1*
X960590D1*
X966338Y1572672D1*
X970141Y1568870D1*
X972086Y1561221D1*
Y1551626D1*
X970141Y1542075D1*
X966338Y1536327D1*
X960590Y1534426D1*
X956788D1*
X951040Y1536327D1*
X949138Y1540174D1*
X2527550Y2477872D2*
X2523703Y2474069D1*
X2521802Y2468321D1*
Y2460672D1*
X2523703Y2454924D1*
X2527550Y2451077D1*
X2531353D1*
X2535199Y2453023D1*
X2537101Y2454924D1*
X2539002Y2458727D1*
X2542849Y2470223D1*
X2544750Y2474069D1*
X2546696Y2475971D1*
X2550498Y2477872D1*
X2556246D1*
X2560049Y2474069D1*
X2561994Y2468321D1*
Y2460672D1*
X2560049Y2454924D1*
X2556246Y2451077D1*
X2521802Y2489683D2*
X2561994Y2499278D1*
X2521802Y2508828D1*
X2561994Y2518379D1*
X2521802Y2527974D1*
X2529496Y2539785D2*
X2527550Y2543631D1*
X2521846Y2549379D1*
X2561994D1*
X2102352Y1435454D2*
X2098505Y1431651D1*
X2096604Y1425903D1*
Y1418254D1*
X2098505Y1412506D1*
X2102352Y1408659D1*
X2106154D1*
X2110001Y1410605D1*
X2111902Y1412506D1*
X2113804Y1416308D1*
X2117651Y1427804D1*
X2119552Y1431651D1*
X2121497Y1433552D1*
X2125300Y1435454D1*
X2131048D1*
X2134850Y1431651D1*
X2136796Y1425903D1*
Y1418254D1*
X2134850Y1412506D1*
X2131048Y1408659D1*
X2096604Y1447265D2*
X2136796Y1456859D1*
X2096604Y1466410D1*
X2136796Y1475961D1*
X2096604Y1485555D1*
Y1497366D2*
X2136796D1*
Y1510764D1*
X2134850Y1516512D1*
X2131048Y1520358D1*
X2127201Y1522260D1*
X2121497Y1524161D1*
X2111903D1*
X2106154Y1522260D1*
X2102352Y1520358D1*
X2098505Y1516512D1*
X2096604Y1510764D1*
Y1497366D1*
X2143428Y1535972D2*
Y1572317D1*
X2106154Y1612824D2*
X2102352Y1610923D1*
X2098505Y1607076D1*
X2096604Y1603274D1*
Y1595624D1*
X2098505Y1591778D1*
X2102352Y1587975D1*
X2106154Y1586030D1*
X2111903Y1584128D1*
X2121497D1*
X2127201Y1586030D1*
X2131048Y1587975D1*
X2134850Y1591778D1*
X2136796Y1595624D1*
Y1603274D1*
X2134850Y1607076D1*
X2131048Y1610923D1*
X2127201Y1612824D1*
X2096604Y1624635D2*
X2136796D1*
Y1647583D1*
X2096604Y1659394D2*
X2136796D1*
X2096604Y1686189D2*
X2123399Y1659394D1*
X2113804Y1668945D2*
X2136796Y1686189D1*
X1840179Y1826002D2*
X1836376Y1829849D1*
X1830628Y1831750D1*
X1822979D1*
X1817231Y1829849D1*
X1813384Y1826002D1*
Y1822200D1*
X1815329Y1818353D1*
X1817231Y1816452D1*
X1821033Y1814551D1*
X1832529Y1810704D1*
X1836376Y1808803D1*
X1838277Y1806857D1*
X1840179Y1803055D1*
Y1797306D1*
X1836376Y1793504D1*
X1830628Y1791558D1*
X1822979D1*
X1817231Y1793504D1*
X1813384Y1797306D1*
X1851990Y1831750D2*
X1861584Y1791558D1*
X1871135Y1831750D1*
X1880686Y1791558D1*
X1890280Y1831750D1*
X1902091D2*
Y1791558D1*
X1915489D1*
X1921237Y1793504D1*
X1925084Y1797306D1*
X1926985Y1801153D1*
X1928886Y1806857D1*
Y1816452D1*
X1926985Y1822200D1*
X1925084Y1826002D1*
X1921237Y1829849D1*
X1915489Y1831750D1*
X1902091D1*
X1940697Y1784926D2*
X1977042D1*
X1988853Y1831750D2*
Y1791558D1*
X2012161Y1831750D2*
X2008314Y1829849D1*
X2004511Y1826002D1*
X2002566Y1822200D1*
X2000664Y1816452D1*
Y1806857D1*
X2002566Y1801153D1*
X2004511Y1797306D1*
X2008314Y1793504D1*
X2012161Y1791558D1*
X2019810D1*
X2023612Y1793504D1*
X2027459Y1797306D1*
X2029360Y1801153D1*
X2031262Y1806857D1*
Y1816452D1*
X2029360Y1822200D1*
X2027459Y1826002D1*
X2023612Y1829849D1*
X2019810Y1831750D1*
X2012161D1*
X1583001Y1753551D2*
Y1724855D1*
X1584902Y1719107D1*
X1588749Y1715304D1*
X1594497Y1713359D1*
X1598299D1*
X1604047Y1715304D1*
X1607894Y1719107D1*
X1609795Y1724855D1*
Y1753551D1*
X1621607Y1745857D2*
X1625453Y1747803D1*
X1631201Y1753507D1*
Y1713359D1*
X1518953Y2506712D2*
Y2478016D1*
X1520855Y2472268D1*
X1524701Y2468466D1*
X1530449Y2466520D1*
X1534252D1*
X1540000Y2468466D1*
X1543847Y2472268D1*
X1545748Y2478016D1*
Y2506712D1*
X1559505Y2497118D2*
Y2499019D1*
X1561406Y2502866D1*
X1563307Y2504767D1*
X1567154Y2506668D1*
X1574803D1*
X1578606Y2504767D1*
X1580507Y2502866D1*
X1582452Y2499019D1*
Y2495216D1*
X1580507Y2491370D1*
X1576704Y2485666D1*
X1557559Y2466520D1*
X1584354D1*
X470976Y969055D2*
Y940359D1*
X472877Y934611D1*
X476724Y930808D1*
X482472Y928863D1*
X486274D1*
X492022Y930808D1*
X495869Y934611D1*
X497770Y940359D1*
Y969055D1*
X513428Y969011D2*
X534431D1*
X522979Y953712D1*
X528727D1*
X532529Y951811D1*
X534431Y949910D1*
X536376Y944162D1*
Y940359D1*
X534431Y934611D1*
X530628Y930764D1*
X524880Y928863D1*
X519132D1*
X513428Y930764D1*
X511527Y932710D1*
X509581Y936512D1*
X1761298Y2608646D2*
Y2579950D1*
X1763200Y2574202D1*
X1767046Y2570400D1*
X1772795Y2568454D1*
X1776597D1*
X1782345Y2570400D1*
X1786192Y2574202D1*
X1788093Y2579950D1*
Y2608646D1*
X1830546Y2568454D2*
X1815203Y2608646D1*
X1799904Y2568454D1*
X1805652Y2581852D2*
X1824798D1*
X1842357Y2589501D2*
X1859556D1*
X1865305Y2591446D1*
X1867250Y2593348D1*
X1869151Y2597150D1*
Y2600997D1*
X1867250Y2604800D1*
X1865305Y2606745D1*
X1859556Y2608646D1*
X1842357D1*
Y2568454D1*
X1855754Y2589501D2*
X1869151Y2568454D1*
X1894360Y2608646D2*
Y2568454D1*
X1880962Y2608646D2*
X1907757D1*
X1919568Y2561822D2*
X1955913D1*
X1967724Y2589501D2*
X1984924D1*
X1990672Y2591446D1*
X1992618Y2593348D1*
X1994519Y2597150D1*
Y2600997D1*
X1992618Y2604800D1*
X1990672Y2606745D1*
X1984924Y2608646D1*
X1967724D1*
Y2568454D1*
X1981122Y2589501D2*
X1994519Y2568454D1*
X2019727Y2608646D2*
Y2568454D1*
X2006330Y2608646D2*
X2033125D1*
X2071730Y2602898D2*
X2067928Y2606745D1*
X2062180Y2608646D1*
X2054530D1*
X2048782Y2606745D1*
X2044936Y2602898D1*
Y2599096D1*
X2046881Y2595249D1*
X2048782Y2593348D1*
X2052585Y2591446D1*
X2064081Y2587600D1*
X2067928Y2585698D1*
X2069829Y2583753D1*
X2071730Y2579950D1*
Y2574202D1*
X2067928Y2570400D1*
X2062180Y2568454D1*
X2054530D1*
X2048782Y2570400D1*
X2044936Y2574202D1*
X1953507Y2518943D2*
Y2490247D1*
X1955409Y2484499D1*
X1959255Y2480696D1*
X1965004Y2478751D1*
X1968806D1*
X1974554Y2480696D1*
X1978401Y2484499D1*
X1980302Y2490247D1*
Y2518943D1*
X2022755Y2478751D2*
X2007412Y2518943D1*
X1992113Y2478751D1*
X1997861Y2492148D2*
X2017007D1*
X2034566Y2499797D2*
X2051765D1*
X2057514Y2501743D1*
X2059459Y2503644D1*
X2061360Y2507447D1*
Y2511293D1*
X2059459Y2515096D1*
X2057514Y2517042D1*
X2051765Y2518943D1*
X2034566D1*
Y2478751D1*
X2047963Y2499797D2*
X2061360Y2478751D1*
X2086569Y2518943D2*
Y2478751D1*
X2073171Y2518943D2*
X2099966D1*
X2111777Y2472118D2*
X2148122D1*
X2159933Y2499797D2*
X2177133D1*
X2182881Y2501743D1*
X2184827Y2503644D1*
X2186728Y2507447D1*
Y2511293D1*
X2184827Y2515096D1*
X2182881Y2517042D1*
X2177133Y2518943D1*
X2159933D1*
Y2478751D1*
X2173331Y2499797D2*
X2186728Y2478751D1*
X2198539Y2518943D2*
X2225334Y2478751D1*
Y2518943D2*
X2198539Y2478751D1*
X1715544Y2154166D2*
Y2125471D1*
X1717445Y2119722D1*
X1721292Y2115920D1*
X1727040Y2113974D1*
X1730842D1*
X1736590Y2115920D1*
X1740437Y2119722D1*
X1742338Y2125471D1*
Y2154166D1*
X1784791Y2113974D2*
X1769448Y2154166D1*
X1754149Y2113974D1*
X1759897Y2127372D2*
X1779043D1*
X1796602Y2135021D2*
X1813802D1*
X1819550Y2136967D1*
X1821495Y2138868D1*
X1823396Y2142670D1*
Y2146517D1*
X1821495Y2150320D1*
X1819550Y2152265D1*
X1813802Y2154166D1*
X1796602D1*
Y2113974D1*
X1809999Y2135021D2*
X1823396Y2113974D1*
X1848605Y2154166D2*
Y2113974D1*
X1835207Y2154166D2*
X1862002D1*
X1873813Y2107342D2*
X1910158D1*
X1935367Y2154166D2*
Y2113974D1*
X1921969Y2154166D2*
X1948764D1*
X1960575D2*
X1987370Y2113974D1*
Y2154166D2*
X1960575Y2113974D1*
X1342243Y1479383D2*
X1361388Y1494682D1*
X1382435D1*
X1342243Y1509980D2*
X1361388Y1494682D1*
X1349937Y1521791D2*
X1347991Y1525638D1*
X1342287Y1531386D1*
X1382435D1*
X2727775Y1191574D2*
D101*
Y1213129D1*
X2725398Y1220259D1*
X2722966Y1222691D1*
X2718213Y1225067D1*
X2711028D1*
X2706275Y1222691D1*
X2703843Y1220259D1*
X2701467Y1213129D1*
Y1191574D1*
X2751707D1*
X2701467Y1240506D2*
X2751707Y1252500D1*
X2701467Y1264438D1*
X2751707Y1276376D1*
X2701467Y1288370D1*
X2751707Y1342055D2*
X2701467Y1342056D1*
X2751707Y1322932D1*
X2701467Y1303809D1*
X2751707D1*
X2718213Y1434781D2*
X2751707D1*
X2725398D2*
X2720590Y1430027D1*
X2718213Y1425219D1*
Y1418089D1*
X2720590Y1413281D1*
X2725398Y1408528D1*
X2732583Y1406096D1*
X2737337D1*
X2744522Y1408528D1*
X2749275Y1413281D1*
X2751707Y1418089D1*
Y1425219D1*
X2749275Y1430027D1*
X2744522Y1434781D1*
X2718213Y1450220D2*
X2751707D1*
X2727775D2*
X2720590Y1457405D1*
X2718213Y1462213D1*
Y1469343D1*
X2720590Y1474152D1*
X2727775Y1476528D1*
X2751707D1*
X2701467Y1520652D2*
X2751707D1*
X2725398D2*
X2720590Y1515899D1*
X2718213Y1511091D1*
Y1503906D1*
X2720590Y1499152D1*
X2725398Y1494344D1*
X2732583Y1491967D1*
X2737337D1*
X2744522Y1494344D1*
X2749275Y1499152D1*
X2751707Y1503906D1*
Y1511091D1*
X2749275Y1515899D1*
X2744522Y1520652D1*
X2701467Y1584692D2*
X2751707D1*
Y1601439D1*
X2749275Y1608624D1*
X2744522Y1613433D1*
X2739713Y1615809D1*
X2732583Y1618186D1*
X2720590D1*
X2713405Y1615809D1*
X2708652Y1613433D1*
X2703843Y1608624D1*
X2701467Y1601439D1*
Y1584692D1*
Y1633625D2*
X2751707D1*
X2725398Y1649064D2*
Y1670564D1*
X2722966Y1677749D1*
X2720590Y1680181D1*
X2715837Y1682558D1*
X2711028D1*
X2706275Y1680181D1*
X2703843Y1677749D1*
X2701467Y1670564D1*
Y1649064D1*
X2751707D1*
X2725398Y1665811D2*
X2751707Y1682558D1*
X638247Y489064D2*
X607185D1*
Y438824D1*
X638247D1*
X607185Y465132D2*
X626309D1*
X687179Y489064D2*
Y438824D1*
X653686Y489064D1*
Y438824D1*
X738489Y477125D2*
X736112Y481879D1*
X731303Y486687D1*
X726550Y489064D1*
X716989D1*
X712180Y486687D1*
X707427Y481879D1*
X704995Y477125D1*
X702619Y469940D1*
Y457947D1*
X704995Y450817D1*
X707427Y446009D1*
X712180Y441255D1*
X716989Y438824D1*
X726550D1*
X731303Y441255D1*
X736112Y446009D1*
X738489Y450817D1*
X768298Y489064D2*
X763489Y486687D1*
X758736Y481879D1*
X756304Y477125D1*
X753928Y469940D1*
Y457947D1*
X756304Y450817D1*
X758736Y446009D1*
X763489Y441255D1*
X768298Y438824D1*
X777859D1*
X782613Y441255D1*
X787421Y446009D1*
X789798Y450817D1*
X792174Y457947D1*
Y469940D1*
X789798Y477125D1*
X787421Y481879D1*
X782613Y486687D1*
X777859Y489064D1*
X768298D1*
X807614D2*
Y438824D1*
X824360D1*
X831545Y441255D1*
X836354Y446009D1*
X838730Y450817D1*
X841107Y457947D1*
Y469940D1*
X838730Y477125D1*
X836354Y481879D1*
X831545Y486687D1*
X824360Y489064D1*
X807614D1*
X887608D2*
X856546D1*
Y438824D1*
X887608D1*
X856546Y465132D2*
X875669D1*
X903047D2*
X924547D1*
X931732Y467564D1*
X934164Y469940D1*
X936540Y474694D1*
Y479502D1*
X934164Y484255D1*
X931732Y486687D1*
X924547Y489064D1*
X903047D1*
Y438824D1*
X919793Y465132D2*
X936540Y438824D1*
X985473Y481879D2*
X980720Y486687D1*
X973535Y489064D1*
X963973D1*
X956788Y486687D1*
X951979Y481879D1*
Y477125D1*
X954411Y472317D1*
X956788Y469940D1*
X961541Y467564D1*
X975911Y462755D1*
X980720Y460379D1*
X983096Y457947D1*
X985473Y453194D1*
Y446009D1*
X980720Y441255D1*
X973535Y438824D1*
X963973D1*
X956788Y441255D1*
X951979Y446009D1*
X733394Y2697881D2*
X731018Y2702634D1*
X726209Y2707442D1*
X721456Y2709819D1*
X711895D1*
X707086Y2707442D1*
X702333Y2702634D1*
X699901Y2697881D1*
X697524Y2690696D1*
Y2678702D1*
X699901Y2671572D1*
X702333Y2666764D1*
X707086Y2662011D1*
X711895Y2659579D1*
X721456D1*
X726209Y2662011D1*
X731018Y2666764D1*
X733394Y2671572D1*
X787135Y2659579D2*
X767957Y2709819D1*
X748834Y2659579D1*
X756019Y2676326D2*
X779950D1*
X836068Y2709819D2*
Y2659579D1*
X802575Y2709819D1*
Y2659579D1*
M02*
